<?xml version="1.0" standalone="no"?>
<!DOCTYPE svg PUBLIC "-//W3C//DTD SVG 20010904//EN"
 "http://www.w3.org/TR/2001/REC-SVG-20010904/DTD/svg10.dtd">
<svg version="1.0" xmlns="http://www.w3.org/2000/svg"
 width="512.000000pt" height="512.000000pt" viewBox="0 0 512.000000 512.000000"
 preserveAspectRatio="xMidYMid meet">
<metadata>
Created by potrace 1.14, written by Peter Selinger 2001-2017
</metadata>
<g transform="translate(0.000000,512.000000) scale(0.100000,-0.100000)"
fill="#000000" stroke="none">
<path d="M2060 4323 c-105 -30 -237 -83 -338 -135 -71 -37 -232 -138 -258
-163 -6 -5 -29 -23 -50 -40 -53 -40 -211 -198 -261 -260 -205 -254 -322 -525
-388 -895 -11 -58 -14 -381 -5 -440 5 -30 11 -73 14 -95 4 -33 11 -70 30 -150
2 -5 8 -29 15 -53 l12 -43 32 20 c18 10 48 28 67 39 19 10 94 53 165 94 72 42
200 116 285 165 l155 90 1 114 c2 193 28 311 104 464 102 207 248 355 460 467
l65 34 0 407 c0 271 -3 407 -10 406 -5 -1 -48 -12 -95 -26z"/>
<path d="M2949 4328 c0 -33 0 -716 0 -760 1 -34 5 -38 54 -62 136 -66 226
-136 337 -262 88 -100 178 -275 209 -409 6 -27 14 -61 17 -75 4 -14 8 -85 9
-158 2 -74 7 -137 11 -142 8 -7 114 -70 229 -135 22 -13 123 -71 225 -130 208
-121 232 -135 241 -135 7 0 44 147 53 205 24 160 29 217 28 325 -4 370 -105
701 -305 1000 -75 112 -119 164 -241 285 -208 205 -438 345 -716 433 -147 46
-150 46 -151 20z"/>
<path d="M2465 2966 c-201 -49 -329 -246 -292 -450 37 -210 245 -353 456 -314
109 20 230 111 278 209 53 107 53 236 0 349 -32 68 -112 144 -189 180 -77 36
-171 46 -253 26z"/>
<path d="M1877 1750 c-26 -17 -50 -30 -53 -30 -3 0 -18 -8 -32 -19 -15 -10
-49 -31 -77 -45 -27 -15 -63 -35 -80 -45 -16 -10 -117 -68 -223 -129 l-193
-110 58 -59 c62 -62 120 -114 168 -150 93 -70 124 -93 129 -93 3 0 25 -14 50
-30 134 -91 400 -192 601 -230 139 -26 397 -34 546 -18 201 22 507 120 641
204 21 13 40 24 43 24 10 0 122 75 196 131 82 62 239 206 239 219 0 6 -569
340 -693 407 -4 3 -29 -11 -55 -29 -233 -166 -539 -223 -832 -154 -113 26
-260 95 -366 171 -18 14 -24 12 -67 -15z"/>
</g>
</svg>
