<svg width="893" height="460" viewBox="0 0 893 460" fill="none" xmlns="http://www.w3.org/2000/svg">
<path d="M892.249 22H78V460H892.249V22Z" fill="#0A74E6" fill-opacity="0.05"/>
<path d="M12 1H792.954C799.029 1 803.954 5.92486 803.954 12V421C803.954 427.075 799.029 432 792.954 432H12C5.92485 432 1 427.075 1 421V12C1 5.92486 5.92487 1 12 1Z" fill="white" stroke="#565656" stroke-width="2"/>
<path d="M152.615 61.0464H145.516V72.4038H152.615V61.0464Z" fill="#565656"/>
<path d="M176.749 58.2065H169.651V69.5639H176.749V58.2065Z" fill="#565656"/>
<path d="M189.526 58.2065H182.428V69.5639H189.526V58.2065Z" fill="#565656"/>
<path d="M189.526 92.2788H182.428V103.636H189.526V92.2788Z" fill="#565656"/>
<path d="M203.723 75.2427H196.625V86.6001H203.723V75.2427Z" fill="#565656"/>
<path d="M203.723 93.6982H196.625V105.056H203.723V93.6982Z" fill="#565656"/>
<path d="M189.526 129.19H182.428V140.547H189.526V129.19Z" fill="#565656"/>
<path d="M203.723 147.646H196.625V159.003H203.723V147.646Z" fill="#565656"/>
<path d="M189.526 217.21H182.428V228.567H189.526V217.21Z" fill="#565656"/>
<path d="M176.749 147.646H169.651V159.003H176.749V147.646Z" fill="#565656"/>
<path d="M152.615 79.502H145.516V90.8593H152.615V79.502Z" fill="#565656"/>
<path d="M152.615 256.961H145.516V268.318H152.615V256.961Z" fill="#565656"/>
<path d="M152.615 293.872H145.516V305.229H152.615V293.872Z" fill="#565656"/>
<path d="M152.615 312.328H145.516V323.685H152.615V312.328Z" fill="#565656"/>
<path d="M152.615 99.377H142.677V100.797H152.615V99.377Z" fill="#565656"/>
<path d="M190.946 116.413H181.008V117.833H190.946V116.413Z" fill="#565656"/>
<path d="M152.615 190.236H142.677V191.656H152.615V190.236Z" fill="#565656"/>
<path d="M152.615 205.853H142.677V207.272H152.615V205.853Z" fill="#565656"/>
<path d="M190.946 296.712H181.008V298.132H190.946V296.712Z" fill="#565656"/>
<path d="M179.589 330.784H169.651V332.204H179.589V330.784Z" fill="#565656"/>
<path d="M145.516 112.154V114.993H148.355V120.672H145.516V123.511H152.615V112.154H145.516Z" fill="#565656"/>
<path d="M169.651 92.2788V95.1178H172.49V100.797H169.651V103.636H176.75V92.2788H169.651Z" fill="#565656"/>
<path d="M196.625 110.734V113.574H199.464V119.253H196.625V122.092H203.723V110.734H196.625Z" fill="#565656"/>
<path d="M196.625 166.102V168.941H199.464V174.619H196.625V177.458H203.723V166.102H196.625Z" fill="#565656"/>
<path d="M196.625 184.557V187.397H199.464V193.076H196.625V195.915H203.723V184.557H196.625Z" fill="#565656"/>
<path d="M196.625 127.771V130.609H199.464V136.288H196.625V139.128H203.723V127.771H196.625Z" fill="#565656"/>
<path d="M182.427 75.2427V78.0826H185.267V83.7605H182.427V86.6003H189.527V75.2427H182.427Z" fill="#565656"/>
<path d="M189.526 166.102H182.428V177.459H189.526V166.102Z" fill="#565656"/>
<path d="M189.526 200.174H182.428V211.531H189.526V200.174Z" fill="#565656"/>
<path d="M182.427 183.138V185.977H185.267V191.655H182.427V194.495H189.527V183.138H182.427Z" fill="#565656"/>
<path d="M169.651 110.734V113.574H172.49V119.253H169.651V122.092H176.75V110.734H169.651Z" fill="#565656"/>
<path d="M169.651 129.19V132.03H172.49V137.708H169.651V140.548H176.75V129.19H169.651Z" fill="#565656"/>
<path d="M176.749 184.557H169.651V195.915H176.749V184.557Z" fill="#565656"/>
<path d="M169.651 166.102V168.941H172.49V174.619H169.651V177.458H176.75V166.102H169.651Z" fill="#565656"/>
<path d="M176.749 221.469H169.651V232.827H176.749V221.469Z" fill="#565656"/>
<path d="M169.651 203.013V205.852H172.49V211.53H169.651V214.37H176.75V203.013H169.651Z" fill="#565656"/>
<path d="M176.749 258.38H169.651V269.738H176.749V258.38Z" fill="#565656"/>
<path d="M189.526 255.541H182.428V266.898H189.526V255.541Z" fill="#565656"/>
<path d="M169.651 239.924V242.764H172.49V248.443H169.651V251.282H176.75V239.924H169.651Z" fill="#565656"/>
<path d="M196.625 239.924V242.764H199.464V248.443H196.625V251.282H203.723V239.924H196.625Z" fill="#565656"/>
<path d="M276.126 75.2427H269.028V86.6001H276.126V75.2427Z" fill="#565656"/>
<path d="M276.126 93.6982H269.028V105.056H276.126V93.6982Z" fill="#565656"/>
<path d="M276.126 147.646H269.028V159.003H276.126V147.646Z" fill="#565656"/>
<path d="M269.028 110.734V113.574H271.868V119.253H269.028V122.092H276.126V110.734H269.028Z" fill="#565656"/>
<path d="M269.028 166.102V168.941H271.868V174.619H269.028V177.458H276.126V166.102H269.028Z" fill="#565656"/>
<path d="M269.028 184.557V187.397H271.868V193.076H269.028V195.915H276.126V184.557H269.028Z" fill="#565656"/>
<path d="M269.028 127.771V130.609H271.868V136.288H269.028V139.128H276.126V127.771H269.028Z" fill="#565656"/>
<path d="M269.028 239.924V242.764H271.868V248.443H269.028V251.282H276.126V239.924H269.028Z" fill="#565656"/>
<path d="M176.749 295.292H169.651V306.649H176.749V295.292Z" fill="#565656"/>
<path d="M189.526 273.997H182.428V285.354H189.526V273.997Z" fill="#565656"/>
<path d="M176.749 343.561H169.651V354.918H176.749V343.561Z" fill="#565656"/>
<path d="M189.526 309.489H182.428V320.846H189.526V309.489Z" fill="#565656"/>
<path d="M169.651 276.836V279.675H172.49V285.354H169.651V288.194H176.75V276.836H169.651Z" fill="#565656"/>
<path d="M169.651 363.437V366.275H172.49V371.954H169.651V374.793H176.75V363.437H169.651Z" fill="#565656"/>
<path d="M254.831 58.2065H247.733V69.5639H254.831V58.2065Z" fill="#565656"/>
<path d="M254.831 147.646H247.733V159.003H254.831V147.646Z" fill="#565656"/>
<path d="M257.671 330.784H247.733V332.204H257.671V330.784Z" fill="#565656"/>
<path d="M247.733 92.2788V95.1178H250.573V100.797H247.733V103.636H254.831V92.2788H247.733Z" fill="#565656"/>
<path d="M247.733 110.734V113.574H250.573V119.253H247.733V122.092H254.831V110.734H247.733Z" fill="#565656"/>
<path d="M247.733 129.19V132.03H250.573V137.708H247.733V140.548H254.831V129.19H247.733Z" fill="#565656"/>
<path d="M254.831 184.557H247.733V195.915H254.831V184.557Z" fill="#565656"/>
<path d="M247.733 166.102V168.941H250.573V174.619H247.733V177.458H254.831V166.102H247.733Z" fill="#565656"/>
<path d="M254.831 221.469H247.733V232.827H254.831V221.469Z" fill="#565656"/>
<path d="M247.733 203.013V205.852H250.573V211.53H247.733V214.37H254.831V203.013H247.733Z" fill="#565656"/>
<path d="M254.831 258.38H247.733V269.738H254.831V258.38Z" fill="#565656"/>
<path d="M247.733 239.924V242.764H250.573V248.443H247.733V251.282H254.831V239.924H247.733Z" fill="#565656"/>
<path d="M254.831 295.292H247.733V306.649H254.831V295.292Z" fill="#565656"/>
<path d="M254.831 343.561H247.733V354.918H254.831V343.561Z" fill="#565656"/>
<path d="M247.733 276.836V279.675H250.573V285.354H247.733V288.194H254.831V276.836H247.733Z" fill="#565656"/>
<path d="M247.733 363.437V366.275H250.573V371.954H247.733V374.793H254.831V363.437H247.733Z" fill="#565656"/>
<path d="M288.903 58.2065H281.805V69.5639H288.903V58.2065Z" fill="#565656"/>
<path d="M288.903 147.646H281.805V159.003H288.903V147.646Z" fill="#565656"/>
<path d="M291.743 330.784H281.805V332.204H291.743V330.784Z" fill="#565656"/>
<path d="M281.805 92.2788V95.1178H284.645V100.797H281.805V103.636H288.903V92.2788H281.805Z" fill="#565656"/>
<path d="M281.805 110.734V113.574H284.645V119.253H281.805V122.092H288.903V110.734H281.805Z" fill="#565656"/>
<path d="M281.805 129.19V132.03H284.645V137.708H281.805V140.548H288.903V129.19H281.805Z" fill="#565656"/>
<path d="M288.903 184.557H281.805V195.915H288.903V184.557Z" fill="#565656"/>
<path d="M281.805 166.102V168.941H284.645V174.619H281.805V177.458H288.903V166.102H281.805Z" fill="#565656"/>
<path d="M288.903 221.469H281.805V232.827H288.903V221.469Z" fill="#565656"/>
<path d="M281.805 203.013V205.852H284.645V211.53H281.805V214.37H288.903V203.013H281.805Z" fill="#565656"/>
<path d="M288.903 258.38H281.805V269.738H288.903V258.38Z" fill="#565656"/>
<path d="M281.805 239.924V242.764H284.645V248.443H281.805V251.282H288.903V239.924H281.805Z" fill="#565656"/>
<path d="M288.903 295.292H281.805V306.649H288.903V295.292Z" fill="#565656"/>
<path d="M288.903 343.561H281.805V354.918H288.903V343.561Z" fill="#565656"/>
<path d="M281.805 276.836V279.675H284.645V285.354H281.805V288.194H288.903V276.836H281.805Z" fill="#565656"/>
<path d="M281.805 363.437V366.275H284.645V371.954H281.805V374.793H288.903V363.437H281.805Z" fill="#565656"/>
<path d="M182.427 343.561V346.4H185.267V352.079H182.427V354.918H189.527V343.561H182.427Z" fill="#565656"/>
<path d="M182.427 362.017V364.856H185.267V370.534H182.427V373.373H189.527V362.017H182.427Z" fill="#565656"/>
<path d="M145.516 147.646V150.485H148.355V156.164H145.516V159.004H152.615V147.646H145.516Z" fill="#565656"/>
<path d="M145.516 220.05V222.889H148.355V228.568H145.516V231.407H152.615V220.05H145.516Z" fill="#565656"/>
<path d="M145.516 238.504V241.344H148.355V247.023H145.516V249.862H152.615V238.504H145.516Z" fill="#565656"/>
<path d="M145.516 275.417V278.255H148.355V283.934H145.516V286.773H152.615V275.417H145.516Z" fill="#565656"/>
<path d="M145.516 327.944V330.784H148.355V336.463H145.516V339.302H152.615V327.944H145.516Z" fill="#565656"/>
<path d="M145.516 343.561V346.4H148.355V352.079H145.516V354.918H152.615V343.561H145.516Z" fill="#565656"/>
<path d="M226.438 61.0464H219.339V72.4038H226.438V61.0464Z" fill="#565656"/>
<path d="M226.438 79.502H219.339V90.8593H226.438V79.502Z" fill="#565656"/>
<path d="M226.438 99.377H216.5V100.797H226.438V99.377Z" fill="#565656"/>
<path d="M226.438 190.236H216.5V191.656H226.438V190.236Z" fill="#565656"/>
<path d="M226.438 205.853H216.5V207.272H226.438V205.853Z" fill="#565656"/>
<path d="M219.339 112.154V114.993H222.178V120.672H219.339V123.511H226.438V112.154H219.339Z" fill="#565656"/>
<path d="M219.339 147.646V150.485H222.178V156.164H219.339V159.004H226.438V147.646H219.339Z" fill="#565656"/>
<path d="M219.339 220.05V222.889H222.178V228.568H219.339V231.407H226.438V220.05H219.339Z" fill="#565656"/>
<path d="M307.359 184.557H300.261V195.915H307.359V184.557Z" fill="#565656"/>
<path d="M307.359 203.013H300.261V214.37H307.359V203.013Z" fill="#565656"/>
<path d="M307.359 222.889H297.421V224.308H307.359V222.889Z" fill="#565656"/>
<path d="M307.359 313.748H297.421V315.168H307.359V313.748Z" fill="#565656"/>
<path d="M307.359 329.364H297.421V330.783H307.359V329.364Z" fill="#565656"/>
<path d="M300.261 235.666V238.504H303.1V244.183H300.261V247.023H307.359V235.666H300.261Z" fill="#565656"/>
<path d="M300.261 271.157V273.997H303.1V279.675H300.261V282.515H307.359V271.157H300.261Z" fill="#565656"/>
<path d="M300.261 343.561V346.4H303.1V352.079H300.261V354.918H307.359V343.561H300.261Z" fill="#565656"/>
<path d="M330.074 61.0464H322.975V72.4038H330.074V61.0464Z" fill="#565656"/>
<path d="M354.208 58.2065H347.11V69.5639H354.208V58.2065Z" fill="#565656"/>
<path d="M366.985 58.2065H359.887V69.5639H366.985V58.2065Z" fill="#565656"/>
<path d="M366.985 92.2788H359.887V103.636H366.985V92.2788Z" fill="#565656"/>
<path d="M381.182 75.2427H374.084V86.6001H381.182V75.2427Z" fill="#565656"/>
<path d="M381.182 93.6982H374.084V105.056H381.182V93.6982Z" fill="#565656"/>
<path d="M366.985 129.19H359.887V140.547H366.985V129.19Z" fill="#565656"/>
<path d="M381.182 147.646H374.084V159.003H381.182V147.646Z" fill="#565656"/>
<path d="M366.985 217.21H359.887V228.567H366.985V217.21Z" fill="#565656"/>
<path d="M354.208 147.646H347.11V159.003H354.208V147.646Z" fill="#565656"/>
<path d="M330.074 79.502H322.975V90.8593H330.074V79.502Z" fill="#565656"/>
<path d="M330.074 256.961H322.975V268.318H330.074V256.961Z" fill="#565656"/>
<path d="M330.074 293.872H322.975V305.229H330.074V293.872Z" fill="#565656"/>
<path d="M330.074 312.328H322.975V323.685H330.074V312.328Z" fill="#565656"/>
<path d="M330.074 99.377H320.136V100.797H330.074V99.377Z" fill="#565656"/>
<path d="M368.405 116.413H358.467V117.833H368.405V116.413Z" fill="#565656"/>
<path d="M330.074 190.236H320.136V191.656H330.074V190.236Z" fill="#565656"/>
<path d="M330.074 205.853H320.136V207.272H330.074V205.853Z" fill="#565656"/>
<path d="M368.405 296.712H358.467V298.132H368.405V296.712Z" fill="#565656"/>
<path d="M357.048 330.784H347.11V332.204H357.048V330.784Z" fill="#565656"/>
<path d="M322.975 112.154V114.993H325.815V120.672H322.975V123.511H330.073V112.154H322.975Z" fill="#565656"/>
<path d="M347.11 92.2788V95.1178H349.949V100.797H347.11V103.636H354.208V92.2788H347.11Z" fill="#565656"/>
<path d="M374.084 110.734V113.574H376.923V119.253H374.084V122.092H381.182V110.734H374.084Z" fill="#565656"/>
<path d="M374.084 166.102V168.941H376.923V174.619H374.084V177.458H381.182V166.102H374.084Z" fill="#565656"/>
<path d="M374.084 184.557V187.397H376.923V193.076H374.084V195.915H381.182V184.557H374.084Z" fill="#565656"/>
<path d="M374.084 127.771V130.609H376.923V136.288H374.084V139.128H381.182V127.771H374.084Z" fill="#565656"/>
<path d="M359.887 75.2427V78.0826H362.726V83.7605H359.887V86.6003H366.985V75.2427H359.887Z" fill="#565656"/>
<path d="M366.985 166.102H359.887V177.459H366.985V166.102Z" fill="#565656"/>
<path d="M366.985 200.174H359.887V211.531H366.985V200.174Z" fill="#565656"/>
<path d="M359.887 183.138V185.977H362.726V191.655H359.887V194.495H366.985V183.138H359.887Z" fill="#565656"/>
<path d="M347.11 110.734V113.574H349.949V119.253H347.11V122.092H354.208V110.734H347.11Z" fill="#565656"/>
<path d="M347.11 129.19V132.03H349.949V137.708H347.11V140.548H354.208V129.19H347.11Z" fill="#565656"/>
<path d="M354.208 184.557H347.11V195.915H354.208V184.557Z" fill="#565656"/>
<path d="M347.11 166.102V168.941H349.949V174.619H347.11V177.458H354.208V166.102H347.11Z" fill="#565656"/>
<path d="M354.208 221.469H347.11V232.827H354.208V221.469Z" fill="#565656"/>
<path d="M347.11 203.013V205.852H349.949V211.53H347.11V214.37H354.208V203.013H347.11Z" fill="#565656"/>
<path d="M354.208 258.38H347.11V269.738H354.208V258.38Z" fill="#565656"/>
<path d="M366.985 255.541H359.887V266.898H366.985V255.541Z" fill="#565656"/>
<path d="M347.11 239.924V242.764H349.949V248.443H347.11V251.282H354.208V239.924H347.11Z" fill="#565656"/>
<path d="M374.084 239.924V242.764H376.923V248.443H374.084V251.282H381.182V239.924H374.084Z" fill="#565656"/>
<path d="M453.585 75.2427H446.487V86.6001H453.585V75.2427Z" fill="#565656"/>
<path d="M453.585 93.6982H446.487V105.056H453.585V93.6982Z" fill="#565656"/>
<path d="M453.585 147.646H446.487V159.003H453.585V147.646Z" fill="#565656"/>
<path d="M446.487 110.734V113.574H449.326V119.253H446.487V122.092H453.586V110.734H446.487Z" fill="#565656"/>
<path d="M446.487 166.102V168.941H449.326V174.619H446.487V177.458H453.586V166.102H446.487Z" fill="#565656"/>
<path d="M446.487 184.557V187.397H449.326V193.076H446.487V195.915H453.586V184.557H446.487Z" fill="#565656"/>
<path d="M446.487 127.771V130.609H449.326V136.288H446.487V139.128H453.586V127.771H446.487Z" fill="#565656"/>
<path d="M446.487 239.924V242.764H449.326V248.443H446.487V251.282H453.586V239.924H446.487Z" fill="#565656"/>
<path d="M354.208 295.292H347.11V306.649H354.208V295.292Z" fill="#565656"/>
<path d="M366.985 273.997H359.887V285.354H366.985V273.997Z" fill="#565656"/>
<path d="M354.208 343.561H347.11V354.918H354.208V343.561Z" fill="#565656"/>
<path d="M366.985 309.489H359.887V320.846H366.985V309.489Z" fill="#565656"/>
<path d="M347.11 276.836V279.675H349.949V285.354H347.11V288.194H354.208V276.836H347.11Z" fill="#565656"/>
<path d="M347.11 363.437V366.275H349.949V371.954H347.11V374.793H354.208V363.437H347.11Z" fill="#565656"/>
<path d="M432.29 58.2065H425.192V69.5639H432.29V58.2065Z" fill="#565656"/>
<path d="M432.29 147.646H425.192V159.003H432.29V147.646Z" fill="#565656"/>
<path d="M435.13 330.784H425.192V332.204H435.13V330.784Z" fill="#565656"/>
<path d="M425.191 92.2788V95.1178H428.031V100.797H425.191V103.636H432.29V92.2788H425.191Z" fill="#565656"/>
<path d="M425.191 110.734V113.574H428.031V119.253H425.191V122.092H432.29V110.734H425.191Z" fill="#565656"/>
<path d="M425.191 129.19V132.03H428.031V137.708H425.191V140.548H432.29V129.19H425.191Z" fill="#565656"/>
<path d="M432.29 184.557H425.192V195.915H432.29V184.557Z" fill="#565656"/>
<path d="M425.191 166.102V168.941H428.031V174.619H425.191V177.458H432.29V166.102H425.191Z" fill="#565656"/>
<path d="M432.29 221.469H425.192V232.827H432.29V221.469Z" fill="#565656"/>
<path d="M425.191 203.013V205.852H428.031V211.53H425.191V214.37H432.29V203.013H425.191Z" fill="#565656"/>
<path d="M432.29 258.38H425.192V269.738H432.29V258.38Z" fill="#565656"/>
<path d="M425.191 239.924V242.764H428.031V248.443H425.191V251.282H432.29V239.924H425.191Z" fill="#565656"/>
<path d="M432.29 295.292H425.192V306.649H432.29V295.292Z" fill="#565656"/>
<path d="M432.29 343.561H425.192V354.918H432.29V343.561Z" fill="#565656"/>
<path d="M425.191 276.836V279.675H428.031V285.354H425.191V288.194H432.29V276.836H425.191Z" fill="#565656"/>
<path d="M425.191 363.437V366.275H428.031V371.954H425.191V374.793H432.29V363.437H425.191Z" fill="#565656"/>
<path d="M466.362 58.2065H459.264V69.5639H466.362V58.2065Z" fill="#565656"/>
<path d="M466.362 147.646H459.264V159.003H466.362V147.646Z" fill="#565656"/>
<path d="M469.202 330.784H459.264V332.204H469.202V330.784Z" fill="#565656"/>
<path d="M459.264 92.2788V95.1178H462.103V100.797H459.264V103.636H466.362V92.2788H459.264Z" fill="#565656"/>
<path d="M459.264 110.734V113.574H462.103V119.253H459.264V122.092H466.362V110.734H459.264Z" fill="#565656"/>
<path d="M459.264 129.19V132.03H462.103V137.708H459.264V140.548H466.362V129.19H459.264Z" fill="#565656"/>
<path d="M466.362 184.557H459.264V195.915H466.362V184.557Z" fill="#565656"/>
<path d="M459.264 166.102V168.941H462.103V174.619H459.264V177.458H466.362V166.102H459.264Z" fill="#565656"/>
<path d="M466.362 221.469H459.264V232.827H466.362V221.469Z" fill="#565656"/>
<path d="M459.264 203.013V205.852H462.103V211.53H459.264V214.37H466.362V203.013H459.264Z" fill="#565656"/>
<path d="M466.362 258.38H459.264V269.738H466.362V258.38Z" fill="#565656"/>
<path d="M459.264 239.924V242.764H462.103V248.443H459.264V251.282H466.362V239.924H459.264Z" fill="#565656"/>
<path d="M466.362 295.292H459.264V306.649H466.362V295.292Z" fill="#565656"/>
<path d="M466.362 343.561H459.264V354.918H466.362V343.561Z" fill="#565656"/>
<path d="M459.264 276.836V279.675H462.103V285.354H459.264V288.194H466.362V276.836H459.264Z" fill="#565656"/>
<path d="M459.264 363.437V366.275H462.103V371.954H459.264V374.793H466.362V363.437H459.264Z" fill="#565656"/>
<path d="M359.887 343.561V346.4H362.726V352.079H359.887V354.918H366.985V343.561H359.887Z" fill="#565656"/>
<path d="M359.887 362.017V364.856H362.726V370.534H359.887V373.373H366.985V362.017H359.887Z" fill="#565656"/>
<path d="M322.975 147.646V150.485H325.815V156.164H322.975V159.004H330.073V147.646H322.975Z" fill="#565656"/>
<path d="M322.975 220.05V222.889H325.815V228.568H322.975V231.407H330.073V220.05H322.975Z" fill="#565656"/>
<path d="M322.975 238.504V241.344H325.815V247.023H322.975V249.862H330.073V238.504H322.975Z" fill="#565656"/>
<path d="M322.975 275.417V278.255H325.815V283.934H322.975V286.773H330.073V275.417H322.975Z" fill="#565656"/>
<path d="M322.975 327.944V330.784H325.815V336.463H322.975V339.302H330.073V327.944H322.975Z" fill="#565656"/>
<path d="M322.975 343.561V346.4H325.815V352.079H322.975V354.918H330.073V343.561H322.975Z" fill="#565656"/>
<path d="M403.897 61.0464H396.798V72.4038H403.897V61.0464Z" fill="#565656"/>
<path d="M403.897 79.502H396.798V90.8593H403.897V79.502Z" fill="#565656"/>
<path d="M403.897 99.377H393.959V100.797H403.897V99.377Z" fill="#565656"/>
<path d="M403.897 190.236H393.959V191.656H403.897V190.236Z" fill="#565656"/>
<path d="M403.897 205.853H393.959V207.272H403.897V205.853Z" fill="#565656"/>
<path d="M396.798 112.154V114.993H399.638V120.672H396.798V123.511H403.897V112.154H396.798Z" fill="#565656"/>
<path d="M396.798 147.646V150.485H399.638V156.164H396.798V159.004H403.897V147.646H396.798Z" fill="#565656"/>
<path d="M396.798 220.05V222.889H399.638V228.568H396.798V231.407H403.897V220.05H396.798Z" fill="#565656"/>
<path d="M484.818 184.557H477.72V195.915H484.818V184.557Z" fill="#565656"/>
<path d="M484.818 203.013H477.72V214.37H484.818V203.013Z" fill="#565656"/>
<path d="M484.818 222.889H474.88V224.308H484.818V222.889Z" fill="#565656"/>
<path d="M484.818 313.748H474.88V315.168H484.818V313.748Z" fill="#565656"/>
<path d="M484.818 329.364H474.88V330.783H484.818V329.364Z" fill="#565656"/>
<path d="M477.72 235.666V238.504H480.56V244.183H477.72V247.023H484.818V235.666H477.72Z" fill="#565656"/>
<path d="M477.72 271.157V273.997H480.56V279.675H477.72V282.515H484.818V271.157H477.72Z" fill="#565656"/>
<path d="M477.72 343.561V346.4H480.56V352.079H477.72V354.918H484.818V343.561H477.72Z" fill="#565656"/>
<path d="M507.533 61.0464H500.434V72.4038H507.533V61.0464Z" fill="#565656"/>
<path d="M531.667 58.2065H524.569V69.5639H531.667V58.2065Z" fill="#565656"/>
<path d="M544.444 58.2065H537.346V69.5639H544.444V58.2065Z" fill="#565656"/>
<path d="M544.444 92.2788H537.346V103.636H544.444V92.2788Z" fill="#565656"/>
<path d="M558.641 75.2427H551.543V86.6001H558.641V75.2427Z" fill="#565656"/>
<path d="M558.641 93.6982H551.543V105.056H558.641V93.6982Z" fill="#565656"/>
<path d="M544.444 129.19H537.346V140.547H544.444V129.19Z" fill="#565656"/>
<path d="M558.641 147.646H551.543V159.003H558.641V147.646Z" fill="#565656"/>
<path d="M544.444 217.21H537.346V228.567H544.444V217.21Z" fill="#565656"/>
<path d="M531.667 147.646H524.569V159.003H531.667V147.646Z" fill="#565656"/>
<path d="M507.533 79.502H500.434V90.8593H507.533V79.502Z" fill="#565656"/>
<path d="M507.533 256.961H500.434V268.318H507.533V256.961Z" fill="#565656"/>
<path d="M507.533 293.872H500.434V305.229H507.533V293.872Z" fill="#565656"/>
<path d="M507.533 312.328H500.434V323.685H507.533V312.328Z" fill="#565656"/>
<path d="M507.533 99.377H497.595V100.797H507.533V99.377Z" fill="#565656"/>
<path d="M545.864 116.413H535.926V117.833H545.864V116.413Z" fill="#565656"/>
<path d="M507.533 190.236H497.595V191.656H507.533V190.236Z" fill="#565656"/>
<path d="M507.533 205.853H497.595V207.272H507.533V205.853Z" fill="#565656"/>
<path d="M545.864 296.712H535.926V298.132H545.864V296.712Z" fill="#565656"/>
<path d="M534.507 330.784H524.569V332.204H534.507V330.784Z" fill="#565656"/>
<path d="M500.434 112.154V114.993H503.274V120.672H500.434V123.511H507.533V112.154H500.434Z" fill="#565656"/>
<path d="M524.569 92.2788V95.1178H527.408V100.797H524.569V103.636H531.667V92.2788H524.569Z" fill="#565656"/>
<path d="M551.543 110.734V113.574H554.382V119.253H551.543V122.092H558.641V110.734H551.543Z" fill="#565656"/>
<path d="M551.543 166.102V168.941H554.382V174.619H551.543V177.458H558.641V166.102H551.543Z" fill="#565656"/>
<path d="M551.543 184.557V187.397H554.382V193.076H551.543V195.915H558.641V184.557H551.543Z" fill="#565656"/>
<path d="M551.543 127.771V130.609H554.382V136.288H551.543V139.128H558.641V127.771H551.543Z" fill="#565656"/>
<path d="M537.346 75.2427V78.0826H540.185V83.7605H537.346V86.6003H544.444V75.2427H537.346Z" fill="#565656"/>
<path d="M544.444 166.102H537.346V177.459H544.444V166.102Z" fill="#565656"/>
<path d="M544.444 200.174H537.346V211.531H544.444V200.174Z" fill="#565656"/>
<path d="M537.346 183.138V185.977H540.185V191.655H537.346V194.495H544.444V183.138H537.346Z" fill="#565656"/>
<path d="M524.569 110.734V113.574H527.408V119.253H524.569V122.092H531.667V110.734H524.569Z" fill="#565656"/>
<path d="M524.569 129.19V132.03H527.408V137.708H524.569V140.548H531.667V129.19H524.569Z" fill="#565656"/>
<path d="M531.667 184.557H524.569V195.915H531.667V184.557Z" fill="#565656"/>
<path d="M524.569 166.102V168.941H527.408V174.619H524.569V177.458H531.667V166.102H524.569Z" fill="#565656"/>
<path d="M531.667 221.469H524.569V232.827H531.667V221.469Z" fill="#565656"/>
<path d="M524.569 203.013V205.852H527.408V211.53H524.569V214.37H531.667V203.013H524.569Z" fill="#565656"/>
<path d="M531.667 258.38H524.569V269.738H531.667V258.38Z" fill="#565656"/>
<path d="M544.444 255.541H537.346V266.898H544.444V255.541Z" fill="#565656"/>
<path d="M524.569 239.924V242.764H527.408V248.443H524.569V251.282H531.667V239.924H524.569Z" fill="#565656"/>
<path d="M551.543 239.924V242.764H554.382V248.443H551.543V251.282H558.641V239.924H551.543Z" fill="#565656"/>
<path d="M631.044 75.2427H623.946V86.6001H631.044V75.2427Z" fill="#565656"/>
<path d="M631.044 93.6982H623.946V105.056H631.044V93.6982Z" fill="#565656"/>
<path d="M631.044 147.646H623.946V159.003H631.044V147.646Z" fill="#565656"/>
<path d="M623.946 110.734V113.574H626.785V119.253H623.946V122.092H631.044V110.734H623.946Z" fill="#565656"/>
<path d="M623.946 166.102V168.941H626.785V174.619H623.946V177.458H631.044V166.102H623.946Z" fill="#565656"/>
<path d="M623.946 184.557V187.397H626.785V193.076H623.946V195.915H631.044V184.557H623.946Z" fill="#565656"/>
<path d="M623.946 127.771V130.609H626.785V136.288H623.946V139.128H631.044V127.771H623.946Z" fill="#565656"/>
<path d="M623.946 239.924V242.764H626.785V248.443H623.946V251.282H631.044V239.924H623.946Z" fill="#565656"/>
<path d="M531.667 295.292H524.569V306.649H531.667V295.292Z" fill="#565656"/>
<path d="M544.444 273.997H537.346V285.354H544.444V273.997Z" fill="#565656"/>
<path d="M531.667 343.561H524.569V354.918H531.667V343.561Z" fill="#565656"/>
<path d="M544.444 309.489H537.346V320.846H544.444V309.489Z" fill="#565656"/>
<path d="M524.569 276.836V279.675H527.408V285.354H524.569V288.194H531.667V276.836H524.569Z" fill="#565656"/>
<path d="M524.569 363.437V366.275H527.408V371.954H524.569V374.793H531.667V363.437H524.569Z" fill="#565656"/>
<path d="M609.749 58.2065H602.651V69.5639H609.749V58.2065Z" fill="#565656"/>
<path d="M609.749 147.646H602.651V159.003H609.749V147.646Z" fill="#565656"/>
<path d="M612.588 330.784H602.651V332.204H612.588V330.784Z" fill="#565656"/>
<path d="M602.651 92.2788V95.1178H605.49V100.797H602.651V103.636H609.75V92.2788H602.651Z" fill="#565656"/>
<path d="M602.651 110.734V113.574H605.49V119.253H602.651V122.092H609.75V110.734H602.651Z" fill="#565656"/>
<path d="M602.651 129.19V132.03H605.49V137.708H602.651V140.548H609.75V129.19H602.651Z" fill="#565656"/>
<path d="M609.749 184.557H602.651V195.915H609.749V184.557Z" fill="#565656"/>
<path d="M602.651 166.102V168.941H605.49V174.619H602.651V177.458H609.75V166.102H602.651Z" fill="#565656"/>
<path d="M609.749 221.469H602.651V232.827H609.749V221.469Z" fill="#565656"/>
<path d="M602.651 203.013V205.852H605.49V211.53H602.651V214.37H609.75V203.013H602.651Z" fill="#565656"/>
<path d="M609.749 258.38H602.651V269.738H609.749V258.38Z" fill="#565656"/>
<path d="M602.651 239.924V242.764H605.49V248.443H602.651V251.282H609.75V239.924H602.651Z" fill="#565656"/>
<path d="M609.749 295.292H602.651V306.649H609.749V295.292Z" fill="#565656"/>
<path d="M609.749 343.561H602.651V354.918H609.749V343.561Z" fill="#565656"/>
<path d="M602.651 276.836V279.675H605.49V285.354H602.651V288.194H609.75V276.836H602.651Z" fill="#565656"/>
<path d="M602.651 363.437V366.275H605.49V371.954H602.651V374.793H609.75V363.437H602.651Z" fill="#565656"/>
<path d="M643.821 58.2065H636.723V69.5639H643.821V58.2065Z" fill="#565656"/>
<path d="M643.821 147.646H636.723V159.003H643.821V147.646Z" fill="#565656"/>
<path d="M646.661 330.784H636.723V332.204H646.661V330.784Z" fill="#565656"/>
<path d="M636.723 92.2788V95.1178H639.562V100.797H636.723V103.636H643.822V92.2788H636.723Z" fill="#565656"/>
<path d="M636.723 110.734V113.574H639.562V119.253H636.723V122.092H643.822V110.734H636.723Z" fill="#565656"/>
<path d="M636.723 129.19V132.03H639.562V137.708H636.723V140.548H643.822V129.19H636.723Z" fill="#565656"/>
<path d="M643.821 184.557H636.723V195.915H643.821V184.557Z" fill="#565656"/>
<path d="M636.723 166.102V168.941H639.562V174.619H636.723V177.458H643.822V166.102H636.723Z" fill="#565656"/>
<path d="M643.821 221.469H636.723V232.827H643.821V221.469Z" fill="#565656"/>
<path d="M636.723 203.013V205.852H639.562V211.53H636.723V214.37H643.822V203.013H636.723Z" fill="#565656"/>
<path d="M643.821 258.38H636.723V269.738H643.821V258.38Z" fill="#565656"/>
<path d="M636.723 239.924V242.764H639.562V248.443H636.723V251.282H643.822V239.924H636.723Z" fill="#565656"/>
<path d="M643.821 295.292H636.723V306.649H643.821V295.292Z" fill="#565656"/>
<path d="M643.821 343.561H636.723V354.918H643.821V343.561Z" fill="#565656"/>
<path d="M636.723 276.836V279.675H639.562V285.354H636.723V288.194H643.822V276.836H636.723Z" fill="#565656"/>
<path d="M636.723 363.437V366.275H639.562V371.954H636.723V374.793H643.822V363.437H636.723Z" fill="#565656"/>
<path d="M537.346 343.561V346.4H540.185V352.079H537.346V354.918H544.444V343.561H537.346Z" fill="#565656"/>
<path d="M537.346 362.017V364.856H540.185V370.534H537.346V373.373H544.444V362.017H537.346Z" fill="#565656"/>
<path d="M500.434 147.646V150.485H503.274V156.164H500.434V159.004H507.533V147.646H500.434Z" fill="#565656"/>
<path d="M500.434 220.05V222.889H503.274V228.568H500.434V231.407H507.533V220.05H500.434Z" fill="#565656"/>
<path d="M500.434 238.504V241.344H503.274V247.023H500.434V249.862H507.533V238.504H500.434Z" fill="#565656"/>
<path d="M500.434 275.417V278.255H503.274V283.934H500.434V286.773H507.533V275.417H500.434Z" fill="#565656"/>
<path d="M500.434 327.944V330.784H503.274V336.463H500.434V339.302H507.533V327.944H500.434Z" fill="#565656"/>
<path d="M500.434 343.561V346.4H503.274V352.079H500.434V354.918H507.533V343.561H500.434Z" fill="#565656"/>
<path d="M581.356 61.0464H574.257V72.4038H581.356V61.0464Z" fill="#565656"/>
<path d="M581.356 79.502H574.257V90.8593H581.356V79.502Z" fill="#565656"/>
<path d="M581.356 99.377H571.418V100.797H581.356V99.377Z" fill="#565656"/>
<path d="M581.356 190.236H571.418V191.656H581.356V190.236Z" fill="#565656"/>
<path d="M581.356 205.853H571.418V207.272H581.356V205.853Z" fill="#565656"/>
<path d="M574.257 112.154V114.993H577.097V120.672H574.257V123.511H581.355V112.154H574.257Z" fill="#565656"/>
<path d="M574.257 147.646V150.485H577.097V156.164H574.257V159.004H581.355V147.646H574.257Z" fill="#565656"/>
<path d="M574.257 220.05V222.889H577.097V228.568H574.257V231.407H581.355V220.05H574.257Z" fill="#565656"/>
<path d="M662.277 184.557H655.179V195.915H662.277V184.557Z" fill="#565656"/>
<path d="M662.277 203.013H655.179V214.37H662.277V203.013Z" fill="#565656"/>
<path d="M662.277 222.889H652.339V224.308H662.277V222.889Z" fill="#565656"/>
<path d="M662.277 313.748H652.339V315.168H662.277V313.748Z" fill="#565656"/>
<path d="M662.277 329.364H652.339V330.783H662.277V329.364Z" fill="#565656"/>
<path d="M655.178 235.666V238.504H658.018V244.183H655.178V247.023H662.277V235.666H655.178Z" fill="#565656"/>
<path d="M655.178 271.157V273.997H658.018V279.675H655.178V282.515H662.277V271.157H655.178Z" fill="#565656"/>
<path d="M655.178 343.561V346.4H658.018V352.079H655.178V354.918H662.277V343.561H655.178Z" fill="#565656"/>
</svg>
