<svg width="888" height="512" viewBox="0 0 888 512" fill="none" xmlns="http://www.w3.org/2000/svg">
<rect x="344" y="59.6392" width="199" height="385" rx="18" stroke="black" stroke-width="2"/>
<rect x="358" y="75.6392" width="171" height="355" rx="15" fill="#0A74E6" fill-opacity="0.1"/>
<path d="M412.461 310.792H398.539C397.924 310.791 397.334 310.546 396.899 310.111C396.464 309.677 396.22 309.087 396.219 308.472V298.528C396.22 297.913 396.464 297.323 396.899 296.888C397.334 296.453 397.924 296.208 398.539 296.208H412.461C413.076 296.208 413.666 296.453 414.101 296.888C414.536 297.323 414.78 297.913 414.781 298.528V308.472C414.78 309.087 414.536 309.677 414.101 310.111C413.666 310.546 413.076 310.791 412.461 310.792ZM398.539 297.533C398.276 297.534 398.023 297.639 397.836 297.825C397.65 298.011 397.545 298.264 397.545 298.528V308.472C397.545 308.735 397.65 308.988 397.836 309.174C398.023 309.361 398.276 309.466 398.539 309.466H412.461C412.724 309.466 412.977 309.361 413.164 309.174C413.35 308.988 413.455 308.735 413.455 308.472V298.528C413.455 298.264 413.35 298.011 413.164 297.825C412.977 297.639 412.724 297.534 412.461 297.533L398.539 297.533Z" fill="#565656" fill-opacity="0.1"/>
<path d="M405.5 304.826C405.353 304.826 405.209 304.777 405.093 304.686L399.127 300.045C399.058 299.992 399 299.926 398.957 299.85C398.914 299.774 398.887 299.691 398.876 299.604C398.865 299.518 398.871 299.43 398.895 299.346C398.918 299.262 398.957 299.184 399.01 299.115C399.064 299.046 399.13 298.989 399.206 298.946C399.282 298.903 399.365 298.875 399.452 298.864C399.538 298.854 399.626 298.86 399.709 298.883C399.793 298.906 399.872 298.945 399.941 298.999L405.5 303.323L411.059 298.999C411.128 298.945 411.207 298.906 411.291 298.883C411.375 298.86 411.462 298.854 411.549 298.864C411.635 298.875 411.718 298.903 411.794 298.946C411.87 298.989 411.936 299.046 411.99 299.115C412.043 299.184 412.082 299.262 412.106 299.346C412.129 299.43 412.135 299.518 412.124 299.604C412.113 299.691 412.086 299.774 412.043 299.85C412 299.926 411.942 299.992 411.873 300.045L405.907 304.686C405.791 304.777 405.647 304.826 405.5 304.826Z" fill="#565656" fill-opacity="0.1"/>
<path d="M405.5 320C402.237 320 399.046 319.032 396.333 317.219C393.62 315.406 391.505 312.829 390.256 309.814C389.007 306.799 388.68 303.482 389.317 300.281C389.954 297.08 391.525 294.14 393.833 291.833C396.14 289.525 399.08 287.954 402.281 287.317C405.482 286.68 408.799 287.007 411.814 288.256C414.829 289.505 417.406 291.62 419.219 294.333C421.032 297.046 422 300.237 422 303.5C421.995 307.875 420.255 312.069 417.162 315.162C414.069 318.255 409.875 319.995 405.5 320ZM405.5 287.733C402.382 287.733 399.333 288.658 396.741 290.391C394.148 292.123 392.127 294.585 390.934 297.466C389.74 300.347 389.428 303.518 390.036 306.576C390.645 309.634 392.146 312.444 394.351 314.649C396.556 316.854 399.366 318.355 402.424 318.964C405.483 319.572 408.653 319.26 411.534 318.066C414.415 316.873 416.877 314.852 418.61 312.259C420.342 309.667 421.267 306.618 421.267 303.5C421.262 299.32 419.599 295.312 416.644 292.357C413.688 289.401 409.68 287.738 405.5 287.733Z" fill="#565656" fill-opacity="0.1"/>
<path d="M864.929 196.214C864.802 196.214 864.677 196.177 864.572 196.106C864.466 196.035 864.384 195.935 864.335 195.818C864.286 195.7 864.274 195.571 864.298 195.446C864.323 195.322 864.384 195.207 864.474 195.117L868.653 190.939C868.774 190.82 868.937 190.753 869.106 190.754C869.276 190.754 869.439 190.822 869.559 190.942C869.679 191.062 869.746 191.224 869.747 191.394C869.747 191.564 869.681 191.727 869.562 191.848L865.383 196.026C865.324 196.086 865.253 196.133 865.175 196.166C865.097 196.198 865.013 196.215 864.929 196.214ZM875.536 194.607C875.409 194.607 875.284 194.57 875.179 194.499C875.073 194.428 874.99 194.328 874.942 194.211C874.893 194.093 874.88 193.964 874.905 193.839C874.93 193.714 874.991 193.6 875.081 193.51L878.617 189.974C878.738 189.855 878.901 189.789 879.07 189.789C879.24 189.79 879.403 189.858 879.522 189.978C879.642 190.098 879.71 190.26 879.711 190.43C879.711 190.6 879.645 190.763 879.526 190.883L875.99 194.419C875.931 194.479 875.86 194.526 875.782 194.559C875.704 194.591 875.62 194.608 875.536 194.607ZM873.607 194.607C873.523 194.608 873.439 194.591 873.361 194.559C873.283 194.526 873.212 194.479 873.153 194.419L870.581 191.848C870.521 191.788 870.473 191.717 870.44 191.639C870.407 191.561 870.39 191.477 870.39 191.392C870.389 191.307 870.406 191.223 870.438 191.145C870.471 191.067 870.518 190.995 870.578 190.935C870.638 190.875 870.709 190.828 870.788 190.796C870.866 190.763 870.95 190.747 871.035 190.747C871.12 190.747 871.204 190.765 871.282 190.797C871.36 190.83 871.431 190.878 871.49 190.939L874.062 193.51C874.152 193.6 874.213 193.714 874.238 193.839C874.262 193.964 874.25 194.093 874.201 194.211C874.152 194.328 874.07 194.428 873.964 194.499C873.859 194.57 873.734 194.607 873.607 194.607Z" fill="#575A89" fill-opacity="0.3"/>
<path d="M880.036 191.071C879.718 191.071 879.407 190.977 879.143 190.801C878.878 190.624 878.672 190.373 878.551 190.079C878.429 189.786 878.397 189.462 878.459 189.151C878.521 188.839 878.674 188.553 878.899 188.328C879.124 188.103 879.41 187.95 879.722 187.888C880.034 187.826 880.357 187.858 880.651 187.98C880.944 188.101 881.195 188.307 881.372 188.571C881.548 188.836 881.643 189.146 881.643 189.464C881.642 189.89 881.473 190.299 881.171 190.6C880.87 190.901 880.462 191.071 880.036 191.071ZM880.036 189.143C879.972 189.143 879.91 189.162 879.857 189.197C879.804 189.232 879.763 189.283 879.739 189.341C879.714 189.4 879.708 189.465 879.72 189.527C879.733 189.589 879.763 189.647 879.808 189.692C879.853 189.737 879.91 189.767 879.973 189.78C880.035 189.792 880.1 189.786 880.159 189.761C880.217 189.737 880.267 189.696 880.303 189.643C880.338 189.59 880.357 189.528 880.357 189.464C880.357 189.379 880.323 189.297 880.263 189.237C880.202 189.177 880.121 189.143 880.036 189.143Z" fill="#575A89" fill-opacity="0.3"/>
<path d="M874.571 196.535C874.254 196.535 873.943 196.441 873.679 196.265C873.414 196.088 873.208 195.837 873.087 195.543C872.965 195.25 872.933 194.927 872.995 194.615C873.057 194.303 873.21 194.017 873.435 193.792C873.66 193.567 873.946 193.414 874.258 193.352C874.57 193.29 874.893 193.322 875.186 193.444C875.48 193.565 875.731 193.771 875.908 194.036C876.084 194.3 876.178 194.611 876.178 194.928C876.178 195.354 876.009 195.763 875.707 196.064C875.406 196.366 874.997 196.535 874.571 196.535ZM874.571 194.607C874.508 194.607 874.446 194.626 874.393 194.661C874.34 194.696 874.299 194.747 874.274 194.805C874.25 194.864 874.244 194.929 874.256 194.991C874.269 195.053 874.299 195.111 874.344 195.156C874.389 195.201 874.446 195.231 874.509 195.244C874.571 195.256 874.636 195.25 874.694 195.225C874.753 195.201 874.803 195.16 874.839 195.107C874.874 195.054 874.893 194.992 874.893 194.928C874.893 194.843 874.859 194.761 874.799 194.701C874.738 194.641 874.657 194.607 874.571 194.607Z" fill="#575A89" fill-opacity="0.3"/>
<path d="M870.072 192.036C869.754 192.036 869.443 191.941 869.179 191.765C868.914 191.588 868.708 191.337 868.587 191.044C868.465 190.75 868.433 190.427 868.495 190.115C868.557 189.803 868.71 189.517 868.935 189.292C869.16 189.067 869.446 188.914 869.758 188.852C870.07 188.79 870.393 188.822 870.687 188.944C870.98 189.066 871.231 189.271 871.408 189.536C871.584 189.8 871.679 190.111 871.679 190.429C871.678 190.855 871.509 191.263 871.207 191.564C870.906 191.866 870.498 192.035 870.072 192.036ZM870.072 190.107C870.008 190.107 869.946 190.126 869.893 190.161C869.84 190.197 869.799 190.247 869.775 190.306C869.75 190.364 869.744 190.429 869.756 190.491C869.769 190.554 869.799 190.611 869.844 190.656C869.889 190.701 869.946 190.731 870.009 190.744C870.071 190.756 870.136 190.75 870.195 190.726C870.253 190.701 870.303 190.66 870.339 190.607C870.374 190.554 870.393 190.492 870.393 190.429C870.393 190.343 870.359 190.262 870.299 190.201C870.238 190.141 870.157 190.107 870.072 190.107Z" fill="#575A89" fill-opacity="0.3"/>
<path d="M863.965 198.143C863.647 198.143 863.336 198.048 863.072 197.872C862.807 197.695 862.601 197.444 862.48 197.151C862.358 196.857 862.326 196.534 862.388 196.222C862.45 195.91 862.603 195.624 862.828 195.399C863.053 195.174 863.339 195.021 863.651 194.959C863.963 194.897 864.286 194.929 864.58 195.051C864.873 195.172 865.124 195.378 865.301 195.643C865.477 195.907 865.572 196.218 865.572 196.536C865.571 196.962 865.402 197.37 865.1 197.671C864.799 197.973 864.391 198.142 863.965 198.143ZM863.965 196.214C863.901 196.214 863.839 196.233 863.786 196.268C863.733 196.304 863.692 196.354 863.668 196.413C863.643 196.471 863.637 196.536 863.649 196.598C863.662 196.661 863.692 196.718 863.737 196.763C863.782 196.808 863.84 196.838 863.902 196.851C863.964 196.863 864.029 196.857 864.088 196.833C864.146 196.808 864.197 196.767 864.232 196.714C864.267 196.661 864.286 196.599 864.286 196.536C864.286 196.45 864.252 196.369 864.192 196.308C864.132 196.248 864.05 196.214 863.965 196.214Z" fill="#575A89" fill-opacity="0.3"/>
<path d="M872 209C868.836 209 865.742 208.062 863.111 206.304C860.48 204.545 858.429 202.047 857.218 199.123C856.007 196.199 855.69 192.982 856.307 189.879C856.925 186.775 858.449 183.924 860.686 181.686C862.924 179.449 865.775 177.925 868.879 177.307C871.982 176.69 875.199 177.007 878.123 178.218C881.047 179.429 883.545 181.48 885.304 184.111C887.062 186.742 888 189.836 888 193C887.995 197.242 886.308 201.309 883.308 204.308C880.309 207.308 876.242 208.995 872 209ZM872 177.711C868.976 177.711 866.02 178.608 863.506 180.288C860.992 181.968 859.032 184.356 857.875 187.149C856.718 189.943 856.415 193.017 857.005 195.983C857.595 198.948 859.051 201.673 861.189 203.811C863.327 205.949 866.052 207.405 869.017 207.995C871.983 208.585 875.057 208.282 877.851 207.125C880.644 205.968 883.032 204.008 884.712 201.494C886.392 198.98 887.289 196.024 887.289 193C887.284 188.947 885.672 185.06 882.806 182.194C879.94 179.328 876.053 177.716 872 177.711Z" fill="#575A89" fill-opacity="0.3"/>
<g opacity="0.5">
<path d="M473.414 208.647C472.73 208.653 472.052 208.515 471.425 208.242C470.797 207.969 470.234 207.567 469.772 207.062C469.224 206.428 468.813 205.687 468.565 204.887C468.317 204.086 468.237 203.243 468.331 202.41C468.461 200.824 469.126 199.329 470.217 198.17C470.74 197.604 471.374 197.151 472.079 196.838C472.784 196.526 473.546 196.361 474.317 196.353C475.034 196.35 475.744 196.498 476.4 196.787C477.056 197.076 477.644 197.5 478.126 198.032C478.672 198.649 479.084 199.373 479.337 200.157C479.589 200.942 479.676 201.77 479.593 202.59C479.491 204.273 478.765 205.857 477.557 207.033C476.433 208.08 474.951 208.657 473.414 208.647ZM474.317 198.402C472.312 198.402 470.579 200.242 470.372 202.59C470.304 203.14 470.349 203.698 470.506 204.229C470.663 204.76 470.928 205.253 471.283 205.678C471.553 205.974 471.882 206.209 472.249 206.368C472.617 206.527 473.014 206.605 473.414 206.598C475.29 206.598 477.296 205.303 477.552 202.41C477.611 201.873 477.558 201.33 477.396 200.815C477.235 200.299 476.969 199.823 476.615 199.416C476.324 199.095 475.97 198.839 475.574 198.664C475.178 198.49 474.75 198.4 474.317 198.402Z" fill="#3F3D56"/>
<path d="M473.481 214.794C471.896 214.82 470.324 214.509 468.868 213.881C467.413 213.252 466.108 212.322 465.039 211.151C463.971 209.98 463.164 208.595 462.672 207.088C462.179 205.581 462.013 203.987 462.184 202.411C462.52 199.103 464.057 196.033 466.506 193.784C468.954 191.534 472.143 190.261 475.467 190.206C479.156 190.206 482.191 191.391 484.244 193.633C486.191 195.759 487.103 198.752 486.811 202.061C486.535 205.195 485.206 206.827 484.139 207.644C483.668 208.029 483.123 208.313 482.539 208.48C481.955 208.648 481.343 208.695 480.74 208.619C479.053 208.32 477.188 206.788 477.481 203.454L478.024 197.291C478.049 197.021 478.18 196.773 478.388 196.599C478.596 196.426 478.864 196.342 479.134 196.365C479.404 196.389 479.653 196.519 479.828 196.726C480.002 196.933 480.088 197.201 480.065 197.471L479.522 203.634C479.376 205.291 479.965 206.401 481.097 206.601C481.749 206.652 482.395 206.442 482.892 206.018C483.633 205.451 484.559 204.273 484.77 201.881C485.014 199.112 484.31 196.739 482.733 195.017C481.078 193.21 478.566 192.255 475.467 192.255C472.655 192.308 469.959 193.389 467.888 195.292C465.817 197.196 464.514 199.792 464.225 202.59C464.079 203.882 464.211 205.192 464.612 206.429C465.013 207.667 465.674 208.805 466.55 209.766C467.427 210.728 468.498 211.491 469.694 212.005C470.889 212.519 472.18 212.771 473.481 212.745C475.086 212.832 476.688 212.542 478.161 211.897C478.411 211.793 478.692 211.792 478.943 211.895C479.193 211.998 479.393 212.196 479.498 212.446C479.603 212.696 479.605 212.977 479.503 213.228C479.401 213.48 479.204 213.68 478.954 213.786C477.231 214.536 475.359 214.881 473.481 214.794Z" fill="#3F3D56"/>
<path d="M474.5 228C469.457 228 464.526 226.504 460.333 223.702C456.14 220.901 452.871 216.918 450.941 212.258C449.011 207.599 448.506 202.472 449.49 197.525C450.474 192.579 452.903 188.035 456.469 184.469C460.035 180.903 464.579 178.474 469.525 177.49C474.472 176.506 479.599 177.011 484.258 178.941C488.918 180.871 492.9 184.14 495.702 188.333C498.504 192.526 500 197.457 500 202.5C499.992 209.261 497.303 215.742 492.523 220.523C487.742 225.303 481.261 227.992 474.5 228ZM474.5 178.133C469.681 178.133 464.97 179.562 460.963 182.24C456.956 184.917 453.832 188.723 451.988 193.175C450.144 197.628 449.661 202.527 450.602 207.254C451.542 211.98 453.862 216.322 457.27 219.73C460.678 223.138 465.02 225.458 469.746 226.398C474.473 227.339 479.372 226.856 483.825 225.012C488.277 223.168 492.083 220.044 494.76 216.037C497.438 212.03 498.867 207.319 498.867 202.5C498.859 196.04 496.29 189.846 491.722 185.278C487.154 180.71 480.96 178.141 474.5 178.133Z" fill="#565656"/>
</g>
<path d="M14 199C11.2311 199 8.5243 198.179 6.22202 196.641C3.91973 195.102 2.12531 192.916 1.06569 190.358C0.0060594 187.799 -0.271178 184.984 0.269015 182.269C0.809208 179.553 2.14258 177.058 4.10052 175.101C6.05846 173.143 8.55301 171.809 11.2687 171.269C13.9845 170.729 16.7994 171.006 19.3576 172.066C21.9157 173.125 24.1022 174.92 25.6406 177.222C27.1789 179.524 28 182.231 28 185C27.9958 188.712 26.5195 192.27 23.8949 194.895C21.2703 197.519 17.7117 198.996 14 199ZM14 171.622C11.3541 171.622 8.76767 172.407 6.56771 173.877C4.36774 175.347 2.65308 177.436 1.64055 179.881C0.628018 182.325 0.36309 185.015 0.879274 187.61C1.39546 190.205 2.66957 192.589 4.54049 194.46C6.4114 196.33 8.7951 197.605 11.3901 198.121C13.9852 198.637 16.675 198.372 19.1195 197.359C21.5639 196.347 23.6533 194.632 25.1232 192.432C26.5932 190.232 27.3778 187.646 27.3778 185C27.3738 181.453 25.9631 178.053 23.4551 175.545C20.9472 173.037 17.5468 171.626 14 171.622Z" fill="#CCCCCC"/>
<path d="M9.48746 193.225C9.3468 193.224 9.20851 193.189 9.08514 193.121C8.96177 193.053 8.85721 192.956 8.78091 192.838C8.7046 192.72 8.65896 192.585 8.64814 192.444C8.63731 192.304 8.66164 192.163 8.71891 192.035L9.69234 189.863C8.35095 188.672 7.49659 187.027 7.2931 185.244C7.08962 183.462 7.55132 181.667 8.58969 180.204C9.62806 178.741 11.17 177.712 12.9198 177.316C14.6696 176.92 16.5041 177.183 18.0715 178.056C19.6389 178.929 20.8289 180.35 21.4133 182.047C21.9976 183.743 21.9352 185.595 21.238 187.248C20.5408 188.901 19.2579 190.239 17.6353 191.004C16.0127 191.77 14.1646 191.909 12.4454 191.396L9.96104 193.078C9.82145 193.173 9.65646 193.225 9.48746 193.225ZM14.5106 178.209C13.2165 178.208 11.9541 178.61 10.8986 179.358C9.84307 180.107 9.04664 181.166 8.61971 182.388C8.19278 183.609 8.1565 184.934 8.5159 186.177C8.8753 187.42 9.61256 188.521 10.6255 189.326L10.9322 189.571L9.8848 191.908L12.2884 190.281L12.5257 190.36C13.3831 190.648 14.2928 190.747 15.1919 190.648C16.0909 190.55 16.9578 190.257 17.7325 189.79C18.5071 189.323 19.171 188.693 19.678 187.944C20.1851 187.195 20.5233 186.345 20.6691 185.452C20.8149 184.56 20.7648 183.646 20.5224 182.775C20.28 181.904 19.851 181.095 19.2652 180.406C18.6794 179.717 17.9507 179.164 17.1298 178.784C16.3088 178.405 15.4151 178.208 14.5106 178.209Z" fill="#BBBBBB"/>
<path d="M14.5106 185.123C15.0695 185.123 15.5225 184.67 15.5225 184.112C15.5225 183.553 15.0695 183.1 14.5106 183.1C13.9518 183.1 13.4987 183.553 13.4987 184.112C13.4987 184.67 13.9518 185.123 14.5106 185.123Z" fill="#BBBBBB"/>
<path d="M11.6436 185.123C12.2025 185.123 12.6555 184.67 12.6555 184.112C12.6555 183.553 12.2025 183.1 11.6436 183.1C11.0848 183.1 10.6317 183.553 10.6317 184.112C10.6317 184.67 11.0848 185.123 11.6436 185.123Z" fill="#BBBBBB"/>
<path d="M17.3776 185.123C17.9365 185.123 18.3895 184.67 18.3895 184.112C18.3895 183.553 17.9365 183.1 17.3776 183.1C16.8188 183.1 16.3657 183.553 16.3657 184.112C16.3657 184.67 16.8188 185.123 17.3776 185.123Z" fill="#BBBBBB"/>
<circle cx="200.8" cy="260.8" r="32.4" stroke="#565656" stroke-width="0.8"/>
<circle cx="210.4" cy="263.2" r="32.8" fill="#0A74E6" fill-opacity="0.1"/>
<path d="M196.96 254.696H199.84C200.095 254.696 200.339 254.589 200.519 254.398C200.699 254.207 200.8 253.948 200.8 253.677C200.8 253.407 200.699 253.148 200.519 252.956C200.339 252.765 200.095 252.658 199.84 252.658H196.96C196.705 252.658 196.461 252.765 196.281 252.956C196.101 253.148 196 253.407 196 253.677C196 253.948 196.101 254.207 196.281 254.398C196.461 254.589 196.705 254.696 196.96 254.696ZM204.64 254.696C204.83 254.696 205.015 254.637 205.173 254.525C205.331 254.413 205.454 254.253 205.527 254.067C205.6 253.881 205.619 253.676 205.582 253.478C205.544 253.281 205.453 253.099 205.319 252.956C205.185 252.814 205.013 252.717 204.827 252.677C204.641 252.638 204.448 252.658 204.273 252.735C204.097 252.813 203.947 252.943 203.842 253.111C203.736 253.279 203.68 253.476 203.68 253.677C203.68 253.948 203.781 254.207 203.961 254.398C204.141 254.589 204.385 254.696 204.64 254.696ZM204.64 258.774C204.45 258.774 204.264 258.833 204.107 258.945C203.949 259.057 203.826 259.217 203.753 259.403C203.68 259.589 203.661 259.794 203.698 259.992C203.735 260.189 203.827 260.371 203.961 260.514C204.095 260.656 204.266 260.753 204.453 260.793C204.639 260.832 204.832 260.812 205.007 260.734C205.183 260.657 205.333 260.527 205.438 260.359C205.544 260.191 205.6 259.994 205.6 259.793C205.6 259.522 205.499 259.263 205.319 259.072C205.139 258.881 204.895 258.774 204.64 258.774ZM209.44 267.947H203.507C203.364 267.52 203.133 267.131 202.83 266.81C202.528 266.49 202.163 266.244 201.76 266.092V263.87H205.6C206.364 263.87 207.096 263.548 207.636 262.974C208.177 262.401 208.48 261.623 208.48 260.812V258.774C208.476 258.019 208.209 257.293 207.731 256.735C208.209 256.177 208.476 255.451 208.48 254.696V252.658C208.48 251.847 208.177 251.069 207.636 250.496C207.096 249.922 206.364 249.6 205.6 249.6H196C195.236 249.6 194.504 249.922 193.963 250.496C193.423 251.069 193.12 251.847 193.12 252.658V254.696C193.124 255.451 193.391 256.177 193.869 256.735C193.391 257.293 193.124 258.019 193.12 258.774V260.812C193.12 261.623 193.423 262.401 193.963 262.974C194.504 263.548 195.236 263.87 196 263.87H199.84V266.092C199.437 266.244 199.072 266.49 198.769 266.81C198.467 267.131 198.236 267.52 198.093 267.947H192.16C191.905 267.947 191.661 268.054 191.481 268.246C191.301 268.437 191.2 268.696 191.2 268.966C191.2 269.237 191.301 269.496 191.481 269.687C191.661 269.878 191.905 269.986 192.16 269.986H198.093C198.295 270.576 198.663 271.086 199.147 271.446C199.631 271.807 200.208 272 200.8 272C201.391 272 201.969 271.807 202.453 271.446C202.937 271.086 203.305 270.576 203.507 269.986H209.44C209.695 269.986 209.939 269.878 210.119 269.687C210.299 269.496 210.4 269.237 210.4 268.966C210.4 268.696 210.299 268.437 210.119 268.246C209.939 268.054 209.695 267.947 209.44 267.947ZM195.04 252.658C195.04 252.388 195.141 252.128 195.321 251.937C195.501 251.746 195.745 251.639 196 251.639H205.6C205.855 251.639 206.099 251.746 206.279 251.937C206.459 252.128 206.56 252.388 206.56 252.658V254.696C206.56 254.967 206.459 255.226 206.279 255.417C206.099 255.608 205.855 255.716 205.6 255.716H196C195.745 255.716 195.501 255.608 195.321 255.417C195.141 255.226 195.04 254.967 195.04 254.696V252.658ZM196 261.831C195.745 261.831 195.501 261.724 195.321 261.533C195.141 261.342 195.04 261.082 195.04 260.812V258.774C195.04 258.503 195.141 258.244 195.321 258.053C195.501 257.862 195.745 257.754 196 257.754H205.6C205.855 257.754 206.099 257.862 206.279 258.053C206.459 258.244 206.56 258.503 206.56 258.774V260.812C206.56 261.082 206.459 261.342 206.279 261.533C206.099 261.724 205.855 261.831 205.6 261.831H196ZM200.8 269.986C200.61 269.986 200.424 269.926 200.267 269.814C200.109 269.702 199.986 269.543 199.913 269.356C199.84 269.17 199.821 268.965 199.858 268.767C199.895 268.57 199.987 268.388 200.121 268.246C200.255 268.103 200.426 268.006 200.613 267.967C200.799 267.927 200.992 267.947 201.167 268.025C201.343 268.102 201.493 268.232 201.598 268.4C201.704 268.568 201.76 268.765 201.76 268.966C201.76 269.237 201.659 269.496 201.479 269.687C201.299 269.878 201.055 269.986 200.8 269.986ZM199.84 258.774H196.96C196.705 258.774 196.461 258.881 196.281 259.072C196.101 259.263 196 259.522 196 259.793C196 260.063 196.101 260.322 196.281 260.514C196.461 260.705 196.705 260.812 196.96 260.812H199.84C200.095 260.812 200.339 260.705 200.519 260.514C200.699 260.322 200.8 260.063 200.8 259.793C200.8 259.522 200.699 259.263 200.519 259.072C200.339 258.881 200.095 258.774 199.84 258.774Z" fill="#0A74E6"/>
<circle cx="662.18" cy="254.18" r="22.8238" stroke="#565656" stroke-width="0.713244"/>
<path d="M659.432 248.812C660.395 248.323 661.483 248.065 662.59 248.065C663.696 248.065 664.784 248.323 665.748 248.812C665.851 248.865 665.964 248.9 666.082 248.914C666.2 248.928 666.32 248.921 666.435 248.893C666.55 248.865 666.658 248.817 666.752 248.752C666.846 248.687 666.925 248.605 666.984 248.513C667.101 248.327 667.132 248.107 667.07 247.901C667.007 247.694 666.856 247.519 666.65 247.412C665.411 246.784 664.013 246.454 662.59 246.454C661.167 246.454 659.768 246.784 658.529 247.412C658.323 247.519 658.172 247.694 658.109 247.901C658.047 248.107 658.078 248.327 658.195 248.513C658.254 248.605 658.333 248.687 658.427 248.752C658.522 248.817 658.629 248.865 658.744 248.893C658.859 248.921 658.979 248.928 659.097 248.914C659.215 248.9 659.329 248.865 659.432 248.812ZM668.382 253.076C668.288 252.879 668.18 252.687 668.057 252.502C667.995 252.411 667.914 252.331 667.818 252.269C667.722 252.206 667.612 252.161 667.497 252.136C667.381 252.111 667.261 252.107 667.143 252.124C667.026 252.141 666.913 252.179 666.812 252.235C666.609 252.347 666.464 252.526 666.409 252.734C666.353 252.942 666.391 253.161 666.514 253.343C666.654 253.559 666.769 253.787 666.857 254.023C666.909 254.162 667.002 254.286 667.126 254.381C667.25 254.477 667.4 254.54 667.561 254.565C668.189 254.662 668.758 254.955 669.169 255.392C669.58 255.828 669.806 256.381 669.808 256.952C669.808 257.596 669.523 258.214 669.015 258.669C668.507 259.124 667.819 259.38 667.101 259.38H656.869C656.501 259.329 656.159 259.177 655.891 258.946C655.623 258.714 655.441 258.413 655.371 258.085C655.317 257.847 655.323 257.602 655.389 257.366C655.455 257.131 655.58 256.912 655.753 256.725C655.926 256.539 656.144 256.389 656.391 256.289C656.637 256.188 656.905 256.138 657.176 256.143C657.415 256.143 657.645 256.058 657.814 255.906C657.983 255.754 658.078 255.549 658.078 255.334C658.076 254.626 658.285 253.931 658.683 253.319C658.742 253.227 658.781 253.125 658.797 253.019C658.812 252.913 658.804 252.806 658.773 252.703C658.742 252.599 658.689 252.503 658.616 252.419C658.543 252.334 658.452 252.263 658.349 252.211C658.142 252.105 657.896 252.077 657.666 252.133C657.437 252.189 657.241 252.325 657.122 252.51C656.699 253.155 656.429 253.871 656.328 254.614C655.575 254.778 654.901 255.156 654.406 255.69C653.985 256.134 653.705 256.671 653.596 257.245C653.487 257.82 653.553 258.41 653.786 258.953C654.02 259.497 654.413 259.974 654.924 260.334C655.435 260.694 656.044 260.923 656.689 260.998H656.806H667.101C668.183 260.996 669.228 260.644 670.045 260.008C670.863 259.372 671.398 258.494 671.553 257.533C671.709 256.573 671.474 255.594 670.892 254.776C670.31 253.958 669.419 253.355 668.382 253.076ZM665.179 251.288C665.179 251.288 665.179 251.288 665.179 251.24C665.226 251.19 665.265 251.136 665.296 251.078C665.382 250.878 665.376 250.656 665.279 250.461C665.183 250.265 665.004 250.112 664.782 250.034C664.277 249.866 663.749 249.762 663.212 249.726C663.122 249.726 663.032 249.726 662.941 249.726C662.698 249.71 662.454 249.71 662.211 249.726C662.117 249.722 662.024 249.722 661.931 249.726C661.394 249.762 660.866 249.866 660.361 250.034C660.145 250.118 659.975 250.274 659.885 250.469C659.796 250.664 659.795 250.882 659.883 251.078C659.913 251.132 659.95 251.183 659.991 251.231C659.988 251.261 659.988 251.291 659.991 251.32C660.051 251.412 660.13 251.493 660.225 251.558C660.319 251.622 660.427 251.669 660.542 251.696C660.656 251.723 660.776 251.73 660.894 251.715C661.011 251.701 661.125 251.666 661.227 251.612C661.641 251.405 662.107 251.296 662.581 251.296C663.054 251.296 663.52 251.405 663.934 251.612C664.039 251.666 664.155 251.7 664.275 251.713C664.395 251.726 664.517 251.717 664.633 251.686C664.749 251.656 664.857 251.605 664.951 251.537C665.045 251.469 665.122 251.384 665.179 251.288ZM661.687 253.716C661.687 253.876 661.74 254.032 661.839 254.165C661.938 254.298 662.079 254.402 662.244 254.463C662.409 254.524 662.591 254.54 662.766 254.509C662.941 254.478 663.101 254.401 663.228 254.288C663.354 254.175 663.44 254.03 663.474 253.873C663.509 253.716 663.491 253.554 663.423 253.406C663.355 253.258 663.239 253.132 663.091 253.043C662.942 252.954 662.768 252.906 662.59 252.906C662.35 252.906 662.121 252.992 661.952 253.143C661.782 253.295 661.687 253.501 661.687 253.716Z" fill="#0A74E6"/>
<circle cx="755.73" cy="70.2703" r="46.6938" stroke="#565656" stroke-width="1.15293"/>
<circle cx="748.811" cy="70.2702" r="43.8115" fill="#0A74E6" fill-opacity="0.1"/>
<path d="M765.31 64.8877L747.757 54.9511C746.807 54.4097 745.729 54.1261 744.632 54.1291C743.536 54.132 742.459 54.4215 741.512 54.968C740.566 55.5145 739.782 56.2987 739.242 57.2408C738.701 58.1829 738.423 59.2494 738.436 60.3319V80.277C738.436 81.9039 739.09 83.4641 740.256 84.6145C741.421 85.7649 743.002 86.4112 744.65 86.4112C745.741 86.4093 746.812 86.1248 747.757 85.5861L765.31 75.6494C766.253 75.1106 767.036 74.3365 767.58 73.4046C768.125 72.4728 768.411 71.416 768.411 70.3403C768.411 69.2647 768.125 68.2079 767.58 67.276C767.036 66.3442 766.253 65.57 765.31 65.0312V64.8877ZM763.493 72.403L745.94 82.4831C745.547 82.7032 745.102 82.8189 744.65 82.8189C744.198 82.8189 743.753 82.7032 743.36 82.4831C742.967 82.2596 742.642 81.938 742.415 81.5507C742.189 81.1634 742.07 80.7241 742.07 80.277V60.2602C742.07 59.813 742.189 59.3737 742.415 58.9865C742.642 58.5992 742.967 58.2776 743.36 58.054C743.755 57.8373 744.198 57.7202 744.65 57.7132C745.101 57.7224 745.544 57.8393 745.94 58.054L763.493 68.0624C763.885 68.2859 764.211 68.6075 764.438 68.9947C764.664 69.382 764.784 69.8214 764.784 70.2686C764.784 70.7158 764.664 71.1552 764.438 71.5424C764.211 71.9297 763.885 72.2513 763.493 72.4747V72.403Z" fill="#0A74E6"/>
<path d="M654 511.784H500V343H654V511.784ZM501.232 510.552H652.768V344.232H501.232V510.552Z" fill="#3F3D56"/>
<path d="M645 496H625V497H645V496Z" fill="#3F3D56" fill-opacity="0.3"/>
<path d="M645 500H625V501H645V500Z" fill="#3F3D56" fill-opacity="0.3"/>
<path d="M645 504H625V505H645V504Z" fill="#3F3D56" fill-opacity="0.3"/>
<path d="M576.999 373.184V386.736C585.04 386.736 592.901 389.12 599.586 393.588C606.272 398.055 611.483 404.405 614.56 411.833C617.638 419.262 618.443 427.437 616.874 435.323C615.305 443.21 611.433 450.454 605.747 456.14L615.33 465.723C622.911 458.142 628.074 448.483 630.166 437.967C632.257 427.452 631.184 416.553 627.081 406.647C622.978 396.742 616.03 388.276 607.116 382.32C598.201 376.363 587.721 373.184 576.999 373.184Z" fill="#E6E6E6"/>
<path d="M615.331 465.722L605.748 456.14C598.797 463.092 589.562 467.289 579.754 467.955C569.945 468.62 560.228 465.707 552.402 459.757L544.2 470.549C554.636 478.481 567.593 482.363 580.671 481.475C593.749 480.588 606.062 474.991 615.331 465.722Z" fill="#1C25B7"/>
<path d="M536.344 427.392C536.344 422.053 537.395 416.766 539.438 411.833C541.481 406.901 544.476 402.419 548.251 398.644C552.027 394.868 556.509 391.874 561.441 389.831C566.374 387.787 571.661 386.736 577 386.736V373.184C565.652 373.184 554.59 376.745 545.374 383.365C536.157 389.986 529.251 399.332 525.628 410.086C522.005 420.84 521.849 432.46 525.181 443.307C528.513 454.155 535.165 463.683 544.2 470.55L552.402 459.757C547.408 455.969 543.359 451.075 540.573 445.46C537.787 439.845 536.339 433.66 536.344 427.392Z" fill="#0A74E6"/>
<path d="M198.226 488H86V365H198.226V488ZM86.8978 487.102H197.328V365.898H86.8978V487.102Z" fill="#3F3D56"/>
<path d="M120.361 435.191H104.16C103.056 435.191 102.16 436.087 102.16 437.191V465.512C102.16 466.617 103.056 467.512 104.16 467.512H120.361C121.466 467.512 122.361 466.617 122.361 465.512V437.191C122.361 436.087 121.466 435.191 120.361 435.191Z" fill="#575A89"/>
<path d="M149.54 413.195H133.34C132.235 413.195 131.34 414.091 131.34 415.195V465.512C131.34 466.617 132.235 467.512 133.34 467.512H149.54C150.645 467.512 151.54 466.617 151.54 465.512V415.195C151.54 414.09 150.645 413.195 149.54 413.195Z" fill="#E6E6E6"/>
<path d="M178.719 387.607H162.518C161.414 387.607 160.518 388.503 160.518 389.607V465.512C160.518 466.617 161.414 467.512 162.518 467.512H178.719C179.823 467.512 180.719 466.617 180.719 465.512V389.607C180.719 388.503 179.823 387.607 178.719 387.607Z" fill="#0A74E6"/>
<path d="M187.453 473.411H96.7748V379.589H97.6724V472.513H187.453V473.411Z" fill="#3F3D56"/>
<path d="M408.991 155.762H160V0H408.991V155.762ZM161.137 154.625H407.854V1.13695H161.137V154.625Z" fill="#3F3D56"/>
<path d="M374.413 123.186H194.579C194.43 123.186 194.287 123.127 194.181 123.021C194.076 122.916 194.016 122.773 194.016 122.623V36.4291C194.016 36.2799 194.076 36.1367 194.181 36.0312C194.287 35.9256 194.43 35.8663 194.579 35.8663C194.729 35.8663 194.872 35.9256 194.977 36.0312C195.083 36.1367 195.142 36.2799 195.142 36.4291V122.06H374.413C374.487 122.06 374.56 122.075 374.629 122.103C374.697 122.131 374.759 122.172 374.812 122.225C374.864 122.277 374.906 122.339 374.934 122.407C374.963 122.476 374.977 122.549 374.977 122.623C374.977 122.697 374.963 122.771 374.934 122.839C374.906 122.908 374.864 122.97 374.812 123.022C374.759 123.074 374.697 123.116 374.629 123.144C374.56 123.172 374.487 123.186 374.413 123.186Z" fill="#3F3D56"/>
<path d="M233.001 116.995H216.645C216.202 116.995 215.777 116.819 215.464 116.505C215.151 116.192 214.975 115.768 214.974 115.325V92.7771C214.975 92.3342 215.151 91.9096 215.464 91.5964C215.777 91.2832 216.202 91.1071 216.645 91.1066H233.001C233.444 91.1071 233.869 91.2832 234.182 91.5964C234.495 91.9096 234.671 92.3342 234.672 92.7771V115.325C234.671 115.768 234.495 116.192 234.182 116.505C233.869 116.819 233.444 116.995 233.001 116.995Z" fill="#0A74E6"/>
<path d="M262.83 116.995H246.474C246.031 116.995 245.606 116.819 245.293 116.505C244.98 116.192 244.803 115.768 244.803 115.325V71.3909C244.803 70.948 244.98 70.5233 245.293 70.2102C245.606 69.897 246.031 69.7208 246.474 69.7203H262.83C263.273 69.7208 263.698 69.897 264.011 70.2102C264.324 70.5233 264.5 70.948 264.501 71.3909V115.325C264.5 115.768 264.324 116.192 264.011 116.505C263.698 116.819 263.273 116.995 262.83 116.995Z" fill="#0A74E6"/>
<path d="M292.658 116.995H276.302C275.859 116.995 275.434 116.819 275.121 116.505C274.808 116.192 274.631 115.768 274.631 115.325V92.7771C274.631 92.3342 274.808 91.9096 275.121 91.5964C275.434 91.2832 275.859 91.1071 276.302 91.1066H292.658C293.101 91.1071 293.526 91.2832 293.839 91.5964C294.152 91.9096 294.328 92.3342 294.329 92.7771V115.325C294.328 115.768 294.152 116.192 293.839 116.505C293.526 116.819 293.101 116.995 292.658 116.995Z" fill="#0A74E6"/>
<path d="M322.486 116.995H306.13C305.697 117.005 305.278 116.842 304.965 116.543C304.652 116.244 304.47 115.833 304.459 115.4V62.8733C304.47 62.4405 304.652 62.0296 304.965 61.7307C305.278 61.4318 305.697 61.2691 306.13 61.2785H322.486C322.919 61.2691 323.338 61.4318 323.651 61.7307C323.964 62.0296 324.146 62.4405 324.157 62.8733V115.4C324.146 115.833 323.964 116.244 323.651 116.543C323.338 116.842 322.919 117.005 322.486 116.995Z" fill="#0A74E6"/>
<path d="M352.314 116.995H335.958C335.515 116.995 335.09 116.819 334.777 116.506C334.464 116.192 334.288 115.768 334.287 115.325V47.7535C334.288 47.3106 334.464 46.886 334.777 46.5728C335.09 46.2597 335.515 46.0835 335.958 46.083H352.314C352.757 46.0835 353.182 46.2597 353.495 46.5728C353.808 46.886 353.984 47.3106 353.985 47.7535V115.325C353.984 115.768 353.808 116.192 353.495 116.506C353.182 116.819 352.757 116.995 352.314 116.995Z" fill="#0A74E6"/>
<path d="M224.824 84.3532C226.689 84.3532 228.201 82.8413 228.201 80.9764C228.201 79.1114 226.689 77.5996 224.824 77.5996C222.959 77.5996 221.447 79.1114 221.447 80.9764C221.447 82.8413 222.959 84.3532 224.824 84.3532Z" fill="#3F3D56"/>
<path d="M254.652 62.4041C256.517 62.4041 258.029 60.8922 258.029 59.0273C258.029 57.1624 256.517 55.6505 254.652 55.6505C252.787 55.6505 251.275 57.1624 251.275 59.0273C251.275 60.8922 252.787 62.4041 254.652 62.4041Z" fill="#3F3D56"/>
<path d="M284.48 84.3532C286.345 84.3532 287.857 82.8413 287.857 80.9764C287.857 79.1114 286.345 77.5996 284.48 77.5996C282.615 77.5996 281.103 79.1114 281.103 80.9764C281.103 82.8413 282.615 84.3532 284.48 84.3532Z" fill="#3F3D56"/>
<path d="M314.309 51.711C316.174 51.711 317.685 50.1991 317.685 48.3342C317.685 46.4692 316.174 44.9574 314.309 44.9574C312.444 44.9574 310.932 46.4692 310.932 48.3342C310.932 50.1991 312.444 51.711 314.309 51.711Z" fill="#3F3D56"/>
<path d="M344.137 39.3294C346.002 39.3294 347.513 37.8175 347.513 35.9526C347.513 34.0876 346.002 32.5758 344.137 32.5758C342.272 32.5758 340.76 34.0876 340.76 35.9526C340.76 37.8175 342.272 39.3294 344.137 39.3294Z" fill="#3F3D56"/>
<path d="M284.551 81.7328L254.652 59.3379L225.161 81.4268L224.486 80.5257L254.652 57.9312L284.408 80.2197L313.979 47.8603L314.098 47.812L343.926 35.7935L344.346 36.8381L314.637 48.8083L284.551 81.7328Z" fill="#3F3D56"/>
</svg>
