<svg width="748" height="487" viewBox="0 0 748 487" fill="none" xmlns="http://www.w3.org/2000/svg">
<path d="M18.2132 20.19C21.6446 20.19 24.4263 17.4083 24.4263 13.9768C24.4263 10.5454 21.6446 7.76367 18.2132 7.76367C14.7817 7.76367 12 10.5454 12 13.9768C12 17.4083 14.7817 20.19 18.2132 20.19Z" fill="#565656"/>
<path d="M39.2132 20.19C42.6446 20.19 45.4263 17.4083 45.4263 13.9768C45.4263 10.5454 42.6446 7.76367 39.2132 7.76367C35.7817 7.76367 33 10.5454 33 13.9768C33 17.4083 35.7817 20.19 39.2132 20.19Z" fill="#565656"/>
<path d="M61.2132 20.19C64.6446 20.19 67.4263 17.4083 67.4263 13.9768C67.4263 10.5454 64.6446 7.76367 61.2132 7.76367C57.7817 7.76367 55 10.5454 55 13.9768C55 17.4083 57.7817 20.19 61.2132 20.19Z" fill="#565656"/>
<path d="M649.8 356.925H56V427.045H649.8V356.925Z" fill="#0A74E6" fill-opacity="0.05"/>
<path d="M703.262 115.056H350V294.35H703.262V115.056Z" fill="#0A74E6" fill-opacity="0.05"/>
<path d="M412 277.929L492.009 144.347L574.999 277.929" fill="#0A74E6"/>
<path d="M533.444 209.584L549.42 167.867L639.955 277.929H533L533.444 209.584Z" fill="#0A74E6"/>
<path d="M516.198 193.011C518.685 191.489 520.847 189.491 522.562 187.133C524.277 184.775 525.51 182.102 526.191 179.267C526.872 176.432 526.988 173.491 526.532 170.611C526.075 167.732 525.056 164.97 523.532 162.484C522.008 159.999 520.009 157.838 517.65 156.125C515.29 154.412 512.616 153.181 509.781 152.502C506.945 151.824 504.004 151.71 501.124 152.169C498.245 152.627 495.484 153.649 493 155.175" fill="#0A74E6"/>
<path d="M734.728 1H12.8507C6.30573 1 1 6.30572 1 12.8507V473.775C1 480.32 6.30572 485.626 12.8507 485.626H734.728C741.273 485.626 746.578 480.32 746.578 473.775V12.8507C746.578 6.30573 741.273 1 734.728 1Z" stroke="#565656" stroke-width="1.8" stroke-miterlimit="10"/>
<path d="M1 27.9258H746.578" stroke="#565656" stroke-width="1.8" stroke-miterlimit="10"/>
<path d="M273.402 134.583H16V153.222H273.402V134.583Z" fill="#0A74E6" fill-opacity="0.05"/>
<path d="M273.402 178.963H16V197.602H273.402V178.963Z" fill="#0A74E6" fill-opacity="0.05"/>
<path d="M273.402 223.343H16V241.982H273.402V223.343Z" fill="#0A74E6" fill-opacity="0.05"/>
<path d="M281.402 128.37H24V147.01H281.402V128.37Z" stroke="#565656" stroke-width="1.30357" stroke-miterlimit="10"/>
<path d="M281.402 172.75H24V191.389H281.402V172.75Z" stroke="#565656" stroke-width="1.30357" stroke-miterlimit="10"/>
<path d="M281.402 217.129H24V235.768H281.402V217.129Z" stroke="#565656" stroke-width="1.30357" stroke-miterlimit="10"/>
<path d="M724.262 92.4229H371V271.717H724.262V92.4229Z" stroke="#565656" stroke-width="1.30357" stroke-miterlimit="10"/>
<path d="M670.8 340.949H77V411.069H670.8V340.949Z" stroke="#565656" stroke-width="1.30357" stroke-miterlimit="10"/>
<path d="M416 271.717L496.009 138.134L578.999 271.717" stroke="#565656" stroke-width="1.18507" stroke-miterlimit="10"/>
<path d="M536 201.597L551.977 159.88L642.511 271.717" stroke="#565656" stroke-width="1.18507" stroke-miterlimit="10"/>
<path d="M522.198 180.584C524.685 179.062 526.847 177.065 528.562 174.707C530.277 172.348 531.51 169.676 532.191 166.841C532.872 164.006 532.988 161.064 532.532 158.185C532.075 155.305 531.056 152.543 529.532 150.058C528.008 147.572 526.009 145.411 523.65 143.698C521.29 141.985 518.616 140.755 515.781 140.076C512.945 139.397 510.004 139.283 507.124 139.742C504.245 140.2 501.484 141.222 499 142.748" stroke="#565656" stroke-width="1.18507" stroke-miterlimit="10"/>
</svg>
