<svg width="866" height="540" viewBox="0 0 866 540" fill="none" xmlns="http://www.w3.org/2000/svg">
<circle cx="59.2353" cy="204.235" r="51.7353" stroke="black"/>
<circle cx="52.2353" cy="214.235" r="52.2353" fill="#0A74E6" fill-opacity="0.1"/>
<path d="M52.2632 182.035C50.0106 182.035 46.6316 183.161 46.6316 187.667C46.6316 192.172 46.6316 194.425 46.6316 197.804C46.6316 201.183 41 203.435 41 203.435C41 203.435 46.6316 205.688 46.6316 209.067C46.6316 212.446 46.6316 216.951 46.6316 221.456C46.6316 225.962 50.0106 227.088 52.2632 227.088" stroke="#0A74E6" stroke-width="4.50529" stroke-linecap="round" stroke-linejoin="round"/>
<path d="M70 182.035C72.2526 182.035 75.6316 183.161 75.6316 187.667C75.6316 192.172 75.6316 194.425 75.6316 197.804C75.6316 201.183 81.2632 203.435 81.2632 203.435C81.2632 203.435 75.6316 205.688 75.6316 209.067C75.6316 212.446 75.6316 216.951 75.6316 221.456C75.6316 225.962 72.2526 227.088 70 227.088" stroke="#0A74E6" stroke-width="4.50529" stroke-linecap="round" stroke-linejoin="round"/>
<path d="M401.542 230.311L401.538 230.311L263.858 246.287L247.281 103.426C247.281 103.426 247.281 103.425 247.281 103.425C246.95 100.543 247.776 97.6473 249.577 95.3731C251.378 93.0989 254.008 91.6319 256.889 91.294C256.89 91.294 256.89 91.2939 256.89 91.2939L374.977 77.5914C377.859 77.2603 380.755 78.086 383.03 79.8875C385.304 81.6888 386.771 84.3185 387.109 87.1999C387.109 87.2001 387.109 87.2004 387.109 87.2006L403.629 229.571C403.001 229.973 402.287 230.227 401.542 230.311Z" fill="white" stroke="#565656" stroke-width="2.14939"/>
<path d="M453.927 181.869L374.136 199.821C373.794 199.897 373.47 200.04 373.183 200.242C372.896 200.443 372.652 200.699 372.464 200.995C372.277 201.291 372.149 201.621 372.089 201.967C372.029 202.312 372.038 202.666 372.115 203.008C372.192 203.35 372.336 203.673 372.538 203.959C372.74 204.246 372.996 204.489 373.293 204.677C373.589 204.864 373.919 204.99 374.265 205.05C374.61 205.109 374.964 205.1 375.306 205.022L455.097 187.071C455.439 186.995 455.763 186.852 456.05 186.65C456.337 186.449 456.582 186.193 456.77 185.897C456.958 185.601 457.085 185.27 457.145 184.925C457.205 184.579 457.197 184.225 457.12 183.883C457.043 183.541 456.899 183.218 456.697 182.931C456.495 182.645 456.238 182.401 455.941 182.214C455.645 182.027 455.314 181.9 454.968 181.841C454.623 181.782 454.269 181.791 453.927 181.869Z" fill="#E4E4E4"/>
<path d="M451.613 171.584L371.822 189.535C371.131 189.691 370.531 190.114 370.152 190.712C369.774 191.31 369.649 192.034 369.804 192.724C369.959 193.415 370.383 194.015 370.981 194.393C371.579 194.772 372.303 194.897 372.993 194.742L452.784 176.79C453.126 176.713 453.45 176.57 453.736 176.368C454.022 176.166 454.266 175.91 454.454 175.614C454.641 175.318 454.768 174.988 454.828 174.642C454.888 174.297 454.879 173.943 454.802 173.601C454.725 173.26 454.582 172.936 454.38 172.65C454.178 172.363 453.921 172.12 453.625 171.932C453.329 171.745 452.999 171.618 452.654 171.558C452.309 171.498 451.955 171.507 451.613 171.584H451.613Z" fill="#E4E4E4"/>
<path d="M404.097 171.473L369.509 179.255C368.819 179.41 368.219 179.833 367.841 180.43C367.463 181.028 367.338 181.751 367.493 182.44C367.648 183.13 368.071 183.73 368.668 184.108C369.266 184.486 369.989 184.611 370.679 184.456L405.267 176.674C405.609 176.598 405.933 176.455 406.22 176.254C406.507 176.053 406.752 175.796 406.94 175.5C407.128 175.204 407.255 174.874 407.315 174.529C407.375 174.183 407.367 173.829 407.29 173.487C407.213 173.145 407.069 172.821 406.867 172.535C406.664 172.248 406.408 172.005 406.111 171.818C405.815 171.63 405.484 171.504 405.138 171.445C404.793 171.386 404.439 171.395 404.097 171.473Z" fill="#E4E4E4"/>
<path d="M360.129 193.262L278.888 202.689C278.54 202.73 278.203 202.838 277.897 203.009C277.591 203.179 277.321 203.408 277.104 203.683C276.664 204.238 276.463 204.944 276.545 205.647C276.627 206.35 276.984 206.992 277.539 207.431C278.094 207.871 278.8 208.072 279.503 207.99L360.744 198.563C361.092 198.523 361.428 198.414 361.735 198.244C362.041 198.073 362.31 197.844 362.528 197.569C362.745 197.295 362.907 196.98 363.003 196.643C363.098 196.306 363.127 195.953 363.087 195.605C363.046 195.257 362.938 194.92 362.767 194.614C362.597 194.308 362.368 194.039 362.093 193.821C361.818 193.603 361.503 193.442 361.166 193.346C360.829 193.25 360.477 193.222 360.129 193.262Z" fill="#E4E4E4"/>
<path d="M358.914 182.795L277.673 192.222C277.325 192.262 276.988 192.37 276.681 192.54C276.375 192.71 276.105 192.939 275.887 193.214C275.669 193.488 275.508 193.803 275.412 194.14C275.316 194.477 275.287 194.83 275.327 195.178C275.368 195.526 275.476 195.863 275.647 196.169C275.818 196.475 276.047 196.745 276.322 196.962C276.597 197.179 276.912 197.34 277.25 197.436C277.587 197.531 277.94 197.559 278.288 197.518L359.528 188.091C359.876 188.051 360.213 187.943 360.519 187.773C360.825 187.602 361.095 187.373 361.312 187.099C361.53 186.825 361.691 186.51 361.787 186.173C361.883 185.836 361.912 185.484 361.871 185.136C361.831 184.788 361.722 184.451 361.552 184.145C361.381 183.839 361.152 183.57 360.878 183.353C360.603 183.135 360.288 182.974 359.951 182.879C359.614 182.783 359.262 182.755 358.914 182.795Z" fill="#E4E4E4"/>
<path d="M311.675 177.663L276.458 181.75C276.11 181.79 275.773 181.898 275.467 182.069C275.161 182.24 274.891 182.469 274.674 182.743C274.456 183.018 274.295 183.333 274.199 183.67C274.103 184.007 274.075 184.36 274.115 184.708C274.155 185.056 274.264 185.392 274.435 185.699C274.605 186.005 274.834 186.274 275.109 186.492C275.384 186.709 275.698 186.871 276.035 186.967C276.373 187.062 276.725 187.091 277.073 187.051L312.29 182.964C312.638 182.924 312.975 182.815 313.281 182.645C313.587 182.474 313.856 182.245 314.074 181.97C314.291 181.696 314.453 181.381 314.549 181.044C314.645 180.707 314.673 180.354 314.633 180.006C314.592 179.658 314.484 179.321 314.313 179.015C314.143 178.709 313.914 178.439 313.639 178.222C313.364 178.004 313.049 177.843 312.712 177.747C312.375 177.651 312.023 177.623 311.675 177.663Z" fill="#E4E4E4"/>
<path d="M354.137 146.086L273.187 157.745C272.486 157.845 271.854 158.22 271.43 158.787C271.006 159.354 270.825 160.066 270.926 160.766C271.027 161.466 271.402 162.098 271.968 162.522C272.535 162.946 273.247 163.128 273.947 163.027L354.898 151.369C355.245 151.319 355.578 151.201 355.88 151.022C356.181 150.843 356.444 150.607 356.654 150.326C356.864 150.046 357.017 149.726 357.103 149.387C357.19 149.047 357.209 148.694 357.159 148.347C357.109 148 356.991 147.667 356.812 147.365C356.633 147.064 356.397 146.801 356.116 146.591C355.835 146.381 355.516 146.228 355.177 146.142C354.837 146.055 354.484 146.037 354.137 146.086Z" fill="#E6E6E6"/>
<path d="M352.635 135.658L271.685 147.316C271.338 147.366 271.004 147.483 270.703 147.662C270.402 147.841 270.139 148.078 269.929 148.358C269.505 148.925 269.323 149.637 269.424 150.337C269.525 151.037 269.9 151.669 270.467 152.093C271.033 152.517 271.745 152.699 272.446 152.598L353.396 140.94C353.743 140.89 354.077 140.772 354.378 140.593C354.679 140.414 354.942 140.178 355.152 139.897C355.362 139.617 355.515 139.297 355.601 138.958C355.688 138.618 355.707 138.265 355.657 137.918C355.607 137.571 355.489 137.238 355.31 136.936C355.131 136.635 354.895 136.372 354.614 136.162C354.334 135.952 354.015 135.8 353.675 135.713C353.336 135.626 352.982 135.608 352.635 135.658Z" fill="#E6E6E6"/>
<path d="M305.273 131.826L270.182 136.88C269.482 136.98 268.85 137.355 268.426 137.922C268.002 138.489 267.82 139.201 267.921 139.901C268.022 140.602 268.397 141.233 268.964 141.657C269.53 142.081 270.242 142.263 270.943 142.162L306.034 137.108C306.38 137.058 306.714 136.94 307.015 136.762C307.317 136.583 307.58 136.346 307.79 136.066C308 135.785 308.152 135.466 308.239 135.126C308.325 134.787 308.344 134.434 308.294 134.087C308.244 133.74 308.127 133.406 307.948 133.105C307.769 132.804 307.532 132.54 307.252 132.331C306.971 132.121 306.652 131.968 306.312 131.881C305.973 131.795 305.62 131.776 305.273 131.826Z" fill="#E6E6E6"/>
<path d="M208.854 200.533C208.098 200.534 207.373 200.835 206.838 201.369C206.304 201.904 206.003 202.629 206.002 203.385V498.255C206.003 499.011 206.303 499.736 206.838 500.271C207.373 500.806 208.098 501.107 208.854 501.108H578.563C579.319 501.107 580.044 500.806 580.578 500.271C581.113 499.736 581.413 499.011 581.414 498.255V250.718C581.413 249.962 581.113 249.237 580.578 248.702C580.044 248.167 579.319 247.866 578.563 247.865H366.374C364.22 247.867 362.143 247.065 360.55 245.615L312.846 202.272C311.616 201.152 310.012 200.532 308.348 200.533H208.854Z" fill="#333333"/>
<path d="M705.805 86.8688L507.846 1.76299C502.538 -0.511684 496.545 -0.588088 491.181 1.55051C485.816 3.68911 481.52 7.86807 479.233 13.1707L375.503 254.448L608.094 354.443C610.001 355.27 612.106 355.53 614.157 355.193L717.213 115.482C719.487 110.174 719.564 104.181 717.425 98.8167C715.287 93.4526 711.108 89.1557 705.805 86.8688Z" fill="#0A74E6" fill-opacity="0.05"/>
<path d="M552.781 389.994L552.784 389.996C554.325 390.664 556.009 390.922 557.673 390.748L660.488 151.598L552.781 389.994ZM552.781 389.994L321.178 290.425M552.781 389.994L321.178 290.425M321.178 290.425L424.482 50.1356C426.656 45.0943 430.741 41.1213 435.841 39.0881C440.941 37.0551 446.638 37.1275 451.684 39.2896C451.685 39.2898 451.685 39.2899 451.685 39.2901L649.642 124.395L321.178 290.425ZM660.69 135.754C662.723 140.853 662.65 146.551 660.488 151.597L649.643 124.395C654.684 126.57 658.657 130.655 660.69 135.754Z" fill="white" stroke="#565656" stroke-width="2.14939"/>
<path d="M515.507 351.27L379.319 292.721C378.736 292.469 378.109 292.334 377.474 292.325C376.839 292.316 376.208 292.432 375.618 292.667C375.028 292.902 374.49 293.25 374.035 293.693C373.579 294.136 373.216 294.664 372.965 295.248C372.714 295.832 372.581 296.459 372.573 297.094C372.564 297.729 372.681 298.359 372.917 298.949C373.153 299.539 373.503 300.077 373.946 300.531C374.39 300.986 374.919 301.348 375.503 301.598L511.691 360.148C512.274 360.399 512.901 360.534 513.536 360.543C514.171 360.552 514.802 360.436 515.392 360.201C515.982 359.967 516.52 359.618 516.975 359.175C517.431 358.732 517.794 358.204 518.045 357.62C518.296 357.037 518.429 356.409 518.437 355.774C518.445 355.139 518.328 354.509 518.093 353.919C517.857 353.329 517.507 352.792 517.064 352.337C516.62 351.883 516.091 351.52 515.507 351.27Z" fill="#E4E4E4"/>
<path d="M523.055 333.715L386.867 275.165C385.688 274.659 384.357 274.642 383.166 275.117C381.975 275.592 381.022 276.521 380.515 277.699C380.009 278.877 379.991 280.208 380.465 281.399C380.94 282.591 381.868 283.545 383.046 284.052L519.234 342.601C519.818 342.852 520.445 342.985 521.08 342.994C521.715 343.002 522.346 342.886 522.936 342.65C523.526 342.415 524.064 342.066 524.519 341.623C524.974 341.18 525.337 340.652 525.588 340.068C525.839 339.485 525.972 338.857 525.981 338.222C525.989 337.587 525.872 336.957 525.637 336.367C525.402 335.777 525.053 335.239 524.61 334.784C524.167 334.329 523.638 333.965 523.055 333.715H523.055Z" fill="#E4E4E4"/>
<path d="M331.916 102.938L268.14 110.802C266.867 110.96 265.709 111.616 264.92 112.627C264.131 113.639 263.776 114.922 263.933 116.194C264.09 117.467 264.746 118.625 265.757 119.415C266.768 120.204 268.051 120.559 269.323 120.403L333.1 112.538C333.731 112.461 334.34 112.26 334.893 111.947C335.446 111.634 335.931 111.215 336.322 110.714C336.713 110.213 337.002 109.641 337.171 109.028C337.341 108.416 337.388 107.776 337.31 107.146C337.233 106.515 337.031 105.906 336.718 105.354C336.405 104.801 335.986 104.315 335.485 103.924C334.984 103.534 334.411 103.245 333.799 103.076C333.186 102.907 332.547 102.86 331.916 102.938L331.916 102.938Z" fill="#0A74E6" fill-opacity="0.7"/>
<path d="M384.582 358.577L384.579 358.577L249.355 389L217.788 248.687C217.788 248.687 217.787 248.687 217.787 248.687C217.154 245.855 217.67 242.889 219.221 240.437C220.772 237.985 223.232 236.249 226.062 235.609C226.062 235.609 226.062 235.609 226.062 235.608L342.042 209.515C344.874 208.882 347.841 209.397 350.293 210.948C352.744 212.5 354.481 214.96 355.121 217.789C355.121 217.79 355.121 217.79 355.121 217.79L386.58 357.621C385.998 358.086 385.315 358.414 384.582 358.577Z" fill="white" stroke="#565656" stroke-width="2.14939"/>
<path d="M431.372 332.626L431.375 332.628L563.809 373.52L606.241 236.102C606.241 236.102 606.241 236.102 606.241 236.101C607.094 233.328 606.812 230.33 605.457 227.765C604.102 225.2 601.785 223.277 599.014 222.417C599.014 222.417 599.013 222.417 599.013 222.417L485.426 187.344C482.653 186.491 479.654 186.773 477.089 188.128C474.523 189.483 472.6 191.8 471.741 194.571C471.741 194.571 471.741 194.571 471.741 194.572L429.455 331.518C429.999 332.027 430.654 332.407 431.372 332.626Z" fill="white" stroke="#565656" stroke-width="2.14939"/>
<path d="M320.07 347.859L320.073 347.859L458.639 351.102L462.004 207.321C462.004 207.321 462.004 207.321 462.004 207.321C462.068 204.42 460.98 201.613 458.977 199.514C456.974 197.415 454.221 196.196 451.32 196.125C451.32 196.125 451.32 196.125 451.32 196.125L332.473 193.343C329.573 193.279 326.765 194.368 324.666 196.371C322.567 198.373 321.348 201.127 321.277 204.027C321.277 204.027 321.277 204.028 321.277 204.028L317.923 347.315C318.585 347.656 319.319 347.844 320.07 347.859Z" fill="white" stroke="#565656" stroke-width="2.14939"/>
<path d="M344.337 303.824L237.942 327.467L254.063 272.658L282.005 298.45L295.976 249.014L344.337 303.824Z" fill="#0A74E6" fill-opacity="0.3"/>
<circle cx="262.66" cy="250.089" r="9.67227" fill="#0A74E6" fill-opacity="0.3"/>
<path d="M558.668 321.62L457.18 281.881L501.138 245.389L509.937 282.384L549.113 249.152L558.668 321.62Z" fill="#0A74E6" fill-opacity="0.15"/>
<circle cx="527.036" cy="222.147" r="9.67227" fill="#0A74E6" fill-opacity="0.15"/>
<path d="M381.946 356.397L302.155 374.349C301.813 374.425 301.489 374.568 301.203 374.77C300.916 374.971 300.672 375.227 300.484 375.523C300.296 375.819 300.169 376.149 300.109 376.495C300.049 376.84 300.058 377.194 300.135 377.536C300.212 377.878 300.355 378.201 300.557 378.487C300.759 378.774 301.016 379.017 301.312 379.205C301.609 379.392 301.939 379.519 302.284 379.578C302.63 379.637 302.984 379.628 303.325 379.55L383.117 361.599C383.459 361.523 383.783 361.38 384.07 361.178C384.357 360.977 384.601 360.721 384.789 360.425C384.977 360.129 385.105 359.798 385.165 359.453C385.225 359.107 385.216 358.753 385.139 358.411C385.062 358.069 384.919 357.746 384.716 357.459C384.514 357.173 384.257 356.929 383.961 356.742C383.664 356.555 383.334 356.428 382.988 356.369C382.642 356.31 382.288 356.32 381.946 356.397Z" fill="#E4E4E4"/>
<path d="M379.633 346.112L299.841 364.064C299.151 364.219 298.55 364.642 298.172 365.24C297.794 365.838 297.668 366.562 297.824 367.253C297.979 367.943 298.402 368.543 299 368.922C299.598 369.3 300.322 369.425 301.013 369.27L380.804 351.319C381.494 351.163 382.095 350.74 382.473 350.142C382.852 349.544 382.977 348.82 382.821 348.13C382.666 347.439 382.243 346.839 381.645 346.461C381.047 346.082 380.323 345.957 379.633 346.112Z" fill="#E4E4E4"/>
<path d="M332.116 346.001L297.528 353.783C297.187 353.859 296.864 354.003 296.577 354.204C296.291 354.406 296.048 354.662 295.861 354.958C295.673 355.254 295.546 355.584 295.487 355.929C295.427 356.273 295.436 356.627 295.513 356.968C295.589 357.31 295.733 357.633 295.934 357.919C296.136 358.205 296.392 358.449 296.688 358.636C296.984 358.823 297.314 358.95 297.658 359.01C298.003 359.069 298.357 359.061 298.698 358.984L333.286 351.202C333.629 351.126 333.953 350.983 334.24 350.782C334.527 350.58 334.771 350.324 334.959 350.028C335.147 349.732 335.275 349.402 335.335 349.056C335.395 348.711 335.386 348.357 335.309 348.015C335.232 347.673 335.088 347.349 334.886 347.063C334.684 346.776 334.427 346.532 334.131 346.345C333.834 346.158 333.503 346.032 333.158 345.972C332.812 345.913 332.458 345.923 332.116 346.001Z" fill="#E4E4E4"/>
<path d="M372.474 314.294L292.683 332.245C292.341 332.322 292.018 332.466 291.731 332.668C291.445 332.869 291.201 333.126 291.014 333.422C290.635 334.02 290.51 334.744 290.665 335.434C290.821 336.125 291.244 336.725 291.842 337.103C292.44 337.482 293.164 337.607 293.854 337.452L373.645 319.5C374.336 319.345 374.936 318.922 375.315 318.324C375.693 317.726 375.818 317.002 375.663 316.311C375.508 315.621 375.084 315.02 374.486 314.642C373.888 314.264 373.164 314.139 372.474 314.294Z" fill="#E4E4E4"/>
<path d="M370.161 304.014L290.37 321.965C290.028 322.041 289.704 322.184 289.417 322.386C289.131 322.587 288.886 322.844 288.699 323.14C288.511 323.436 288.384 323.766 288.324 324.111C288.264 324.456 288.272 324.81 288.349 325.152C288.426 325.494 288.57 325.817 288.772 326.104C288.974 326.39 289.231 326.634 289.527 326.821C289.823 327.008 290.154 327.135 290.499 327.194C290.845 327.253 291.198 327.244 291.54 327.166L371.331 309.215C371.673 309.138 371.997 308.995 372.283 308.794C372.569 308.592 372.813 308.336 373.001 308.04C373.188 307.744 373.315 307.414 373.375 307.069C373.435 306.724 373.426 306.37 373.349 306.029C373.273 305.687 373.129 305.364 372.927 305.078C372.725 304.791 372.469 304.548 372.173 304.361C371.877 304.173 371.547 304.046 371.202 303.987C370.856 303.927 370.503 303.937 370.161 304.014Z" fill="#E4E4E4"/>
<path d="M322.644 303.897L288.056 311.679C287.365 311.834 286.765 312.257 286.387 312.855C286.008 313.453 285.883 314.177 286.038 314.868C286.194 315.558 286.617 316.159 287.215 316.537C287.813 316.915 288.537 317.041 289.227 316.885L323.815 309.104C324.506 308.948 325.106 308.525 325.485 307.927C325.863 307.329 325.988 306.605 325.833 305.915C325.678 305.224 325.254 304.624 324.656 304.245C324.058 303.867 323.334 303.742 322.644 303.897Z" fill="#E4E4E4"/>
<path d="M186.014 281C185.619 281 185.227 281.072 184.861 281.212C184.495 281.352 184.163 281.557 183.883 281.816C183.603 282.075 183.381 282.382 183.23 282.72C183.078 283.058 183 283.42 183 283.786C183 283.891 183.093 498.525 183.093 498.525C183.175 499.206 183.526 499.835 184.079 500.292C184.632 500.748 185.347 501 186.088 501H605.857C606.599 501.001 607.314 500.748 607.867 500.292C608.419 499.835 608.77 499.206 608.853 498.525L634.981 284.099C635.029 283.709 634.987 283.315 634.858 282.941C634.729 282.567 634.517 282.222 634.234 281.93C633.953 281.636 633.607 281.401 633.219 281.24C632.831 281.08 632.411 280.998 631.987 281L186.014 281Z" fill="#565656"/>
<path d="M521.336 114.094C521.119 113.536 520.795 113.027 520.38 112.595C519.966 112.164 519.47 111.818 518.922 111.579C518.373 111.341 517.783 111.212 517.185 111.203C516.587 111.193 515.993 111.302 515.437 111.523L485.613 123.242C485.056 123.459 484.546 123.784 484.115 124.198C483.683 124.612 483.338 125.108 483.099 125.656C482.86 126.205 482.732 126.795 482.722 127.393C482.713 127.991 482.821 128.586 483.042 129.141L494.762 158.965C494.978 159.523 495.303 160.032 495.717 160.464C496.132 160.895 496.627 161.24 497.176 161.479C497.724 161.718 498.315 161.846 498.913 161.856C499.511 161.866 500.105 161.757 500.661 161.536C501.219 161.319 501.728 160.994 502.159 160.58C502.591 160.166 502.936 159.67 503.175 159.122C503.414 158.573 503.542 157.983 503.552 157.385C503.562 156.787 503.453 156.193 503.232 155.637L493.135 130.03L518.765 119.993C519.323 119.776 519.832 119.452 520.264 119.037C520.695 118.623 521.04 118.127 521.279 117.579C521.518 117.03 521.646 116.44 521.656 115.842C521.666 115.244 521.557 114.65 521.336 114.094ZM557.981 154.78L546.262 124.956C546.043 124.4 545.717 123.892 545.302 123.462C544.888 123.032 544.392 122.688 543.844 122.449C542.738 121.967 541.486 121.944 540.363 122.385C539.806 122.604 539.299 122.93 538.869 123.345C538.438 123.759 538.094 124.255 537.855 124.803C537.373 125.909 537.35 127.161 537.792 128.285L547.889 153.891L522.258 163.928C521.701 164.145 521.191 164.47 520.76 164.884C520.328 165.298 519.983 165.794 519.744 166.342C519.505 166.891 519.377 167.481 519.367 168.079C519.358 168.677 519.467 169.272 519.688 169.827C519.904 170.385 520.229 170.894 520.643 171.326C521.058 171.757 521.553 172.103 522.102 172.342C522.65 172.581 523.24 172.709 523.839 172.718C524.437 172.728 525.031 172.619 525.587 172.398L555.41 160.679C555.968 160.462 556.477 160.138 556.909 159.723C557.34 159.309 557.685 158.813 557.924 158.265C558.163 157.716 558.292 157.126 558.301 156.528C558.311 155.93 558.202 155.336 557.981 154.78Z" fill="#0A74E6"/>
<path d="M338.548 216.075C337.439 216.058 335.766 216.587 335.732 218.806C335.698 221.026 335.681 222.135 335.655 223.8C335.63 225.464 332.839 226.532 332.839 226.532C332.839 226.532 335.596 227.684 335.571 229.348C335.545 231.013 335.511 233.232 335.477 235.452C335.443 237.671 337.099 238.251 338.209 238.268" stroke="#0A74E6" stroke-width="2.21963" stroke-linecap="round" stroke-linejoin="round"/>
<path d="M442 250C443.11 250.021 444.764 250.606 444.723 252.826C444.681 255.045 444.661 256.154 444.63 257.819C444.599 259.483 447.353 260.644 447.353 260.644C447.353 260.644 444.558 261.703 444.527 263.367C444.496 265.031 444.455 267.251 444.414 269.47C444.373 271.689 442.698 272.213 441.588 272.193" stroke="#0A74E6" stroke-width="2.21963" stroke-linecap="round" stroke-linejoin="round"/>
<rect width="58.6236" height="3" rx="1.5" transform="matrix(0.9998 0.0199883 -0.0188123 0.999823 347 225.491)" fill="#0A74E6"/>
<rect width="12.8682" height="3" rx="1.5" transform="matrix(0.999804 0.0197801 -0.0190008 0.999819 412 226.774)" fill="#0A74E6"/>
<rect width="18.493" height="3" rx="1.5" transform="matrix(0.999804 0.0197801 -0.0190008 0.999819 430 226.946)" fill="#0A74E6"/>
<rect width="23.2271" height="3" rx="1.5" transform="matrix(0.999865 0.0164358 -0.0152598 0.999884 331 256.699)" fill="#0A74E6"/>
<rect width="70.3423" height="3" rx="1.5" transform="matrix(0.999868 0.0162276 -0.0154483 0.999881 361 257.18)" fill="#0A74E6"/>
<path d="M609 539.847H865.338V410.077H609V539.847Z" fill="#0A74E6" fill-opacity="0.05"/>
<path d="M537.606 519.722H810.429V381.606H537.606V519.722Z" fill="white"/>
<path d="M812.035 521.327H536V380H812.035V521.327ZM537.606 519.721H810.429V381.606H537.606V519.721Z" fill="#565656"/>
<path d="M614.381 428.083H586.589V430.399H614.381V428.083Z" fill="#0A74E6"/>
<path d="M651.436 428.083H623.645V430.399H651.436V428.083Z" fill="#0A74E6"/>
<path d="M705.283 449.506H677.491V451.822H705.283V449.506Z" fill="#0A74E6"/>
<path d="M742.918 449.506H715.126V451.822H742.918V449.506Z" fill="#0A74E6"/>
<path d="M742.918 428.083H661.279V430.399H742.918V428.083Z" fill="#0A74E6"/>
<path d="M668.228 449.506H586.589V451.822H668.228V449.506Z" fill="#0A74E6"/>
<path d="M668.228 470.929H586.589V473.245H668.228V470.929Z" fill="#0A74E6"/>
<path d="M742.918 470.929H686.176V473.245H742.918V470.929Z" fill="#0A74E6"/>
<path d="M578.777 437.86L569 428.083L578.777 418.305L580.733 420.261L572.912 428.083L580.733 435.903L578.777 437.86Z" fill="#0A74E6"/>
<path d="M769.258 483.022L767.301 481.066L775.123 473.244L767.301 465.423L769.258 463.467L779.035 473.244L769.258 483.022Z" fill="#0A74E6"/>
<path d="M758.964 463L753.174 482.107L755.822 482.909L761.612 463.803L758.964 463Z" fill="#0A74E6"/>
</svg>
