<svg width="748" height="570" viewBox="0 0 748 570" fill="none" xmlns="http://www.w3.org/2000/svg">
<path d="M2 313C2 313 119.805 35 377.636 35C661.364 35 746 313 746 313" stroke="url(#paint0_linear_66_4)" stroke-width="2.28844"/>
<circle cx="85" cy="186" r="35" fill="url(#paint1_linear_66_4)"/>
<path d="M90.0776 171.303L91.6479 168.47C91.6681 168.434 91.6808 168.394 91.6856 168.352C91.6903 168.311 91.6868 168.269 91.6753 168.229C91.6639 168.189 91.6447 168.152 91.6188 168.119C91.5929 168.087 91.5609 168.06 91.5246 168.04C91.4512 167.999 91.3646 167.989 91.2839 168.012C91.2032 168.035 91.1351 168.09 91.0944 168.163L89.5066 171.027C88.1519 170.434 86.6888 170.127 85.2096 170.127C83.7305 170.127 82.2673 170.434 80.9126 171.027L79.3248 168.163C79.2841 168.09 79.216 168.035 79.1353 168.012C79.0546 167.989 78.968 167.999 78.8946 168.04C78.8212 168.08 78.767 168.149 78.7439 168.229C78.7207 168.31 78.7306 168.396 78.7713 168.47L80.3417 171.303C78.8468 172.04 77.5838 173.174 76.6911 174.581C75.7984 175.989 75.3105 177.615 75.281 179.281H95.1383C95.1087 177.615 94.6209 175.989 93.7282 174.581C92.8355 173.174 91.5724 172.04 90.0776 171.303ZM80.6271 175.648C80.4631 175.648 80.3028 175.599 80.1664 175.508C80.0301 175.417 79.9238 175.287 79.861 175.136C79.7983 174.984 79.7818 174.818 79.8138 174.657C79.8458 174.496 79.9248 174.348 80.0408 174.232C80.1567 174.116 80.3045 174.037 80.4653 174.005C80.6262 173.973 80.7929 173.99 80.9444 174.053C81.0959 174.115 81.2254 174.222 81.3165 174.358C81.4076 174.494 81.4563 174.655 81.4563 174.819C81.456 175.038 81.3686 175.249 81.2131 175.405C81.0577 175.56 80.8469 175.647 80.6271 175.648ZM89.7921 175.648C89.6281 175.648 89.4678 175.599 89.3315 175.508C89.1951 175.417 89.0888 175.287 89.0261 175.136C88.9633 174.984 88.9469 174.818 88.9789 174.657C89.0109 174.496 89.0898 174.348 89.2058 174.232C89.3218 174.116 89.4695 174.037 89.6304 174.005C89.7912 173.973 89.9579 173.99 90.1094 174.053C90.2609 174.115 90.3904 174.222 90.4816 174.358C90.5727 174.494 90.6213 174.655 90.6213 174.819C90.621 175.038 90.5336 175.249 90.3782 175.405C90.2227 175.56 90.012 175.647 89.7921 175.648ZM75.2808 194.458C75.2808 195.095 75.5337 195.705 75.9839 196.155C76.4341 196.605 77.0446 196.858 77.6812 196.858H79.2741V201.768C79.2733 202.061 79.3303 202.351 79.4418 202.622C79.5533 202.893 79.7171 203.139 79.9239 203.346C80.1307 203.553 80.3763 203.718 80.6468 203.83C80.9172 203.942 81.2071 204 81.4999 204C81.7928 204 82.0827 203.942 82.3531 203.83C82.6236 203.718 82.8692 203.553 83.076 203.346C83.2827 203.139 83.4466 202.893 83.5581 202.622C83.6696 202.351 83.7266 202.061 83.7258 201.768V196.858H86.6934V201.768C86.6926 202.061 86.7496 202.351 86.8611 202.622C86.9726 202.893 87.1364 203.139 87.3432 203.346C87.55 203.553 87.7956 203.718 88.0661 203.83C88.3365 203.942 88.6264 204 88.9193 204C89.2121 204 89.502 203.942 89.7724 203.83C90.0429 203.718 90.2885 203.553 90.4953 203.346C90.7021 203.139 90.8659 202.893 90.9774 202.622C91.0889 202.351 91.1459 202.061 91.1451 201.768V196.858H92.7381C93.3747 196.858 93.9852 196.605 94.4354 196.155C94.8855 195.705 95.1384 195.095 95.1384 194.458V180.067H75.2808V194.458ZM72.2258 179.685C71.6357 179.685 71.0699 179.92 70.6526 180.337C70.2354 180.755 70.0006 181.32 70 181.911V191.185C69.9992 191.478 70.0562 191.768 70.1677 192.038C70.2792 192.309 70.443 192.555 70.6498 192.763C70.8565 192.97 71.1022 193.134 71.3726 193.247C71.6431 193.359 71.933 193.417 72.2258 193.417C72.5186 193.417 72.8086 193.359 73.079 193.247C73.3494 193.134 73.5951 192.97 73.8018 192.763C74.0086 192.555 74.1724 192.309 74.2839 192.038C74.3954 191.768 74.4524 191.478 74.4516 191.185V181.911C74.451 181.32 74.2163 180.755 73.799 180.337C73.3817 179.92 72.8159 179.685 72.2258 179.685ZM98.1934 179.685C97.6033 179.685 97.0375 179.92 96.6202 180.337C96.2029 180.755 95.9682 181.32 95.9676 181.911V191.185C95.9668 191.478 96.0237 191.768 96.1353 192.038C96.2468 192.309 96.4106 192.555 96.6173 192.763C96.8241 192.97 97.0698 193.134 97.3402 193.247C97.6106 193.359 97.9006 193.417 98.1934 193.417C98.4862 193.417 98.7761 193.359 99.0466 193.247C99.317 193.134 99.5627 192.97 99.7694 192.763C99.9762 192.555 100.14 192.309 100.252 192.038C100.363 191.768 100.42 191.478 100.419 191.185V181.911C100.419 181.32 100.184 180.755 99.7666 180.337C99.3493 179.92 98.7835 179.685 98.1934 179.685Z" fill="white"/>
<circle cx="374" cy="35" r="35" fill="black"/>
<path d="M378.729 21.5024C379.381 20.7508 379.878 19.8778 380.192 18.9336C380.506 17.9893 380.63 16.9924 380.557 16C378.555 16.1616 376.697 17.1032 375.382 18.6218C374.753 19.3497 374.276 20.1964 373.98 21.1119C373.683 22.0275 373.574 22.9931 373.658 23.9517C374.634 23.9599 375.599 23.7432 376.479 23.3184C377.358 22.8937 378.128 22.2723 378.729 21.5024ZM383.075 34.3355C383.087 33.0138 383.435 31.7168 384.087 30.567C384.739 29.4172 385.673 28.4524 386.801 27.7637C386.089 26.7378 385.148 25.8919 384.052 25.2931C382.956 24.6943 381.736 24.3591 380.488 24.3139C377.797 24.038 375.313 25.8836 373.882 25.8836C372.45 25.8836 370.432 24.3484 368.19 24.3829C366.724 24.4312 365.295 24.8586 364.044 25.6235C362.792 26.3883 361.76 27.4644 361.049 28.7469C358.013 34.0251 360.272 41.8733 363.308 46.1337C364.688 48.2209 366.413 50.584 368.69 50.4977C370.967 50.4115 371.708 49.0833 374.347 49.0833C376.987 49.0833 377.797 50.4977 380.04 50.446C382.282 50.3942 383.869 48.3071 385.318 46.22C386.344 44.7047 387.146 43.0489 387.698 41.3041C386.331 40.7211 385.165 39.7504 384.343 38.512C383.522 37.2736 383.081 35.8217 383.075 34.3355Z" fill="white"/>
<circle cx="668" cy="186" r="35" fill="url(#paint2_linear_66_4)"/>
<path fill-rule="evenodd" clip-rule="evenodd" d="M684.12 170L667.078 172.526V184.998H684.12V170ZM665.153 172.767L652 174.692V184.998H665.153V172.767ZM665.153 199.233L652 197.308V187.002H665.153V199.233ZM667.078 199.474L684.12 202V187.003H667.078V199.474Z" fill="white"/>
<rect x="274" y="184" width="199" height="385" rx="18" stroke="black" stroke-width="2"/>
<rect x="288" y="200" width="171" height="355" rx="15" fill="#0A74E6" fill-opacity="0.1"/>
<path d="M373.108 354.353C370.697 354.333 368.333 355.029 366.317 356.352C364.3 357.676 362.722 359.567 361.78 361.788C360.839 364.008 360.577 366.458 361.029 368.827C361.48 371.197 362.623 373.379 364.314 375.098C366.006 376.818 368.169 377.997 370.53 378.487C372.892 378.977 375.346 378.756 377.581 377.851C379.817 376.946 381.734 375.399 383.091 373.405C384.447 371.41 385.182 369.059 385.201 366.647C385.228 363.413 383.969 360.301 381.701 357.996C379.433 355.69 376.342 354.38 373.108 354.353ZM413.505 393.474C413.279 392.279 413.016 391.06 412.716 389.816C413.582 389.569 414.431 389.311 415.262 389.044C430.959 383.987 441.213 375.686 441.284 367.11C441.352 358.887 431.887 350.855 417.181 345.656C415.731 345.146 414.27 344.672 412.796 344.235C413.049 343.242 413.284 342.244 413.5 341.242C416.961 325.117 414.893 312.086 407.499 307.742C400.409 303.575 388.723 307.762 376.873 317.904C375.705 318.906 374.563 319.936 373.447 320.996C372.712 320.28 371.963 319.577 371.202 318.888C358.96 307.837 346.638 303.121 339.181 307.356C332.03 311.417 329.821 323.633 332.69 338.966C332.976 340.484 333.3 341.995 333.662 343.497C331.91 343.979 330.216 344.494 328.595 345.045C314.097 349.966 304.799 357.789 304.731 365.983C304.661 374.446 314.502 383.016 329.518 388.287C330.736 388.712 331.964 389.107 333.201 389.472C332.785 391.083 332.414 392.706 332.088 394.338C329.108 409.357 331.24 421.319 338.304 425.472C345.6 429.759 357.941 425.516 370.009 415.142C370.962 414.322 371.92 413.451 372.88 412.539C374.069 413.706 375.29 414.838 376.543 415.937C388.066 426.02 399.495 430.147 406.621 426.101C413.98 421.921 416.466 409.11 413.504 393.473L413.505 393.474ZM342.062 312.429C346.652 309.822 356.722 313.676 367.292 323.218C367.967 323.828 368.645 324.464 369.324 325.127C365.096 329.628 361.17 334.405 357.574 339.426C351.44 339.925 345.346 340.821 339.328 342.107C338.991 340.71 338.69 339.305 338.424 337.892L338.424 337.893C335.966 324.755 337.752 314.876 342.062 312.429ZM345.099 359.595C343.433 355.552 342.013 351.579 340.858 347.743C344.761 346.904 348.922 346.225 353.255 345.72C351.787 347.968 350.373 350.25 349.012 352.565C347.653 354.878 346.349 357.221 345.099 359.595ZM331.451 382.783C325.683 380.916 320.308 378.003 315.594 374.19C314.242 373.246 313.099 372.035 312.233 370.632C311.368 369.229 310.8 367.663 310.564 366.031C310.605 361.059 318.071 354.778 330.47 350.569C332.027 350.043 333.598 349.563 335.183 349.129C336.97 355.034 339.146 360.813 341.696 366.43C339.02 372.084 336.721 377.908 334.813 383.865C333.684 383.532 332.563 383.171 331.451 382.783ZM401.077 360.062C399.835 357.657 398.545 355.277 397.207 352.923C395.891 350.607 394.526 348.319 393.111 346.06C397.464 346.646 401.632 347.412 405.544 348.339C404.253 352.319 402.762 356.232 401.077 360.062ZM380.666 322.337C390.82 313.646 400.271 310.26 404.543 312.771C409.094 315.446 410.785 326.095 407.796 340.018C407.601 340.925 407.389 341.828 407.161 342.728C401.156 341.315 395.064 340.301 388.926 339.692C385.448 334.607 381.632 329.763 377.502 325.191C378.533 324.214 379.588 323.262 380.666 322.337ZM373.38 329.329C376.194 332.449 378.849 335.709 381.336 339.096C375.961 338.798 370.581 338.752 365.197 338.959C367.878 335.482 370.623 332.255 373.38 329.329ZM344.993 373.315C346.208 375.71 347.479 378.076 348.805 380.413C350.159 382.796 351.569 385.145 353.035 387.461C348.812 386.967 344.617 386.257 340.467 385.334C341.705 381.45 343.223 377.416 344.993 373.315ZM366.206 410.717C361.707 414.781 356.499 417.982 350.841 420.16L350.841 420.161C349.348 420.86 347.727 421.245 346.08 421.294C344.432 421.342 342.792 421.052 341.26 420.441C336.974 417.922 335.263 408.317 337.811 395.473C338.114 393.956 338.459 392.447 338.845 390.948C344.901 392.301 351.042 393.242 357.225 393.764C360.769 398.872 364.645 403.743 368.827 408.343C367.973 409.155 367.1 409.947 366.206 410.717ZM372.923 404.178C370.183 401.172 367.453 397.85 364.789 394.278C367.402 394.402 370.065 394.476 372.777 394.499C375.56 394.522 378.308 394.483 381.021 394.384C378.491 397.785 375.788 401.054 372.923 404.179L372.923 404.178ZM391.972 377.814C389.873 381.391 387.661 384.896 385.334 388.33C381.28 388.586 377.091 388.701 372.825 388.666C368.576 388.631 364.443 388.464 360.465 388.174C358.136 384.71 355.94 381.163 353.878 377.532C351.827 373.923 349.916 370.239 348.143 366.481C349.972 362.755 351.938 359.102 354.043 355.521L354.043 355.522C356.145 351.943 358.381 348.448 360.751 345.036C364.814 344.762 368.979 344.636 373.188 344.671C377.417 344.705 381.584 344.902 385.642 345.245C387.93 348.687 390.094 352.207 392.135 355.804C394.186 359.409 396.118 363.077 397.931 366.81C396.076 370.548 394.089 374.216 391.972 377.814L391.972 377.814ZM415.237 351.157C427.837 355.611 435.492 362.106 435.451 367.062C435.407 372.341 427.026 379.125 413.473 383.492L413.473 383.493C412.724 383.733 411.958 383.966 411.173 384.191C409.312 378.258 407.05 372.459 404.401 366.834C407.04 361.328 409.307 355.651 411.187 349.842C412.581 350.259 413.931 350.697 415.237 351.157ZM401.021 373.568C402.724 377.504 404.221 381.526 405.508 385.618C401.294 386.529 397.036 387.218 392.751 387.685C394.213 385.408 395.63 383.104 397.001 380.77C398.394 378.4 399.734 375.999 401.021 373.568ZM403.739 421.027C399.415 423.483 390.239 420.169 380.385 411.546C379.255 410.558 378.119 409.505 376.977 408.387C381.153 403.84 385.017 399.016 388.543 393.948C394.77 393.474 400.957 392.573 407.061 391.25C407.33 392.376 407.567 393.479 407.772 394.559L407.773 394.559C409.047 400.486 409.219 406.597 408.28 412.587C408.141 414.229 407.666 415.826 406.885 417.278C406.104 418.729 405.033 420.005 403.739 421.027Z" fill="#53C1DE"/>
<path fill-rule="evenodd" clip-rule="evenodd" d="M366.032 482.065C368.049 480.741 370.412 480.045 372.824 480.065C376.058 480.092 379.149 481.403 381.416 483.708C382.065 484.367 382.63 485.092 383.107 485.866H362.339C363.273 484.35 364.531 483.05 366.032 482.065ZM351.134 485.866C351.984 484.309 352.858 482.764 353.758 481.233L353.758 481.234C355.861 477.655 358.097 474.16 360.467 470.748C364.53 470.474 368.695 470.348 372.904 470.383C377.132 470.417 381.3 470.614 385.358 470.957C387.646 474.399 389.81 477.919 391.85 481.517C392.67 482.956 393.47 484.406 394.251 485.866H407.101C408.505 482.482 409.774 479.042 410.903 475.554C412.297 475.971 413.646 476.409 414.952 476.869C422.175 479.422 427.773 482.646 431.228 485.866H438.814C435.217 480.231 427.391 475.079 416.896 471.368C415.447 470.858 413.986 470.384 412.512 469.947C412.765 468.954 413 467.956 413.216 466.955C416.677 450.829 414.609 437.799 407.215 433.454C400.125 429.287 388.439 433.474 376.588 443.617C375.42 444.618 374.279 445.648 373.163 446.708C372.427 445.992 371.679 445.289 370.917 444.601C358.676 433.549 346.354 428.833 338.897 433.068C331.746 437.129 329.537 449.346 332.406 464.678C332.692 466.197 333.016 467.707 333.378 469.209C331.625 469.691 329.931 470.207 328.311 470.757C317.309 474.491 309.302 479.896 306.05 485.866H313.24C316.511 482.413 322.368 478.935 330.186 476.281C331.743 475.755 333.314 475.276 334.898 474.842C336.027 478.569 337.31 482.248 338.745 485.866H351.134ZM367.007 448.93C356.438 439.389 346.368 435.534 341.777 438.141C337.468 440.588 335.682 450.468 338.14 463.605L338.14 463.604C338.406 465.018 338.707 466.423 339.044 467.819C345.062 466.533 351.156 465.637 357.289 465.138C360.886 460.117 364.811 455.341 369.04 450.839C368.36 450.177 367.683 449.54 367.007 448.93ZM340.573 473.455C341.728 477.291 343.149 481.264 344.815 485.307C346.065 482.933 347.369 480.59 348.728 478.278C350.089 475.962 351.503 473.68 352.971 471.433C348.637 471.937 344.477 472.616 340.573 473.455ZM396.923 478.636C398.261 480.989 399.55 483.369 400.792 485.774C402.478 481.944 403.969 478.031 405.26 474.051C401.347 473.124 397.18 472.359 392.827 471.772C394.241 474.031 395.607 476.319 396.923 478.636ZM404.259 438.483C399.986 435.972 390.536 439.358 380.382 448.049C379.304 448.974 378.249 449.926 377.218 450.903C381.348 455.475 385.164 460.319 388.642 465.404C394.78 466.013 400.872 467.027 406.876 468.44C407.104 467.54 407.316 466.637 407.512 465.73C410.501 451.808 408.81 441.158 404.259 438.483ZM381.051 464.808C378.565 461.421 375.91 458.161 373.096 455.041C370.339 457.967 367.594 461.195 364.912 464.671C370.297 464.464 375.677 464.51 381.051 464.808Z" fill="url(#paint3_linear_66_4)"/>
<defs>
<linearGradient id="paint0_linear_66_4" x1="374" y1="35" x2="374.249" y2="313" gradientUnits="userSpaceOnUse">
<stop stop-color="#565656"/>
<stop offset="0.743386" stop-color="#565656" stop-opacity="0.110772"/>
<stop offset="0.95694" stop-color="#565656" stop-opacity="0"/>
</linearGradient>
<linearGradient id="paint1_linear_66_4" x1="85" y1="151" x2="92.5" y2="221" gradientUnits="userSpaceOnUse">
<stop stop-color="#32DE84"/>
<stop offset="0.410033" stop-color="#30D47E"/>
<stop offset="1" stop-color="#27A362"/>
</linearGradient>
<linearGradient id="paint2_linear_66_4" x1="668" y1="151" x2="679" y2="234.5" gradientUnits="userSpaceOnUse">
<stop stop-color="#00A1F1"/>
<stop offset="0.342321" stop-color="#0195DE"/>
<stop offset="1" stop-color="#08567D"/>
</linearGradient>
<linearGradient id="paint3_linear_66_4" x1="373.025" y1="368.585" x2="372" y2="488.5" gradientUnits="userSpaceOnUse">
<stop offset="0.217071" stop-color="#53C1DE"/>
<stop offset="0.547488" stop-color="#53C1DE" stop-opacity="0.126398"/>
<stop offset="1" stop-color="#53C1DE" stop-opacity="0"/>
</linearGradient>
</defs>
</svg>
