<svg width="864" height="521" viewBox="0 0 864 521" fill="none" xmlns="http://www.w3.org/2000/svg">
<path d="M559.743 55H7.92699C5.82516 55.0019 3.80995 55.8377 2.32376 57.324C0.837573 58.8102 0.00184384 60.8254 0 62.9272V436.853C0.00184384 438.954 0.837573 440.97 2.32376 442.456C3.80995 443.942 5.82516 444.778 7.92699 444.78H559.743C560.889 444.78 562.021 444.531 563.062 444.051C564.102 443.571 565.027 442.87 565.77 441.998C565.833 441.93 565.891 441.857 565.943 441.78C566.416 441.201 566.799 440.555 567.079 439.862C567.478 438.909 567.682 437.886 567.679 436.853V62.9272C567.677 60.8239 566.839 58.8076 565.351 57.3212C563.863 55.8347 561.846 54.9999 559.743 55ZM565.415 436.853C565.416 437.959 565.091 439.04 564.479 439.962C563.935 440.773 563.198 441.435 562.334 441.889C561.533 442.303 560.644 442.518 559.743 442.516H7.92699C6.42546 442.514 4.98595 441.917 3.92421 440.855C2.86247 439.794 2.26519 438.354 2.26337 436.853V62.9272C2.26519 61.4257 2.86247 59.9862 3.92421 58.9245C4.98595 57.8627 6.42546 57.2655 7.92699 57.2636H559.743C561.246 57.2635 562.687 57.8598 563.751 58.9217C564.815 59.9836 565.413 61.4243 565.415 62.9272V436.853Z" fill="#565656"/>
<path d="M566.542 86.7719H1.12967V89.0381H566.542V86.7719Z" fill="#565656"/>
<path d="M20.3922 78.795C24.1469 78.795 27.1907 75.7512 27.1907 71.9965C27.1907 68.2417 24.1469 65.1979 20.3922 65.1979C16.6375 65.1979 13.5936 68.2417 13.5936 71.9965C13.5936 75.7512 16.6375 78.795 20.3922 78.795Z" fill="#565656"/>
<path d="M39.9381 78.795C43.6928 78.795 46.7366 75.7512 46.7366 71.9965C46.7366 68.2417 43.6928 65.1979 39.9381 65.1979C36.1834 65.1979 33.1395 68.2417 33.1395 71.9965C33.1395 75.7512 36.1834 78.795 39.9381 78.795Z" fill="#565656"/>
<path d="M59.4839 78.795C63.2386 78.795 66.2825 75.7512 66.2825 71.9965C66.2825 68.2417 63.2386 65.1979 59.4839 65.1979C55.7292 65.1979 52.6854 68.2417 52.6854 71.9965C52.6854 75.7512 55.7292 78.795 59.4839 78.795Z" fill="#565656"/>
<path d="M499.493 251.064H58.5863C54.489 251.059 50.5608 249.43 47.6635 246.532C44.7662 243.635 43.1365 239.707 43.1319 235.61V141.974C43.1365 137.876 44.7662 133.948 47.6635 131.051C50.5608 128.153 54.489 126.524 58.5863 126.519H499.493C503.591 126.524 507.519 128.153 510.416 131.051C513.313 133.948 514.943 137.876 514.948 141.974V235.61C514.943 239.707 513.313 243.635 510.416 246.532C507.519 249.43 503.591 251.059 499.493 251.064ZM58.5863 128.337C54.971 128.341 51.505 129.779 48.9485 132.336C46.3921 134.892 44.9541 138.358 44.95 141.974V235.61C44.9541 239.225 46.3921 242.691 48.9485 245.247C51.505 247.804 54.971 249.242 58.5863 249.246H499.493C503.109 249.242 506.575 247.804 509.131 245.247C511.688 242.691 513.126 239.225 513.13 235.61V141.974C513.126 138.358 511.688 134.892 509.131 132.336C506.575 129.779 503.109 128.341 499.493 128.337H58.5863Z" fill="#F2F2F2"/>
<path d="M155.859 420.154H58.5863C54.489 420.15 50.5608 418.52 47.6635 415.623C44.7662 412.725 43.1365 408.797 43.1319 404.7V335.609C43.1365 331.512 44.7662 327.583 47.6635 324.686C50.5608 321.789 54.489 320.159 58.5863 320.155H155.859C159.956 320.159 163.884 321.789 166.781 324.686C169.679 327.583 171.308 331.512 171.313 335.609V404.7C171.308 408.797 169.679 412.725 166.781 415.623C163.884 418.52 159.956 420.15 155.859 420.154ZM58.5863 321.973C54.971 321.977 51.505 323.415 48.9485 325.971C46.3921 328.528 44.9541 331.994 44.95 335.609V404.7C44.9541 408.315 46.3921 411.781 48.9485 414.337C51.505 416.894 54.971 418.332 58.5863 418.336H155.859C159.474 418.332 162.94 416.894 165.496 414.337C168.053 411.781 169.491 408.315 169.495 404.7V335.609C169.491 331.994 168.053 328.528 165.496 325.971C162.94 323.415 159.474 321.977 155.859 321.973H58.5863Z" fill="#F2F2F2"/>
<path d="M499.493 420.154H402.221C398.124 420.15 394.196 418.52 391.298 415.623C388.401 412.725 386.771 408.797 386.767 404.7V335.609C386.771 331.512 388.401 327.583 391.298 324.686C394.196 321.789 398.124 320.159 402.221 320.155H499.493C503.591 320.159 507.519 321.789 510.416 324.686C513.314 327.583 514.943 331.512 514.948 335.609V404.7C514.943 408.797 513.314 412.725 510.416 415.623C507.519 418.52 503.591 420.15 499.493 420.154ZM402.221 321.973C398.606 321.977 395.14 323.415 392.583 325.971C390.027 328.528 388.589 331.994 388.585 335.609V404.7C388.589 408.315 390.027 411.781 392.583 414.337C395.14 416.894 398.606 418.332 402.221 418.336H499.493C503.109 418.332 506.575 416.894 509.131 414.337C511.688 411.781 513.126 408.315 513.13 404.7V335.609C513.126 331.994 511.688 328.528 509.131 325.971C506.575 323.415 503.109 321.977 499.493 321.973H402.221Z" fill="#F2F2F2"/>
<path d="M334.949 420.154H237.676C233.579 420.15 229.651 418.52 226.754 415.623C223.856 412.725 222.227 408.797 222.222 404.7V335.609C222.227 331.512 223.856 327.583 226.754 324.686C229.651 321.789 233.579 320.159 237.676 320.155H334.949C339.046 320.159 342.974 321.789 345.872 324.686C348.769 327.583 350.399 331.512 350.403 335.609V404.7C350.399 408.797 348.769 412.725 345.872 415.623C342.974 418.52 339.046 420.15 334.949 420.154ZM237.676 321.973C234.061 321.977 230.595 323.415 228.039 325.971C225.482 328.528 224.044 331.994 224.04 335.609V404.7C224.044 408.315 225.482 411.781 228.039 414.337C230.595 416.894 234.061 418.332 237.676 418.336H334.949C338.564 418.332 342.03 416.894 344.587 414.337C347.143 411.781 348.581 408.315 348.585 404.7V335.609C348.581 331.994 347.143 328.528 344.587 325.971C342.03 323.415 338.564 321.977 334.949 321.973H237.676Z" fill="#F2F2F2"/>
<path d="M48.5415 130.783L48.1095 132.548L513.823 246.492L514.255 244.727L48.5415 130.783Z" fill="#F2F2F2"/>
<path d="M509.529 130.755L48.1138 245.064L48.5511 246.829L509.966 132.519L509.529 130.755Z" fill="#F2F2F2"/>
<path d="M517.675 282.427H76.7682C72.7914 282.423 68.9787 280.841 66.1666 278.029C63.3546 275.217 61.7728 271.404 61.7683 267.427V173.791C61.7728 169.815 63.3546 166.002 66.1666 163.19C68.9787 160.378 72.7914 158.796 76.7682 158.792H517.675C521.652 158.796 525.465 160.378 528.277 163.19C531.089 166.002 532.671 169.815 532.675 173.791V267.427C532.671 271.404 531.089 275.217 528.277 278.029C525.465 280.841 521.652 282.423 517.675 282.427Z" fill="white"/>
<path d="M228.319 324.259L227.201 325.693L343.714 416.582L344.833 415.148L228.319 324.259Z" fill="#F2F2F2"/>
<path d="M344.296 324.26L229.311 416.27L230.447 417.689L345.432 325.68L344.296 324.26Z" fill="#F2F2F2"/>
<path d="M49.2281 324.26L48.1098 325.694L164.624 416.583L165.742 415.149L49.2281 324.26Z" fill="#F2F2F2"/>
<path d="M165.206 324.26L50.2213 416.27L51.3572 417.689L166.342 325.68L165.206 324.26Z" fill="#F2F2F2"/>
<path d="M392.864 324.259L391.746 325.692L508.26 416.581L509.378 415.148L392.864 324.259Z" fill="#F2F2F2"/>
<path d="M508.841 324.26L393.856 416.27L394.992 417.689L509.977 325.68L508.841 324.26Z" fill="#F2F2F2"/>
<path d="M348.585 486.063H251.313C247.336 486.058 243.523 484.477 240.711 481.665C237.899 478.853 236.317 475.04 236.313 471.063V401.972C236.317 397.996 237.899 394.183 240.711 391.371C243.523 388.559 247.336 386.977 251.313 386.972H348.585C352.562 386.977 356.374 388.559 359.187 391.371C361.999 394.183 363.58 397.996 363.585 401.972V471.063C363.58 475.04 361.999 478.853 359.187 481.665C356.374 484.477 352.562 486.058 348.585 486.063Z" fill="#0A74E6"/>
<path d="M312.633 431.518H287.179C285.25 431.518 283.4 430.751 282.036 429.388C280.672 428.024 279.906 426.174 279.906 424.245C279.906 422.316 280.672 420.466 282.036 419.102C283.4 417.739 285.25 416.972 287.179 416.972H312.633C314.562 416.972 316.412 417.739 317.776 419.102C319.14 420.466 319.906 422.316 319.906 424.245C319.906 426.174 319.14 428.024 317.776 429.388C316.412 430.751 314.562 431.518 312.633 431.518Z" fill="white"/>
<path d="M327.676 456.063H272.222C270.293 456.063 268.443 455.297 267.079 453.933C265.715 452.569 264.949 450.719 264.949 448.79C264.949 446.861 265.715 445.012 267.079 443.648C268.443 442.284 270.293 441.518 272.222 441.518H327.676C329.605 441.518 331.455 442.284 332.819 443.648C334.182 445.012 334.949 446.861 334.949 448.79C334.949 450.719 334.182 452.569 332.819 453.933C331.455 455.297 329.605 456.063 327.676 456.063Z" fill="white"/>
<path d="M171.313 433.336H74.0408C70.064 433.331 66.2513 431.75 63.4392 428.938C60.6272 426.125 59.0454 422.313 59.0409 418.336V349.245C59.0454 345.268 60.6272 341.456 63.4392 338.644C66.2513 335.832 70.064 334.25 74.0408 334.245H171.313C175.29 334.25 179.103 335.832 181.915 338.644C184.727 341.456 186.309 345.268 186.313 349.245V418.336C186.309 422.313 184.727 426.125 181.915 428.938C179.103 431.75 175.29 433.331 171.313 433.336Z" fill="#0A74E6"/>
<path d="M135.361 378.791H109.907C107.978 378.791 106.128 378.024 104.764 376.661C103.4 375.297 102.634 373.447 102.634 371.518C102.634 369.589 103.4 367.739 104.764 366.375C106.128 365.012 107.978 364.245 109.907 364.245H135.361C137.29 364.245 139.14 365.012 140.504 366.375C141.868 367.739 142.634 369.589 142.634 371.518C142.634 373.447 141.868 375.297 140.504 376.661C139.14 378.024 137.29 378.791 135.361 378.791Z" fill="white"/>
<path d="M150.404 403.336H94.9498C93.021 403.336 91.1711 402.57 89.8072 401.206C88.4433 399.842 87.6771 397.992 87.6771 396.063C87.6771 394.134 88.4433 392.285 89.8072 390.921C91.1711 389.557 93.021 388.791 94.9498 388.791H150.404C152.333 388.791 154.183 389.557 155.547 390.921C156.911 392.285 157.677 394.134 157.677 396.063C157.677 397.992 156.911 399.842 155.547 401.206C154.183 402.57 152.333 403.336 150.404 403.336Z" fill="white"/>
<path d="M519.402 452.699H422.13C418.153 452.695 414.341 451.113 411.528 448.301C408.716 445.489 407.135 441.676 407.13 437.699V368.609C407.135 364.632 408.716 360.819 411.528 358.007C414.341 355.195 418.153 353.613 422.13 353.609H519.402C523.379 353.613 527.192 355.195 530.004 358.007C532.816 360.819 534.398 364.632 534.402 368.609V437.699C534.398 441.676 532.816 445.489 530.004 448.301C527.192 451.113 523.379 452.695 519.402 452.699Z" fill="#E6E6E6"/>
<path d="M483.451 398.154H457.996C456.067 398.154 454.217 397.388 452.854 396.024C451.49 394.66 450.723 392.81 450.723 390.881C450.723 388.953 451.49 387.103 452.854 385.739C454.217 384.375 456.067 383.609 457.996 383.609H483.451C485.379 383.609 487.229 384.375 488.593 385.739C489.957 387.103 490.723 388.953 490.723 390.881C490.723 392.81 489.957 394.66 488.593 396.024C487.229 397.388 485.379 398.154 483.451 398.154Z" fill="white"/>
<path d="M498.493 422.699H443.039C441.11 422.699 439.26 421.933 437.897 420.569C436.533 419.205 435.766 417.356 435.766 415.427C435.766 413.498 436.533 411.648 437.897 410.284C439.26 408.92 441.11 408.154 443.039 408.154H498.493C500.422 408.154 502.272 408.92 503.636 410.284C505 411.648 505.766 413.498 505.766 415.427C505.766 417.356 505 419.205 503.636 420.569C502.272 421.933 500.422 422.699 498.493 422.699Z" fill="white"/>
<path d="M396.103 280.823V281.973H201.831V280.77L202.877 279.29L264.467 192.339C264.752 191.944 265.127 191.622 265.561 191.4C265.995 191.178 266.475 191.062 266.963 191.062C267.45 191.062 267.93 191.178 268.364 191.4C268.798 191.622 269.173 191.944 269.458 192.339L310.758 250.645L340.158 209.504C340.443 209.111 340.818 208.791 341.251 208.57C341.684 208.349 342.163 208.234 342.649 208.234C343.135 208.234 343.614 208.349 344.047 208.57C344.48 208.791 344.854 209.111 345.139 209.504L395.058 279.353L396.103 280.823Z" fill="#0A74E6" fill-opacity="0.4"/>
<path d="M201.428 222.971C213.916 222.971 224.04 212.847 224.04 200.359C224.04 187.87 213.916 177.747 201.428 177.747C188.94 177.747 178.816 187.87 178.816 200.359C178.816 212.847 188.94 222.971 201.428 222.971Z" fill="#0A74E6" fill-opacity="0.2"/>
<path d="M517.675 282.882H76.7681C72.6707 282.877 68.7425 281.248 65.8452 278.35C62.948 275.453 61.3182 271.525 61.3136 267.428V173.792C61.3182 169.694 62.948 165.766 65.8452 162.869C68.7425 159.971 72.6707 158.342 76.7681 158.337H517.675C521.772 158.342 525.701 159.971 528.598 162.869C531.495 165.766 533.125 169.694 533.13 173.792V267.428C533.125 271.525 531.495 275.453 528.598 278.35C525.701 281.248 521.772 282.877 517.675 282.882ZM76.7681 160.155C73.1528 160.159 69.6867 161.597 67.1303 164.154C64.5739 166.71 63.1359 170.176 63.1318 173.792V267.428C63.1359 271.043 64.5739 274.509 67.1303 277.065C69.6867 279.622 73.1528 281.06 76.7681 281.064H517.675C521.29 281.06 524.757 279.622 527.313 277.065C529.869 274.509 531.307 271.043 531.311 267.428V173.792C531.307 170.176 529.869 166.71 527.313 164.154C524.757 161.597 521.29 160.159 517.675 160.155H76.7681Z" fill="#565656"/>
<path d="M838.892 15.2692H636.554C633.226 15.2739 630.035 16.598 627.682 18.9513C625.329 21.3046 624.005 24.495 624 27.823V283.331C624.005 286.659 625.329 289.849 627.682 292.202C630.035 294.556 633.226 295.88 636.554 295.884H838.892C842.22 295.88 845.411 294.556 847.764 292.202C850.117 289.849 851.441 286.659 851.446 283.331V27.823C851.441 24.495 850.117 21.3046 847.764 18.9513C845.411 16.598 842.22 15.2739 838.892 15.2692ZM849.969 283.331C849.966 286.267 848.797 289.083 846.721 291.159C844.644 293.236 841.829 294.404 838.892 294.408H636.554C633.617 294.404 630.802 293.236 628.725 291.159C626.649 289.083 625.48 286.267 625.477 283.331V27.823C625.48 24.8863 626.649 22.0709 628.725 19.9944C630.802 17.9178 633.617 16.7497 636.554 16.7461H838.892C841.829 16.7497 844.644 17.9178 846.721 19.9944C848.797 22.0709 849.966 24.8863 849.969 27.823V283.331Z" fill="#565656"/>
<path d="M799.016 192.131H676.431C663.909 192.07 663.857 172.996 676.432 172.931H799.016C811.529 172.989 811.597 192.065 799.016 192.131Z" fill="#565656" fill-opacity="0.1"/>
<path d="M799.016 227.577H676.431C663.909 227.516 663.857 208.442 676.432 208.377H799.016C811.529 208.435 811.597 227.511 799.016 227.577Z" fill="#565656" fill-opacity="0.1"/>
<path d="M799.016 263.023H676.431C663.909 262.963 663.857 243.888 676.432 243.823H799.016C811.529 243.882 811.597 262.957 799.016 263.023Z" fill="#565656" fill-opacity="0.1"/>
<path d="M844.8 38.8999C841.003 38.8999 837.29 37.7738 834.133 35.6641C830.976 33.5544 828.515 30.5558 827.061 27.0474C825.608 23.5391 825.228 19.6786 825.969 15.9542C826.71 12.2298 828.538 8.80866 831.224 6.12349C833.909 3.43832 837.33 1.60968 841.054 0.868847C844.779 0.12801 848.639 0.508237 852.148 1.96144C855.656 3.41464 858.654 5.87556 860.764 9.03298C862.874 12.1904 864 15.9025 864 19.6999C863.994 24.7903 861.97 29.6706 858.37 33.27C854.771 36.8695 849.89 38.8942 844.8 38.8999Z" fill="#0A74E6"/>
<path d="M853.662 18.9615H845.538V9.73069C845.538 9.53484 845.461 9.347 845.322 9.20851C845.184 9.07002 844.996 8.99223 844.8 8.99223C844.604 8.99223 844.416 9.07002 844.278 9.20851C844.139 9.347 844.062 9.53484 844.062 9.73069V18.9615H835.938C835.743 18.9615 835.555 19.0393 835.416 19.1777C835.278 19.3162 835.2 19.5041 835.2 19.6999C835.2 19.8958 835.278 20.0836 835.416 20.2221C835.555 20.3606 835.743 20.4384 835.938 20.4384H844.062V29.6691C844.062 29.865 844.139 30.0528 844.278 30.1913C844.416 30.3298 844.604 30.4076 844.8 30.4076C844.996 30.4076 845.184 30.3298 845.322 30.1913C845.461 30.0528 845.538 29.865 845.538 29.6691V20.4384H853.662C853.857 20.4384 854.045 20.3606 854.184 20.2221C854.322 20.0836 854.4 19.8958 854.4 19.6999C854.4 19.5041 854.322 19.3162 854.184 19.1777C854.045 19.0393 853.857 18.9615 853.662 18.9615Z" fill="white"/>
<path d="M796.8 149.891H678.646C675.416 149.887 672.319 148.602 670.034 146.318C667.75 144.033 666.465 140.936 666.462 137.706V71.54C666.465 68.3096 667.75 65.2125 670.034 62.9283C672.319 60.644 675.416 59.3591 678.646 59.3554H796.8C800.03 59.3591 803.127 60.644 805.412 62.9283C807.696 65.2125 808.981 68.3096 808.985 71.54V137.706C808.981 140.936 807.696 144.033 805.412 146.318C803.127 148.602 800.03 149.887 796.8 149.891Z" fill="#0A74E6" fill-opacity="0.4"/>
<rect x="703" y="333" width="161" height="163" fill="#0A74E6" fill-opacity="0.1"/>
<path d="M636.201 367.697C636.09 361.546 641.047 356.5 647.199 356.5H779.5C785.575 356.5 790.5 361.425 790.5 367.5V491.944C790.5 498.232 785.238 503.24 778.958 502.93L648.772 496.507C642.991 496.222 638.419 491.505 638.316 485.717L636.201 367.697Z" fill="white"/>
<path d="M780.343 355.516H634.351C631.608 355.521 628.978 356.613 627.038 358.554C625.098 360.494 624.005 363.123 624 365.867V510.477C624.003 513.222 625.094 515.853 627.035 517.793C628.976 519.734 631.607 520.826 634.351 520.828H780.343C783.088 520.826 785.719 519.734 787.66 517.793C789.601 515.853 790.692 513.222 790.695 510.477V365.867C790.692 363.123 789.601 360.491 787.66 358.551C785.719 356.61 783.088 355.519 780.343 355.516ZM789.477 510.477C789.474 512.898 788.511 515.22 786.799 516.932C785.086 518.644 782.765 519.608 780.343 519.611H634.351C631.93 519.608 629.609 518.644 627.896 516.932C626.184 515.22 625.221 512.898 625.218 510.477V365.867C625.222 363.446 626.185 361.125 627.897 359.413C629.609 357.701 631.93 356.737 634.351 356.733H780.343C782.765 356.736 785.086 357.7 786.799 359.412C788.511 361.124 789.474 363.446 789.477 365.867V510.477Z" fill="#3F3D56"/>
<path d="M768.847 411.834H645.847C644.555 411.834 643.316 411.32 642.403 410.407C641.489 409.493 640.976 408.254 640.976 406.962C640.976 405.67 641.489 404.431 642.403 403.518C643.316 402.604 644.555 402.091 645.847 402.091H768.847C770.139 402.091 771.378 402.604 772.291 403.518C773.205 404.431 773.718 405.67 773.718 406.962C773.718 408.254 773.205 409.493 772.291 410.407C771.378 411.32 770.139 411.834 768.847 411.834Z" fill="#CCCCCC"/>
<path d="M733.834 391.131H680.859C679.567 391.131 678.328 390.618 677.415 389.704C676.501 388.79 675.988 387.551 675.988 386.259C675.988 384.968 676.501 383.728 677.415 382.815C678.328 381.901 679.567 381.388 680.859 381.388H733.834C735.126 381.388 736.365 381.901 737.279 382.815C738.193 383.728 738.706 384.968 738.706 386.259C738.706 387.551 738.193 388.79 737.279 389.704C736.365 390.618 735.126 391.131 733.834 391.131Z" fill="#0A74E6" fill-opacity="0.4"/>
<path d="M698.518 441.061H645.543C644.251 441.061 643.012 440.548 642.098 439.635C641.185 438.721 640.671 437.482 640.671 436.19C640.671 434.898 641.185 433.659 642.098 432.745C643.012 431.832 644.251 431.319 645.543 431.319H698.518C699.81 431.319 701.049 431.832 701.962 432.745C702.876 433.659 703.389 434.898 703.389 436.19C703.389 437.482 702.876 438.721 701.962 439.635C701.049 440.548 699.81 441.061 698.518 441.061Z" fill="#CCCCCC"/>
<path d="M698.518 462.373H645.543C644.251 462.373 643.012 461.86 642.098 460.946C641.185 460.033 640.671 458.794 640.671 457.502C640.671 456.21 641.185 454.971 642.098 454.057C643.012 453.144 644.251 452.631 645.543 452.631H698.518C699.81 452.631 701.049 453.144 701.962 454.057C702.876 454.971 703.389 456.21 703.389 457.502C703.389 458.794 702.876 460.033 701.962 460.946C701.049 461.86 699.81 462.373 698.518 462.373Z" fill="#CCCCCC"/>
<path d="M698.518 483.685H645.543C644.251 483.685 643.012 483.172 642.098 482.258C641.185 481.345 640.671 480.106 640.671 478.814C640.671 477.522 641.185 476.283 642.098 475.369C643.012 474.456 644.251 473.942 645.543 473.942H698.518C699.81 473.942 701.049 474.456 701.962 475.369C702.876 476.283 703.389 477.522 703.389 478.814C703.389 480.106 702.876 481.345 701.962 482.258C701.049 483.172 699.81 483.685 698.518 483.685Z" fill="#CCCCCC"/>
<path d="M764.588 445.237C769.609 445.237 773.679 441.167 773.679 436.147C773.679 431.126 769.609 427.056 764.588 427.056C759.568 427.056 755.498 431.126 755.498 436.147C755.498 441.167 759.568 445.237 764.588 445.237Z" fill="#0A74E6"/>
<path d="M763.687 439.615C763.483 439.615 763.284 439.549 763.12 439.426L763.11 439.419L760.974 437.784C760.774 437.631 760.643 437.405 760.61 437.155C760.577 436.906 760.645 436.653 760.798 436.453C760.951 436.253 761.177 436.123 761.427 436.09C761.677 436.057 761.929 436.124 762.129 436.277L763.513 437.338L766.783 433.072C766.858 432.974 766.953 432.891 767.061 432.828C767.169 432.766 767.288 432.725 767.411 432.709C767.535 432.693 767.661 432.701 767.781 432.733C767.901 432.765 768.014 432.821 768.113 432.897L768.113 432.897L768.093 432.925L768.114 432.897C768.314 433.05 768.444 433.277 768.477 433.526C768.51 433.776 768.442 434.028 768.29 434.228L764.443 439.243C764.354 439.359 764.24 439.452 764.109 439.517C763.978 439.581 763.834 439.614 763.688 439.613L763.687 439.615Z" fill="white"/>
<path d="M764.588 466.549C769.609 466.549 773.679 462.479 773.679 457.459C773.679 452.438 769.609 448.368 764.588 448.368C759.568 448.368 755.498 452.438 755.498 457.459C755.498 462.479 759.568 466.549 764.588 466.549Z" fill="#0A74E6"/>
<path d="M763.687 460.926C763.483 460.927 763.284 460.861 763.12 460.738L763.11 460.73L760.974 459.096C760.875 459.02 760.792 458.926 760.729 458.818C760.667 458.71 760.626 458.591 760.61 458.467C760.594 458.343 760.602 458.218 760.634 458.097C760.666 457.977 760.722 457.864 760.798 457.765C760.874 457.666 760.968 457.583 761.076 457.521C761.184 457.458 761.303 457.418 761.427 457.401C761.551 457.385 761.676 457.393 761.797 457.425C761.917 457.458 762.03 457.513 762.129 457.589L763.513 458.65L766.783 454.384C766.858 454.285 766.953 454.202 767.061 454.14C767.169 454.078 767.288 454.037 767.411 454.021C767.535 454.005 767.661 454.013 767.781 454.045C767.901 454.077 768.014 454.133 768.113 454.209L768.113 454.209L768.093 454.237L768.114 454.209C768.314 454.362 768.444 454.588 768.477 454.838C768.51 455.087 768.442 455.34 768.29 455.54L764.443 460.555C764.354 460.671 764.24 460.764 764.109 460.828C763.978 460.893 763.834 460.926 763.688 460.925L763.687 460.926Z" fill="white"/>
<path d="M764.588 487.904C769.609 487.904 773.679 483.834 773.679 478.814C773.679 473.793 769.609 469.723 764.588 469.723C759.568 469.723 755.498 473.793 755.498 478.814C755.498 483.834 759.568 487.904 764.588 487.904Z" fill="#0A74E6"/>
<path d="M763.687 482.281C763.483 482.282 763.284 482.216 763.12 482.093L763.11 482.085L760.974 480.451C760.774 480.298 760.644 480.072 760.611 479.822C760.578 479.573 760.645 479.32 760.799 479.121C760.952 478.921 761.178 478.79 761.427 478.757C761.677 478.724 761.929 478.791 762.129 478.944L763.513 480.005L766.783 475.739C766.858 475.64 766.953 475.557 767.061 475.495C767.169 475.433 767.288 475.392 767.411 475.376C767.535 475.36 767.661 475.368 767.781 475.4C767.901 475.432 768.014 475.488 768.113 475.564L768.113 475.564L768.093 475.592L768.114 475.564C768.313 475.717 768.444 475.943 768.477 476.193C768.51 476.442 768.442 476.695 768.289 476.895L764.443 481.91C764.354 482.026 764.24 482.119 764.109 482.183C763.978 482.248 763.834 482.281 763.688 482.28L763.687 482.281Z" fill="white"/>
</svg>
