<svg width="833" height="485" viewBox="0 0 833 485" fill="none" xmlns="http://www.w3.org/2000/svg">
<rect x="385" y="84" width="112" height="160" rx="6" fill="white"/>
<rect x="399" y="116" width="434" height="253" rx="6" fill="#0A74E6" fill-opacity="0.05"/>
<path d="M790.24 84H389.753C388.228 84.0012 386.765 84.5051 385.687 85.4011C384.608 86.2972 384.001 87.5122 384 88.7794V314.221C384.001 315.488 384.608 316.703 385.687 317.599C386.765 318.495 388.228 318.999 389.753 319H790.24C791.072 319 791.894 318.85 792.649 318.561C793.404 318.271 794.075 317.849 794.615 317.323C794.66 317.282 794.702 317.238 794.74 317.191C795.083 316.842 795.362 316.453 795.565 316.035C795.854 315.46 796.002 314.843 796 314.221V88.7794C795.998 87.5113 795.391 86.2956 794.311 85.3994C793.231 84.5033 791.767 83.9999 790.24 84ZM794.357 314.221C794.358 314.887 794.121 315.54 793.677 316.095C793.283 316.584 792.748 316.984 792.12 317.257C791.539 317.507 790.894 317.636 790.24 317.635H389.753C388.663 317.634 387.619 317.274 386.848 316.634C386.077 315.994 385.644 315.126 385.643 314.221V88.7794C385.644 87.8741 386.077 87.0062 386.848 86.3661C387.619 85.726 388.663 85.3659 389.753 85.3648H790.24C791.331 85.3646 792.377 85.7242 793.149 86.3644C793.921 87.0046 794.356 87.8732 794.357 88.7794V314.221Z" fill="#565656"/>
<path d="M794.353 107.059H385.642C385.188 107.059 384.82 107.427 384.82 107.881C384.82 108.335 385.188 108.704 385.642 108.704H794.353C794.807 108.704 795.175 108.335 795.175 107.881C795.175 107.427 794.807 107.059 794.353 107.059Z" fill="#565656"/>
<path d="M398.8 101.269C401.525 101.269 403.734 99.0603 403.734 96.3353C403.734 93.6102 401.525 91.4011 398.8 91.4011C396.075 91.4011 393.866 93.6102 393.866 96.3353C393.866 99.0603 396.075 101.269 398.8 101.269Z" fill="#565656"/>
<path d="M412.986 101.269C415.711 101.269 417.92 99.0603 417.92 96.3353C417.92 93.6102 415.711 91.4011 412.986 91.4011C410.261 91.4011 408.051 93.6102 408.051 96.3353C408.051 99.0603 410.261 101.269 412.986 101.269Z" fill="#565656"/>
<path d="M427.171 101.269C429.896 101.269 432.105 99.0603 432.105 96.3353C432.105 93.6102 429.896 91.4011 427.171 91.4011C424.446 91.4011 422.237 93.6102 422.237 96.3353C422.237 99.0603 424.446 101.269 427.171 101.269Z" fill="#565656"/>
<rect x="441" y="148" width="132" height="135" rx="6" fill="#0A74E6" fill-opacity="0.3"/>
<path d="M611.442 188C610.766 188.113 610.146 188.53 609.697 189.173C609.248 189.817 609 190.644 609 191.5C609 192.356 609.248 193.183 609.697 193.827C610.146 194.47 610.766 194.887 611.442 195H726.558C727.234 194.887 727.854 194.47 728.303 193.827C728.752 193.183 729 192.356 729 191.5C729 190.644 728.752 189.817 728.303 189.173C727.854 188.53 727.234 188.113 726.558 188H611.442Z" fill="#0A74E6" fill-opacity="0.2"/>
<path d="M612.297 253C611.384 253.113 610.547 253.53 609.941 254.173C609.334 254.817 609 255.644 609 256.5C609 257.356 609.334 258.183 609.941 258.827C610.547 259.47 611.384 259.887 612.297 260H767.703C768.616 259.887 769.453 259.47 770.059 258.827C770.666 258.183 771 257.356 771 256.5C771 255.644 770.666 254.817 770.059 254.173C769.453 253.53 768.616 253.113 767.703 253H612.297Z" fill="#0A74E6" fill-opacity="0.2"/>
<path d="M612.68 209C611.661 209.113 610.727 209.53 610.05 210.173C609.373 210.817 609 211.644 609 212.5C609 213.356 609.373 214.183 610.05 214.827C610.727 215.47 611.661 215.887 612.68 216H687.32C688.339 215.887 689.273 215.47 689.95 214.827C690.627 214.183 691 213.356 691 212.5C691 211.644 690.627 210.817 689.95 210.173C689.273 209.53 688.339 209.113 687.32 209H612.68Z" fill="#0A74E6" fill-opacity="0.2"/>
<path d="M611.442 231C610.766 231.113 610.146 231.53 609.697 232.173C609.248 232.817 609 233.644 609 234.5C609 235.356 609.248 236.183 609.697 236.827C610.146 237.47 610.766 237.887 611.442 238H726.558C727.234 237.887 727.854 237.47 728.303 236.827C728.752 236.183 729 235.356 729 234.5C729 233.644 728.752 232.817 728.303 232.173C727.854 231.53 727.234 231.113 726.558 231H611.442Z" fill="#0A74E6" fill-opacity="0.2"/>
<path d="M406.24 8.02294e-09H5.75311C4.22768 0.00115236 2.76512 0.505065 1.6865 1.40112C0.607879 2.29718 0.00133819 3.51216 0 4.77936V230.221C0.00133819 231.488 0.607879 232.703 1.6865 233.599C2.76512 234.495 4.22768 234.999 5.75311 235H406.24C407.072 235 407.894 234.85 408.649 234.561C409.404 234.271 410.075 233.849 410.615 233.323C410.66 233.282 410.702 233.238 410.74 233.191C411.083 232.842 411.362 232.453 411.565 232.035C411.854 231.46 412.002 230.843 412 230.221V4.77937C411.998 3.51128 411.391 2.2956 410.311 1.39943C409.231 0.503269 407.767 -7.33755e-05 406.24 8.02294e-09ZM410.357 230.221C410.358 230.887 410.121 231.54 409.677 232.095C409.283 232.584 408.748 232.984 408.12 233.257C407.539 233.507 406.894 233.636 406.24 233.635H5.75311C4.66336 233.634 3.61861 233.274 2.84804 232.634C2.07747 231.994 1.64399 231.126 1.64267 230.221V4.77937C1.64399 3.8741 2.07747 3.00622 2.84804 2.36609C3.61861 1.72596 4.66336 1.36586 5.75311 1.36476H406.24C407.331 1.36465 408.377 1.72418 409.149 2.36441C409.921 3.00464 410.356 3.87321 410.357 4.77937V230.221Z" fill="#565656"/>
<path d="M411.175 23.0588H0.819885V24.7035H411.175V23.0588Z" fill="#565656"/>
<path d="M14.7999 17.2694C17.5249 17.2694 19.734 15.0603 19.734 12.3353C19.734 9.61021 17.5249 7.40112 14.7999 7.40112C12.0748 7.40112 9.86575 9.61021 9.86575 12.3353C9.86575 15.0603 12.0748 17.2694 14.7999 17.2694Z" fill="#565656"/>
<path d="M28.9856 17.2694C31.7106 17.2694 33.9197 15.0603 33.9197 12.3353C33.9197 9.61021 31.7106 7.40112 28.9856 7.40112C26.2605 7.40112 24.0514 9.61021 24.0514 12.3353C24.0514 15.0603 26.2605 17.2694 28.9856 17.2694Z" fill="#565656"/>
<path d="M43.1712 17.2694C45.8962 17.2694 48.1053 15.0603 48.1053 12.3353C48.1053 9.61021 45.8962 7.40112 43.1712 7.40112C40.4461 7.40112 38.2371 9.61021 38.2371 12.3353C38.2371 15.0603 40.4461 17.2694 43.1712 17.2694Z" fill="#565656"/>
<path d="M83.8955 166.729C87.7037 166.729 90.7909 163.642 90.7909 159.834C90.7909 156.026 87.7037 152.938 83.8955 152.938C80.0872 152.938 77 156.026 77 159.834C77 163.642 80.0872 166.729 83.8955 166.729Z" fill="#0A74E6"/>
<path d="M144.895 148.671C148.704 148.671 151.791 145.584 151.791 141.775C151.791 137.967 148.704 134.88 144.895 134.88C141.087 134.88 138 137.967 138 141.775C138 145.584 141.087 148.671 144.895 148.671Z" fill="#0A74E6"/>
<path d="M205.895 166.729C209.704 166.729 212.791 163.642 212.791 159.834C212.791 156.026 209.704 152.938 205.895 152.938C202.087 152.938 199 156.026 199 159.834C199 163.642 202.087 166.729 205.895 166.729Z" fill="#0A74E6"/>
<path d="M266.895 75.6386C270.704 75.6386 273.791 72.5514 273.791 68.7431C273.791 64.9349 270.704 61.8477 266.895 61.8477C263.087 61.8477 260 64.9349 260 68.7431C260 72.5514 263.087 75.6386 266.895 75.6386Z" fill="#0A74E6"/>
<path d="M327.895 74.7909C331.704 74.7909 334.791 71.7037 334.791 67.8955C334.791 64.0872 331.704 61 327.895 61C324.087 61 321 64.0872 321 67.8955C321 71.7037 324.087 74.7909 327.895 74.7909Z" fill="#0A74E6"/>
<path d="M206.654 161.379L145.598 142.41L85.3788 160.755L84 158.915L145.598 139.538L206.364 158.29L266.746 67.7763L266.99 67.6774L327.899 67.5703L328.758 69.7031L268.09 69.7124L206.654 161.379Z" fill="#0A74E6" fill-opacity="0.1"/>
<path d="M158.198 214C157.439 214 156.6 214.1 156.305 214.799C156.109 215.263 156 215.87 156 216.5C156 217.13 156.109 217.737 156.305 218.201C156.6 218.9 157.439 219 158.198 219H205.802C206.561 219 207.4 218.9 207.695 218.201C207.891 217.737 208 217.13 208 216.5C208 215.87 207.891 215.263 207.695 214.799C207.4 214.1 206.561 214 205.802 214H158.198Z" fill="#575A89" fill-opacity="0.2"/>
<path d="M113.711 214C113.518 214.051 113.337 214.336 113.205 214.799C113.073 215.263 113 215.87 113 216.5C113 217.13 113.073 217.737 113.205 218.201C113.337 218.664 113.518 218.949 113.711 219H147.289C147.482 218.949 147.663 218.664 147.795 218.201C147.927 217.737 148 217.13 148 216.5C148 215.87 147.927 215.263 147.795 214.799C147.663 214.336 147.482 214.051 147.289 214H113.711Z" fill="#575A89" fill-opacity="0.2"/>
<path d="M217.707 214C217.242 214.051 216.808 214.336 216.492 214.799C216.176 215.263 216 215.87 216 216.5C216 217.13 216.176 217.737 216.492 218.201C216.808 218.664 217.242 218.949 217.707 219H298.293C298.758 218.949 299.192 218.664 299.508 218.201C299.824 217.737 300 217.13 300 216.5C300 215.87 299.824 215.263 299.508 214.799C299.192 214.336 298.758 214.051 298.293 214H217.707Z" fill="#575A89" fill-opacity="0.2"/>
<rect x="234.023" y="406.558" width="238.704" height="53.4049" rx="4.04583" fill="#0A74E6" fill-opacity="0.05"/>
<rect x="226.345" y="269" width="331" height="105" rx="6" fill="white"/>
<path d="M552.395 269H184.288C182.886 269.001 181.542 269.464 180.55 270.288C179.559 271.111 179.001 272.228 179 273.393V480.607C179.001 481.772 179.559 482.889 180.55 483.712C181.542 484.536 182.886 484.999 184.288 485H552.395C553.16 485 553.915 484.862 554.609 484.596C555.304 484.33 555.92 483.942 556.416 483.459C556.458 483.421 556.497 483.38 556.531 483.338C556.847 483.017 557.103 482.659 557.289 482.275C557.556 481.747 557.692 481.18 557.689 480.607V273.393C557.688 272.227 557.129 271.11 556.137 270.286C555.144 269.463 553.798 269 552.395 269ZM556.18 480.607C556.18 481.22 555.963 481.819 555.555 482.33C555.192 482.78 554.7 483.147 554.124 483.398C553.589 483.627 552.997 483.747 552.395 483.746H184.288C183.286 483.745 182.326 483.414 181.618 482.825C180.91 482.237 180.511 481.439 180.51 480.607V273.393C180.511 272.561 180.91 271.763 181.618 271.175C182.326 270.586 183.286 270.255 184.288 270.254H552.395C553.398 270.254 554.36 270.585 555.069 271.173C555.779 271.762 556.178 272.56 556.18 273.393V480.607Z" fill="#565656"/>
<path d="M556.931 290.194H179.754V291.706H556.931V290.194Z" fill="#565656"/>
<path d="M192.603 284.873C195.108 284.873 197.138 282.843 197.138 280.338C197.138 277.833 195.108 275.803 192.603 275.803C190.099 275.803 188.068 277.833 188.068 280.338C188.068 282.843 190.099 284.873 192.603 284.873Z" fill="#565656"/>
<path d="M205.642 284.873C208.147 284.873 210.177 282.843 210.177 280.338C210.177 277.833 208.147 275.803 205.642 275.803C203.137 275.803 201.107 277.833 201.107 280.338C201.107 282.843 203.137 284.873 205.642 284.873Z" fill="#565656"/>
<path d="M218.681 284.873C221.185 284.873 223.216 282.843 223.216 280.338C223.216 277.833 221.185 275.803 218.681 275.803C216.176 275.803 214.146 277.833 214.146 280.338C214.146 282.843 216.176 284.873 218.681 284.873Z" fill="#565656"/>
<path d="M273.066 323.542C272.437 322.913 271.418 322.909 270.785 323.535L254.166 339.946C253.524 340.579 253.524 341.615 254.166 342.249L270.784 358.659C271.417 359.284 272.437 359.281 273.066 358.652L275.043 356.674C275.675 356.042 275.675 355.018 275.043 354.386L263.019 342.359C262.387 341.727 262.387 340.703 263.019 340.071L275.163 327.926C275.795 327.294 275.795 326.27 275.163 325.638L273.066 323.542Z" fill="#0A74E6"/>
<path d="M294.241 323.542C294.871 322.913 295.89 322.909 296.523 323.535L313.141 339.946C313.782 340.579 313.782 341.615 313.141 342.249L296.523 358.659C295.89 359.284 294.871 359.281 294.241 358.652L292.264 356.674C291.632 356.042 291.632 355.018 292.264 354.386L304.29 342.36C304.922 341.728 304.922 340.703 304.29 340.071L292.145 327.926C291.512 327.294 291.513 326.27 292.145 325.638L294.241 323.542Z" fill="#0A74E6"/>
<path d="M348.803 327.096C347.255 327.096 346 327.986 346 329.084C346 330.182 347.255 331.073 348.803 331.073H480.948C482.496 331.073 483.751 330.182 483.751 329.084C483.751 327.986 482.496 327.096 480.948 327.096H348.803Z" fill="#E6E6E6"/>
<path d="M480.417 445.752H258.117C255.844 445.752 254.002 444.44 254 442.823V403.588C254.002 401.971 255.844 400.659 258.117 400.659H480.417C482.689 400.659 484.531 401.971 484.533 403.588V442.823C484.531 444.439 482.689 445.75 480.417 445.752ZM258.117 401.83C256.753 401.83 255.648 402.617 255.647 403.587V442.822C255.647 443.792 256.753 444.578 258.117 444.579H480.417C481.78 444.579 482.885 443.792 482.887 442.822V403.588C482.887 402.618 481.78 401.832 480.417 401.831L258.117 401.83Z" fill="#565656"/>
<path d="M280.946 433.134C286.438 433.134 290.891 428.681 290.891 423.188C290.891 417.695 286.438 413.243 280.946 413.243C275.453 413.243 271 417.695 271 423.188C271 428.681 275.453 433.134 280.946 433.134Z" fill="#575A89" fill-opacity="0.5"/>
<path d="M308.991 415.235C308.464 415.235 307.958 415.444 307.584 415.816C307.211 416.188 307.001 416.694 307 417.221C306.999 417.749 307.208 418.255 307.581 418.628C307.953 419.002 308.459 419.212 308.986 419.212H402.739C403.266 419.212 403.772 419.003 404.145 418.63C404.518 418.257 404.727 417.751 404.727 417.224C404.727 416.696 404.518 416.191 404.145 415.818C403.772 415.445 403.266 415.235 402.739 415.235H308.991Z" fill="#575A89" fill-opacity="0.3"/>
<path d="M308.991 427.166C308.73 427.166 308.471 427.217 308.23 427.316C307.989 427.416 307.769 427.562 307.584 427.747C307.211 428.119 307.001 428.625 307 429.152C306.999 429.679 307.208 430.185 307.581 430.559C307.953 430.932 308.459 431.142 308.986 431.143H349.33C349.858 431.144 350.364 430.935 350.737 430.562C351.111 430.19 351.321 429.685 351.321 429.157C351.322 428.63 351.113 428.124 350.741 427.75C350.368 427.377 349.863 427.167 349.335 427.166H308.991Z" fill="#575A89" fill-opacity="0.3"/>
<path d="M347.835 339.009C347.335 339.049 346.869 339.276 346.529 339.645C346.189 340.013 346 340.496 346 340.997C346 341.499 346.189 341.982 346.529 342.35C346.869 342.719 347.335 342.946 347.835 342.986H434.439C434.939 342.946 435.405 342.719 435.745 342.35C436.085 341.982 436.274 341.499 436.274 340.997C436.274 340.496 436.085 340.013 435.745 339.645C435.405 339.276 434.939 339.049 434.439 339.009H347.835Z" fill="#E6E6E6"/>
<path d="M348.408 350.922C347.078 350.922 346 351.813 346 352.911C346 354.009 347.078 354.899 348.408 354.899H461.931C463.261 354.899 464.339 354.009 464.339 352.911C464.339 351.813 463.261 350.922 461.931 350.922H348.408Z" fill="#E6E6E6"/>
</svg>
