<svg width="674" height="476" viewBox="0 0 674 476" fill="none" xmlns="http://www.w3.org/2000/svg">
<rect x="238" y="40.9783" width="199" height="385" rx="18" stroke="black" stroke-width="2"/>
<path d="M89.0533 429.103C90.3356 429.501 91.4148 430.379 92.066 431.553C94.4996 435.654 98.3 438.29 102.569 438.274C109.859 438.245 115.76 430.497 115.723 420.959C115.686 411.421 109.731 403.756 102.46 403.785C99.0283 403.798 95.9059 405.523 93.5685 408.346C92.6822 409.426 91.9319 410.611 91.3346 411.874L91.2116 412.624C91.2116 412.624 88.4067 415.04 84.5639 412.845L84.3462 356.925L29.7484 357.138C29.3046 356.561 29.0105 355.883 28.8923 355.165C28.7742 354.447 28.8357 353.711 29.0713 353.023C29.4741 351.743 30.3505 350.665 31.5213 350.01C35.623 347.576 38.2652 343.776 38.2485 339.507C38.2201 332.217 30.4657 326.316 20.9338 326.353C11.4018 326.39 3.6935 332.332 3.72196 339.642C3.73532 343.073 5.46631 346.202 8.28971 348.539C9.36877 349.422 10.5514 350.17 11.8115 350.767L11.8876 350.892C12.7163 351.688 13.2681 352.729 13.4617 353.861C13.6554 354.994 13.4808 356.158 12.9635 357.184L0.119919 357.234L0.520393 460.09C0.536035 464.107 2.14696 467.954 4.9988 470.784C7.85064 473.614 11.7098 475.194 15.7272 475.179L84.8244 474.91L84.6498 430.064C85.226 429.517 85.9411 429.138 86.7173 428.969C87.4936 428.799 88.3015 428.846 89.0533 429.103Z" fill="#0A74E6" fill-opacity="0.15"/>
<path d="M249.796 290.639C249.796 280.885 258.305 272.983 268.797 272.983C279.289 272.983 287.805 280.885 287.805 290.639C287.787 293.248 287.174 295.819 286.013 298.155C284.852 300.492 283.173 302.532 281.104 304.122H332.033V249.295C332.615 248.751 333.335 248.376 334.114 248.211C334.894 248.045 335.703 248.096 336.456 248.357C337.73 248.759 338.8 249.634 339.447 250.803C341.843 254.889 345.61 257.523 349.858 257.523C357.103 257.523 362.997 249.846 362.997 240.373C362.997 230.901 357.128 223.217 349.858 223.217C346.442 223.217 343.332 224.926 340.999 227.716C340.116 228.788 339.366 229.962 338.765 231.213L338.646 231.289C337.807 232.164 336.696 232.728 335.494 232.889C334.292 233.049 333.072 232.796 332.033 232.171V176.612H279.796C279.357 176.037 279.068 175.363 278.953 174.649C278.838 173.935 278.902 173.203 279.139 172.52C279.542 171.248 280.418 170.18 281.586 169.536C285.671 167.139 288.305 163.367 288.305 159.125C288.305 151.879 280.628 145.986 271.156 145.986C261.683 145.986 254 151.861 254 159.125C254 162.541 255.708 165.65 258.499 167.984C259.571 168.866 260.745 169.616 261.996 170.218L262.071 170.336C262.892 171.13 263.436 172.166 263.624 173.293C263.812 174.419 263.634 175.576 263.116 176.593H248V304.122H256.497C254.428 302.532 252.748 300.492 251.587 298.155C250.426 295.819 249.813 293.248 249.796 290.639Z" fill="#0A74E6" fill-opacity="0.5"/>
<path d="M220.067 98.7883C220.067 89.2396 228.397 81.4977 238.674 81.4977C248.952 81.4977 257.276 89.2396 257.276 98.7883C257.251 101.339 256.646 103.851 255.505 106.133C254.364 108.415 252.718 110.407 250.691 111.957H297.914V57.629C298.483 57.0918 299.188 56.7218 299.953 56.5597C300.718 56.3976 301.513 56.4497 302.251 56.7103C303.495 57.1059 304.54 57.9629 305.172 59.1051C307.518 63.1047 311.211 65.6833 315.364 65.6833C322.457 65.6833 328.226 58.168 328.226 48.8888C328.226 39.6096 322.481 32.1005 315.364 32.1005C312.02 32.1005 308.976 33.7665 306.691 36.5043C305.825 37.5517 305.09 38.7016 304.505 39.9281L304.388 40.657C304.388 40.657 301.65 42.9967 297.914 40.8469V14.6936H262.794C259.581 14.6855 256.503 13.4036 254.234 11.129C251.965 8.85442 250.691 5.77287 250.691 2.5602V0H230.73C228.794 0.000803255 226.877 0.383171 225.089 1.12526C223.3 1.86734 221.676 2.95459 220.308 4.32487C218.94 5.69514 217.855 7.32158 217.116 9.11121C216.377 10.9008 215.998 12.8186 216 14.7548V111.957H226.621C224.6 110.404 222.96 108.41 221.824 106.129C220.689 103.847 220.088 101.337 220.067 98.7883Z" fill="#0A74E6" fill-opacity="0.3"/>
<path d="M359.765 80.6056C369.594 80.6056 377.565 89.1208 377.565 99.6195C377.565 110.118 369.594 118.633 359.765 118.633C357.093 118.619 354.461 117.987 352.073 116.788C349.685 115.589 347.607 113.854 346 111.72V164.482H402.935C400.872 162.89 399.198 160.851 398.04 158.517C396.881 156.183 396.268 153.617 396.247 151.011C396.247 141.245 404.737 133.33 415.217 133.33C419.887 133.299 424.415 134.929 427.993 137.929V65.0328C427.993 61.0474 426.412 57.2249 423.597 54.4039C420.782 51.5829 416.963 49.9939 412.977 49.9856H391.705V52.6009C391.705 55.8886 390.399 59.0418 388.075 61.3672C385.751 63.6926 382.598 64.9999 379.31 65.0015H346.031V87.5254C347.635 85.3947 349.708 83.6621 352.09 82.4621C354.472 81.262 357.098 80.6268 359.765 80.6056Z" fill="#0A74E6" fill-opacity="0.3"/>
<path d="M429.587 301.511C430.073 299.983 431.125 298.7 432.527 297.924C434.769 296.644 436.706 294.892 438.204 292.789V278.029C434.738 273.044 427.888 269.646 419.993 269.646C408.602 269.646 399.376 276.706 399.376 285.435C399.376 289.541 401.429 293.278 404.782 296.082C406.071 297.142 407.482 298.044 408.986 298.766L409.076 298.909C410.061 299.864 410.714 301.109 410.94 302.462C411.166 303.815 410.953 305.205 410.331 306.428H344V368.083C345.905 365.534 348.374 363.461 351.214 362.026C354.053 360.591 357.187 359.833 360.369 359.812C372.09 359.812 381.587 370.038 381.587 382.647C381.587 395.256 372.09 405.489 360.369 405.489C357.187 405.467 354.053 404.71 351.214 403.275C348.374 401.84 345.905 399.767 344 397.218V446.986H420.113C424.903 446.986 429.498 445.086 432.889 441.703C436.281 438.32 438.192 433.73 438.204 428.94V306.436H430.399C429.867 305.746 429.514 304.935 429.372 304.076C429.231 303.216 429.304 302.335 429.587 301.511Z" fill="#0A74E6" fill-opacity="0.3"/>
<path d="M662.025 126.538C662.816 125.273 664.062 124.361 665.507 123.989C666.388 123.733 667.249 123.412 668.083 123.028L673.034 103.601C669.935 99.6648 665.592 96.8958 660.716 95.747C650.501 93.1429 640.6 97.3694 638.615 105.182C637.675 108.865 638.664 112.688 641.038 115.975C641.948 117.221 643.007 118.35 644.193 119.338L644.241 119.491C644.912 120.576 645.216 121.849 645.109 123.12C645.001 124.392 644.487 125.595 643.643 126.552L581.212 110.655L567.126 165.997C569.41 164.147 572.091 162.849 574.96 162.204C577.828 161.559 580.806 161.585 583.663 162.279C594.184 164.96 600.374 176.309 597.492 187.624C594.609 198.939 583.774 205.951 573.253 203.305C570.402 202.554 567.764 201.153 565.545 199.211C563.326 197.27 561.586 194.841 560.462 192.115L546 248.906L601.3 262.978C599.507 260.701 598.256 258.045 597.643 255.212C597.03 252.379 597.071 249.444 597.763 246.629C600.444 236.115 611.787 229.918 623.109 232.8C626.131 233.54 628.959 234.92 631.404 236.845C633.848 238.77 635.851 241.197 637.278 243.962L665.736 132.178L661.649 131.126C661.329 130.39 661.196 129.585 661.261 128.785C661.327 127.984 661.589 127.212 662.025 126.538Z" fill="#0A74E6" fill-opacity="0.1"/>
<path d="M215.5 92.7356C215.638 92.7356 215.75 92.8475 215.75 92.9856C215.75 93.1237 215.638 93.2356 215.5 93.2356V92.7356ZM30 92.9856H29.75V92.7356H30V92.9856ZM30.25 327.986C30.25 328.124 30.1381 328.236 30 328.236C29.8619 328.236 29.75 328.124 29.75 327.986H30.25ZM29.75 327.986V313.298H30.25V327.986H29.75ZM29.75 283.923V254.548H30.25V283.923H29.75ZM29.75 225.173V195.798H30.25V225.173H29.75ZM29.75 166.423V137.048H30.25V166.423H29.75ZM29.75 107.673V92.9856H30.25V107.673H29.75ZM30 92.7356H45.4583V93.2356H30V92.7356ZM76.375 92.7356H107.292V93.2356H76.375V92.7356ZM138.208 92.7356H169.125V93.2356H138.208V92.7356ZM200.042 92.7356H215.5V93.2356H200.042V92.7356ZM215.5 92.4856C215.776 92.4856 216 92.7095 216 92.9856C216 93.2617 215.776 93.4856 215.5 93.4856V92.4856ZM30 92.9856H29.5V92.4856H30V92.9856ZM30.5 327.986C30.5 328.262 30.2761 328.486 30 328.486C29.7239 328.486 29.5 328.262 29.5 327.986H30.5ZM29.5 327.986V313.298H30.5V327.986H29.5ZM29.5 283.923V254.548H30.5V283.923H29.5ZM29.5 225.173V195.798H30.5V225.173H29.5ZM29.5 166.423V137.048H30.5V166.423H29.5ZM29.5 107.673V92.9856H30.5V107.673H29.5ZM30 92.4856H45.4583V93.4856H30V92.4856ZM76.375 92.4856H107.292V93.4856H76.375V92.4856ZM138.208 92.4856H169.125V93.4856H138.208V92.4856ZM200.042 92.4856H215.5V93.4856H200.042V92.4856Z" fill="#565656" fill-opacity="0.15"/>
<path d="M438 429.236C437.862 429.236 437.75 429.124 437.75 428.986C437.75 428.848 437.862 428.736 438 428.736V429.236ZM622 428.986H622.25V429.236H622V428.986ZM621.75 232.986C621.75 232.848 621.862 232.736 622 232.736C622.138 232.736 622.25 232.848 622.25 232.986H621.75ZM622.25 232.986V249.319H621.75V232.986H622.25ZM622.25 281.986V314.652H621.75V281.986H622.25ZM622.25 347.319V379.986H621.75V347.319H622.25ZM622.25 412.652V428.986H621.75V412.652H622.25ZM622 429.236H606.667V428.736H622V429.236ZM576 429.236H545.333V428.736H576V429.236ZM514.667 429.236H484V428.736H514.667V429.236ZM453.333 429.236H438V428.736H453.333V429.236ZM438 429.486C437.724 429.486 437.5 429.262 437.5 428.986C437.5 428.709 437.724 428.486 438 428.486V429.486ZM622 428.986H622.5V429.486H622V428.986ZM621.5 232.986C621.5 232.709 621.724 232.486 622 232.486C622.276 232.486 622.5 232.709 622.5 232.986H621.5ZM622.5 232.986V249.319H621.5V232.986H622.5ZM622.5 281.986V314.652H621.5V281.986H622.5ZM622.5 347.319V379.986H621.5V347.319H622.5ZM622.5 412.652V428.986H621.5V412.652H622.5ZM622 429.486H606.667V428.486H622V429.486ZM576 429.486H545.333V428.486H576V429.486ZM514.667 429.486H484V428.486H514.667V429.486ZM453.333 429.486H438V428.486H453.333V429.486Z" fill="#565656" fill-opacity="0.15"/>
</svg>
