<?xml version="1.0" standalone="no"?>
<!DOCTYPE svg PUBLIC "-//W3C//DTD SVG 20010904//EN"
 "http://www.w3.org/TR/2001/REC-SVG-20010904/DTD/svg10.dtd">
<svg version="1.0" xmlns="http://www.w3.org/2000/svg"
 width="512.000000pt" height="512.000000pt" viewBox="0 0 512.000000 512.000000"
 preserveAspectRatio="xMidYMid meet">
<metadata>
Created by potrace 1.14, written by Peter Selinger 2001-2017
</metadata>
<g transform="translate(0.000000,512.000000) scale(0.100000,-0.100000)"
fill="#000000" stroke="none">
<path d="M2121 4074 c-248 -73 -458 -195 -645 -374 -253 -243 -399 -509 -468
-852 -32 -162 -32 -425 0 -587 13 -63 29 -127 35 -143 l12 -28 306 176 307
177 4 146 c4 132 8 155 38 245 38 112 104 229 180 316 63 73 189 170 270 207
l60 28 0 358 c0 196 -3 357 -7 356 -5 0 -46 -11 -92 -25z"/>
<path d="M2910 3742 l0 -358 48 -23 c178 -86 340 -254 424 -438 49 -110 70
-204 74 -347 l4 -130 293 -169 c160 -93 300 -172 309 -174 13 -4 19 5 28 37
31 114 42 200 47 370 4 158 2 202 -15 305 -86 504 -403 930 -861 1160 -83 41
-239 99 -323 119 l-28 6 0 -358z"/>
<path d="M2479 2887 c-100 -28 -191 -105 -232 -196 -16 -35 -21 -67 -22 -131
0 -77 3 -92 33 -152 73 -148 229 -223 384 -184 112 29 209 116 244 220 23 67
15 196 -15 259 -31 63 -104 135 -166 163 -63 29 -164 38 -226 21z"/>
<path d="M3075 1819 c-57 -43 -187 -104 -275 -129 -97 -27 -274 -37 -375 -21
-127 21 -262 74 -362 142 -23 16 -47 29 -53 29 -10 0 -596 -334 -610 -347 -3
-3 37 -45 89 -95 413 -392 1017 -524 1571 -342 136 44 302 128 413 208 99 71
259 214 255 227 -2 7 -604 360 -611 359 -1 0 -20 -14 -42 -31z"/>
</g>
</svg>
