<svg data-name="Layer 1" xmlns="http://www.w3.org/2000/svg" xmlns:xlink="http://www.w3.org/1999/xlink" width="1064.62" height="798.95" viewBox="0 0 1064.62 798.95"><defs><linearGradient id="a" x1="552.67" y1="633.88" x2="552.67" y2="359.93" gradientUnits="userSpaceOnUse"><stop offset="0" stop-color="gray" stop-opacity=".25"/><stop offset=".54" stop-color="gray" stop-opacity=".12"/><stop offset="1" stop-color="gray" stop-opacity=".1"/></linearGradient><linearGradient id="b" x1="567.66" y1="564.9" x2="567.66" y2="200" xlink:href="#a"/></defs><path d="M42.09 186.01c-21.29 36.26-6.93 81.52-3.44 123.28a226.69 226.69 0 01-6.57 76C22.9 420.47 5.31 453.47.81 489.47s9.4 78.42 43.93 90.94c8.57 3.11 17.84 4.16 26.18 7.84 22.62 10 32.65 36.76 33.42 61.18s-5.31 48.71-4.21 73.12c.62 13.74 3.89 28.09 13.34 38.2 8.69 9.29 21.33 13.74 33.5 17.7 38.48 12.53 78.66 23.61 119 19.74s81.23-25.69 96.73-62.6c5.61-13.36 7.69-28 13.33-41.32s16.32-26.11 30.84-28.2c8.48-1.22 17 1.36 25.18 3.9l117.26 36.5c18 5.61 38.2 11.09 55.1 2.78 8.69-4.28 15.28-11.71 21.62-19 50.1-57.25 102.3-119.34 111.47-194.41 3.23-26.45.86-53.36 4.45-79.76s14.58-53.75 37.39-68c17.59-11 39.36-12.65 60.08-14.87 33.54-3.6 67.29-9.7 97.71-24.07s57.49-37.82 70.44-68.52c3.83-9.08 6.4-19.13 4.24-28.72-3.86-17.11-21.07-27.59-37.2-35-48.24-22-100.56-33.78-152.67-44.15-23.9-4.76-48-9.27-72.42-9-21.11.22-42 4-62.79 7.59-178.04 30.61-370.42 49.94-549.11 12.62-37.47-7.83-75.12 7.28-95.53 42.05z" fill="#fb8e62" opacity=".1"/><path d="M296.78 115.79s215.24-68.53 299.83-18.2c58.18 34.61 189.28 24.66 265.49 15.06a271.53 271.53 0 01125 13.58c38.57 13.74 79.12 30.33 77.42 38.82-3.21 16.06-767.74 6.42-767.74 6.42z" fill="#fb8e62" opacity=".4"/><path d="M873.12 477.77l-.8.07.25-.62-1 .41 1-2.63s-3.25 1.31-9.27 3.45c-147.81 6.89-457.1-118.52-457.1-118.52L235 383.44a36.06 36.06 0 01-2.82-2.95l.76 3.09q-.4-.44-.76-.87l.27 1.08h-.27l.42.58 19.59 79.46s349.12 192.36 559.23 167.91l59.81-151.16z" transform="translate(-67.69 -50.53)" fill="url(#a)"/><path d="M343.9 314.47s311.61 126.32 449.75 113.47l-92.09 137.07-333-103.87-162.8-73.89 76-51.4z" fill="#fb8e62"/><path d="M343.9 314.47s311.61 126.32 449.75 113.47l-92.09 137.07-333-103.87-162.8-73.89 76-51.4z" opacity=".1"/><path fill="#fff" opacity=".1" d="M331.58 352.45l82.99 18.74-169.19 29.98-39.62-35.34 125.82-13.38zm36.94 76.56l97.99-35.87 69.07 23.02-121.01 44.98-46.05-32.13zm134.93 40.69l107.62-29.44 95.84 26.23-101.73 34.27-101.73-31.06z"/><path fill="#fb8e62" d="M176.31 337.46l167.59-23.02v40.69l-140.28 20.34-27.31-38.01z"/><path fill="#fff" opacity=".1" d="M177.38 339.6l166.52-25.16v40.69l-140.28 20.34-26.24-35.87z"/><path d="M28 203.6a72.91 72.91 0 0156-70.88c69.73-16.73 186.67-37 243.87-3 84.6 50.33 323.39 6.42 323.39 6.42s147.77 45 144.56 61-767.79 6.42-767.79 6.42z" fill="#fb8e62"/><path d="M618.73 146.57c1.84-1.71 3.57-3.73 4.1-6.19s-.52-5.41-2.87-6.31c-2.63-1-5.45.82-7.58 2.66s-4.58 3.95-7.37 3.56a11.23 11.23 0 003.47-10.51 4.39 4.39 0 00-1-2.13c-1.46-1.56-4.11-.89-5.86.34-5.57 3.92-7.12 11.48-7.15 18.29-.56-2.46-.09-5-.1-7.53s-.7-5.31-2.83-6.66a8.52 8.52 0 00-4.31-1c-2.5-.09-5.29.16-7 2-2.12 2.27-1.57 6.09.27 8.6s4.66 4.07 7.25 5.8a16.07 16.07 0 015.18 4.94 4.89 4.89 0 01.38.88H609a43.73 43.73 0 009.73-6.74zm-344.8-34.27c1.84-1.71 3.57-3.73 4.1-6.19s-.52-5.41-2.87-6.31c-2.63-1-5.45.82-7.58 2.66s-4.58 3.95-7.37 3.56a11.23 11.23 0 003.47-10.55 4.39 4.39 0 00-1-2.13c-1.46-1.56-4.11-.89-5.86.34-5.57 3.92-7.12 11.48-7.15 18.29-.56-2.46-.09-5-.1-7.53s-.7-5.31-2.83-6.66a8.52 8.52 0 00-4.31-1c-2.5-.09-5.29.16-7 2-2.12 2.27-1.57 6.09.27 8.6s4.66 4.07 7.25 5.8a16.07 16.07 0 015.18 4.94 4.89 4.89 0 01.38.88h15.69a43.73 43.73 0 009.73-6.7zm511.85 73.89c1.84-1.71 3.57-3.73 4.1-6.19s-.52-5.41-2.87-6.31c-2.63-1-5.45.82-7.58 2.66s-4.58 3.95-7.37 3.56a11.23 11.23 0 003.47-10.51 4.39 4.39 0 00-1-2.13c-1.46-1.56-4.11-.89-5.86.34-5.57 3.92-7.12 11.48-7.15 18.29-.56-2.46-.09-5-.1-7.53s-.7-5.31-2.83-6.66a8.52 8.52 0 00-4.31-1c-2.5-.09-5.29.16-7 2-2.12 2.27-1.57 6.09.27 8.6s4.66 4.07 7.25 5.8a16.07 16.07 0 015.18 4.94 4.89 4.89 0 01.38.88h15.69a43.73 43.73 0 009.73-6.74z" fill="#fb8e62"/><path d="M656.68 558c-10-9.87-17.91-21.59-22.09-34.95-3.21-10.29-6.08-20.34-6.08-23.59 0-5.69-7.91-27.1-17.68-37.42-.34-.36-.69-.71-1-1-1.7-6.72-5.09-23.67.79-34.19a48.63 48.63 0 003.59-8.05 95.56 95.56 0 0116-29.75 35.58 35.58 0 003.74-5.49c2.45.42 3.89-.26 3.59-2.67v-.27c1.13-.26 1.72-1.08 1.52-2.69-1.49-11.86 4.48-48.93 4.48-48.93a142.15 142.15 0 007.38-52c-1.49-28.17-31.36-34.1-31.36-34.1l-2.47 2.45c-2-1.23-4.24-2.61-6.51-4.07a3.75 3.75 0 002-2.07c2.59-5.37 2.72-12.73 3.09-18.55a17.52 17.52 0 00-.26-5.63 13.07 13.07 0 00-2.28-4.35 26.05 26.05 0 00-19.57-10.27c-2.48-.1-5 .16-7.43.16-4.56 0-9.12-.88-13.66-.5s-9.34 2.38-11.35 6.45c-1.26 2.55-1.27 5.62-2.76 8-1.72 2.79-5.07 4.21-7 6.86a8.56 8.56 0 00-1.63 5 3.47 3.47 0 00.35 1.69 6.69 6.69 0 001.67 1.62 6.55 6.55 0 011.28 8.1 8 8 0 016.34 6.13 2.53 2.53 0 00.54 1.41 1.91 1.91 0 001 .42c2.91.5 5.85-.87 8.05-2.84.18.33.35.65.55 1a21 21 0 0026.14 8.4q.62.78 1.22 1.61a33.84 33.84 0 014.06 7.43l-2.3 2.28a89.89 89.89 0 00-5.45 9.86 87.68 87.68 0 00-8.12 22.56c-5.42 5.36-13.8 15-14.8 23.92 0 0-38.83 19.28-49.28 8.9s-23.89 7.41-20.91 10.38 11.95 8.9 22.4 3h41.83a47.36 47.36 0 0018-6.27c-.74 2-1.66 4.07-2.68 6.18-1.57 3-3.26 6-4.84 8.69-.87.71-1.73 1.4-2.59 2.06-5.35 2.21-12.08 5-19.07 8a30.1 30.1 0 00-10.76 4.62c-16.14 7-30.75 13.82-30.32 15.24-1.08.71-1.64 1.24-1.49 1.52s.28.62.49 1.14c-1.15 4.23-1.37 12.88 1 30 6 43-7.47 50.41-7.47 50.41s-10.45 13.34-22.4 11.86-1.49 10.38 9 8.9c7.05-1 22.27-2 31.41-2.55a5.61 5.61 0 005.09-7 45 45 0 01-.66-20.07c2.25-11.16 7.88-32.4 9.89-44.13v-.13c3-3 8.59-7.13 15.48-6.15 3.59.51 10-2.84 16.88-7.44-3.6 20.49-6.35 42.5-3.44 50.44 6 16.31 11.95 23.72 11.95 23.72s2.87.13 6.9.08l1.93 3 27 41.44s23.89 34.1 1.49 38.55c0 0-17.92 4.45-10.45 10.38 0 0 52.27 1.48 53.76-3 .36-1.15-.4-2.44-1.72-3.74z" transform="translate(-67.69 -50.53)" fill="url(#b)"/><path d="M556.21 201.27s-20.32 40.64-21.77 20.32a32.48 32.48 0 00-6.07-16.76 40.13 40.13 0 00-14.25-12.26s11.61-21.77 10.16-16c-.74 3 7.61 9.35 16 14.88 7.95 5.31 15.93 9.82 15.93 9.82zm-95.79 200.3a44.35 44.35 0 00.64 19.65 5.48 5.48 0 01-4.94 6.89c-8.89.53-23.68 1.51-30.53 2.49-10.16 1.45-20.32-10.16-8.71-8.71s21.77-11.61 21.77-11.61 13.06-7.26 7.26-49.35c-2.31-16.75-2.09-25.23-1-29.36a6.61 6.61 0 011.35-2.86 2.21 2.21 0 011.16-.7 3.47 3.47 0 012.79 1s18.87 17.42 20.32 21.77c.36 1.07.1 3.85-.55 7.61-1.9 11.47-7.37 32.25-9.56 43.18z" fill="#ffb9b9"/><path d="M460.42 401.57a44.35 44.35 0 00.64 19.65 5.48 5.48 0 01-4.94 6.89c-8.89.53-23.68 1.51-30.53 2.49-10.16 1.45-20.32-10.16-8.71-8.71s21.77-11.61 21.77-11.61 13.06-7.26 7.26-49.35c-2.31-16.75-2.09-25.23-1-29.36a6.61 6.61 0 011.35-2.86 2.21 2.21 0 011.16-.7 3.47 3.47 0 012.79 1s18.87 17.42 20.32 21.77c.36 1.07.1 3.85-.55 7.61-1.9 11.47-7.37 32.25-9.56 43.18z" opacity=".05"/><path d="M588.15 506.08c-1.45 4.35-52.25 2.9-52.25 2.9-7.26-5.81 10.16-10.16 10.16-10.16 21.77-4.35-1.45-37.74-1.45-37.74l-26.3-40.61-5.67-8.78s7.26-10.16 20.32-8.71c3 .33 6.07 2.39 8.94 5.46 9.49 10.1 17.19 31.06 17.19 36.63 0 3.18 2.79 13 5.91 23.09 4.06 13.08 11.79 24.54 21.47 34.21 1.31 1.35 2.04 2.62 1.68 3.71z" fill="#ffb9b9"/><path d="M470.03 358.38a25.37 25.37 0 00-3.8 4c-10.7-1.34-18.93-24.85-21.29-30.81-.2-.51-.36-.89-.48-1.12s.51-.91 1.83-1.74l1.16-.7a3.47 3.47 0 012.79 1s18.87 17.42 20.32 21.77c.38 1.07.12 3.84-.53 7.6z" opacity=".1"/><path d="M515.57 297.07s-71.12 29-69.67 31.93 10.16 30.48 21.77 31.93c0 0 7.26-10.16 17.42-8.71s43.54-29 43.54-29l23.22-17.42z" fill="#4c4c78"/><path d="M515.57 297.07s-71.12 29-69.67 31.93 10.16 30.48 21.77 31.93c0 0 7.26-10.16 17.42-8.71s43.54-29 43.54-29l23.22-17.42z" opacity=".05"/><path d="M543.15 413.18c0 6.05-15.4 7.2-24.81 7.33l-5.67-8.78s7.26-10.16 20.32-8.71c3 .33 6.07 2.39 8.94 5.46.66 2.89 1.22 4.7 1.22 4.7z" opacity=".1"/><path d="M509.77 304.33s-17.42 74-11.61 90 11.61 23.22 11.61 23.22 31.93 1.45 31.93-7.26c0 0-7.26-23.22 0-36.29a47.79 47.79 0 003.49-7.88 93.76 93.76 0 0115.51-29.13c3.53-4.36 6.23-9.29 5.67-13.79-1.45-11.62-56.6-18.87-56.6-18.87z" fill="#4c4c78"/><path d="M521.38 241.91s-17.42 14.56-18.87 27.56c0 0-37.74 18.87-47.9 8.71s-23.22 7.29-20.3 10.18 11.61 8.71 21.77 2.9h40.63s27.58-2.9 29-24.67-4.33-24.68-4.33-24.68z" fill="#ffb9b9"/><path d="M521.38 241.91s-17.42 14.56-18.87 27.56c0 0-37.74 18.87-47.9 8.71s-23.22 7.29-20.3 10.18 11.61 8.71 21.77 2.9h40.63s27.58-2.9 29-24.67-4.33-24.68-4.33-24.68z" opacity=".05"/><path d="M536.62 190.39c-.26.94.39-.87 0 0-2.12 4.8-3.38 12.44-8.24 14.44a40.13 40.13 0 00-14.25-12.26s11.61-21.77 10.16-16c-.75 2.99 4.02 8.29 12.33 13.82z" opacity=".1"/><path d="M539.52 184.58a20.32 20.32 0 11-20.32-20.32 20.19 20.19 0 0120.32 20.32z" fill="#ffb9b9"/><path d="M528.64 217.24l20.32-20.32s29 5.81 30.48 33.38a140.05 140.05 0 01-7.26 50.8s-5.81 36.29-4.35 47.9-37.74-17.42-37.74-17.42-31.93 5.81-30.48 1.45 18.87-29 16-37.74c-1.25-3.75-.89-12.06-.07-20.32a86.21 86.21 0 0113.13-37.74z" opacity=".1"/><path d="M573.63 278.2s-5.8 36.27-4.32 47.9-37.74-17.42-37.74-17.42-5 .91-11 1.74c-9.07 1.26-20.36 2.34-19.49-.29a13 13 0 01.83-1.79c3.79-7.16 17.77-28.09 15.14-36-1.25-3.74-.89-12.06-.07-20.32a86.3 86.3 0 0113.14-37.74l20.32-20.32s29 5.81 30.48 33.38a140.05 140.05 0 01-7.29 50.86z" fill="#cbcdda"/><path d="M539.52 184.58a20.19 20.19 0 01-1.71 8.17 21.29 21.29 0 01-4.43-5 81.63 81.63 0 00-5.66-7.72 3.86 3.86 0 00-1.76-1.38c-1.34-.38-2.7.84-3.08 2.19a12.54 12.54 0 000 4.17 4.84 4.84 0 01-1.09 3.92c-1.73 1.61-4.53.49-6.5-.83s-4.44-2.79-6.53-1.68a6.08 6.08 0 00-1.92 1.93 49.56 49.56 0 01-5.07 6.68 20.32 20.32 0 1137.74-10.45z" opacity=".1"/><path d="M546.62 172.25a17.26 17.26 0 00-.25-5.51 12.83 12.83 0 00-2.21-4.25 25.27 25.27 0 00-19-10.06c-2.41-.09-4.81.16-7.22.16-4.43 0-8.86-.86-13.28-.49s-9.08 2.33-11 6.31c-1.22 2.5-1.23 5.5-2.68 7.87-1.67 2.73-4.93 4.12-6.8 6.72a8.42 8.42 0 00-1.58 4.89 3.42 3.42 0 00.34 1.65 6.53 6.53 0 001.62 1.58 6.44 6.44 0 011.24 7.93 7.76 7.76 0 016.16 6 2.49 2.49 0 00.52 1.38 1.85 1.85 0 001 .41c2.91.51 5.87-.93 8-2.95s3.69-4.6 5.4-7a5.93 5.93 0 011.91-1.93c2.09-1.11 4.55.38 6.52 1.69s4.78 2.43 6.51.81a4.81 4.81 0 001.09-3.91 12.36 12.36 0 010-4.17c.38-1.35 1.73-2.57 3.08-2.19a3.79 3.79 0 011.74 1.39 81 81 0 015.67 7.72c1.88 2.91 7.5 9.8 10.24 4.09 2.5-5.24 2.67-12.45 2.98-18.14z" fill="#b96b6b"/><path d="M516.31 271.67s21.77-1.45 27.58 2.9 29 2.9 29 2.9" opacity=".1"/><path d="M564.92 263.69s-7.26 14.51-7.26 18.87-5.81 10.16-5.81 10.16-16.4 9-31.31 17.71c-9.07 1.26-20.36 2.34-19.49-.29a13 13 0 01.83-1.79c15.47-9.42 36.91-36 36.91-36 0-13.06 7.26-36.29 7.26-36.29s17.42-8.71 23.22 0-4.35 27.63-4.35 27.63z" opacity=".05"/><path d="M176.31 334.24l19.27 78.17s336.25 185.26 538.64 161.7l58.9-148.85s-145.16 58.68-299.2 31.7a153 153 0 01-17.48-4.17c-46.03-13.78-269.42-82.08-300.13-118.55z" opacity=".1"/><path d="M176.31 336.38l19.27 78.17s336.24 185.25 538.63 161.7l58.9-148.85s-145.16 58.68-299.2 31.7a153 153 0 01-17.48-4.17c-46.02-13.78-269.41-82.08-300.12-118.55z" fill="#fb8e62"/><path fill="#535461" d="M287.964 155.097l4.833-5.735 213.082 179.56-4.833 5.735z"/><path d="M543.15 233.21s-7.26 23.26-7.26 36.26c0 0-30.48 37.74-45 39.19s-23.22 10.16-17.42 13.06 13.06 7.26 21.77 0 53.7-31.93 53.7-31.93 5.81-5.81 5.81-10.16 7.26-18.87 7.26-18.87 10.16-18.87 4.35-27.58-23.21.03-23.21.03z" fill="#ffb9b9"/><path d="M560.57 209.98s-26.13-2.9-21.77 34.83c0 0 17.42-10.16 31.93 0 0 .01 5.8-27.57-10.16-34.83z" opacity=".1"/><path d="M560.57 207.08s-26.13-2.9-21.77 34.83c0 0 17.42-10.16 31.93 0 0 0 5.8-27.57-10.16-34.83z" fill="#cbcdda"/><path fill="none" stroke="#535461" stroke-miterlimit="10" stroke-width="2" d="M296.78 158.86l-8.57 430.24"/><path d="M266.8 558.04s-32.12 19.27-11.78 62.11m26.77-54.61s-32.12 19.27-11.78 62.11m28.91-69.61s32.12 19.27 11.78 62.11m-23.56-51.4s32.12 19.27 11.78 62.11" fill="none" stroke="#fb8e62" stroke-miterlimit="10" opacity=".15"/><path d="M158.88 58.47h-7.37a5.16 5.16 0 000-10.32H91.83a5.16 5.16 0 100 10.32h7.37a5.16 5.16 0 000 10.32H88.88a5.16 5.16 0 000 10.32h59.68a5.16 5.16 0 000-10.32h10.32a5.16 5.16 0 100-10.32zm407.98-48.16h-7.37a5.16 5.16 0 000-10.32h-59.68a5.16 5.16 0 100 10.32h7.37a5.16 5.16 0 100 10.32h-10.31a5.16 5.16 0 100 10.32h59.68a5.16 5.16 0 000-10.32h10.32a5.16 5.16 0 100-10.32zm214.17 79.24h-7.37a5.16 5.16 0 100-10.32h-59.68a5.16 5.16 0 100 10.32h7.33a5.16 5.16 0 000 10.32h-10.28a5.16 5.16 0 100 10.32h59.68a5.16 5.16 0 100-10.32h10.32a5.16 5.16 0 000-10.32z" fill="#fb8e62" opacity=".1"/></svg>