<svg data-name="Layer 1" xmlns="http://www.w3.org/2000/svg" width="933.443" height="783.894" viewBox="0 0 933.443 783.894"><path d="M553.553 756.142c0 15.287-94.578 27.672-211.447 27.752h-1.062c-57.047 0-108.849-2.937-147.02-7.701-1.634-.217-3.245-.423-4.822-.64a473.848 473.848 0 01-18.143-2.742c-26.701-4.65-42.525-10.42-42.525-16.67 0-5.06 10.351-9.79 28.437-13.881 9.552-2.16 21.251-4.125 34.733-5.861q3.72-.497 7.632-.937c37.6-4.399 87.266-7.072 141.708-7.072 10.58 0 20.988.103 31.156.297 102.588 1.965 181.353 13.504 181.353 27.455z" fill="#3f3d56"/><path fill="#f2f2f2" d="M617.705 416.066h314.754v161.311H617.705zM226.23.984h314.754v161.311H226.23z"/><path d="M541.967 163.279H225.246V0h316.721zm-314.754-1.968H540V1.967H227.213z" fill="#fb8e62"/><path fill="#f2f2f2" d="M617.705.984h314.754v161.311H617.705zM226.23 208.525h314.754v161.311H226.23zm391.475 0h314.754v161.311H617.705zM226.23 416.066h314.754v161.311H226.23z"/><circle cx="40.328" cy="81.639" r="40.328" fill="#f2f2f2"/><path d="M153.443 41.311A40.328 40.328 0 10193.77 81.64a40.328 40.328 0 00-40.328-40.328zm17.476 55.311l-3.477 3.477-14.491-14.49-14.491 14.49-3.477-3.477 14.49-14.49-16.457-16.459 3.477-3.477 16.458 16.458 16.458-16.458 3.477 3.477-16.458 16.458z" fill="#f2f2f2"/><path fill="#fb8e62" d="M36.256 100.783L17.71 76.237l3.924-2.966 14.897 19.717 41.78-47.883 3.706 3.233-45.761 52.445z"/><path d="M506.715 577.044q-19.185-3.25-36.901-5.583l4.669-9.052c-1.575-.547-8.492 4.637-8.492 4.637l6.128-26.277c-7.919.955-11.944 27.786-11.944 27.786l-8.847-9.072 4.283 10.199a816.821 816.821 0 00-93.623-5.892l3.996-7.748c-1.575-.547-8.492 4.637-8.492 4.637l6.128-26.277c-7.919.955-11.944 27.785-11.944 27.785l-8.847-9.071 4.536 10.802a525.906 525.906 0 00-53.82 3.656c4.042-12.07 17.773-23.55 17.773-23.55-10.486 3.119-15.987 8.345-18.861 13.217a211.639 211.639 0 0112.233-73.124s-21.675 47.166-18.91 78.826l.332 5.621c-18.375 2.631-25.604 8.813-25.604 8.813z" fill="#3f3d56"/><circle cx="355.705" cy="255.588" r="34.787" fill="#ff6584"/><path fill="#3f3d56" d="M728.996 475.767l-4.078-3.263 22.839-20.392h57.913v17.945l-37.521 25.286-39.153-19.576z"/><path fill="#ccc" d="M816.229 463.551V452.52h-7.689v2.701l-2.87-3.109-18.761 20.392-7.341 4.894-11.382 83.162 17.166 17.166h39.894V473.32l-9.017-9.769z"/><path fill="#f2f2f2" d="M724.918 472.504h61.991v105.222h-61.991z"/><path fill="#ccc" d="M748.98 552.032h11.419v25.694H748.98z"/><path fill="#3f3d56" d="M736.745 559.373v-4.078h-4.894v4.078h4.894zm-.407 3.263h-4.487v4.078h4.894v-4.078h-.407zm3.67-7.341h4.894v4.078h-4.894zm0 7.341h4.894v4.078h-4.894zm30.18-3.263v-4.078h-4.894v4.078h4.894zm-.408 3.263h-4.486v4.078h4.894v-4.078h-.408zm3.671-7.341h4.894v4.078h-4.894zm0 7.341h4.894v4.078h-4.894zm30.995-84.83v-4.079h-4.894v4.079h4.894zm-.408 3.263h-4.486v4.078h4.894v-4.078h-.408zm3.671-7.342h4.894v4.078h-4.894zm0 7.342h4.894v4.078h-4.894zm-3.263 19.576v-4.079h-4.894v4.079h4.894zm-.408 3.262h-4.486v4.079h4.894v-4.079h-.408zm3.671-7.341h4.894v4.078h-4.894zm0 7.341h4.894v4.078h-4.894zm-3.263 19.577v-4.079h-4.894v4.079h4.894zm-.408 3.262h-4.486v4.079h4.894v-4.079h-.408zm3.671-7.341h4.894v4.078h-4.894zm0 7.341h4.894v4.078h-4.894zm-3.263 19.576v-4.078h-4.894v4.078h4.894zm-.408 3.263h-4.486v4.079h4.894v-4.079h-.408zm3.671-7.341h4.894v4.078h-4.894zm0 7.341h4.894v4.078h-4.894zm-75.858-71.779h47.309v9.788h-47.309zm0 19.576h47.309v9.788h-47.309zm0 19.576h47.309v9.788h-47.309zm0 19.576h47.309v9.788h-47.309zm-375.949-66.741h41.519v-10.022h22.907v10.022h42.951v44.383h-42.951v55.836h-22.907v-55.836h-41.519l-21.476-24.339 21.476-20.044zm122.131-99.957h-1.967a96.393 96.393 0 10-192.787 0h-1.967a98.36 98.36 0 01196.72 0z"/><path fill="#3f3d56" d="M330.307 270.989l2.514-.005.187 99.297-2.514.005z"/><path d="M356.042 283.596c.226 34.72-24.15 63.027-24.15 63.027s-24.74-27.988-24.966-62.709 24.15-63.028 24.15-63.028 24.741 27.988 24.966 62.71z" fill="#fb8e62"/><path d="M356.042 283.596c.226 34.72-24.15 63.027-24.15 63.027s-24.74-27.988-24.966-62.709 24.15-63.028 24.15-63.028 24.741 27.988 24.966 62.71z" opacity=".1"/><path fill="#3f3d56" d="M297.627 271.05l2.514-.004.187 99.297-2.514.005z"/><path d="M323.362 283.657c.226 34.721-24.15 63.028-24.15 63.028s-24.74-27.988-24.966-62.71 24.15-63.027 24.15-63.027 24.741 27.988 24.966 62.709z" fill="#fb8e62"/><path fill="#3f3d56" d="M465.544 291.88h1.99v78.61h-1.99z"/><path d="M485.901 301.898c.127 27.488-19.213 49.861-19.213 49.861s-19.544-22.193-19.671-49.682 19.213-49.86 19.213-49.86 19.544 22.193 19.671 49.681z" fill="#fb8e62"/><circle cx="770.609" cy="291.639" r="68.408" fill="#3f3d56"/><path fill="#fb8e62" d="M777.45 266.171v28.636h-41.627l-7.691 9.227.878-9.227h-3.741v-28.636h52.181z"/><path opacity=".1" d="M758.677 276.035h18.772v18.772h-18.772z"/><path fill="#fb8e62" d="M762.813 280.171h52.181v28.636h-3.742l.879 9.227-7.69-9.227h-41.628v-28.636z"/><ellipse cx="728.451" cy="307.534" rx="11.454" ry="1.117" opacity=".1"/><ellipse cx="812.131" cy="322.488" rx="13.045" ry="1.273" opacity=".1"/><path d="M809.443 21.032h-45.204a9.61 9.61 0 00-9.374 7.496l-22.84 101.31a7.766 7.766 0 007.194 9.465l46.47 2.29a10.26 10.26 0 0010.6-8.422l12.957-71.628.964.276 2.48-13.576-.993-.248L815.314 28a5.916 5.916 0 00-5.871-6.97z" fill="#3f3d56"/><path d="M770.19 23.216h-5.276a6.64 6.64 0 00-6.488 5.225l-21.924 100.483a4.115 4.115 0 003.751 4.984l46.32 3.035a5.33 5.33 0 005.593-4.373l18.707-103.86a4.668 4.668 0 00-4.594-5.494h-5.005a2.203 2.203 0 00-2.127 1.63 1.945 1.945 0 01-1.878 1.439h-23.764a3.324 3.324 0 01-3.315-3.07z" fill="#fb8e62"/><circle cx="389.947" cy="81.788" r="65.461" fill="#fb8e62"/><path d="M446.947 122.888c-12.569 0-40.324-12.908-65.007-28.027-30.63-18.761-60.379-43.283-55.178-51.774 1.47-2.4 5.113-3.028 11.14-1.921l-.432 2.353c-4.667-.859-7.825-.56-8.668.817-1.23 2.007 1.481 7.834 12.775 18.168 10.292 9.419 25.07 20.185 41.612 30.317 16.542 10.132 32.848 18.404 45.914 23.294 14.338 5.366 20.76 5.132 21.989 3.126.844-1.378-.329-4.331-3.218-8.104l1.9-1.454c3.73 4.872 4.828 8.407 3.358 10.807-1.01 1.649-3.157 2.398-6.185 2.398z" fill="#3f3d56"/><circle cx="381.867" cy="48.141" r="13.39" fill="#fff"/><circle cx="385.745" cy="121.543" r="8.926" fill="#fff"/><circle cx="416.484" cy="90.94" r="8.926" fill="#fff"/><path d="M933.443 578.36H616.72V415.083h316.722zm-314.754-1.966h312.787V417.048H618.689zm312.787-204.591H614.754V208.525h316.722zm-314.755-1.967h312.787V210.492H616.721z" fill="#fb8e62"/><path d="M224.41 720.303c5.37 19.85 23.763 32.144 23.763 32.144s9.686-19.89 4.317-39.74-23.763-32.144-23.763-32.144-9.687 19.89-4.317 39.74z" fill="#3f3d56"/><path d="M232.3 716.037c14.736 14.344 16.535 36.394 16.535 36.394s-22.09-1.206-36.825-15.55-16.534-36.394-16.534-36.394 22.09 1.206 36.825 15.55z" fill="#fb8e62"/><path d="M283.777 443.634l-15.703 1.745s-6.98 31.406 0 73.282 15.703 83.751 15.703 83.751 6.98 136.096 10.47 137.84 34.896 12.214 36.64 1.746 1.745-249.51 1.745-249.51l24.428 115.159s3.49 144.82 10.469 144.82 29.661-1.745 29.661-13.96 5.235-172.736 5.235-172.736-1.745-118.648-8.724-122.137-109.924 0-109.924 0z" fill="#2f2e41"/><path d="M297.736 735.018s-15.703-1.745-19.193 0-8.724 13.959 0 20.938 31.407 17.448 38.386 17.448 13.958-3.49 13.958-3.49l-3.49-29.661zm69.793 8.724l1.744 24.428s22.683 3.49 24.428 0 19.193-12.214 20.938-13.959 3.49-20.938-6.98-22.682-13.958 3.49-13.958 3.49z" fill="#2f2e41"/><path d="M408.076 236.015s38.147-24.53 37.264-41.384-23.88-69.992-23.88-69.992-17.99-37.403-25.142-22.117 9.4 31.557 9.4 31.557l10.683 52.127-29.034 27.699z" fill="#a0616a"/><circle cx="313.439" cy="169.698" r="31.407" fill="#a0616a"/><path d="M297.736 188.89l5.234 33.152 38.386-6.98s-1.744-33.15-1.744-36.64-41.876 10.469-41.876 10.469z" fill="#a0616a"/><path d="M295.991 222.042s43.62-10.469 48.855-6.98 31.407 6.98 31.407 6.98l29.662 45.365-8.725 57.58s-1.744 92.475 1.745 108.178 22.683 17.448-17.448 20.938-47.11-1.745-75.027 5.234-50.6-3.49-43.62-10.469 19.193-118.647 5.234-129.116-19.193-64.558-19.193-64.558 47.11-24.428 47.11-33.152z" fill="#3f3d56"/><path d="M371.018 227.277l5.235-5.235 10.469-10.469S420.745 226.404 419 231.64s-13.086 35.768-13.086 35.768l-15.704 5.235z" fill="#3f3d56"/><path d="M324.4 131.648l-.322-2.516a19.778 19.778 0 00-6.286.988 10.327 10.327 0 01.388-4.521 20.103 20.103 0 00-5.818 2.53l-1.268-4.593-17.443 8.597c-6.261 3.086-12.863 6.476-16.442 12.47-3.99 6.68-3.296 15.267-.568 22.555s7.26 13.738 10.894 20.62a51.517 51.517 0 004.95 8.426c6.584 8.208 19.4 9.866 28.683 4.912 3.426-1.828 6.539-4.56 7.948-8.179.843-2.163 1.035-4.518 1.588-6.773 1.148-4.69 2.48-14.372 6.29-17.339 1.677-1.305 5 3.023 6.39 1.415 3.57-4.132 2.82-10.504.603-15.494a113.053 113.053 0 00-7.443-14.517c-1.198-1.87-12.183-8.883-12.144-8.58z" fill="#2f2e41"/><path d="M220.964 297.07s-41.876 40.13-36.641 61.068 47.11 82.006 47.11 82.006 40.13 20.938 45.365 0-27.917-15.703-27.917-15.703l-26.172-62.814 29.662-41.875z" fill="#a0616a"/><path d="M269.819 258.683l-20.938-3.49s-15.703 17.449-20.938 24.428-15.703 24.428-15.703 24.428l36.641 26.172 27.917-29.662z" fill="#3f3d56"/></svg>