<svg data-name="Layer 1" xmlns="http://www.w3.org/2000/svg" width="1081.37" height="821.13" viewBox="0 0 1081.37 821.13"><defs><linearGradient id="a" x1="852.98" y1="854.53" x2="852.98" y2="216.11" gradientUnits="userSpaceOnUse"><stop offset="0" stop-color="gray" stop-opacity=".25"/><stop offset=".54" stop-color="gray" stop-opacity=".12"/><stop offset="1" stop-color="gray" stop-opacity=".1"/></linearGradient></defs><path d="M1002.79 583.39q-5.05 4.44-10.35 8.64c-.59.48-1.2 1-1.8 1.43a363.56 363.56 0 01-39.52 26.7c-15.77 9.32-32.23 17.8-48.91 25.8a810.82 810.82 0 01-76.94 32.45l-1.18.43q-17.28 6.16-34.95 11.37l-.21.06q-12.33 3.6-24.83 6.65l-1.14.28q-18.4 4.44-37.17 7.55l-2.88.46q-13.72 2.16-27.63 3.52c-52.12 5-104.87.94-156.67-6.08-104.61-14.19-207.83-40.79-302-82.49a836.8 836.8 0 01-103.92-54.81q-7.08-4.41-14.07-9c-.73-.49-1.47-1-2.2-1.47-45.94-30.71-87.43-68.11-106.73-115.31-21.53-52.69-7.75-119.47 45.58-150.66 18.42-10.7 39.67-16.53 61.17-21.34l2.2-.49c3.64-.8 7.28-1.57 10.91-2.34 12.69-2.69 25.45-5.36 38.09-8.35 23.49-5.53 46.57-12.13 68.08-21.82q2.38-1.06 4.74-2.19c16.83-8 35.14-19.64 49-33.62 11.94-12.07 20.53-25.91 21.95-40.76a45 45 0 00-.56-12.64c-1.48-7.9-2.91-15.62-4-23.16-2-14.16-2.64-27.7.09-40.76 2.78-13.31 9.07-26.12 21.09-38.54q2.73-2.82 5.86-5.61a123.7 123.7 0 0132.54-20.58q2.21-1 4.44-1.87C403.87 1.48 443.54-1.31 480.6.53a598.88 598.88 0 01102.83 14.29c2.68.6 5.36 1.23 8 1.87a713.29 713.29 0 0184.74 26.19c81.37 30.6 157.52 74.69 227.94 122.55l3.36 2.29q2.47 1.69 4.94 3.4 5.06 3.48 10.06 7 3.72 2.59 7.42 5.22l5.31 3.77 3.31 2.38c18 13 35.71 26.47 52.12 40.92l1.8 1.6c20 17.8 38.11 37.06 52.61 58.56 61.51 91.24 43.27 217.65-42.25 292.82z" fill="#fb8e62" opacity=".1"/><path d="M992.44 14.82v577.21c-.59.48-1.2 1-1.8 1.43a363.56 363.56 0 01-39.52 26.7H236.69a836.8 836.8 0 01-104-54.81q-7.08-4.41-14.07-9c-.73-.49-1.47-1-2.2-1.47v-540z" opacity=".03"/><path d="M990.69 16.69v576.77a363.56 363.56 0 01-39.52 26.7H236.69a836.8 836.8 0 01-104-54.81q-7.08-4.41-14.07-9V16.69z" fill="#fefefe"/><g opacity=".7" fill="#ff6584"><path d="M781.1 233.92a21 21 0 1021 21 21 21 0 00-21-21zm0 38a17 17 0 01-17-17 16.64 16.64 0 01.95-5.58 17 17 0 1116 22.55z"/><path d="M787.54 264.04l2.64-2.65a1.17 1.17 0 000-1.66l-4.77-4.78 4.77-4.77a1.17 1.17 0 000-1.66l-2.64-2.65a1.18 1.18 0 00-1.67 0l-4.77 4.77-4.77-4.77a1.17 1.17 0 00-1.66 0l-2.65 2.7a1.17 1.17 0 000 1.66l4.77 4.77-4.77 4.78a1.17 1.17 0 000 1.66l2.65 2.65a1.17 1.17 0 001.66 0l4.77-4.78 4.77 4.78a1.2 1.2 0 001.67-.05z"/></g><path d="M739.13 402.91a21 21 0 00-8.92-13.51 21.08 21.08 0 00-16-3.13l-.63.15a19.71 19.71 0 00-3.31 1.08 21.07 21.07 0 00.05 38.74l.6.24a21 21 0 0028.62-19.62 20.41 20.41 0 00-.41-3.95zm-3.88 6.47a.13.13 0 010 .06v.19a17 17 0 01-23.9 12.59 6.45 6.45 0 01-.59-.29 16.41 16.41 0 01-3.12-2.07 17 17 0 012.27-27.62 16.16 16.16 0 013.36-1.52l.63-.19a17 17 0 0121.58 16.32 16.29 16.29 0 01-.23 2.53z" fill="#fb8e62" opacity=".1"/><path d="M724.92 415.94l2.65-2.65a1.17 1.17 0 000-1.66l-4.77-4.77 4.77-4.77a1.18 1.18 0 000-1.67l-2.65-2.64a1.17 1.17 0 00-1.66 0l-4.77 4.79-4.8-4.79a1.17 1.17 0 00-1.66 0l-2.65 2.64a1.18 1.18 0 000 1.67l4.78 4.77-4.78 4.77a1.17 1.17 0 000 1.66l2.65 2.65a1.17 1.17 0 001.66 0l4.78-4.77 4.77 4.77a1.17 1.17 0 001.68 0z" fill="#fb8e62" opacity=".1"/><path d="M677.02 95.89l-1.91-1.92a1 1 0 00-1.44 0l-12 11.89-5.07-5.11a1 1 0 00-1.43 0l-1.93 1.91a1 1 0 000 1.44l7.7 7.76a1 1 0 001.44 0l14.63-14.52a1 1 0 00.01-1.45zm0 0l-1.91-1.92a1 1 0 00-1.44 0l-12 11.89-5.07-5.11a1 1 0 00-1.43 0l-1.93 1.91a1 1 0 000 1.44l7.7 7.76a1 1 0 001.44 0l14.63-14.52a1 1 0 00.01-1.45zm0 0l-1.91-1.92a1 1 0 00-1.44 0l-12 11.89-5.07-5.11a1 1 0 00-1.43 0l-1.93 1.91a1 1 0 000 1.44l7.7 7.76a1 1 0 001.44 0l14.63-14.52a1 1 0 00.01-1.45zm0 0l-1.91-1.92a1 1 0 00-1.44 0l-12 11.89-5.07-5.11a1 1 0 00-1.43 0l-1.93 1.91a1 1 0 000 1.44l7.7 7.76a1 1 0 001.44 0l14.63-14.52a1 1 0 00.01-1.45zm-11.89-15.11a21 21 0 1021 21 21 21 0 00-21-21zm0 38a17 17 0 1117-17 16.95 16.95 0 01-17 16.98zm11.89-22.87l-1.91-1.92a1 1 0 00-1.44 0l-12 11.89-5.07-5.11a1 1 0 00-1.43 0l-1.93 1.91a1 1 0 000 1.44l7.7 7.76a1 1 0 001.44 0l14.63-14.52a1 1 0 00.01-1.47zm0 0l-1.91-1.92a1 1 0 00-1.44 0l-12 11.89-5.07-5.11a1 1 0 00-1.43 0l-1.93 1.91a1 1 0 000 1.44l7.7 7.76a1 1 0 001.44 0l14.63-14.52a1 1 0 00.01-1.47zm0 0l-1.91-1.92a1 1 0 00-1.44 0l-12 11.89-5.07-5.11a1 1 0 00-1.43 0l-1.93 1.91a1 1 0 000 1.44l7.7 7.76a1 1 0 001.44 0l14.63-14.52a1 1 0 00.01-1.47zm0 0l-1.91-1.92a1 1 0 00-1.44 0l-12 11.89-5.07-5.11a1 1 0 00-1.43 0l-1.93 1.91a1 1 0 000 1.44l7.7 7.76a1 1 0 001.44 0l14.63-14.52a1 1 0 00.01-1.47zm0 0l-1.91-1.92a1 1 0 00-1.44 0l-12 11.89-5.07-5.11a1 1 0 00-1.43 0l-1.93 1.91a1 1 0 000 1.44l7.7 7.76a1 1 0 001.44 0l14.63-14.52a1 1 0 00.01-1.47z" fill="#3acc6c" opacity=".7"/><path d="M714.23 249.04l-1.91-1.93a1 1 0 00-1.44 0l-12 11.89-5.07-5.11a1 1 0 00-1.44 0l-1.93 1.91a1 1 0 000 1.44l7.69 7.76a1 1 0 001.44 0l14.64-14.52a1 1 0 00.02-1.44zm0 0l-1.91-1.93a1 1 0 00-1.44 0l-12 11.89-5.07-5.11a1 1 0 00-1.44 0l-1.93 1.91a1 1 0 000 1.44l7.69 7.76a1 1 0 001.44 0l14.64-14.52a1 1 0 00.02-1.44zm0 0l-1.91-1.93a1 1 0 00-1.44 0l-12 11.89-5.07-5.11a1 1 0 00-1.44 0l-1.93 1.91a1 1 0 000 1.44l7.69 7.76a1 1 0 001.44 0l14.64-14.52a1 1 0 00.02-1.44zm0 0l-1.91-1.93a1 1 0 00-1.44 0l-12 11.89-5.07-5.11a1 1 0 00-1.44 0l-1.93 1.91a1 1 0 000 1.44l7.69 7.76a1 1 0 001.44 0l14.64-14.52a1 1 0 00.02-1.44zm-11.89-15.12a21 21 0 1021 21 21 21 0 00-21-21zm0 38a17 17 0 1117-17 16.95 16.95 0 01-17 16.99zm11.89-22.87l-1.91-1.93a1 1 0 00-1.44 0l-12 11.89-5.07-5.11a1 1 0 00-1.44 0l-1.93 1.91a1 1 0 000 1.44l7.69 7.76a1 1 0 001.44 0l14.64-14.52a1 1 0 00.02-1.45zm0 0l-1.91-1.93a1 1 0 00-1.44 0l-12 11.89-5.07-5.11a1 1 0 00-1.44 0l-1.93 1.91a1 1 0 000 1.44l7.69 7.76a1 1 0 001.44 0l14.64-14.52a1 1 0 00.02-1.45zm0 0l-1.91-1.93a1 1 0 00-1.44 0l-12 11.89-5.07-5.11a1 1 0 00-1.44 0l-1.93 1.91a1 1 0 000 1.44l7.69 7.76a1 1 0 001.44 0l14.64-14.52a1 1 0 00.02-1.45zm0 0l-1.91-1.93a1 1 0 00-1.44 0l-12 11.89-5.07-5.11a1 1 0 00-1.44 0l-1.93 1.91a1 1 0 000 1.44l7.69 7.76a1 1 0 001.44 0l14.64-14.52a1 1 0 00.02-1.45zm0 0l-1.91-1.93a1 1 0 00-1.44 0l-12 11.89-5.07-5.11a1 1 0 00-1.44 0l-1.93 1.91a1 1 0 000 1.44l7.69 7.76a1 1 0 001.44 0l14.64-14.52a1 1 0 00.02-1.45z" fill="#fb8e62" opacity=".1"/><path d="M651.36 402.18l-1.91-1.93a1 1 0 00-1.44 0l-12 11.89-5.07-5.11a1 1 0 00-1.44 0l-1.93 1.91a1 1 0 000 1.44l7.69 7.76a1 1 0 001.44 0l14.64-14.52a1 1 0 00.02-1.44zm0 0l-1.91-1.93a1 1 0 00-1.44 0l-12 11.89-5.07-5.11a1 1 0 00-1.44 0l-1.93 1.91a1 1 0 000 1.44l7.69 7.76a1 1 0 001.44 0l14.64-14.52a1 1 0 00.02-1.44zm0 0l-1.91-1.93a1 1 0 00-1.44 0l-12 11.89-5.07-5.11a1 1 0 00-1.44 0l-1.93 1.91a1 1 0 000 1.44l7.69 7.76a1 1 0 001.44 0l14.64-14.52a1 1 0 00.02-1.44zm0 0l-1.91-1.93a1 1 0 00-1.44 0l-12 11.89-5.07-5.11a1 1 0 00-1.44 0l-1.93 1.91a1 1 0 000 1.44l7.69 7.76a1 1 0 001.44 0l14.64-14.52a1 1 0 00.02-1.44zm-11.89-15.12a21 21 0 1021 21 21 21 0 00-21-21zm0 38a17 17 0 1117-17 16.94 16.94 0 01-17 16.99zm11.89-22.87l-1.91-1.93a1 1 0 00-1.44 0l-12 11.89-5.07-5.11a1 1 0 00-1.44 0l-1.93 1.91a1 1 0 000 1.44l7.69 7.76a1 1 0 001.44 0l14.64-14.52a1 1 0 00.02-1.45zm0 0l-1.91-1.93a1 1 0 00-1.44 0l-12 11.89-5.07-5.11a1 1 0 00-1.44 0l-1.93 1.91a1 1 0 000 1.44l7.69 7.76a1 1 0 001.44 0l14.64-14.52a1 1 0 00.02-1.45zm0 0l-1.91-1.93a1 1 0 00-1.44 0l-12 11.89-5.07-5.11a1 1 0 00-1.44 0l-1.93 1.91a1 1 0 000 1.44l7.69 7.76a1 1 0 001.44 0l14.64-14.52a1 1 0 00.02-1.45zm0 0l-1.91-1.93a1 1 0 00-1.44 0l-12 11.89-5.07-5.11a1 1 0 00-1.44 0l-1.93 1.91a1 1 0 000 1.44l7.69 7.76a1 1 0 001.44 0l14.64-14.52a1 1 0 00.02-1.45zm0 0l-1.91-1.93a1 1 0 00-1.44 0l-12 11.89-5.07-5.11a1 1 0 00-1.44 0l-1.93 1.91a1 1 0 000 1.44l7.69 7.76a1 1 0 001.44 0l14.64-14.52a1 1 0 00.02-1.45z" fill="#3acc6c" opacity=".7"/><path d="M611.04 555.32l-1.91-1.92a1 1 0 00-1.44 0l-12 11.89-5.07-5.11a1 1 0 00-1.44 0l-1.92 1.92a1 1 0 000 1.43l7.7 7.76a1 1 0 001.44 0l14.63-14.52a1 1 0 00.01-1.45zm0 0l-1.91-1.92a1 1 0 00-1.44 0l-12 11.89-5.07-5.11a1 1 0 00-1.44 0l-1.92 1.92a1 1 0 000 1.43l7.7 7.76a1 1 0 001.44 0l14.63-14.52a1 1 0 00.01-1.45zm0 0l-1.91-1.92a1 1 0 00-1.44 0l-12 11.89-5.07-5.11a1 1 0 00-1.44 0l-1.92 1.92a1 1 0 000 1.43l7.7 7.76a1 1 0 001.44 0l14.63-14.52a1 1 0 00.01-1.45zm0 0l-1.91-1.92a1 1 0 00-1.44 0l-12 11.89-5.07-5.11a1 1 0 00-1.44 0l-1.92 1.92a1 1 0 000 1.43l7.7 7.76a1 1 0 001.44 0l14.63-14.52a1 1 0 00.01-1.45zm-11.89-15.11a21 21 0 1021 21 21 21 0 00-21-21zm0 38a17 17 0 1117-17 17 17 0 01-17 16.99zm11.89-22.88l-1.91-1.92a1 1 0 00-1.44 0l-12 11.89-5.07-5.11a1 1 0 00-1.44 0l-1.92 1.92a1 1 0 000 1.43l7.7 7.76a1 1 0 001.44 0l14.63-14.52a1 1 0 00.01-1.46zm0 0l-1.91-1.92a1 1 0 00-1.44 0l-12 11.89-5.07-5.11a1 1 0 00-1.44 0l-1.92 1.92a1 1 0 000 1.43l7.7 7.76a1 1 0 001.44 0l14.63-14.52a1 1 0 00.01-1.46zm0 0l-1.91-1.92a1 1 0 00-1.44 0l-12 11.89-5.07-5.11a1 1 0 00-1.44 0l-1.92 1.92a1 1 0 000 1.43l7.7 7.76a1 1 0 001.44 0l14.63-14.52a1 1 0 00.01-1.46zm0 0l-1.91-1.92a1 1 0 00-1.44 0l-12 11.89-5.07-5.11a1 1 0 00-1.44 0l-1.92 1.92a1 1 0 000 1.43l7.7 7.76a1 1 0 001.44 0l14.63-14.52a1 1 0 00.01-1.46zm0 0l-1.91-1.92a1 1 0 00-1.44 0l-12 11.89-5.07-5.11a1 1 0 00-1.44 0l-1.92 1.92a1 1 0 000 1.43l7.7 7.76a1 1 0 001.44 0l14.63-14.52a1 1 0 00.01-1.46z" fill="#fb8e62" opacity=".1"/><path d="M853.85 172.46l-1.91-1.89a1 1 0 00-1.44 0l-6.24 6.2-2.25 2.23-.19.18-1.17 1.17-2.09 2.07-5.07-5.11a1 1 0 00-1.44 0l-1.93 1.91a1 1 0 000 1.44l7.26 7.33.43.43a1.08 1.08 0 00.59.3 1 1 0 00.85-.29l6.06-6 2-2 6.56-6.51a1 1 0 00-.02-1.46zm0 0l-1.91-1.89a1 1 0 00-1.44 0l-6.24 6.2-2.25 2.23-.19.18-1.17 1.17-2.09 2.07-5.07-5.11a1 1 0 00-1.44 0l-1.93 1.91a1 1 0 000 1.44l7.26 7.33.43.43a1.08 1.08 0 00.59.3 1 1 0 00.85-.29l6.06-6 2-2 6.56-6.51a1 1 0 00-.02-1.46zm0 0l-1.91-1.89a1 1 0 00-1.44 0l-6.24 6.2-2.25 2.23-.19.18-1.17 1.17-2.09 2.07-5.07-5.11a1 1 0 00-1.44 0l-1.93 1.91a1 1 0 000 1.44l7.26 7.33.43.43a1.08 1.08 0 00.59.3 1 1 0 00.85-.29l6.06-6 2-2 6.56-6.51a1 1 0 00-.02-1.46zm0 0l-1.91-1.89a1 1 0 00-1.44 0l-6.24 6.2-2.25 2.23-.19.18-1.17 1.17-2.09 2.07-5.07-5.11a1 1 0 00-1.44 0l-1.93 1.91a1 1 0 000 1.44l7.26 7.33.43.43a1.08 1.08 0 00.59.3 1 1 0 00.85-.29l6.06-6 2-2 6.56-6.51a1 1 0 00-.02-1.46zm-11.89-15.11a21 21 0 00-6.91 40.89c.22.08.44.16.67.22a21 21 0 0014-.52 19.46 19.46 0 003-1.49 21 21 0 00-10.76-39.1zm7.45 36.27a16.6 16.6 0 01-2.18.89 17.11 17.11 0 01-9.83.21c-.45-.13-.9-.27-1.33-.43a17 17 0 1113.34-.67zm4.44-21.16l-1.91-1.89a1 1 0 00-1.44 0l-6.24 6.2-2.25 2.23-.19.18-1.17 1.17-2.09 2.07-5.07-5.11a1 1 0 00-1.44 0l-1.93 1.91a1 1 0 000 1.44l7.26 7.33.43.43a1.08 1.08 0 00.59.3 1 1 0 00.85-.29l6.06-6 2-2 6.56-6.51a1 1 0 00-.02-1.46zm0 0l-1.91-1.89a1 1 0 00-1.44 0l-6.24 6.2-2.25 2.23-.19.18-1.17 1.17-2.09 2.07-5.07-5.11a1 1 0 00-1.44 0l-1.93 1.91a1 1 0 000 1.44l7.26 7.33.43.43a1.08 1.08 0 00.59.3 1 1 0 00.85-.29l6.06-6 2-2 6.56-6.51a1 1 0 00-.02-1.46zm0 0l-1.91-1.89a1 1 0 00-1.44 0l-6.24 6.2-2.25 2.23-.19.18-1.17 1.17-2.09 2.07-5.07-5.11a1 1 0 00-1.44 0l-1.93 1.91a1 1 0 000 1.44l7.26 7.33.43.43a1.08 1.08 0 00.59.3 1 1 0 00.85-.29l6.06-6 2-2 6.56-6.51a1 1 0 00-.02-1.46zm0 0l-1.91-1.89a1 1 0 00-1.44 0l-6.24 6.2-2.25 2.23-.19.18-1.17 1.17-2.09 2.07-5.07-5.11a1 1 0 00-1.44 0l-1.93 1.91a1 1 0 000 1.44l7.26 7.33.43.43a1.08 1.08 0 00.59.3 1 1 0 00.85-.29l6.06-6 2-2 6.56-6.51a1 1 0 00-.02-1.46zm0 0l-1.91-1.89a1 1 0 00-1.44 0l-6.24 6.2-2.25 2.23-.19.18-1.17 1.17-2.09 2.07-5.07-5.11a1 1 0 00-1.44 0l-1.93 1.91a1 1 0 000 1.44l7.26 7.33.43.43a1.08 1.08 0 00.59.3 1 1 0 00.85-.29l6.06-6 2-2 6.56-6.51a1 1 0 00-.02-1.46z" fill="#3acc6c" opacity=".7"/><rect x="167.58" y="81.43" width="439.1" height="40.76" rx="20.38" ry="20.38" fill="#fb8e62" opacity=".2"/><rect x="167.58" y="158" width="616.71" height="40.76" rx="20.38" ry="20.38" fill="#fb8e62" opacity=".2"/><rect x="167.58" y="234.57" width="476.52" height="40.76" rx="20.38" ry="20.38" fill="#fb8e62" opacity=".1"/><rect x="167.58" y="311.14" width="616.71" height="40.76" rx="20.38" ry="20.38" fill="#fb8e62" opacity=".1"/><rect x="167.58" y="387.71" width="415.38" height="40.76" rx="20.38" ry="20.38" fill="#fb8e62" opacity=".2"/><rect x="167.58" y="464.29" width="616.71" height="40.76" rx="20.38" ry="20.38" fill="#fb8e62" opacity=".1"/><rect x="167.58" y="540.86" width="373.1" height="40.76" rx="20.38" ry="20.38" fill="#fb8e62" opacity=".1"/><path d="M744.38 80.78a21 21 0 1021 21 21 21 0 00-21-21zm0 38a17 17 0 1117-17 16.95 16.95 0 01-17 16.98z" fill="#fb8e62" opacity=".1"/><path d="M750.82 110.89l2.65-2.64a1.18 1.18 0 000-1.67l-4.78-4.77 4.77-4.77a1.18 1.18 0 000-1.67l-2.65-2.64a1.17 1.17 0 00-1.66 0l-4.77 4.77-4.77-4.77a1.18 1.18 0 00-1.67 0l-2.64 2.64a1.17 1.17 0 000 1.67l4.77 4.77-4.76 4.76a1.17 1.17 0 000 1.67l2.64 2.64a1.18 1.18 0 001.67 0l4.77-4.77 4.77 4.77a1.17 1.17 0 001.66.01zm169.87 46.46a21 21 0 1021 21 20.94 20.94 0 00-21-21zm0 38a17 17 0 1114.54-8.24 17 17 0 01-14.54 8.23z" fill="#fb8e62" opacity=".1"/><path d="M927.11 187.46l2.65-2.64a1.18 1.18 0 000-1.67l-4.78-4.77 4.78-4.77a1.17 1.17 0 000-1.66l-2.65-2.65a1.17 1.17 0 00-1.66 0l-4.76 4.77-4.77-4.77a1.17 1.17 0 00-1.66 0l-2.65 2.65a1.17 1.17 0 000 1.66l4.77 4.77-4.77 4.77a1.18 1.18 0 000 1.67l2.65 2.64a1.15 1.15 0 001.66 0l4.77-4.77 4.78 4.77a1.17 1.17 0 001.64 0z" fill="#fb8e62" opacity=".1"/><g opacity=".7" fill="#ff6584"><path d="M677.32 540.21a21 21 0 1021 21 21 21 0 00-21-21zm0 38a17 17 0 1117-17 16.95 16.95 0 01-17 16.99z"/><path d="M683.76 570.32l2.64-2.64a1.18 1.18 0 000-1.67l-4.77-4.77 4.77-4.77a1.17 1.17 0 000-1.66l-2.64-2.65a1.18 1.18 0 00-1.67 0l-4.77 4.77-4.77-4.77a1.17 1.17 0 00-1.66 0l-2.65 2.65a1.17 1.17 0 000 1.66l4.77 4.77-4.77 4.77a1.18 1.18 0 000 1.67l2.65 2.64a1.15 1.15 0 001.66 0l4.77-4.77 4.77 4.77a1.18 1.18 0 001.67 0z"/></g><ellipse cx="766.54" cy="809.27" rx="118.88" ry="5.8" fill="#fb8e62" opacity=".1"/><path d="M928.7 438s-28.11-51.38-23.36-59.74 8.22-20.46 8.22-20.46 10.38-7.1 10.38-10 8.22-9.61 12.55-12.53 2.16-16.71 0-18.38-5.59-7.52-5.59-7.52 3-8.35 0-10.86.44-5 0-7.52 0-11.69 0-11.69c-3.51-4.88-7.4-7.16-11.06-8l-.32-1.32-1.85-7.79s9-17.25-5.6-26.28a24.4 24.4 0 00-3.23-1.7s0-.42-.08-1.13c-.2-2.58-.81-9.05-2.12-13.21-.76-2.42-1.75-4.05-3-3.68a2 2 0 00-.82.47 9.12 9.12 0 00-1.55 1.83.41.41 0 01-.07.11 31.36 31.36 0 00-3.44 9.55 55.16 55.16 0 00-1 6 33 33 0 00-1.67 3.71c-1.77 4.59-3.84 12.54-.07 18.42 3.2 5 7.51 11.87 10.64 16.87l.1.16.19.31-.33.21.05.77.29 4.21 2.47 36.37a15.45 15.45 0 00-2.22-.47 20.17 20.17 0 00-3.23-.21c-2.11-8.29-7.9-16-8.95-24.66a22.87 22.87 0 01-.17-2.61c.09-5.45 1.45-10.92 1.34-16.36 0-1 0-2-.1-3 0-.27 0-.55-.08-.83a24.59 24.59 0 00-13.37-18.63c-2.51-1.25-5.23-2.08-7.67-3.45-5.64-3.16-9.25-8.86-14.37-12.77-3.81-2.91-9.5-4.47-13.75-3a63.49 63.49 0 00-6.69 1.38 60.35 60.35 0 00-15.31 6.36c-.65.39-1.3.79-1.92 1.25a8.46 8.46 0 00-3.09 3.61 9.46 9.46 0 00-.48 3.89c0 .95 0 1.92.06 2.87-.28 16-17.52 28.38-18.94 44 0 .37-.06.74-.08 1.11v2.96c.25 6.85 3.81 13.23 4.46 20.05.06.61.09 1.21.1 1.82a30.24 30.24 0 01-1.77 9.18 26.87 26.87 0 00-6.21 2.52c-5.24 3.37-14.7 9.19-18.15 20.32a29.76 29.76 0 00-1.31 8.92 186.26 186.26 0 01-2.92 31.85 59.53 59.53 0 01-1.84 7.83 1.84 1.84 0 00-.06.77l-2.08 27-.37 4.75-.52 6.76s.15.41.37 1.1a31.8 31.8 0 01.82 3.12 16.78 16.78 0 01.27 7 4.82 4.82 0 01-1.46 2.57 1.08 1.08 0 00-.17.19c-.59.83-1.12 3.3-1.58 6.88-.18 1.4-.35 3-.52 4.66-1 10.65-1.62 26.59-2 39.77-.36 13-.49 23.27-.49 23.27a26.54 26.54 0 005.37 2.66c-.14.35-.29.71-.43 1.09a52.53 52.53 0 00-3.26 13.74c-.84 9.83 1.91 20.75 15.62 26.37a22.06 22.06 0 002.69.92c3 .8 5.21.58 6.84-.42 0 .59.07 1.16.1 1.73.14 2.44.26 4.67.32 6.54.43 11.7 3.33 32.16 3.33 32.16s1 8.36.13 10.86 0 12.53 0 12.53 3 5 0 7.52-3.89 15-3 16.71a.56.56 0 010 .19c.66 4.15-3.07 65.81-3.07 65.81s-3.53 9.44-6.34 19.24c-2.74 9.54-4.8 19.42-2.26 21.27 1.26.92 4.19 1.61 7.91 2.14 0 .41-.06.82-.1 1.24-.36 4.41-.93 9.16-1.75 10.36-1.19 1.7-2.44 14.88-3 22l-.06.79a73.7 73.7 0 00-3.22 9.34s-9.57 24-6.33 30.23a5.11 5.11 0 001.19 1.47 2.7 2.7 0 00.31.28c4.61 3.69 16.16 4.46 20.35 4.63l-.16 5.94v.22h5.45v-.15c0-.75.12-4.19.3-8.79 0-.82.06-1.68.1-2.56 0-.69.07-1.39.1-2.11a37 37 0 002.37-13.34 58.58 58.58 0 012.1-15.48 43 43 0 012.77-7.55s1.7-9-.67-15.37a11.1 11.1 0 00-2-3.46v-2a57.69 57.69 0 011.28-12.82 1.42 1.42 0 010-.2c.08-.35.17-.68.26-1l.06-.22 1.77.06c5.43.15 9.42.15 9.42.15s4.33-22.14 3.9-31.74v-1.3c-.15-9.54 2.62-22.51 2.62-22.51l3.46-33.83s-1.73-5.86 0-10c1.07-2.58 3.28-7.37 4.82-10.67.72-1.53 1.29-2.73 1.53-3.25l.14-.28a6.47 6.47 0 01-1.54-.77c-1.41-.94-2.67-2.78 1.55-5.49 6.49-4.18 4.33-14.62 4.33-14.62s-1.91-3.76.34-7.1 0-15.87 0-15.87a52.47 52.47 0 004.38-10.49c1.61-5 5.68-29.45 7.6-41.24.63-3.87 1-6.37 1-6.37l.06.61.06.66.54 5.57.07.74 1 10.53s2 27.68.75 38.53v.2a12.82 12.82 0 01-.73 3.29c-2.3 5.2-1.88 25.86-1.76 30.43v.92c0 .25-1.63 4.08-1.22 7.06a4.53 4.53 0 00.79 2.1 5.32 5.32 0 01.77 3.25v.1a11.81 11.81 0 01-.12 1.44 27.46 27.46 0 01-1.52 5.66s-2.32 6.1-1.44 9.29a2.94 2.94 0 00.57 1.13 2.67 2.67 0 01.33 1.2.43.43 0 000 .11c.81 6.73-1.28 36.44-2.52 52.7-.5 6.42-.86 10.74-.86 10.74L844 775.94l.34.24c.39.28 1.12.76 2.1 1.34v.08l-.15 1.07c-.49 3.42-1.15 7.4-1.87 10.44-.06.23-.11.45-.17.66a9.57 9.57 0 00-3.67 1.47c-7.28 12.93-4.06 23.18 0 26.16 1.15.84 1.93 3.19 2.45 6.11l1 12.89v1.48a3.84 3.84 0 00.19 1.18l.31 3.91.42 5.44h3.32v-6.58h.18c5.24.18 13.69.4 17.37.11h.1c.39 0 .72-.07 1-.11a2.51 2.51 0 00.58-.16c1.95-.94 6.81-14.72 2.43-17.85s-5.35-12-5.35-12c-.38-1.16-.76-2.26-1.15-3.31v-.68c-.12-4.29-.07-8.94.52-11.46.66-2.77 1-8.59 1.14-13.69v-1.27a17.07 17.07 0 002.23-.73l.16-.07a15.71 15.71 0 003.73-2.21l12.12-54.29 1.29-6.31 7.31-35.8s-2.59-12.53 0-14.61c1-.76 1.21-4 1.15-7.75-.1-6.56-1.15-14.81-1.15-14.81s3.46-5.43 5.2-8.77 0-12.11 0-12.11l3.45-20S904.48 580 914 560c7-14.75 2.54-54.58-2-75.78-.12-.55-.24-1.09-.36-1.61v-.08c2.14-1.06 4.76-2.34 7.56-3.68l1.06-.5c3.55-1.67 7.31-3.39 10.68-4.82l.22-.09a74.58 74.58 0 017.43-2.78 12.47 12.47 0 012.28-.47c6-.43-12.17-32.19-12.17-32.19zm-135.31 68h1.8c-.21.39-.41.79-.61 1.19-.12.24-.24.47-.35.71-.66 1.37-1.27 2.77-1.77 4.14.2-1.48.45-3.09.73-4.81.07-.46.13-.86.2-1.23zm-4.86 26a.74.74 0 000-.14l-.15-.47c-.11-.32-.21-.64-.31-.95q.93-.29 1.89-.63l.13-.05v.33c0 .47-.11.94-.17 1.4a1 1 0 010 .18c0 .38-.09.74-.13 1.1-.09.72-.18 1.42-.26 2.09-.19-.63-.38-1.25-.58-1.86-.2-.29-.31-.63-.42-1z" transform="translate(-59.31 -39.43)" fill="url(#a)"/><path d="M859.04 238.31l-10.8 3.83-3.92-6.5c-3-5-7.16-11.84-10.23-16.81-5.42-8.75 1.67-22.07 1.67-22.07s1.24-13.32 5.82-17.48 5.83 17.48 5.83 17.48c18.31 8.33 8.5 27.89 8.5 27.89l1.78 7.77z" fill="#a1616a"/><path d="M859.04 238.31l-10.8 3.83-3.92-6.5v-.57s6.19-4.25 13.41-2.65z" opacity=".1"/><path d="M841.58 282.11l5.41-4.54-2.71-41.22s13.95-9.57 24.36 5.42c0 0-.42 9.16 0 11.66s-2.91 5 0 7.49 0 10.82 0 10.82 3.29 5.83 5.37 7.5 4.17 15.4 0 18.32-12.07 9.57-12.07 12.49-10 10-10 10l-8.75-11.66z" fill="#5a5773"/><path d="M724.58 532.34c-20.18-8.56-15.7-29.47-11.9-40a55.48 55.48 0 012.67-6.24l11.34-6.85s2.31 5.89 4.78 13.8c5.71 18.31 12.3 47.43-6.89 39.29zm27.74 190.79a33.74 33.74 0 00-3 8.41 60.89 60.89 0 00-1.25 14.34c.08 3.33.36 5.51.36 5.51l-22.48 15.46s.13-1.81.35-4.47c.58-7.08 1.79-20.22 2.93-21.92.79-1.19 1.34-5.93 1.69-10.32s.49-8.26.49-8.26 27-10.15 20.91 1.25zm53.09 11.09s0 4.3-.16 9.3-.46 10.89-1.09 13.65c-.58 2.51-.62 7.15-.51 11.42.15 5 .51 9.5.51 9.5s-23-21.7-20.61-23.42c.63-.46 1.25-2.31 1.82-4.77.7-3 1.33-7 1.8-10.41.56-4 .91-7.3.91-7.3z" fill="#a1616a"/><path d="M752.32 723.13a33.74 33.74 0 00-3 8.41 180.87 180.87 0 01-18.4-1.4c.34-4.3.49-8.26.49-8.26s27-10.15 20.91 1.25zm53.09 11.09s0 4.3-.16 9.3c-7.16 1.83-14.52-1.83-18.08-4 .56-4 .91-7.3.91-7.3z" opacity=".1"/><path d="M852.4 521.57c-9.16 20-12.91 43.71-12.91 43.71l-3.32 20s1.66 8.74 0 12.07-5 8.74-5 8.74 2.5 20.41 0 22.48 0 14.58 0 14.58l-8.33 42.05-11.66 54.12c-11.24 9.16-26.2-2.5-26.2-2.5l3.3-35.38s5-62 2.92-64.54.83-10.4.83-10.4 2.92-7.5.84-10.42.41-9.16.41-9.16-.83-25.39 1.67-31.22 0-41.9 0-41.9l-1-11.23-.57-6.22-.06-.61s-.38 2.5-1 6.36c-1.84 11.75-5.76 36.1-7.31 41.11a53.53 53.53 0 01-4.32 10.36s2.16 12.49 0 15.82-.33 7.08-.33 7.08 2.08 10.4-4.17 14.57 0 6.24 0 6.24-4.58 10-6.24 14.16 0 10 0 10l-3.26 33.71s-2.92 14.15-2.5 23.73-3.8 31.69-3.8 31.69-32.06 0-37-3.75 8.3-40.43 8.3-40.43 3.75-64.12 2.91-65.79 0-14.15 2.92-16.65 0-7.49 0-7.49-.83-10 0-12.49-.13-10.83-.13-10.83-2.79-20.4-3.2-32.06-2.5-37.89-2.5-37.89 2.18-16.22 2.51-23.94c.12-2.84 1.39-6.38 2.95-9.72a87.37 87.37 0 016.2-10.89s98.67-29.14 102.84-26.23c1.1.77 2.7 6 4.28 13.58 4.37 21.13 8.67 60.82 1.93 75.58z" fill="#605d82"/><circle cx="791.61" cy="238.31" r="28.73" fill="#a1616a"/><path d="M850.44 445.99c-3.31 1.69-5.53 2.87-5.53 2.87s-46.63 22.07-59.93 20.82c-10.26-1-36.45-.44-47.86-.15a87.37 87.37 0 016.2-10.89s98.67-29.14 102.84-26.23c1.1.77 2.7 5.98 4.28 13.58z" opacity=".1"/><path d="M771.63 284.19s-26.65 4.17-32.89 8.33S720 304.57 720 321.67s-2.91 34.55-4.58 39.55 26.27 45.35 26.27 45.35l-10 61.2s40-1.24 53.32 0 59.93-20.81 59.93-20.81 27.48-14.58 33.31-15-11.66-32.06-11.66-32.06-27.06-51.21-22.48-59.54 7.91-20.4 7.91-20.4l-5-42.47s-7.49-2.49-13.74 2.08-27.48 2.09-27.48 2.09z" fill="#5a5773"/><path d="M726.46 358.3l-10.41 2.92-2.92 39.14s3.75 10.4 0 13.74-4.58 74.52-4.58 74.52 12.08 8.75 26.23 2.08c0 0-2.08-7.91 4.17-36.64s6.24-43.3 6.24-43.3 0-35.8 2.92-41.63 0-20.4 0-20.4-5.83-7.91-5.42-10.83-16.23 20.4-16.23 20.4z" opacity=".1"/><path d="M731.45 493.05a26.52 26.52 0 01-18.77-.69 55.48 55.48 0 012.67-6.24l11.34-6.87s2.29 5.89 4.76 13.8z" opacity=".1"/><path d="M725.83 358.3l-10.41 2.92-2.91 39.14s3.75 10.4 0 13.74-4.58 74.52-4.58 74.52 12.07 8.75 26.23 2.08c0 0-2.08-7.91 4.16-36.64s6.25-43.3 6.25-43.3 0-35.8 2.91-41.63 0-20.4 0-20.4-5.83-7.91-5.41-10.83-16.24 20.4-16.24 20.4z" fill="#5a5773"/><path d="M832.42 364.57s-5.41 46.63-21.24 55.37c0-.02 35.39-10.01 21.24-55.37zm-79.52 4.14s19.56 9.58 15 16.24-15-16.24-15-16.24zm0 19.16s12.49 12.9 10 17.48-10-17.48-10-17.48zm100.79-107.01s4.9 8.33 5.37 13.74-5.37-13.74-5.37-13.74zm0-11.24s2.46-2.08 8.74 0-8.74 0-8.74 0zm-24.08 243.36a57.9 57.9 0 01-30.45-3.9l-5.25 13.43-.57-6.22c.85-5.21 2.52-10.8 5.82-12.21 0 0 11.53 9.21 30.45 8.9zm-85.41 17.48s25.61 5.31 32.79 4.38zm2.66 6.72s10.93-.47 16.39 1.72zm1.25 4.53a99.44 99.44 0 0015.14 2zm-.63 57.3c.47-.32 21.86-5.31 24.52-1.72zm0 6.56s18.58-2.18 19.05 0-19.05 0-19.05 0zm0 5.93s19.83-4.06 22.17-3.13-22.17 3.13-22.17 3.13zm.94 139.89l-22.48 15.46s.13-1.81.35-4.47c5-12.31 11.51-18.8 11.51-18.8 5.07-1.31 8.27-.09 10.26 2.3.08 3.33.36 5.51.36 5.51z" opacity=".1"/><path d="M750.61 765.29a55.74 55.74 0 00-4.69 22.95 35.7 35.7 0 01-4.76 18.51 17.52 17.52 0 01-1.58 2.25s-15.62-.12-21.09-4.66a5.48 5.48 0 01-1.45-1.74c-3.13-6.24 6.09-30.13 6.09-30.13 4.84-18.43 14.67-28.26 14.67-28.26 17.49-4.53 12.81 21.08 12.81 21.08z" fill="#5a5773"/><path d="M741.16 806.75a17.52 17.52 0 01-1.58 2.25s-15.62-.12-21.09-4.66c2.69-8.9 11.28-35.82 15.29-31.25 3.78 4.3 6.41 25 7.38 33.66z" opacity=".1"/><path d="M739 774.77l-1.09 40.33h5.24s.85-35.38 3.19-40.33-7.34 0-7.34 0z" fill="#5a5773"/><path d="M804.16 778.09s-23-21.7-20.61-23.42c.63-.46 1.25-2.31 1.82-4.77 4.41-.78 12 1.07 18.28 18.69.15 4.98.51 9.5.51 9.5z" opacity=".1"/><path d="M807.59 802.29a3.09 3.09 0 01-.55.15c-2.7.48-12.65.2-18.22 0a4 4 0 01-3.81-3.93c0-1.5 0-3.33-.12-5.28-.26-6.16-1-13.49-3.21-15.14-3.91-3-7-13.19 0-26.08 0 0 13.42-10.24 23.1 20.56 0 0 .94 8.8 5.16 11.92s-.47 16.86-2.35 17.8z" fill="#5a5773"/><path d="M807.04 802.44c-2.7.48-12.65.2-18.22 0a4 4 0 01-3.81-3.93c0-1.5 0-3.33-.12-5.28 1.69-7.47 4.12-15.14 7.25-16.89 0 0 9.47-1.07 14.9 26.1z" opacity=".1"/><path fill="#5a5773" d="M783.38 775.43l2.51 33.57h3.2v-36.43l-5.71 2.86z"/><path d="M791.2 192.57a57.42 57.42 0 00-25.62 8.23c-2 1.21-4 2.67-4.83 4.84-.72 1.88-.42 4-.39 6 .27 17.23-18.93 30.26-18.33 47.47.24 6.83 3.67 13.19 4.3 20 1.05 11.35-5.67 21.81-12.11 31.22a25.9 25.9 0 0018.25-6.05 138.38 138.38 0 012.58 69.78h9.21a7.15 7.15 0 012.69.34 6.61 6.61 0 012.13 1.59c8.61 8.57 14.38 21.24 11.09 32.94l19.6-7.35c4.69-1.76 9.45-3.55 13.53-6.46s7.5-7.1 8.36-12c.53-3 .36-6.58 2.83-8.32a15 15 0 013.86-1.44c5.38-1.89 7.76-8.11 8.86-13.71a79 79 0 001.25-20.87c-.87-11.7-4.33-23.58-1.48-35 1.61-6.41 5.19-12.39 5.48-19 .47-10.92-8.06-20.31-9.33-31.16-.89-7.57 1.84-15.21.95-22.77a24.46 24.46 0 00-12.87-18.57c-2.41-1.24-5-2.08-7.38-3.44-5.43-3.15-8.9-8.83-13.83-12.73s-13.14-5.37-16.85-.29z" opacity=".1"/><path d="M791.2 191.29a57.42 57.42 0 00-25.62 8.28c-2 1.21-4 2.67-4.83 4.85-.72 1.88-.42 4-.39 6 .27 17.22-18.93 30.25-18.33 47.46.24 6.83 3.67 13.19 4.3 20 1.05 11.36-5.67 21.81-12.11 31.22a25.9 25.9 0 0018.25-6.05 138.38 138.38 0 012.58 69.78h9.21a7.15 7.15 0 012.69.34 6.61 6.61 0 012.13 1.59c8.61 8.57 14.38 21.24 11.09 32.94l19.6-7.35c4.69-1.76 9.45-3.55 13.53-6.46s7.5-7.1 8.36-12c.53-3 .36-6.58 2.83-8.32a14.66 14.66 0 013.86-1.43c5.38-1.9 7.76-8.12 8.86-13.72a79 79 0 001.25-20.87c-.87-11.7-4.33-23.58-1.48-35 1.61-6.41 5.19-12.39 5.48-19 .47-10.92-8.06-20.31-9.33-31.16-.89-7.57 1.84-15.21.95-22.77a24.46 24.46 0 00-12.87-18.57c-2.41-1.24-5-2.07-7.38-3.44-5.43-3.15-8.9-8.83-13.83-12.73s-13.14-5.37-16.85-.29z" fill="#4a4347"/><path d="M760.34 206.2a11.46 11.46 0 00-.06 1.17c.03-.39.05-.8.06-1.17zm72.72 40.04c.36-5.3 1.54-10.62 1.1-15.9-.37 5.3-1.55 10.61-1.1 15.9zm-86.73 26.33c-.58-6.2-3.47-12-4.15-18.2a22.86 22.86 0 00-.15 3.42c.24 6.76 3.59 13.06 4.27 19.79a27 27 0 00.03-5.01zm90.65 24.65a42.85 42.85 0 00-1 12.42 38.46 38.46 0 011-7.21c1.61-6.41 5.19-12.39 5.48-19a20.61 20.61 0 00-.16-3.52c-.74 5.95-3.85 11.44-5.32 17.31zm-84.51.54a25.88 25.88 0 01-14.76 6 207.19 207.19 0 01-3.49 5.24 25.9 25.9 0 0018.25-6.05 138 138 0 015.82 37.38 138.23 138.23 0 00-5.82-42.57zm84.74 55.28c-1.1 5.6-3.48 11.82-8.86 13.72a15.4 15.4 0 00-3.86 1.43c-2.47 1.75-2.3 5.35-2.82 8.32-.87 4.94-4.28 9.14-8.37 12.05s-8.84 4.7-13.53 6.46l-18.7 7a25.29 25.29 0 01-.9 5.56l19.6-7.35c4.69-1.76 9.45-3.55 13.53-6.46s7.5-7.1 8.37-12c.52-3 .35-6.58 2.82-8.32a14.66 14.66 0 013.86-1.43c5.38-1.9 7.76-8.12 8.86-13.72a78.42 78.42 0 001.41-17.7 78.05 78.05 0 01-1.41 12.44zm-68.13 16.39a6.61 6.61 0 00-2.13-1.59 7.15 7.15 0 00-2.69-.34h-8.17c-.32 1.75-.66 3.49-1 5.22h9.21a7.15 7.15 0 012.69.34 6.61 6.61 0 012.13 1.59c6.3 6.27 11.08 14.74 11.89 23.42 1-10.43-4.32-21.12-11.93-28.64zm-45.69 34.05s7.44-3.12 9.1 0-9.1 0-9.1 0zm2.58 5.35s7.44-3.13 9.11 0-9.11 0-9.11 0z" opacity=".1"/><path d="M1002.85 747.48s5.5 7.19-2.53 18-14.65 20-12 26.77c0 0 12.12-20.15 22-20.43s3.37-12.25-7.47-24.34z" fill="#fb8e62"/><path d="M1002.85 747.48a8.83 8.83 0 011.12 2.26c9.62 11.3 14.75 21.85 5.5 22.11-8.61.25-18.94 15.65-21.42 19.54a9.24 9.24 0 00.29.89s12.12-20.15 22-20.43 3.35-12.28-7.49-24.37z" opacity=".1"/><path d="M1013.06 756.64c0 2.53-.28 4.58-.63 4.58s-.63-2-.63-4.58.35-1.34.7-1.34.56-1.19.56 1.34z" fill="#ffd037"/><path d="M1016.57 759.66c-2.22 1.21-4.16 1.94-4.32 1.63s1.49-1.54 3.71-2.75 1.35-.32 1.51 0 1.32-.09-.9 1.12z" fill="#ffd037"/><path d="M973.83 747.48s-5.49 7.19 2.54 18 14.65 20 12 26.77c0 0-12.11-20.15-22-20.43s-3.38-12.25 7.46-24.34z" fill="#fb8e62"/><path d="M973.83 747.48a9.25 9.25 0 00-1.12 2.26c-9.62 11.3-14.74 21.85-5.5 22.11 8.62.25 19 15.65 21.43 19.54a7.16 7.16 0 01-.3.89s-12.11-20.15-22-20.43-3.35-12.28 7.49-24.37z" opacity=".1"/><path d="M963.62 756.64c0 2.53.29 4.58.64 4.58s.63-2 .63-4.58-.35-1.34-.7-1.34-.57-1.19-.57 1.34z" fill="#ffd037"/><path d="M960.12 759.66c2.22 1.21 4.15 1.94 4.32 1.63s-1.5-1.54-3.72-2.75-1.34-.32-1.51 0-1.31-.09.91 1.12z" fill="#ffd037"/><path d="M965.37 791.34s15.36-.48 20-3.77 23.63-7.23 24.77-2 23.09 26.29 5.75 26.43-40.3-2.7-44.92-5.51-5.6-15.15-5.6-15.15z" fill="#a8a8a8"/><path d="M1016.19 810.21c-17.34.14-40.3-2.7-44.92-5.51-3.51-2.15-4.92-9.84-5.39-13.38h-.51s1 12.38 5.59 15.2 27.58 5.65 44.92 5.51c5 0 6.73-1.82 6.64-4.46-.7 1.62-2.61 2.61-6.33 2.64z" opacity=".2"/><path fill="#fb8e62" opacity=".1" d="M118.64 16.69h872v26.19h-872z"/><circle cx="136.14" cy="29.79" r="5.55" fill="#fefefe"/><circle cx="153.14" cy="29.79" r="5.55" fill="#fefefe"/><circle cx="170.14" cy="29.79" r="5.55" fill="#fefefe"/><path d="M459.13 778.81s-42.28-2.55-37.3 27.07c0 0-1 5.24 3.76 7.62 0 0 .08-2.2 4.34-1.45a19.85 19.85 0 004.59.22 9.62 9.62 0 005.62-2.32s11.88-4.91 16.5-24.33c0 0 3.42-4.24 3.28-5.33l-7.13 3s2.44 5.14.52 9.42c0 0-.23-9.24-1.6-9-.28.05-3.71 1.78-3.71 1.78s4.2 9 1 15.49c0 0 1.2-11.05-2.34-14.84l-5 2.93s4.9 9.27 1.58 16.82c0 0 .85-11.59-2.64-16.1l-4.55 3.55s4.61 9.13 1.8 15.39c0 0-.37-13.49-2.78-14.51 0 0-4 3.51-4.59 5 0 0 3.15 6.62 1.2 10.12 0 0-1.2-9-2.19-9 0 0-4 5.95-4.38 10 0 0 .17-6.07 3.42-10.6a11.85 11.85 0 00-6.07 3.14s.61-4.21 7.05-4.58c0 0 3.28-4.51 4.15-4.79 0 0-6.4-.53-10.28 1.19 0 0 3.42-4 11.46-2.17l4.49-3.67s-8.43-1.15-12 .12c0 0 4.11-3.51 13.21-.95l4.89-2.93s-7.18-1.54-11.46-1c0 0 4.51-2.43 12.9.21l3.49-1.57s-5.26-1-6.8-1.2-1.62-.59-1.62-.59a18.22 18.22 0 019.88 1.1s7.44-2.77 7.31-3.24z" fill="#fb8e62"/><ellipse cx="430" cy="816.08" rx="29.92" ry="5.06" fill="#fb8e62" opacity=".1"/><path d="M385.06 780.39s-23.84-1.44-21 15.26a4.07 4.07 0 002.12 4.29s0-1.23 2.44-.81a11.15 11.15 0 002.59.12 5.34 5.34 0 003.17-1.31s6.7-2.76 9.3-13.71c0 0 1.93-2.39 1.85-3l-4 1.72s1.38 2.9.3 5.31c0 0-.13-5.2-.91-5.08-.15 0-2.09 1-2.09 1s2.37 5.06.58 8.73c0 0 .68-6.22-1.32-8.36l-2.83 1.65s2.77 5.22.89 9.48c0 0 .48-6.53-1.48-9.07l-2.57 2s2.6 5.14 1 8.68c0 0-.2-7.61-1.56-8.19a15.42 15.42 0 00-2.59 2.8s1.78 3.73.67 5.7c0 0-.67-5.06-1.23-5.09 0 0-2.23 3.36-2.47 5.66a12.24 12.24 0 011.93-6 6.72 6.72 0 00-3.42 1.77s.34-2.37 4-2.58c0 0 1.85-2.54 2.35-2.7 0 0-3.61-.3-5.8.67 0 0 1.92-2.24 6.46-1.22l2.53-2.07s-4.75-.65-6.77.07c0 0 2.32-2 7.45-.54l2.76-1.65a25.18 25.18 0 00-6.46-.56s2.54-1.37 7.27.12l2-.89s-3-.58-3.84-.67-.91-.33-.91-.33a10.28 10.28 0 015.57.62s4.09-1.56 4.02-1.82z" fill="#fb8e62"/><ellipse cx="368.63" cy="801.4" rx="16.87" ry="2.85" fill="#fb8e62" opacity=".1"/><path d="M430.43 744.98s-28.78-1.74-25.38 18.43a4.91 4.91 0 002.55 5.18s0-1.5 2.95-1a13.14 13.14 0 003.13.15 6.46 6.46 0 003.82-1.58s8.09-3.34 11.24-16.56c0 0 2.33-2.88 2.23-3.63l-4.85 2.08s1.66 3.5.35 6.41c0 0-.16-6.28-1.09-6.14-.19 0-2.52 1.22-2.52 1.22s2.85 6.1.7 10.54c0 0 .82-7.52-1.59-10.1l-3.42 2s3.33 6.31 1.07 11.45c0 0 .58-7.89-1.79-11l-3.1 2.42s3.14 6.21 1.22 10.48c0 0-.25-9.19-1.89-9.88 0 0-2.71 2.39-3.12 3.37 0 0 2.14 4.51.81 6.89 0 0-.82-6.12-1.49-6.15 0 0-2.69 4.06-3 6.83a14.77 14.77 0 012.33-7.22 8.1 8.1 0 00-4.13 2.15s.42-2.87 4.8-3.12c0 0 2.23-3.08 2.83-3.26 0 0-4.36-.37-7 .8 0 0 2.32-2.7 7.79-1.47l3.06-2.5s-5.73-.78-8.17.08c0 0 2.8-2.39 9-.64l3.33-2s-4.89-1-7.81-.67c0 0 3.08-1.66 8.78.14l2.38-1.07s-3.58-.7-4.63-.81-1.1-.4-1.1-.4a12.36 12.36 0 016.73.74s5.07-1.85 4.98-2.16z" fill="#fb8e62"/><ellipse cx="410.61" cy="770.34" rx="20.37" ry="3.44" fill="#fb8e62" opacity=".1"/><ellipse cx="620.55" cy="771.76" rx="29.92" ry="5.06" fill="#fb8e62" opacity=".1"/><path d="M600.45 748.25s17.07-.52 22.22-4.18 26.25-8 27.53-2.17 25.65 29.22 6.38 29.38-44.78-3-49.91-6.13-6.22-16.9-6.22-16.9z" fill="#a8a8a8"/><path d="M656.92 769.23c-19.27.16-44.77-3-49.91-6.13-3.91-2.38-5.46-10.92-6-14.87h-.57s1.09 13.77 6.22 16.9 30.64 6.28 49.91 6.13c5.56-.05 7.48-2 7.38-5-.77 1.83-2.89 2.94-7.03 2.97z" opacity=".2"/></svg>