<svg data-name="Layer 1" xmlns="http://www.w3.org/2000/svg" xmlns:xlink="http://www.w3.org/1999/xlink" width="1036" height="612" viewBox="0 0 1036 612"><defs><linearGradient id="a" x1="675.05" y1="606.02" x2="675.05" y2="240.27" gradientUnits="userSpaceOnUse"><stop offset="0" stop-color="gray" stop-opacity=".25"/><stop offset=".54" stop-color="gray" stop-opacity=".12"/><stop offset="1" stop-color="gray" stop-opacity=".1"/></linearGradient><linearGradient id="b" x1="473.94" y1="635.65" x2="473.94" y2="301.65" xlink:href="#a"/><linearGradient id="c" x1="363.44" y1="662.65" x2="363.44" y2="401.65" xlink:href="#a"/><linearGradient id="d" x1="849.68" y1="703.66" x2="849.68" y2="385.5" xlink:href="#a"/></defs><path d="M151.4.07c-8.06-.23-16.32 0-23.88 2.32-20.57 6.32-30.32 27-27.15 44.87s16.21 33.44 29.74 47.67 28.19 28.3 35.61 45.31c3.7 8.49 5.43 18 1.67 26.48-5.8 13.07-23.29 20.37-40.08 21.89s-33.65-1.44-50.5-2.43c-7.07-.41-14.34-.46-21 1.45-7.31 2.08-13.4 6.33-19 10.76-21.85 17.38-39.34 41.09-36.51 66 3.2 28.23 31.74 50.54 63 62.51 10.35 4 21.3 7.18 30.41 12.84 24 14.93 29.39 42.93 27 67.64s-10.53 49.45-6 73.94c5.33 28.49 28.92 54.23 60.74 66.25 28.35 10.71 63.83 10 89-5.11 12.27-7.38 21.55-17.63 29.62-28.23a227.74 227.74 0 0029.45-51c3.51-8.49 6.81-17.62 15-23.52 5-3.63 11.48-5.66 17.89-7.24 19.32-4.76 39.67-6.06 59.17-10.3S454.7 410 465.3 395.9c15-20 8-45.62 8.07-69.14.12-53.66 39.11-101.69 53.5-154 4.7-17.09 6.45-36-4.05-51.25-7.13-10.35-19.16-17.82-31.8-23.59-27.81-12.69-59.42-18.34-90.51-23.84-43.21-7.64-95.68-8.63-129.17-33.35C239.2 17 195.23.07 151.4.07z" fill="#fb8e62" opacity=".2"/><ellipse cx="571" cy="487.48" rx="465" ry="124.52" fill="#f5f5f5"/><path d="M957.18 186.86s-35.83 35.83-15.6 89-34.68 141.59-34.68 141.59.59-.09 1.68-.28c73.59-13 110.16-97.16 69.24-159.69-15.21-23.24-27.7-50.48-20.64-70.62z" fill="#fb8e62"/><path d="M957.18 186.86s-20.23 43.92 0 79.75S960.65 403 906.9 417.45" fill="none" stroke="#535461" stroke-miterlimit="10" stroke-width="2"/><path d="M1021 331.79s-40.89-6.51-44.61 30.13-78.62 41.72-78.62 41.72l1.4.93c61.84 40.59 121 25.86 112-28-3.27-20.08-3-40.21 9.83-44.78z" fill="#fb8e62"/><path d="M1021 331.79s-40.89-6.51-44.61 30.13-78.62 41.72-78.62 41.72l1.4.93c61.84 40.59 121 25.86 112-28-3.27-20.08-3-40.21 9.83-44.78z" fill="#f5f5f5" opacity=".2"/><path d="M1021 331.79s-31.74 7-29.13 35.82-47.13 63.45-94.1 36" fill="none" stroke="#535461" stroke-miterlimit="10" stroke-width="2"/><path d="M1008.37 563.92h-64.24a21.42 21.42 0 002.24-9.57V261.79a21.51 21.51 0 00-21.51-21.51H427.52A21.51 21.51 0 00406 261.79v292.57a21.42 21.42 0 002.24 9.57h-66.51a5.69 5.69 0 00-5.69 5.69v4.59A31.82 31.82 0 00367.86 606h614.38a31.82 31.82 0 0031.82-31.82v-4.59a5.69 5.69 0 00-5.69-5.67zm-395.89 18.2l-5.48-6.25h136.72l-6.1 6.26z" transform="translate(-82 -144)" fill="url(#a)"/><rect x="330.11" y="100.42" width="528.12" height="327.99" rx="23.26" ry="23.26" fill="#535461"/><path fill="#fff" d="M341.22 148.23h504.77v267.95H341.22z"/><circle cx="593.61" cy="124.88" r="4.45" fill="#fff"/><path d="M671.55 416.73l-17.35 17.79H531.9l-15.67-17.79H267.29a5.56 5.56 0 00-5.56 5.56v4.48a31.1 31.1 0 0031.1 31.1h600.45a31.1 31.1 0 0031.1-31.1v-4.48a5.56 5.56 0 00-5.56-5.56z" fill="#535461"/><path d="M580.41 301.65H367.48a19.51 19.51 0 00-19.53 19.48v295a19.51 19.51 0 0019.53 19.48h212.93a19.51 19.51 0 0019.53-19.48v-295a19.51 19.51 0 00-19.53-19.48z" transform="translate(-82 -144)" fill="url(#b)"/><rect x="268.94" y="161.65" width="246" height="327" rx="20" ry="20" fill="#535461"/><path fill="#fff" d="M281.44 192.58h221v265.14h-221z"/><circle cx="390.94" cy="176.65" r="3" fill="#fff"/><circle cx="390.94" cy="472.65" r="9" fill="#fff"/><path d="M418.11 401.65H308.78a10.81 10.81 0 00-10.83 10.79v239.42a10.81 10.81 0 0010.83 10.79h109.33a10.81 10.81 0 0010.83-10.79V412.44a10.81 10.81 0 00-10.83-10.79z" transform="translate(-82 -144)" fill="url(#c)"/><rect x="216.94" y="259.65" width="129" height="258" rx="11" ry="11" fill="#535461"/><path fill="#fff" d="M226.44 283.65h110v210h-110z"/><circle cx="268.44" cy="271.65" r="1" fill="#fff"/><rect x="273.44" y="270.65" width="22" height="2" rx="1" ry="1" fill="#fff"/><circle cx="280.94" cy="503.65" r="7" fill="#fff"/><path d="M203.73 536.25s-13.26-45 2.49-78.14A71.09 71.09 0 00212 413.5a119.57 119.57 0 00-6.31-20.93" fill="none" stroke="#535461" stroke-miterlimit="10" stroke-width="2"/><path d="M215.45 371.63c0 5.52-10 21.51-10 21.51s-10-16-10-21.51a10 10 0 0120 0zM232 402.19c-3 4.63-20.08 12.63-20.08 12.63s.31-18.86 3.31-23.49A10 10 0 11232 402.19zm-.76 52.21c-4.93 2.48-23.71.77-23.71.77s9.79-16.12 14.71-18.6a10 10 0 019 17.84zm-9.44 39.39c-4.44 3.28-23.24 4.76-23.24 4.76s6.92-17.54 11.36-20.82a10 10 0 0111.88 16.06zm-30.89-77.9c4 3.84 22.39 7.83 22.39 7.83s-4.51-18.31-8.47-22.15a10 10 0 10-13.92 14.33zm-10.46 46.2c4.93 2.48 23.71.77 23.71.77s-9.79-16.12-14.71-18.6a10 10 0 10-9 17.84zm-4 46.3c4.44 3.28 23.24 4.76 23.24 4.76s-6.92-17.54-11.36-20.82a10 10 0 00-11.88 16.06z" fill="#fb8e62"/><path d="M1077 537.1c-11.07-13.43-24.48-28.86-22.6-46.73 1.52-14.47-2.12-27.85-1.4-42.37 1-20.63-3.14-36.78-18-50-8.68-7.73-23.19-13.8-27.51-12.25-8.56 3.06-17.9 1.89-26.71 4-6.69 1.56-11.14 4-13.9 7-5.55 5-5.64 12-3.11 19.45A32.85 32.85 0 00980 462.28c-6.17 2.58-11.5 8.52-13.58 20.58a140.68 140.68 0 01-6.53 24.31 39.51 39.51 0 01-4 1.61c.3.12.61.2.91.31-.65.25-1.29.5-2 .72a21.21 21.21 0 003.65 1.06c-8 20.21-18 32.73-18 32.73s-18.65 4.12-25.9-3.09c0 0 1.18 1.38 2.78 3.45-7.09-2.94-18.73-7.74-28.68-11.69-7.22-2.87-9.07 0-9 4a13.32 13.32 0 00-5 1.68 48.67 48.67 0 00-6.69-3.6c-4.14-1-17.61-8.24-31.08 16.47-7.84 14.37-27.94 40.6-43.39 60-30.05 13.82-69.17 31.32-83.71 35.72h-9.32c-1.22-2-2.07-3.26-2.07-3.26l-.72.48-.31-.48s-18.3 12.67-36.88 12.77a35 35 0 01-7.84-1c-8.54-2.15-14.56-3.11-18.86-3-5.09-.09-8 1.12-9.76 3.4a8.94 8.94 0 00-.65.94 11.05 11.05 0 00-.54 1c-.16.36-.32.74-.46 1.13a2.32 2.32 0 00.58 1.95 10.42 10.42 0 00.81 1l.52.56c2.34 2.42 6.6 5.63 11.9 9.21 1.53 1 3.15 2.1 4.84 3.19l3.21 2 2.87 1.79 1.15.71 1.28.78 2.29 1.39 1.36.82 2.57 1.53 2.08 1.23c5.44 3.21 10.86 6.32 15.75 9.08l3.42 2.04.33.18 2.2 1.23 3.8 2.11 2.61 1.44 1.22.67 1.31.72.26.14 2.28 1.24a3.3 3.3 0 002.66-.72c.66-2.8 2.27-8.8 4-9.26S706.89 680 709 671.24h20.22a89.13 89.13 0 0011.84-1.82c-5.22 3.72-10.39 6.06-14.41 5.06-8.5-2.11-16.55 3.07-17.36 8.18 0 .11-.07.21-.1.32s-.05.21-.07.31-.06.25-.08.38 0 .21 0 .32v1.38c0 .1.06.27.1.41s0 .18.07.26a5 5 0 00.22.53l.05.13a5.38 5.38 0 00.38.63l.16.21c.1.14.21.28.33.41l.23.23c.12.12.25.24.38.36l.28.23.45.33.33.22.54.32.36.19.68.32.34.15c.36.15.74.29 1.15.42.65.21 1.42.43 2.29.65l.87.21 1.27.29.67.15q1.3.28 2.76.56l1.35.25 1.1.2 2.53.44c1.58.27 3.23.54 5 .8l4.36.66 5.68.81 1.26.17 2 .28 2.93.39 2 .26 5.19.66 1.62.2 3.27.4c4.3.52 8.46 1 12.29 1.43l4.43.5 2.24.25 1 .1 2.68.29 1.49.16 1.84.19 2.59.27h.28l1.66.17a1.51 1.51 0 001.67-1.47v-.17a1.46 1.46 0 00.24-.78 34 34 0 01.93-7.32c.11-.41.24-.83.38-1.25l.16-.48c.18-.51.36-1 .57-1.55a11.12 11.12 0 00.39-1.14c0-.12.07-.24.11-.37s.1-.41.14-.62c2.08-7.11-.43-20.37-1.15-25.58a27.77 27.77 0 00-1.14-4.9 2 2 0 00.39 0 11.79 11.79 0 003-1.63c15.28-5.45 28.16-11.68 32.23-17.92a27.91 27.91 0 0119.68 2.06c7.91 3.93 67.75 23.46 95.61 32.48 5 4.31 8.92 6.83 11.09 6.64 0 0 35.47 5.74 49.73-5.46 1.27.88 2.07 1.35 2.07 1.35s20.72-10.29 23.83-23.68c1-4.34 1.91-10.74 2.84-17.82a25.91 25.91 0 007.52-18.21c.65-22.48 9.36-48.16 15.82-71 7.84.62 10.87-.86 18.06-4.41l-.32-.41c.51-.3.96-.5 1.41-.72zm-118.79 33.67l-4-1.33a33 33 0 003.45-5.74zm-22.29 9.46l24 14.4.21 2.93a21 21 0 00.2 6.7c-10.58-9.4-22.96-20.81-24.42-24.04zm-9.8-21c-2.62-1.08-4.79-2.06-6.28-2.87 2 .14 3.9.26 5.56.35a12.44 12.44 0 01.72 2.52zm-64.28 23.47s4.14-9.26 13.47 6.18c1.45 2.4 4.12 6.22 7.65 10.95l-27.16-3.63c3.2-4.96 5.35-9.57 6.04-13.49z" transform="translate(-82 -144)" fill="url(#d)"/><path d="M839.5 401.5s-19-8-34-14-6 14-6 14 25 7 25 8 21 2 21 2z" fill="#f7c4a7"/><path d="M839.5 401.5s-19-8-34-14-6 14-6 14 25 7 25 8 21 2 21 2z" opacity=".05"/><path d="M920.5 322.5s-34-18-40 17-25 59-25 59-18 4-25-3c0 0 17 20 9 22 0 0 18 13 26 9s14-31 17-38 14-68 38-66z" fill="#575988"/><path d="M920.5 322.5s-34-18-40 17-25 59-25 59-18 4-25-3c0 0 17 20 9 22 0 0 18 13 26 9s14-31 17-38 14-68 38-66z" opacity=".1"/><path d="M901.5 310.5s21 24 22 44 24-21 26-22-20-35-22-46-26 24-26 24z" fill="#f7c4a7"/><path fill="#f7c4a7" d="M916 320.75l-13.25 12L909 358l17-16-2-16-8-5.25zM639.5 498.5h-23l9 22 22-6-8-16z"/><path d="M621.82 495.33s-23.82 16.59-44.17 11.43-25.88-3.23-28.25 3.43c-2.19 6.13 56.84 38.55 66.25 43.67a1.08 1.08 0 001.57-.7c.64-2.72 2.19-8.55 3.85-9 2.16-.58 12-19 11.46-26.24s-10.71-22.59-10.71-22.59z" opacity=".1"/><path d="M620.82 495.33s-23.82 16.59-44.17 11.43-25.88-3.23-28.25 3.43c-2.19 6.13 56.84 38.55 66.25 43.67a1.08 1.08 0 001.57-.7c.64-2.72 2.19-8.55 3.85-9 2.16-.58 12-19 11.46-26.24s-10.71-22.59-10.71-22.59z" fill="#f3b5b7"/><path d="M817.5 455.5l-67-9s-109 52-122 53l3 23h20c8 0 86-17 97-34a26.78 26.78 0 0119 2c10 5 106 36 106 36z" fill="#575988"/><path d="M817.5 455.5l-67-9s-109 52-122 53l3 23h20c8 0 86-17 97-34a26.78 26.78 0 0119 2c10 5 106 36 106 36z" opacity=".1"/><path fill="#f7c4a7" d="M698.5 486.5l-11 14 11 6 16-12-16-8z"/><path d="M889.5 470.5s-36-30.82-38.49-36.41-61.51-43.59-65.51-44.59-17-8-30 16-61 82-61 82 15 21 20 20 61-48 65-71c0 0 4-9 13 6s67 87 78 86c0 0 43 7 52-10s-33-48-33-48z" fill="#575988"/><path d="M910 324s-12.5 5.5-13.5 28.5-23 62-23 62l2 46s24 24 26 39 19 25 19 25 20-10 23-23 5-45 10-57 2-87 2-87l-15-26-8-9-21 24S900 331 910 324z" fill="#dddbe2"/><path d="M880.5 445.5s-3-36 6-44l18-51S911 326 910 324s-23.5 19.5-23.5 19.5l-15 53 4 56z" opacity=".1"/><path d="M879.5 445.5s-3-36 6-44l18-51s7-25 6-27-24 20-24 20l-15 53 4 56z" fill="#575988"/><path d="M886.5 429.5s-50-16-53-20-35-30-46-12 41 23 41 23l53 32z" fill="#f7c4a7"/><path d="M700.67 500.41l-14.8-2.66s-24.24 31.05-36.87 27.9-24.25 10.44-10.91 14.8c12.05 3.94 64.09 9.45 74 10.47a1.46 1.46 0 001.61-1.42 31.84 31.84 0 012.3-11.27c2.67-6.55 0-20.62-.74-26a25.83 25.83 0 00-2.91-9z" opacity=".1"/><path d="M700.42 501.38l-14.8-2.66s-24.24 31.05-36.85 27.91-24.25 10.44-10.91 14.8c12.05 3.94 64.09 9.45 74 10.47a1.46 1.46 0 001.61-1.42 31.84 31.84 0 012.21-11.26c2.67-6.55 0-20.62-.74-26a25.83 25.83 0 00-2.91-9z" fill="#f3b5b7"/><circle cx="909" cy="290" r="32" opacity=".1"/><circle cx="906" cy="290" r="32" fill="#f7c4a7"/><path d="M937.5 321.5s38 13 38 40-21 70-22 105-56 30-56 30-8-118 0-127 44-44 40-48z" fill="#575988"/><path d="M930.5 377.5s-14 62-47 51c0 0-17 25-5 36 0 0 29 7 48-12s33-26 36-49 5-55-5-52-27 26-27 26z" opacity=".1"/><path d="M931.5 376.5s-14 62-47 51c0 0-17 25-5 36 0 0 29 7 48-12s33-26 36-49 5-55-5-52-27 26-27 26z" fill="#575988"/><path d="M716.54 536c0 .09-.06.2-.09.28a29.28 29.28 0 00-1.57 5.29c.24-.78.52-1.58.84-2.38a14.52 14.52 0 00.82-3.19zm-77.95 2.51c-4.12-1.35-5.85-3.57-5.92-5.91-1.7 3.26-.63 6.92 5.19 8.82 12.05 3.94 64.1 9.45 74 10.47a1.46 1.46 0 001.61-1.43 1.47 1.47 0 00-1.31-1.49c-10.86-1.16-61.68-6.58-73.57-10.46zm-88.81-30.08a12.32 12.32 0 011-2.12 9.75 9.75 0 00-2.35 3.88c-2.19 6.13 56.84 38.55 66.25 43.67a1.08 1.08 0 001.57-.71 1.08 1.08 0 00-.53-1.2c-10.4-5.69-68.1-37.46-65.94-43.52zm71.66 33.98c-.53.14-1.05.85-1.54 1.82l.16-.06c.44-.12 1.19-1 2.1-2.3a1.94 1.94 0 01-.72.54z" fill="#dddbe2"/><path d="M901.56 318.17c-2.82 6.22-3.41 13.23-5.48 19.75-4.11 12.93-14.42 23.63-26.77 27.76 10.39 4.14 22.65-.92 30.68-9.32s12.74-19.58 17.25-30.46c11.66 7.84 10.24 25.86 14.16 39.89a44.24 44.24 0 0023.55 28.15 42.17 42.17 0 0036.07-.73c-10.69-13-25.91-30.93-24.1-48.29 1.47-14.06-8.62-24.8-7.93-38.91 1-20-6.66-30.16-21-43-8.38-7.51 4.81-18.1-6-15-4.25 1.22-8.73-3.33-12.9-1.83-8.26 3-17.28 1.84-25.78 3.84-44.18 10.38 12.37 59.07 8.25 68.15z" opacity=".1"/><path d="M902.56 317.17c-2.82 6.22-3.41 13.23-5.48 19.75-4.11 12.93-14.42 23.63-26.77 27.76 10.39 4.14 22.65-.92 30.68-9.32s12.74-19.58 17.25-30.46c11.66 7.84 10.24 25.86 14.16 39.89a44.24 44.24 0 0023.55 28.15 42.17 42.17 0 0036.07-.73c-10.69-13-24.91-27.93-23.1-45.29 1.47-14.06-.72-28.51 0-42.61 1-20-8.81-39.32-23.16-52.16-8.38-7.51-21.47-8.47-25.65-7-8.26 3-17.28 1.84-25.78 3.84-44.2 10.41 12.35 59.1 8.23 68.18z" fill="#fc6681"/></svg>