<svg data-name="Layer 1" xmlns="http://www.w3.org/2000/svg" width="1096.46" height="805.97" viewBox="0 0 1096.46 805.97"><defs><linearGradient id="a" x1="699.46" y1="846.78" x2="699.46" y2="546.12" gradientUnits="userSpaceOnUse"><stop offset="0" stop-color="gray" stop-opacity=".25"/><stop offset=".54" stop-color="gray" stop-opacity=".12"/><stop offset="1" stop-color="gray" stop-opacity=".1"/></linearGradient></defs><path d="M641.82 111.4c-64.72-2.25-126.36-23.14-185.22-46S339.44 17.21 276.23 5.1c-40.59-7.79-87.06-8.89-119.8 12.88-31.5 21-41.68 57.15-47.15 90.72-4.12 25.27-6.54 51.85 4.74 75.5 7.84 16.42 21.74 30.22 31.36 46 33.47 54.72 9.81 122.2-26.45 175.63-17 25.06-36.75 49-49.88 75.66s-19.2 57.25-7.71 84.46c11.38 27 38.51 47.24 67.9 61.5 59.69 28.94 130 37.23 198.61 41.92 151.83 10.39 304.46 5.89 456.69 1.39 56.34-1.67 112.92-3.36 168.34-12.07 30.78-4.84 62.55-12.52 84.89-31 28.37-23.53 35.4-63.38 16.39-92.88-31.88-49.49-120-61.79-142.31-114.9-12.26-29.23.33-61.8 18.16-88.91 38.24-58.17 102.33-109.19 105.7-175.68 2.32-45.66-28.49-91.39-76.13-113-49.93-22.65-119.18-19.8-156 17.69-37.95 38.52-104.61 53.37-161.76 51.39z" fill="#fb8e62" opacity=".1"/><g opacity=".9"><rect x="708.33" y="248.78" width="8.86" height="73.02" rx="2.29" ry="2.29" fill="#3a3768"/><rect x="413.89" y="191.58" width="4.97" height="24.04" rx="2.29" ry="2.29" fill="#3a3768"/><rect x="413.71" y="235.59" width="5.6" height="41.84" rx="2.29" ry="2.29" fill="#3a3768"/><rect x="413.8" y="292.07" width="5.33" height="42.2" rx="2.29" ry="2.29" fill="#3a3768"/><rect x="416.71" y="112.14" width="296.4" height="602.39" rx="38.99" ry="38.99" fill="#3a3768"/><rect x="536.31" y="130.12" width="41.39" height="8.4" rx="3.87" ry="3.87" fill="#e6e8ec"/><circle cx="588.73" cy="134.33" r="4.77" fill="#e6e8ec"/></g><ellipse cx="238.04" cy="728.39" rx="199.97" ry="20.38" fill="#fb8e62" opacity=".1"/><ellipse cx="682.68" cy="796.42" rx="93.68" ry="9.55" fill="#fb8e62" opacity=".1"/><ellipse cx="1002.78" cy="748.3" rx="93.68" ry="9.55" fill="#fb8e62" opacity=".1"/><path d="M671.23 127.82h-33.9v4.09a19.38 19.38 0 01-19.38 19.38H509.77a19.38 19.38 0 01-19.38-19.38v-4.09h-31.84a23.53 23.53 0 00-23.53 23.54v523.93a23.53 23.53 0 0023.53 23.54h212.68a23.54 23.54 0 0023.54-23.54V151.36a23.54 23.54 0 00-23.54-23.54zm144.49-42.11s-84.2-5.08-74.27 53.92c0 0-2 10.43 7.48 15.16 0 0 .15-4.37 8.63-2.89a38.44 38.44 0 009.15.44 19 19 0 0011.19-4.61s23.66-9.78 32.87-48.46c0 0 6.81-8.44 6.54-10.61l-14.21 6.07s4.85 10.25 1 18.77c0 0-.46-18.4-3.19-18-.56.08-7.39 3.55-7.39 3.55s8.36 17.85 2 30.83c0 0 2.39-22-4.66-29.54l-10 5.84s9.76 18.44 3.15 33.49c0 0 1.69-23.08-5.25-32.07l-9.06 7.07s9.17 18.17 3.58 30.65c0 0-.74-26.86-5.55-28.89 0 0-7.93 7-9.14 9.86 0 0 6.28 13.2 2.39 20.16 0 0-2.39-17.9-4.35-18 0 0-7.9 11.86-8.72 20 0 0 .34-12.09 6.8-21.12 0 0-7.63 1.31-12.09 6.26 0 0 1.23-8.38 14-9.12 0 0 6.53-9 8.28-9.54 0 0-12.75-1.07-20.48 2.36 0 0 6.8-7.91 22.82-4.31l8.94-7.31s-16.78-2.29-23.9.24c0 0 8.2-7 26.32-1.9l9.74-5.82s-14.31-3.09-22.84-2c0 0 9-4.85 25.69.41l7-3.13s-10.49-2.06-13.56-2.39-3.23-1.17-3.23-1.17a36.35 36.35 0 0119.83 2.26s14.74-5.53 14.49-6.46zm-86.36-26.24s-38-2.29-33.56 24.37c0 0-.89 4.71 3.38 6.85 0 0 .07-2 3.9-1.31a17.51 17.51 0 004.13.2 8.62 8.62 0 005.06-2.08s10.69-4.42 14.85-21.9c0 0 3.08-3.81 3-4.79l-6.42 2.74s2.19 4.63.46 8.48c0 0-.2-8.31-1.44-8.12-.25 0-3.33 1.61-3.33 1.61s3.77 8.06.92 13.93c0 0 1.08-9.94-2.1-13.35l-4.52 2.64s4.41 8.33 1.42 15.13c0 0 .77-10.43-2.37-14.49l-4.1 3.2s4.15 8.21 1.62 13.85c0 0-.33-12.14-2.5-13.06 0 0-3.59 3.16-4.13 4.46 0 0 2.83 6 1.07 9.11 0 0-1.08-8.09-2-8.13 0 0-3.57 5.36-3.94 9a19.46 19.46 0 013.07-9.54 10.71 10.71 0 00-5.46 2.83s.55-3.79 6.34-4.12c0 0 2.95-4.07 3.74-4.32 0 0-5.76-.48-9.25 1.07 0 0 3.07-3.57 10.31-2l4-3.3s-7.58-1-10.8.11c0 0 3.71-3.16 11.89-.86l4.4-2.63s-6.46-1.39-10.31-.89c0 0 4.06-2.19 11.6.18l3.15-1.41s-4.73-.93-6.12-1.08-1.46-.53-1.46-.53a16.36 16.36 0 018.89 1s6.72-2.43 6.61-2.85z" fill="#fb8e62"/><ellipse cx="40.21" cy="678.57" rx="40.21" ry="6.8" fill="#fb8e62"/><path d="M56.83 667.44a11.63 11.63 0 003.84-5.78c.49-2.3-.49-5-2.68-5.89-2.46-.95-5.09.76-7.08 2.48s-4.28 3.69-6.89 3.32a10.47 10.47 0 003.21-9.81 4 4 0 00-.9-2c-1.36-1.46-3.84-.83-5.48.32-5.2 3.66-6.65 10.72-6.67 17.08-.53-2.3-.09-4.69-.1-7s-.66-5-2.64-6.22a8 8 0 00-4-.95c-2.34-.08-4.94.15-6.54 1.86-2 2.12-1.47 5.69.26 8s4.35 3.8 6.76 5.42a14.92 14.92 0 014.84 4.61 4.41 4.41 0 01.36.82h14.65a40.77 40.77 0 009.06-6.26zm773.74-83.92s8.65 11.32-4 28.4-23.07 31.5-18.85 42.15c0 0 19.08-31.72 34.61-32.17s5.32-19.3-11.76-38.38z" fill="#fb8e62"/><path d="M830.57 583.52a14.25 14.25 0 011.77 3.55c15.15 17.8 23.22 34.42 8.65 34.83-13.56.39-29.84 24.65-33.73 30.77a11.46 11.46 0 00.46 1.4s19.08-31.72 34.61-32.17 5.32-19.3-11.76-38.38z" opacity=".1"/><path d="M846.65 597.98c0 4-.45 7.21-1 7.21s-1-3.23-1-7.21.56-2.1 1.11-2.1.89-1.9.89 2.1z" fill="#ffd037"/><path d="M852.17 602.7c-3.5 1.9-6.54 3.06-6.81 2.57s2.36-2.42 5.86-4.33 2.11-.51 2.38 0 2.07-.15-1.43 1.76z" fill="#ffd037"/><path d="M784.87 583.52s-8.65 11.32 4 28.4 23.07 31.5 18.86 42.15c0 0-19.08-31.72-34.61-32.17s-5.33-19.3 11.75-38.38z" fill="#fb8e62"/><path d="M784.87 583.52a13.85 13.85 0 00-1.77 3.55c-15.15 17.8-23.22 34.42-8.66 34.83 13.57.39 29.84 24.65 33.74 30.77a13.48 13.48 0 01-.46 1.4s-19.08-31.72-34.61-32.17-5.32-19.3 11.76-38.38z" opacity=".1"/><path d="M768.78 597.98c0 4 .45 7.21 1 7.21s1-3.23 1-7.21-.56-2.1-1.11-2.1-.89-1.9-.89 2.1z" fill="#ffd037"/><path d="M763.23 602.7c3.49 1.9 6.54 3.06 6.8 2.57s-2.35-2.42-5.85-4.33-2.12-.51-2.38 0-2.03-.15 1.43 1.76z" fill="#ffd037"/><path d="M771.54 652.59s24.19-.75 31.48-5.94 37.21-11.39 39-3.06 36.35 41.41 9 41.63-63.46-4.26-70.73-8.69-8.75-23.94-8.75-23.94z" fill="#a8a8a8"/><path d="M851.57 682.32c-27.31.22-63.46-4.26-70.73-8.69-5.55-3.37-7.75-15.48-8.49-21.07h-.81s1.53 19.51 8.81 23.94 43.42 8.91 70.73 8.69c7.88-.07 10.61-2.87 10.46-7-1.1 2.51-4.1 4.08-9.97 4.13z" opacity=".2"/><path fill="#3a3768" opacity=".3" d="M584.53 487.87h78.03v78.03h-78.03zm-115-103h78.03v78.03h-78.03zm7.5 204.24h78.03v78.03h-78.03z"/><path fill="#fff" d="M459.62 193.28h78.03v78.03h-78.03z"/><path d="M513.78 218.77l-2.77 2.76a9.77 9.77 0 010 13.83l2.77 2.78a13.7 13.7 0 000-19.37z" fill="#fb8e62"/><path d="M519.32 213.44l-2.73 2.73a17.38 17.38 0 010 24.56l2.73 2.73a21.22 21.22 0 000-30zm-13 10.22v-12.5h-3.85l-11.52 9.6h-15.36l-3.84 1.92v13.45l3.84 1.92 9.64 15.37h5.76l-3.6-15.37h3.6l11.52 7.69h3.85v-12.5a4.91 4.91 0 000-9.58z" fill="#fb8e62"/><path fill="#fff" d="M589.06 512.091l57.86-52.354 52.354 57.86-57.86 52.354z"/><path d="M621.57 504.12l5.66-5.14 31 34.17-5.7 5.16zm13.37 32l5.7-5.15 9 10-5.7 5.15zm11.94-21.16l5.7-5.16 14.17 15.67-5.69 5.15zm.81-16.28l5.7-5.16 21.91 24.21-5.7 5.16z" fill="#fb8e62"/><path fill="#fff" d="M583.24 287.31h78.03v78.03h-78.03z"/><path d="M637.07 316.98l-10.47 16a5.7 5.7 0 011.3 3.64 5.77 5.77 0 01-11.53 0 6.36 6.36 0 01.1-1.07l-6.92-4a5.79 5.79 0 01-6.83.86l-7.36 6.89v6.87a5.14 5.14 0 005.13 5.13h43.54a5.15 5.15 0 005.13-5.13v-25.52l-7-4.67a5.7 5.7 0 01-3.53 1.22 5.87 5.87 0 01-1.52-.21z" fill="#fb8e62"/><path d="M605.56 321.64a5.76 5.76 0 015.77 5.76c0 .25 0 .51-.05.75l7.22 4a5.67 5.67 0 013.65-1.3 5.54 5.54 0 011.24.14l10.5-16.26a5.76 5.76 0 1110.46-3.34 6 6 0 01-.16 1.36l5 3.31v-9.62a5.14 5.14 0 00-5.13-5.12h-43.57a5.13 5.13 0 00-5.13 5.12v27.54l4.8-4.6a5.82 5.82 0 01-.36-2 5.76 5.76 0 015.76-5.74z" fill="#fb8e62"/><path fill="#fff" d="M484.6 374.31h78.03v78.03H484.6z"/><path d="M547.16 388.47l-48 26a1 1 0 00.07 1.79l8.19 3.09a2 2 0 011.08 1l6.36 13.1c.12.58 1.19.74 1.2.15l-1-10.83a3.85 3.85 0 01.88-2.19l24.88-24.38a.62.62 0 01.55-.16.57.57 0 01.31.91l-21.45 26.22a4.79 4.79 0 00-.84 2.16l-1.28 9.35c.1.82.74 1.13 1.26.4l4.62-5.43a1 1 0 011.36-.22l11.91 8.68a1 1 0 001.51-.59l9.77-48a1 1 0 00-1.4-1.08zm424.68 344.12c4.54.59 9.25 1 13.6-.46.67-.21 1.44-.67 1.35-1.36a1.6 1.6 0 00-.31-.66 42.41 42.41 0 01-4.13-7.83.64.64 0 00-.25-.35.61.61 0 00-.44 0c-2 .52-3.74 1.82-5.74 2.37a8.2 8.2 0 01-3.12.24c-.9-.1-2.14-.85-2.95-.76.5 2.97 1.64 5.78 1.99 8.81zm85.93-7.61c3-2 6.1-4.22 7.87-7.39a1.21 1.21 0 00.21-.63 1.3 1.3 0 00-.25-.62 25.62 25.62 0 00-6.39-6.9 18.89 18.89 0 00-3.57 3.29c-.75.79-2.83 2.09-2.85 3.27 0 .71.79 1.48 1.16 2 .5.74 1 1.5 1.43 2.26.23.46 2.61 4.6 2.39 4.72z" fill="#fb8e62"/><path d="M989.64 741.77a3 3 0 01-.54 2 2.67 2.67 0 01-1.15.67c-6.36 2.27-13.68-.57-20 1.68-1.31.46-2.54 1.12-3.85 1.56a20.85 20.85 0 01-4.77.85c-2.25.22-4.5.35-6.75.41a16.33 16.33 0 01-5.08-.44 6.15 6.15 0 01-3.9-3.09 3 3 0 01-.19-2.2 2.49 2.49 0 01.41-.71 6.09 6.09 0 011.5-1.21l2.34-1.51a15.63 15.63 0 013.54-1.88c.92-.3 1.91-.43 2.84-.7 3.29-1 5.79-3.57 8.12-6.07l3.18-3.39a3.11 3.11 0 011.1-.88 3 3 0 011.36-.14 18.37 18.37 0 018.67 2.92 12.51 12.51 0 002.14 1.26 7.64 7.64 0 006-.75c.82-.43.64-.7 1-1.47s1.18-1.27 1.9-.56a2.09 2.09 0 01.45.86c.7 2.27.43 4.7.43 7.07a3.14 3.14 0 00.14 1.1 6.69 6.69 0 00.62 1 1.58 1.58 0 01.13.26 6.94 6.94 0 01.36 3.36z" fill="#514e7f"/><path d="M989.64 741.77a3 3 0 01-.54 2 2.67 2.67 0 01-1.15.67c-6.36 2.27-13.68-.57-20 1.68-1.31.46-2.54 1.12-3.85 1.56a20.85 20.85 0 01-4.77.85c-2.25.22-4.5.35-6.75.41a16.33 16.33 0 01-5.08-.44 6.15 6.15 0 01-3.9-3.09 3 3 0 01-.19-2.2 2.49 2.49 0 01.41-.71c.38.78.65 1.8.88 2.17a4.44 4.44 0 003 2.15 7.61 7.61 0 002.71-.35c5.76-1.43 11.88-1.45 17.4-3.61a41.57 41.57 0 015.7-2.19 45.28 45.28 0 016.16-.5c3.25-.26 6.39-1.24 9.6-1.75a6.94 6.94 0 01.37 3.35z" fill="#464353"/><path d="M1072.29 724.59c-.3 2.41-1.83 4.49-3.51 6.25a40.07 40.07 0 00-4.9 5.37c-1.66 2.52-2.39 5.63-4.53 7.76a12.27 12.27 0 01-2.72 2 18.8 18.8 0 01-3.53 1.62c-3.19 1-6.63.79-10 .55a8.89 8.89 0 01-3.16-.62 9.18 9.18 0 01-1.34-.81 6.36 6.36 0 01-2-2.07 2.08 2.08 0 01-.19-1.49 3.4 3.4 0 011-1.46 22.6 22.6 0 012.41-2.17 14.31 14.31 0 003.14-2.76 9 9 0 001.21-2.76 24.73 24.73 0 00.88-5.25 16.54 16.54 0 01.37-3.51c.51-1.8 1.85-3.43 1.69-5.3a1.36 1.36 0 01.07-.8 1.25 1.25 0 01.63-.39 11.4 11.4 0 013.28-.75 3.78 3.78 0 013 1.19c.47.56.77 1.34 1.46 1.59a2.42 2.42 0 001 0c1.68-.17 3.47-.38 4.76-1.47a6 6 0 002-4.37c0-.62-.28-1.27.67-1.4.73-.1 1.3.66 1.67 1.16a16.32 16.32 0 013.21 5.85 1.62 1.62 0 01.61-.12 2.61 2.61 0 012.18 1.12 4.32 4.32 0 01.64 3.04z" fill="#514e7f"/><path d="M1072.29 724.59c-.3 2.41-1.83 4.49-3.51 6.25a40.07 40.07 0 00-4.9 5.37c-1.66 2.52-2.39 5.63-4.53 7.76a12.27 12.27 0 01-2.72 2 18.8 18.8 0 01-3.53 1.62c-3.19 1-6.63.79-10 .55a8.89 8.89 0 01-3.16-.62 9.18 9.18 0 01-1.34-.81 6.36 6.36 0 01-2-2.07 4.87 4.87 0 012.06-.49c1.49.08 2.57 1.48 4 1.91 2 .61 4-.82 6.09-1.31 1.34-.31 2.76-.22 4.07-.65a10.05 10.05 0 003-1.82 15.23 15.23 0 003.21-3.1 19.76 19.76 0 001.89-3.76 53.71 53.71 0 013.81-7.29 4.84 4.84 0 01.78-1c.31-.29.7-.5 1-.76 1.37-1 1.94-2.77 2.42-4.41a7.38 7.38 0 01.54-1.47 2.61 2.61 0 012.18 1.12 4.32 4.32 0 01.64 2.98z" fill="#464353"/><path d="M928.63 510.98a14.52 14.52 0 014.08 4.77c1 1.88 6.49 16.48 6.17 18.57 1.8-1.82 8.94-2.12 10.73-3.93.76-.76 4.87-4.56 5.48-5.44s5.19-2.77 5.69-3.67c1.87-3.35-13.26-16-11.33-19.36a.82.82 0 00.16-.52.8.8 0 00-.25-.4 24.08 24.08 0 00-4.38-3 7 7 0 01-3.34-4 14.37 14.37 0 00-3.87 2.62q-4.15 3.55-8.18 7.28c-1.06 1-3.08 2.27-3.57 3.66s1.6 2.6 2.61 3.42z" fill="#a1616a"/><path d="M953.12 505.59a43.84 43.84 0 00-6.48 5.3c-1.88 1.85-3.66 4-4.13 6.61-.19 1-.16 2.06-.32 3.09-.67 4.48-4.56 7.77-6.27 12a20.52 20.52 0 00-1.1 4 47.15 47.15 0 00-.78 7.86c0 2.56 2.46 4.32 3.38 6.71a40.7 40.7 0 011.63 7.27 88.58 88.58 0 004.09 13.5c3.38 9.33 14.33 35.13 17.71 44.47 10.35-2.6 37.91-8.57 47.07-14 3.06-1.82-21.2-22.38-17.93-23.8a1.65 1.65 0 00.91-.69 1.58 1.58 0 000-1c-3.26-14.29-13.49-26-18.12-40-1.61-4.83-4.5-8.95-6.7-13.55-2-4.16-3.05-8.75-5.42-12.7a8.49 8.49 0 00-1.73-2.17 10.61 10.61 0 00-1.92-1.15c-1.31-.7-2.57-1.09-3.89-1.75z" fill="#514e7f"/><circle cx="929.18" cy="493.15" r="16.2" fill="#a1616a"/><path d="M945.66 500.76a5.43 5.43 0 016.09-.87 3 3 0 011.81 2.92l8 .12a16.74 16.74 0 013.81.35 5.54 5.54 0 013.18 2c.1.13.21.28.37.31a.64.64 0 00.37-.13 7.05 7.05 0 014-.72c4.34.28 8.36 2.46 11.76 5.17a3.81 3.81 0 011.4 1.71c.28.91 0 2.08.66 2.7 0 7.55 2.59 14.58 4.32 21.93.3 1.31 1.56 2.46 2.43 3.49a14 14 0 012.6 3.88c1.46 3.81-.56 8.28.87 12.11a19.5 19.5 0 002.76 4.35 11.21 11.21 0 012.35 5.62c.06.92-.06 1.84 0 2.77a16.88 16.88 0 00.66 3.64c.58 2.21 1.2 4.42 1.84 6.62 1 3.56 2.4 7.41 5.59 9.31-7.71 1.31-15.83 2.58-23.18-.09a12 12 0 01-2.89-1.45c-2.65-1.89-3.93-5.13-5.07-8.18-1.28-3.43-2.58-6.91-2.84-10.56a12.08 12.08 0 00-.48-3.45c-.75-2-2.73-3.19-4.55-4.29a21.89 21.89 0 01-5.47-4.26 8.5 8.5 0 01-2.22-6.4c.14-1.13.58-2.22.63-3.36a2.69 2.69 0 00-1.56-2.77c-5.61-1.7-8.29-8.34-9.54-14.07a44.89 44.89 0 01-.72-9l-.07-5.79a7.68 7.68 0 01-2.52-5.54 6.22 6.22 0 000-1.83 5.13 5.13 0 00-1.28-2 16.9 16.9 0 01-3.11-4.24zm-17.26 18.53c-.18 1.81.23 3.66-.18 5.44-.16.68-.43 1.33-.63 2a11.8 11.8 0 00.75 7.62 42.35 42.35 0 003.89 6.75 10.28 10.28 0 011.25 2.33 12.07 12.07 0 01.48 2.67 81.32 81.32 0 001.91 10.74c.76 3.08 1.75 6.19 3.78 8.63a2.62 2.62 0 001.56 1.06 2.82 2.82 0 001.33-.28l4.14-1.57a2.89 2.89 0 001-.52 2.51 2.51 0 00.58-1.62c.29-3.34-.71-6.65-1.82-9.81-3.36-9.54-7.82-18.73-10-28.6-.61-2.76-.93-7-2.94-9.15-.83-.9-.55-.52-1.54 0a12.54 12.54 0 00-1.45.77 4.75 4.75 0 00-2.11 3.54z" fill="#464353"/><path d="M940.88 537.39q1.65 8.73 3.37 17.47l16.08-4.22c.13-1.68-.77-3.24-1.39-4.81-1.47-3.68-1.5-7.77-2.69-11.55-.9-2.88-2.46-5.53-3.3-8.43-.49-1.68-.73-3.44-1.21-5.13a39.19 39.19 0 00-1.89-4.89 31.16 31.16 0 00-3.51-6.51c-2.06.77-4.25 1.66-5.42 3.51a7.46 7.46 0 00-1 3.46c-.28 3.62 1 7.25.59 10.83a32 32 0 00.37 10.27z" fill="#fb8e62"/><path d="M960.6 614.98c.9 3.44-.41 7-1.47 10.42a80.92 80.92 0 00-3.28 15.69 13 13 0 01-.81 4 37.42 37.42 0 01-1.95 3.2c-1.62 2.86-1.58 6.36-1.23 9.63.23 2.16.58 4.31 1 6.44.53 2.59 1.18 5.31.42 7.84 1.27-.28 2.14 1.36 2.09 2.67s-.51 2.71.11 3.86c1.58.57 1.6 2.74 1.55 4.41a37.19 37.19 0 001.09 8.64q3.58 17.19 7.6 34.29c5.79 1.8 12.55 3.67 18.07 1.18a3.55 3.55 0 002.29-2.3 4.14 4.14 0 00-.22-1.77l-2.62-9.52a17.53 17.53 0 01-.94-7c.26-1.77 1-3.67.16-5.22-.3-.53-.76-1-1.1-1.46-1.38-2-.66-4.69-.54-7.13a5.58 5.58 0 00-.12-1.63 8.56 8.56 0 00-.77-1.79 27.33 27.33 0 01-3-13.6 3.34 3.34 0 00-.24-1.78 4.08 4.08 0 01-.44-.72 1.93 1.93 0 01.14-1.31 11.38 11.38 0 01-2.11-2 3 3 0 00.5-4.62 1.54 1.54 0 00.74-2.65c-.34-.24-.78-.34-1-.68-.37-.5-.07-1.21.23-1.75l1.6-2.89c1.19-2.14 1.46-4.79 2.74-6.88a51.62 51.62 0 004.22-9.63l4.56-12.7 3.1 2.69a9.71 9.71 0 012.55 2.91 12.28 12.28 0 01.82 3.48c1.14 6.9 5.49 12.88 7.1 19.69a13.27 13.27 0 001.46 4.4 9.52 9.52 0 01.84 1.26 6.64 6.64 0 01.35 2.09 9.74 9.74 0 004.11 7c1.52 1 3.45 1.77 4.25 3.43a6.77 6.77 0 00.7 1.46c.74.89 2.34 1 2.66 2.11.17.63-.16 1.37.2 1.92a1.75 1.75 0 00.75.56l4.47 2.24c5 2.49 7.52 8.2 11.21 12.39a25.73 25.73 0 013.35 4.44c1.59 2.84 2.33 6.41 5 8.24a7.77 7.77 0 011.94 1.44c.85 1.11.54 2.67.61 4.07s1.15 3.06 2.48 2.64a9.65 9.65 0 000 5.17 26.06 26.06 0 0015.8-6.4c1.3-1.14 2.56-2.59 2.57-4.31a1.67 1.67 0 00-.19-.86 2.34 2.34 0 00-1-.76c-4.17-2.26-5.43-7.5-7.52-11.76-1.85-3.75-4.57-7-6.88-10.48-5-7.5-8.34-16.57-15.85-21.53-1.65-1.09-3.57-2.06-4.39-3.86a30.79 30.79 0 01-.88-3.2 2.69 2.69 0 00-2.35-2 14.27 14.27 0 00.54-5 6.22 6.22 0 00-.25-2.15 10.16 10.16 0 00-1.1-2.12 20.55 20.55 0 01-2.83-11c.06-2 .41-4-.19-5.91-.3-1-.82-1.83-1.19-2.76a17.21 17.21 0 01-.86-5.15l-.41-6.59a31.55 31.55 0 00-.85-6.51c-1.39-5.11-2.72-26.52-7.43-28.93s-12.75 14.06-18 14.39a24 24 0 00-6.88 1.32c-3.51 1.32-6.46 3.78-9.33 6.19l-9.72 8.16a35.42 35.42 0 01-6.03 4.35zm-46.63-139.82a12.22 12.22 0 019.43-4.6 22 22 0 0110.42 2.62 13.43 13.43 0 003 1.25c1.72.35 3.62-.12 5.17.7 2.06 1.09 2.45 3.87 2.27 6.19s-.61 4.86.62 6.85a19 19 0 011.19 1.78 5.94 5.94 0 01-.11 3.81 30.6 30.6 0 01-2-2.51c-.72-.79-1.95-1.33-2.83-.74s-.88 1.68-.92 2.65-.3 2.14-1.22 2.46a2 2 0 01-2-.8c-1.57-1.92-.94-5-2.49-6.92-.89-1.1-2.36-1.63-3.18-2.78-.64-.9-.8-2.07-1.36-3s-1.87-1.69-2.75-1a3.74 3.74 0 00-.73 1 4.21 4.21 0 01-5 1.5 8.77 8.77 0 00-2.17-.93 2.67 2.67 0 00-2.47 1.34 5.32 5.32 0 00-.65 2.86c0 1.35.24 2.83-.54 3.93a4.06 4.06 0 01-1.16 1c-1.15.73-2.72 1.22-3.8.39a2.86 2.86 0 01-.85-2.66 21.88 21.88 0 01.81-2.81c.6-2.12-.18-4.51.48-6.51a20.49 20.49 0 012.84-5.07z" fill="#464353"/><path d="M922.65 523.49a2.5 2.5 0 00.15 1.49 2.42 2.42 0 00.81.78 16.78 16.78 0 007.64 2.47 2.3 2.3 0 011 .27 1.89 1.89 0 01.45 2.13 5.67 5.67 0 00-.48 2.26c.2 1.43 1.89 2.08 3.33 2.26a7.72 7.72 0 005.79-1.12 8.93 8.93 0 002.39-3.59c3.93-9 5.31-19 9.29-28a5.69 5.69 0 00.6-1.87 1.86 1.86 0 00-.74-1.73c-.74-.46-1.89-.2-2.39-.91-.25-.37-.22-.86-.44-1.24-.46-.82-1.66-.72-2.49-1.16-.64-.35-1.09-1-1.8-1.19a2.3 2.3 0 00-1.88.81c-2.33 2.18-3.56 5.27-4.86 8.19a97.27 97.27 0 01-7 12.91c.31-.48-1.48-4.13-2.18-4.27-1.22-.25-2.8 1.9-3.46 2.71a17.16 17.16 0 00-3.73 8.8z" fill="#fb8e62"/><path fill="#fff" d="M930.83 536.29h78.03v78.03h-78.03z"/><path d="M970.45 562.49v-10.24h-25.58v46.1h49.95v-35.86zm-15.35 30.73h-5.11v-5.12h5.11zm0-10.24h-5.11v-5.12h5.11zm0-10.24h-5.11v-5.13h5.11zm0-10.25h-5.11v-5.13h5.11zm10.23 30.73h-5.1v-5.12h5.11zm0-10.24h-5.1v-5.12h5.11zm0-10.24h-5.1v-5.13h5.11zm0-10.25h-5.1v-5.13h5.11zm24.38 30.73h-19.26v-5.12h5.11v-5.12h-5.11v-5.12h5.11v-5.13h-5.11v-5.12h19.26zm-4.48-20.48h-5.11v5.13h5.11v-5.13zm0 10.24h-5.11v5.13h5.11z" fill="#fb8e62"/><path d="M1008.23 579.27a31.53 31.53 0 00-3.7 3.88 7.73 7.73 0 00-1.7 5 2.57 2.57 0 00.48 1.46 1.25 1.25 0 001.39.43 2 2 0 00.68-.61 32 32 0 012.3-2.5c.3-.29.68-.6 1.08-.49a1.14 1.14 0 01.47.31 3.18 3.18 0 011 1.51 3.58 3.58 0 01-1.06 2.91 7.54 7.54 0 00-1.79 2.65 1.13 1.13 0 000 .85 1.39 1.39 0 00.53.46 7.72 7.72 0 006.47.42c1.39-.55 2.59-1.51 4-2a9.61 9.61 0 001.77-.66 3.64 3.64 0 001.57-2.34 10 10 0 00.11-2.89 33 33 0 00-2.41-10.9 1.3 1.3 0 00-.39-.58 1.37 1.37 0 00-.66-.19c-1.75-.18-4.63-1.08-6.32-.43a4.32 4.32 0 00-1.49 1.33c-.39.35-2.33 1.92-2.33 2.38z" fill="#a1616a"/><path d="M1007.63 577.72c0-1.68-2.08-5.71 1.21-6 0-1.78-2.53-2.9-2.07-4.78.16-.64.67-1.15.75-1.79.21-1.83-3.09-2.82-2.55-4.58.2-.67.93-1.08 1.09-1.76.37-1.58-2.46-2.29-2.51-3.91 0-.55.3-1.07.28-1.61 0-.69-.6-1.21-.93-1.8-.85-1.53-.44-3.9-2-4.68 1 .08 1.39-1.45.95-2.39s-1.3-1.75-1.3-2.79a4.43 4.43 0 000-1.15c-.29-1-1.93-1.07-2.2-2.07a10.67 10.67 0 010-1.13c-.1-.78-.9-1.26-1.65-1.49a6.56 6.56 0 01-2.2-.78c-.48-.37-1-1-1.55-.65-.19.11-.29.33-.44.5-.61.71-1.78.4-2.56-.13-2.29-1.55-3.42-4.34-3.92-7.06s-.47-5.53-1.07-8.23a18.85 18.85 0 00-.73-2.46 12.73 12.73 0 01-1.16-2.46c-.12-1.57 3.14-.5 4.38-.34a19.44 19.44 0 013.56.67 37.65 37.65 0 013.63 1.59c5 2.19 10.92 2.46 14.9 6.13 1.31 1.21 2.41 2.79 4.1 3.33a20.93 20.93 0 012.3.6c1.89.89 2.18 3.39 3.21 5.2a11.11 11.11 0 01.85 1.5 5.91 5.91 0 01.27 1.92l.14 4.75c.23 8 .47 15.93-.38 23.84-.28 2.6-.67 5.29.09 7.8.2.68.49 1.33.66 2a13.62 13.62 0 01.26 2.47l.11 3.07a1 1 0 01-.15.71 1 1 0 01-.83.2c-4.29-.38-8.61-2.8-12.66-1.34" fill="#464353"/><path d="M927.89 565.19a1.32 1.32 0 00-.48.4 3.41 3.41 0 000 4.06 1.37 1.37 0 01.24.4 1.18 1.18 0 01-.12.68 2.25 2.25 0 00.31 2.52c.31.26.73.39.93.73.35.58-.14 1.32-.06 2 .1.89 1.15 1.33 2 1.44a2.13 2.13 0 001.95-.52 1.62 1.62 0 000-1.77 4.74 4.74 0 00-1.32-1.32 2 2 0 001.89-1.83 2.84 2.84 0 00-1.14-2.49c-.18-.15-.4-.3-.45-.54s.19-.57.41-.8c1-1 1.77-3.45-.11-4a4.63 4.63 0 00-2 .09c-.48.15-.48.44-.85.64s-.78.1-1.2.31z" fill="#a1616a"/><path d="M947.54 496.12a3.3 3.3 0 00-2.54 1.28 7.31 7.31 0 00-1.06 3.4 29.81 29.81 0 01-4 10.86m11.1-12.8a3.88 3.88 0 00-3.32 2 11.1 11.1 0 00-.84 3.39 18.42 18.42 0 01-3.33 7.11" opacity=".1"/><path d="M305.89 562.57c.58 6.32-4.19 12.44-2.8 18.62.3 1.32.87 2.57 1.08 3.9.57 3.67-1.62 7.15-3.71 10.22l-17.94 26.34a17.07 17.07 0 01-2.57 3.17c-3.44 3-8.58 2.73-13.09 3.64a22.45 22.45 0 00-8.76 3.88.57.57 0 00-.12.79 7.55 7.55 0 006.52 3.06c.47.62 0 1.53-.65 2-1 .67-2.29.84-2.48 2.48a2.68 2.68 0 00.33 1.64 5.07 5.07 0 003.14 2.18c6.21 1.9 12.93-1.43 17.57-6s8-10.27 12.56-14.9c2.53-2.55 5.4-4.75 8-7.23 5.2-4.94 9.23-11 13.13-17a18.87 18.87 0 002.84-5.78c.48-2.06.26-4.23.82-6.27.72-2.66 2.68-4.79 4.3-7 3.19-4.38 5.31-9.75 4.89-15.15s-3.76-10.74-8.86-12.57a7.93 7.93 0 00-5-.31c-2.09.65-3.63 2.38-5.06 4l-3.4 3.94a9.08 9.08 0 00-2 3 3.15 3.15 0 00.7 3.35" fill="#fbbebe"/><path d="M305.89 562.57c.58 6.32-4.19 12.44-2.8 18.62.3 1.32.87 2.57 1.08 3.9.57 3.67-1.62 7.15-3.71 10.22l-17.94 26.34a17.07 17.07 0 01-2.57 3.17c-3.44 3-8.58 2.73-13.09 3.64a22.45 22.45 0 00-8.76 3.88.57.57 0 00-.12.79 7.55 7.55 0 006.52 3.06c.47.62 0 1.53-.65 2-1 .67-2.29.84-2.48 2.48a2.68 2.68 0 00.33 1.64 5.07 5.07 0 003.14 2.18c6.21 1.9 12.93-1.43 17.57-6s8-10.27 12.56-14.9c2.53-2.55 5.4-4.75 8-7.23 5.2-4.94 9.23-11 13.13-17a18.87 18.87 0 002.84-5.78c.48-2.06.26-4.23.82-6.27.72-2.66 2.68-4.79 4.3-7 3.19-4.38 5.31-9.75 4.89-15.15s-3.76-10.74-8.86-12.57a7.93 7.93 0 00-5-.31c-2.09.65-3.63 2.38-5.06 4l-3.4 3.94a9.08 9.08 0 00-2 3 3.15 3.15 0 00.7 3.35" opacity=".05"/><path d="M169.23 589.42c1 3.16 2 6.32 3.21 9.4a79.54 79.54 0 008.31 15.16 109.23 109.23 0 006.87 9c3.06 3.61 6.48 7.24 7.56 11.85.63 2.66.42 5.45.68 8.17s1.15 5.61 3.35 7.24a12.45 12.45 0 005.52 1.82c1.38.22 3.11.29 3.83-.91a3.41 3.41 0 00.38-1.58l.34-4c.07-.86.37-2 1.23-2s1.3 1.11 2 1.62a2.17 2.17 0 003-1 5 5 0 00.08-3.5 16.62 16.62 0 00-8.53-10.57 25.64 25.64 0 01-4.16-2.17 14.15 14.15 0 01-3.27-4.12c-7.56-12.45-15.16-25-20.5-38.51a28.49 28.49 0 01-2.11-7.59 49 49 0 01.33-8 45.79 45.79 0 00-1.32-14.28 11.23 11.23 0 00-1.37-3.47c-2.19-3.34-7.36-3.83-10.62-1.53a10.94 10.94 0 00-4.22 7.72c-.24 2.69 1.32 5.5 2.11 8q3.67 11.62 7.3 23.25z" fill="#a1616a"/><path d="M169.23 589.42c1 3.16 2 6.32 3.21 9.4a79.54 79.54 0 008.31 15.16 109.23 109.23 0 006.87 9c3.06 3.61 6.48 7.24 7.56 11.85.63 2.66.42 5.45.68 8.17s1.15 5.61 3.35 7.24a12.45 12.45 0 005.52 1.82c1.38.22 3.11.29 3.83-.91a3.41 3.41 0 00.38-1.58l.34-4c.07-.86.37-2 1.23-2s1.3 1.11 2 1.62a2.17 2.17 0 003-1 5 5 0 00.08-3.5 16.62 16.62 0 00-8.53-10.57 25.64 25.64 0 01-4.16-2.17 14.15 14.15 0 01-3.27-4.12c-7.56-12.45-15.16-25-20.5-38.51a28.49 28.49 0 01-2.11-7.59 49 49 0 01.33-8 45.79 45.79 0 00-1.32-14.28 11.23 11.23 0 00-1.37-3.47c-2.19-3.34-7.36-3.83-10.62-1.53a10.94 10.94 0 00-4.22 7.72c-.24 2.69 1.32 5.5 2.11 8q3.67 11.62 7.3 23.25z" opacity=".05"/><path d="M320.98 708.16c-3.92 2.39-8.8 2.53-13.36 2-.73-.09-1.6-.15-2.07.42-.68.82.12 2 .95 2.7a19.88 19.88 0 009.18 3.77 62.62 62.62 0 009 .6c8.19.14 16.42.27 24.53-.91a3.25 3.25 0 001.34-.39 2.54 2.54 0 001-1.54 6.13 6.13 0 00-2.14-5.84 18 18 0 00-5.72-3.07l-7.12-2.77c-1.67-.65-4.36-2.38-6.17-2.24-3.36.22-6.59 5.61-9.42 7.27z" fill="#3f3d56"/><path d="M338.87 724.89a17.49 17.49 0 01-11.95 4.46c-1.12 0-2.68.21-2.68 1.33a1.76 1.76 0 00.32.93 11 11 0 006.18 4.84 22 22 0 007.46.47l7.3-.38c1.38-.07 2.77-.14 4.14-.31s2.86-.45 4.29-.67a57.22 57.22 0 0110.63-.5 3.09 3.09 0 002.62-.7c.65-.82.27-2 .06-3-.44-2.11 0-4.33-.41-6.46-.7-3.72-3.9-6.58-7.45-7.93-3.28-1.25-9.1-2.68-12.21-.6-3.34 2.21-5.35 5.85-8.3 8.52z" fill="#3f3d56"/><path d="M324.45 630.43c-3 3.95-6 8.51-5.3 13.39.4 2.63 1.87 4.95 2.95 7.39a52.09 52.09 0 013 10.38c1.11 5.17 2.22 10.35 2.91 15.59a97.36 97.36 0 01.65 17.9c-.09 1.44-.25 3-1.25 4-.4.4-.92.73-1.09 1.27a2.15 2.15 0 00.23 1.5 16.61 16.61 0 008.9 8.19 34.09 34.09 0 0012.1 2.26 3.4 3.4 0 001.62-.21 3.12 3.12 0 001.25-1.43c3-5.7 1.33-12.58 1.38-19 0-5.37 1.3-10.69 1.07-16.06-.19-4.3-1.34-8.5-1.76-12.79-.69-7 .6-14.1 1.89-21.05 1-5.32 2-10.65 3.25-15.92a30.36 30.36 0 013.44-9.24c1.4-2.21 3.3-4.06 4.9-6.14a27.87 27.87 0 005.48-20.37c-.1-.72-10.3 2.58-11.18 3a34.66 34.66 0 00-10 6.41c-2.36 2.24-4.21 5.24-6.28 7.76q-4.38 5.33-8.62 10.72-4.84 6.18-9.54 12.45z" fill="#464353"/><path d="M324.45 630.43c-3 3.95-6 8.51-5.3 13.39.4 2.63 1.87 4.95 2.95 7.39a52.09 52.09 0 013 10.38c1.11 5.17 2.22 10.35 2.91 15.59a97.36 97.36 0 01.65 17.9c-.09 1.44-.25 3-1.25 4-.4.4-.92.73-1.09 1.27a2.15 2.15 0 00.23 1.5 16.61 16.61 0 008.9 8.19 34.09 34.09 0 0012.1 2.26 3.4 3.4 0 001.62-.21 3.12 3.12 0 001.25-1.43c3-5.7 1.33-12.58 1.38-19 0-5.37 1.3-10.69 1.07-16.06-.19-4.3-1.34-8.5-1.76-12.79-.69-7 .6-14.1 1.89-21.05 1-5.32 2-10.65 3.25-15.92a30.36 30.36 0 013.44-9.24c1.4-2.21 3.3-4.06 4.9-6.14a27.87 27.87 0 005.48-20.37c-.1-.72-10.3 2.58-11.18 3a34.66 34.66 0 00-10 6.41c-2.36 2.24-4.21 5.24-6.28 7.76q-4.38 5.33-8.62 10.72-4.84 6.18-9.54 12.45z" opacity=".05"/><path d="M346.11 600.05c.64 3.06 3.61 5.4 3.69 8.53.07 2.5-1.71 4.6-3 6.75a45.27 45.27 0 00-3.06 6.94 105.82 105.82 0 01-9 17.87c-1.71 2.72-3.63 5.67-3.23 8.86a13.08 13.08 0 001.55 4.23l5.14 10.21a29.3 29.3 0 012.62 6.45c.45 1.94.49 4 .75 5.92.81 6.26 3.74 12.56 2 18.63-.15.52-.7 1.15-1.11.79 1.7 3.17 3.07 6.37 2.93 10-.06 1.89-.64 3.85.06 5.61a6.12 6.12 0 01.78 2.14c0 .51-.24 1-.29 1.51-.14 1.44 1.18 2.65 2.56 3.11s2.88.43 4.27.84c2.68.8 4.58 3.1 6.88 4.7a14.45 14.45 0 007.89 2.57 2 2 0 001.16-.23 1.9 1.9 0 00.65-1.41 7.84 7.84 0 00-2.83-6.81 3.15 3.15 0 01-1-1.1 2.67 2.67 0 01-.1-1.23 91.21 91.21 0 00-.3-16.85 26 26 0 01-.26-5.36 21.91 21.91 0 00.43-4.47 22.82 22.82 0 00-1.37-4.27c-.79-2.55-.57-5.29-.65-8a70.12 70.12 0 00-2.26-13.69 10.39 10.39 0 00-2.13-4.94c-1.07-1.12-2.8-2.18-2.39-3.67a4.24 4.24 0 011-1.46 5.86 5.86 0 001.23-4.47 2 2 0 002.3-1.08 36 36 0 0018.08-20.56 6.68 6.68 0 01.81-1.83c.77-1.08 2.12-1.55 3.31-2.15 3.74-1.88 6.32-5.41 8.69-8.86a20.61 20.61 0 003.36-6.43 21.18 21.18 0 00.46-4.64l.21-8a4.59 4.59 0 00-.15-1.57 4 4 0 00-.87-1.28 15.53 15.53 0 00-8.54-4.6c-2.19-.39-4.43-.32-6.65-.5-4.3-.36-8.55-1.69-12.86-1.38-6.76.5-12.78 5.19-16 11.17-1.18 2.14-2.36 3.94-4.76 4.01z" fill="#464353"/><path d="M121.72 722.52a10.89 10.89 0 004.6.55c.11-1.27 1.82-1.55 3.09-1.49a3.55 3.55 0 011.82.4c.32.2.56.5.87.71a3.74 3.74 0 001.8.46l6.62.56c2.95.25 6 .48 8.78-.58a2.87 2.87 0 001.41-.94c.75-1.07 0-2.61-1-3.39s-2.37-1.14-3.41-1.94c-2.3-1.75-2.61-5-3.83-7.64a22.05 22.05 0 00-3.16-4.59 17.57 17.57 0 00-3.13-3.2c-2.65-1.92-5.71-1.88-8.82-2.15-2.2-.2-4.27-.33-5.85 1.62-1.95 2.42-1.17 7.3-1.05 10.19a72.94 72.94 0 001.26 11.43z" fill="#514e7f"/><path d="M121.72 722.52a10.89 10.89 0 004.6.55c.11-1.27 1.82-1.55 3.09-1.49a3.55 3.55 0 011.82.4c.32.2.56.5.87.71a3.74 3.74 0 001.8.46l6.62.56c2.95.25 6 .48 8.78-.58a2.87 2.87 0 001.41-.94c.75-1.07 0-2.61-1-3.39s-2.37-1.14-3.41-1.94c-2.3-1.75-2.61-5-3.83-7.64a22.05 22.05 0 00-3.16-4.59 17.57 17.57 0 00-3.13-3.2c-2.65-1.92-5.71-1.88-8.82-2.15-2.2-.2-4.27-.33-5.85 1.62-1.95 2.42-1.17 7.3-1.05 10.19a72.94 72.94 0 001.26 11.43z" opacity=".05"/><path d="M124.4 593.84c-2 .65-2.9 3.17-2.53 5.27s1.63 3.9 2.67 5.75c2.94 5.27 4.22 11.3 6.69 16.8 1.85 4.11 4.35 7.91 6.18 12s3 8.77 1.85 13.14c-.54 2.13-1.58 4.09-2.28 6.17a35 35 0 00-1.34 7 132.68 132.68 0 00-.48 24.16 7.34 7.34 0 00.61 2.86c.41.8 1.13 1.64.78 2.47-.14.33-.44.57-.59.9-.42.92.43 1.88 1.2 2.53a2.07 2.07 0 01-1.3 1 3.07 3.07 0 011.31 3.42c-.69.1-.73 1.15-.29 1.7s1.11.9 1.42 1.52a2.13 2.13 0 01-1.17 2.68 5.48 5.48 0 01-3.19.24 34.58 34.58 0 01-5.34-1.17 4.8 4.8 0 01-1.64-.75 4.87 4.87 0 01-1.47-3.24 58.55 58.55 0 01-.37-10c.29-16.16 0-32.34-.7-48.49-.29-6.5-2.24-12.84-4.76-18.84a96.67 96.67 0 00-4.64-9c-3.62-6.66-6.84-14-6-21.55.09-.81.39-1.79 1.19-1.92a1.73 1.73 0 01.92.15 42.53 42.53 0 014.85 2.68 18.38 18.38 0 008.42 2.52z" fill="#464353"/><path d="M124.4 593.84c-2 .65-2.9 3.17-2.53 5.27s1.63 3.9 2.67 5.75c2.94 5.27 4.22 11.3 6.69 16.8 1.85 4.11 4.35 7.91 6.18 12s3 8.77 1.85 13.14c-.54 2.13-1.58 4.09-2.28 6.17a35 35 0 00-1.34 7 132.68 132.68 0 00-.48 24.16 7.34 7.34 0 00.61 2.86c.41.8 1.13 1.64.78 2.47-.14.33-.44.57-.59.9-.42.92.43 1.88 1.2 2.53a2.07 2.07 0 01-1.3 1 3.07 3.07 0 011.31 3.42c-.69.1-.73 1.15-.29 1.7s1.11.9 1.42 1.52a2.13 2.13 0 01-1.17 2.68 5.48 5.48 0 01-3.19.24 34.58 34.58 0 01-5.34-1.17 4.8 4.8 0 01-1.64-.75 4.87 4.87 0 01-1.47-3.24 58.55 58.55 0 01-.37-10c.29-16.16 0-32.34-.7-48.49-.29-6.5-2.24-12.84-4.76-18.84a96.67 96.67 0 00-4.64-9c-3.62-6.66-6.84-14-6-21.55.09-.81.39-1.79 1.19-1.92a1.73 1.73 0 01.92.15 42.53 42.53 0 014.85 2.68 18.38 18.38 0 008.42 2.52z" opacity=".05"/><path d="M97.08 574.19a7.11 7.11 0 00-3.52-1.11 7.14 7.14 0 00-3.83 1.9 40.17 40.17 0 00-3.8 3.34 20.33 20.33 0 00-4.54 20.11c1.21 3.59 3.4 6.76 5.56 9.86l4.4 6.32c6.71 9.64 13.43 19.28 20.46 28.69a1.08 1.08 0 00.76 1c.26.07.57.06.73.27a.78.78 0 01.09.43 6.53 6.53 0 01-.39 2 .93.93 0 00-.08.69c.22.53 1.19.23 1.49.73.21.32 0 .75-.32 1s-.6.59-.55 1 .72.79.69 1.29c0 .28-.24.49-.41.71a1.81 1.81 0 00.22 2.31c.46 4.6-2 8.95-2.53 13.55-.79 7.23 2.48 14.29 2.88 21.55a5.77 5.77 0 00.45 2.38c.68 1.25 2.42 2 2.36 3.43a13.09 13.09 0 01-.49 1.73 13.91 13.91 0 00.26 2.47c0 .83-.7 1.82-1.47 1.5q.87 2.88 1.54 5.81l15.4 1.27a13.83 13.83 0 00-.14-4.16c-.32-1.48-1-2.87-1.34-4.35a5.13 5.13 0 01.61-4.35 1.7 1.7 0 01-1.7-1.4 6.86 6.86 0 010-2.39c.41-4-1.28-8-1.23-12 .05-3.18 1.16-6.23 1.73-9.35 1.2-6.68-.05-13.93 2.92-20 1.8-3.68 4.29-7.76 2.27-11.32-1-1.76-2.75-3-3.89-4.62a18.77 18.77 0 01-2.09-5c-2.38-7.36-6.21-14.15-9.58-21.12a22.23 22.23 0 01-2.06-5.55 28.21 28.21 0 01-.25-5.12 78.48 78.48 0 00-.57-9.2 8.61 8.61 0 00-1.12-3.81 8.53 8.53 0 00-2.4-2.19c-5.05-3.44-11.07-5.43-16.52-8.3z" fill="#464353"/><path d="M115.53 728.16a10.89 10.89 0 004.6.55c.12-1.27 1.82-1.55 3.09-1.49a3.55 3.55 0 011.77.41c.32.2.56.5.88.71a3.68 3.68 0 001.8.46l6.61.56c2.95.25 6 .48 8.79-.58a2.89 2.89 0 001.4-.94c.75-1.07 0-2.61-1-3.39s-2.37-1.14-3.42-1.94c-2.29-1.75-2.61-5-3.83-7.64a22.05 22.05 0 00-3.16-4.59 17.52 17.52 0 00-3.12-3.2c-2.66-1.92-5.71-1.88-8.82-2.15-2.21-.2-4.28-.33-5.85 1.62-2 2.42-1.18 7.3-1.06 10.19a74.3 74.3 0 001.32 11.42z" fill="#514e7f"/><path fill="#fff" d="M199.03 612.17h78.03v78.03h-78.03z"/><path d="M261.1 648.57c0 8.9-4.17 14.5-10.76 14.5-3.37 0-5.94-1.8-6.39-4.47h-.48a7 7 0 01-6.93 4.31c-5.86 0-9.77-4.7-9.77-11.69 0-6.71 3.94-11.38 9.69-11.38a7 7 0 016.57 3.93h.48v-3.34h4.79v15.55a2.78 2.78 0 003 3.1c3.32 0 5.44-4 5.44-10.3 0-10-7.5-16.69-18.57-16.69s-18.75 8-18.75 19.28c0 11.55 7.72 18.93 19.74 18.93a36.21 36.21 0 006.53-.56 1.9 1.9 0 01.8 3.71 33.24 33.24 0 01-7.52.82c-14.61 0-24-9-24-23 0-13.68 9.55-23.07 23.46-23.07 13.4-.08 22.67 8.27 22.67 20.37zm-29.15 2.76c0 4.44 2.08 7.13 5.48 7.13 3.58 0 5.84-2.76 5.84-7.13s-2.26-7.07-5.78-7.07-5.54 2.62-5.54 7.07z" fill="#fb8e62"/><circle cx="183.77" cy="532.28" r="15.25" fill="#a1616a"/><path d="M169.39 536.8c-2.19 1.89-5.32 2-8.19 2.32a51.19 51.19 0 00-17.62 5.1 6.29 6.29 0 00-2 1.4 5.77 5.77 0 00-1 2.18 14.42 14.42 0 00-.58 5.3 15.28 15.28 0 001.47 5 26.84 26.84 0 009.46 10.78 6.87 6.87 0 002.3 1.1c2 .42 3.95-.75 5.92-1.27a9.7 9.7 0 015.47.18c1.66.55 3.41 1.56 5 .89a5.22 5.22 0 002.28-2.59 87.89 87.89 0 004.16-9.11 34.52 34.52 0 011.51-3.54c1.77-3.37 4.83-6 6.35-9.46a2.08 2.08 0 00.14-1.78 2.47 2.47 0 00-1.12-.86 26.73 26.73 0 01-6.09-4.78c-1-1-2.85-3.56-4.29-3.79-1.58-.21-2.07 1.99-3.17 2.93z" fill="#a1616a"/><path d="M169.75 567.79c-1.77.85-3.85.47-5.77.07-4.94-1-9.93-2.08-14.5-4.22a7.76 7.76 0 01-3.56-2.73 8.73 8.73 0 01-1-3.42l-.84-5.67c-.29-2 .22-3.82.26-5.82a1.7 1.7 0 00-.33-1.27 1.37 1.37 0 00-1-.31c-2.29 0-3.67 2.43-5.28 4.06a9.75 9.75 0 01-3.24 2.18c-1.47.6-3.28 1-3.87 2.49-.25.61-.22 1.31-.47 1.92-1 2.44-5.4 1.63-6.51 4-.32.68-.3 1.54-.83 2.08s-1.5.52-2.3.66c-3.18.52-4.73 4.2-7.45 5.93-2.29 1.46-5.24 1.43-7.7 2.57a29.48 29.48 0 01-4 2 18.9 18.9 0 01-4.64.23 1.25 1.25 0 00-.93.3 1.28 1.28 0 00-.15 1 28.07 28.07 0 0017.35 21.73 6.12 6.12 0 011.48.71c1.39 1 1.63 3.27 3.2 4a3.31 3.31 0 003.34-.72 29.05 29.05 0 002.41-2.66 9.6 9.6 0 015.37-2.82c1.89-.3 4-.08 5.53-1.24a17 17 0 001.74-1.86 10.91 10.91 0 014-2.36 40 40 0 0112.5-2.64c4-.23 8.15.14 11.94-1.17a7 7 0 002.66-1.5 8 8 0 001.78-3.09 23.59 23.59 0 00.81-12.43z" fill="#514e7f"/><path d="M150.09 545.32c1.13-.1 2.26 0 3.39 0 1.33 0 2.64-.32 4-.33a9.86 9.86 0 019.3 7.08 1.8 1.8 0 01.06 1 .71.71 0 01-.77.52 16.9 16.9 0 00-1.71-3.43 9.71 9.71 0 00-5.12-3.56 13.29 13.29 0 00-6.3-.23c-.86.16-1.71.39-2.56.63l-4.15 1.12c-.75.2-1.5.41-2.23.68-.56.2-1.53 1-2.08 1-.75 0-.14-.65.19-1.09a5.34 5.34 0 012.66-1.93 22.38 22.38 0 015.32-1.46z" fill="#514e7f"/><path d="M160.37 591.13c1 3.16 2 6.32 3.21 9.4a79.54 79.54 0 008.32 15.16 109.23 109.23 0 006.87 9c3.06 3.61 6.48 7.24 7.56 11.85.63 2.66.42 5.45.68 8.17s1.15 5.61 3.35 7.24a12.45 12.45 0 005.52 1.82c1.38.22 3.11.29 3.83-.91a3.41 3.41 0 00.38-1.58l.33-4c.08-.86.38-2 1.24-2s1.3 1.11 2 1.62a2.17 2.17 0 003-1 5.07 5.07 0 00.08-3.5 16.62 16.62 0 00-8.51-10.58 25.64 25.64 0 01-4.16-2.17 14 14 0 01-3.27-4.12c-7.57-12.45-15.17-25-20.5-38.51a28.49 28.49 0 01-2.11-7.59 49 49 0 01.33-8 45.79 45.79 0 00-1.29-14.3 11.23 11.23 0 00-1.37-3.47c-2.19-3.34-7.36-3.83-10.62-1.53a10.94 10.94 0 00-4.22 7.72c-.24 2.69 1.32 5.5 2.11 8q3.62 11.65 7.24 23.28z" fill="#a1616a"/><path d="M205.96 521.5c.12-1.27-1-2.42-2.31-3.23a32.25 32.25 0 01-3.92-2.4c-1.16-1-1.79-2.31-2.95-3.31a13 13 0 00-4.4-2.19 33.4 33.4 0 00-10.52-1.89 18.53 18.53 0 00-10.07 2.66 6 6 0 00-1.71 1.59 7 7 0 00-.83 2.53 50 50 0 01-2.63 8c-1.13 2.88-2.34 5.86-5 8.08-2.85 2.38-7.22 3.75-9.1 6.62a2.15 2.15 0 00-.41 1.85c.27.72 1.14 1.21 1.93 1.67 4.63 2.66 8.62 6.1 10.68 10.22a11.85 11.85 0 01-.94 12.75c-1.07 1.4-2.55 3.06-1.5 4.47 1.59 2.14 7.08.92 8.34 3.18a4.52 4.52 0 01.17 2.34c0 2.37 2.29 4.49 5.07 5.58a28.27 28.27 0 009.12 1.5 7.88 7.88 0 00.23-5.9 2.36 2.36 0 01-.23-1.34 3.22 3.22 0 011-1.29c3.35-3.16 2.64-7.81.63-11.56s-5.13-7.19-6.29-11.14c-.58-2-.59-4.17 1-5.8a20.2 20.2 0 012.87-2.1 10.91 10.91 0 004-5c.93-2.6.79-5.73 3.53-7.45s6.29-1.16 9.18-2.27c2.33-.93 4.88-4.32 5.06-6.17z" fill="#464353"/><circle cx="291.47" cy="526.89" r="16.63" fill="#fbbebe"/><path d="M306.44 526.19a21.56 21.56 0 0013.8 9.65l-1.25 4.54c-2.16 7.82-4.6 16.1-10.64 21.52a10.06 10.06 0 00-1.69-7.78 29.46 29.46 0 00-5.64-5.9l-9.57-8.33a2.61 2.61 0 01-.72-.8 2.44 2.44 0 010-1.82c1.22-3.8 4.7-6.17 7.52-8.73a26.52 26.52 0 003.79-4.41c1.96-2.7 3.19.03 4.4 2.06z" fill="#fbbebe"/><path d="M308.56 547.7a9 9 0 01-.49 3.67 2.58 2.58 0 01-3 1.54c.35-.79-.57-1.69-1.43-1.59a2.69 2.69 0 00-1.9 1.61 6 6 0 00-.55 3.72c.27 1.58 1.18 3.09.94 4.67-.19 1.31-1.16 2.62-.64 3.85a6.18 6.18 0 001.24 1.48 4.2 4.2 0 01-.45 5.76l13 .25c-.48 2.17.5 4.39 1.61 6.31a39.73 39.73 0 0029.62 19.34 2.58 2.58 0 00-.62 3.94c1.06 1.05 2.84.92 4.16.24a31.58 31.58 0 003.57-2.67 10.91 10.91 0 017.32-2c1.63.15 3.2.67 4.83.76 4.8.26 8.93-3.2 13.52-4.61 3.37-1 7.18-1 10-3.14 1.22-.9 2.22-2.38 1.86-3.86a6.29 6.29 0 00-1.4-2.26c-1.63-2.11-2.58-4.64-3.75-7a41.79 41.79 0 00-9.37-12.54 82.71 82.71 0 00-9.28-7.05 15.71 15.71 0 00-2.52-1.51 25.81 25.81 0 01-3.44-1.4c-1.53-1-2.4-2.65-3.57-4-2.57-3-6.52-4.37-9.69-6.73-2.12-1.58-4-3.66-6.53-4.43-1.23-.37-2.55-.4-3.78-.77-2.8-.85-4.84-3.34-7.59-4.34-2.17-.8-4.57-.59-6.87-.88a16 16 0 01-7.06-2.67 8.49 8.49 0 00-2.28-1.34c-3.47-1-3.75 5.42-4.08 7.66-.52 3.27-1.38 6.62-1.38 9.99z" fill="#3f3d56"/><path d="M311.95 569.41c.58 6.31-4.19 12.43-2.8 18.62.3 1.32.86 2.57 1.07 3.9.58 3.67-1.61 7.14-3.7 10.21l-18 26.34a16 16 0 01-2.56 3.17c-3.44 3.05-8.58 2.73-13.09 3.65a22.41 22.41 0 00-8.77 3.88.57.57 0 00-.11.78 7.52 7.52 0 006.52 3.06c.47.62 0 1.54-.65 2-1 .67-2.29.85-2.48 2.48a2.78 2.78 0 00.32 1.65 5.12 5.12 0 003.15 2.18c6.21 1.9 12.92-1.44 17.57-6s8-10.27 12.56-14.9c2.53-2.56 5.4-4.75 8-7.23 5.19-5 9.23-11 13.13-17a18.92 18.92 0 002.84-5.79c.48-2.05.26-4.23.82-6.26.72-2.67 2.67-4.8 4.3-7 3.19-4.39 5.31-9.75 4.89-15.16s-3.77-10.73-8.86-12.57a7.93 7.93 0 00-5-.3c-2.09.64-3.63 2.37-5.06 4l-3.41 3.94a9.36 9.36 0 00-2 3 3.15 3.15 0 00.7 3.35" fill="#fbbebe"/><path d="M321.03 543.48c-2.36.14-5 .37-6.63 2a9.26 9.26 0 00-1.66 2.62c-1.62 3.29-3.2 6.74-3.31 10.41-.1 2.93.75 5.8 1.2 8.7.37 2.41-.57 4.87-.75 7.31a49.91 49.91 0 009.44-3.63 31.56 31.56 0 015.53-2.87c2.81-.94 7.55.67 10.21 2 .15-1.88-1.26-5.15-1.11-7a7.67 7.67 0 01.42-2.33 13.89 13.89 0 011.41-2.25 9.21 9.21 0 00-.83-10.81c-2.37-2.67-6.09-3.67-9.64-4.09a42.16 42.16 0 00-6.74-.23" fill="#3f3d56"/><path d="M269.56 510.17l-.38-3.13c2.63.67 5.12-1.55 6.8-3.86s3.23-5 5.78-6c3.11-1.17 6.4.7 9.37 2.24a29.33 29.33 0 0010.75 3.56 7.61 7.61 0 011.78.29c1.93.69 2.85 3.11 3.13 5.31s.2 4.54 1.15 6.5c.73 1.48 2 2.59 2.72 4 2 3.93.07 9.31 2.22 13.17l-5.33-4.88c-.49-.45-1.18-.92-1.71-.54s-.46 1-.64 1.47a2.79 2.79 0 01-3.79 1.38 10.39 10.39 0 01-3.39-3.1 20.72 20.72 0 00-8.46-6.41 10.81 10.81 0 00-8.95.53c-2.49 1.41-4.31 4.68-7.36 4.79-4.18.16-5.92-7.62-7.85-10.69a3.79 3.79 0 001.1-4.72c.29-.1 3-.39 3.06.09z" fill="#464353"/><path d="M770.23 840.52c-.81-3.43-1.3-6.43-1.3-6.43a13.32 13.32 0 00-1.49-6.53v-7.84a22.81 22.81 0 011.74-3.61c1.24-2.16 0-10.1 0-10.1s-4.6-11.19-3.49-18.29-9.44-31.53-9.44-31.53a31.15 31.15 0 011-7 5.05 5.05 0 00.13-1.46 1.09 1.09 0 000-.18v.06c-.16-4.68-3.86-13.46-3.86-13.46l.5-16.72s2.36-9.87-1.49-23.11c-1.35-4.62-2.21-8.31-2.76-11.17-.06-.32-.12-.63-.17-.93 7.93-1.21 14-2.22 14-2.22s-4.6-19.25-7.71-22.62-5.59-13.95-5.59-13.95-1.62-13.6 1-17.57 3-10.83 3-10.83 6-4.33 6.71-6.26a31.7 31.7 0 002-8.54c0-2.29-.75-4.33-.5-5.54s-1.74-5.77-.74-7.94a5.81 5.81 0 00.39-2.09.13.13 0 000-.06 29.73 29.73 0 00-.53-5.65 16 16 0 00-5.9-3.16l-.13-.51-.34-1.35a4.56 4.56 0 00-.59-.35v-2.5l.93-4.4c1.84-7.63-8.36-8.77-8.36-8.77a5.38 5.38 0 00-2.89-2.54c-2-.72-.34 11.5.62 12.28.72.58 3 4.42 4 6.3l.18.31a4.06 4.06 0 00-.47.49l.39 2.65.06.41a10.89 10.89 0 00-1.63 2.77s1.87 2.05 1.49 4.34a13.6 13.6 0 00.62 5.29c-.11-.13-1.42-1.55-2.73-1.2s-5 1.44-5 1.44-2.74.48-2.49 1.08-1.86 3.25-1.86 3.25l-7.35-7c-.08-.21-.15-.42-.22-.63a16.8 16.8 0 01-.63-3 16.33 16.33 0 002.34-.75 5.07 5.07 0 002-1.3 7.94 7.94 0 001.18-3.17c.58-2.14 1.83-4.05 2.73-6.08A19.78 19.78 0 00739 562a7.22 7.22 0 00-1.12-3.2c-1.2-1.65-3.38-2.32-5-3.64s-2.6-3.32-4.45-4.31a8.77 8.77 0 00-5.58-.48 29.82 29.82 0 00-10.41 3.78c-1.08.64-2.25 1.37-3.49 1.15a4.71 4.71 0 01-2.51-1.84.49.49 0 010-.11l-.09-.09a13.17 13.17 0 00-1.14 5.5v1.18a2.26 2.26 0 010 .26 1.76 1.76 0 01-.06.39 2.83 2.83 0 01-.68 1 4.43 4.43 0 00-.6.82c0-.1.06-.2.1-.3a4.34 4.34 0 00-.77 2.31 2.3 2.3 0 00.56 1.66 8 8 0 001.19 1 14 14 0 00-.21 2.44 14.22 14.22 0 006.92 12.13l.25.63a17.49 17.49 0 011.33 8c0 .2 0 .39-.09.59l-.26.3s-12.14.12-15-2.47-7.21 6.32-7.21 6.32-4.35.85-5.22 0-6-.12-6-.12a11 11 0 00-7.58-2.76 22.27 22.27 0 00-5.57-3.1l-.14-.05a6.22 6.22 0 00-2.74-.34s-6-4.94-7.7-7.58-10-12.47-10.07-12.52v-.47l-.1-1.43a5.58 5.58 0 01-.74.07c0-.15-.1-.31-.17-.5a27 27 0 00-1.76-4s0-1.8.53-2.25-.22-7.07-.22-7.07-5.38-12.57-10.19-3.19c0 0-9.11 6.07-1.47 13.15 0 0 3 1.47 3.48 2.64.29.76 1.32 2.89 2 4.3l.31.63-.09.07.12 1.18v.46c-1.44.81-2.41 1.62-2.18 2.24a13.16 13.16 0 01.87 3.25s10.57 13.23 11.94 18.89c0 0 28.34 16.84 37.66 18.05l-1.61 8.42a66.59 66.59 0 00-.37 6.86c.12 1.8-1.12 10-1.12 10s-1.62 12-3 13.71-1.12 8.91-1.12 8.91a60.09 60.09 0 01-1.86 10.22c-1.37 4.58-.37 10.23-.37 10.23s-4.73 10.83 6.59 3.49c0 0 5.55-.34 12-.56v3.29c-.08 6.2-.12 14.75.16 21.22.5 11.43 4 34 4 34v11.36a15.89 15.89 0 00-.32 3.25 21.06 21.06 0 003.06 11.38l.87 7.58s2 5 2.08 8a3.93 3.93 0 01-.09.72 5.38 5.38 0 00-.1 1.16c-.11 3.44 2 11.68 2 11.68s.13 8.3 1.37 8.78c1.06.41-1.42 4.79-2.16 6a2 2 0 01-.05-.24c-.09.16-.15.25-.15.25a5.83 5.83 0 00-.39 2.1 3 3 0 001.38 2.92c2.36 1.45 3.63 2.65 1.63 3.13a19.86 19.86 0 00-2.19.46c0-.09-.08-.19-.11-.28A1.34 1.34 0 00705 824a6.15 6.15 0 00.75 2.81 30 30 0 003.36 6.14l1-.11a4.72 4.72 0 01-.56 1 3.87 3.87 0 01-1.4 1.24 4.48 4.48 0 01-1.7.59 4.74 4.74 0 00-3.52 1.71c-1.24 1.6-2 3.79.43 5.71l8.89 3.06s15.29 2 14.48-1.44-1.3-6.43-1.3-6.43a13.57 13.57 0 00-1.25-6.09 6 6 0 00-.54-.9l.54-.06s1.12-7.58 2.61-9c.35-.33.43-.59.34-.79.16-.41-.23-.65-.73-.79l-.11.3a7.5 7.5 0 00-1.48-.16s-.5-4 1.11-5.42a1.53 1.53 0 00.32-1.18 6.8 6.8 0 00-.17-1.62l-.06.1a57.75 57.75 0 00-3.57-9.33s-.12-3.61.87-5.06-.12-19.61-.12-19.61.37-8.78-.75-12.87 1.37-8.91 1.37-8.91v-.32s-.06-.54-.15-1.39v.09c-.25-2.33-.72-6.54-1.07-8.48-.5-2.77.12-16 .12-16l2.24-5.65 4 9.74 4.22 13a11.05 11.05 0 012.15 5.52v.41a6.53 6.53 0 000 .87 7.76 7.76 0 001.29 4.63s1.12 6.14 2.86 7.7 1.74 4.57 1.74 4.57 2.11 8.91 3.11 10.47c.84 1.32.88 4.94.87 6v.33s.29 3.18.28 5.86v1-.07a9.32 9.32 0 01-.26 2.16v-.32a22.26 22.26 0 00-.64 5.55c-.06 3.2.43 7 2.37 9.21 3.36 3.85 5.47 3.37 5.47 3.37s-1.62 4.81-3.61 5.78a1.2 1.2 0 00-.21.13c0-.09 0-.19-.05-.28a2.35 2.35 0 00-.58 1.8 12.88 12.88 0 002.46 7.13 3.94 3.94 0 001.68 1l-.31.19a7 7 0 01-.69.33 3.26 3.26 0 01-1 .26 4.74 4.74 0 00-3.52 1.71c-1.24 1.6-2 3.79.43 5.71l8.89 3.06s15.1 2.04 14.33-1.44z" transform="translate(-51.77 -47.02)" fill="url(#a)"/><path d="M660.06 799.18l-8.61-3.06c-2.37-1.92-1.61-4.11-.41-5.71a4.53 4.53 0 013.4-1.71 4.21 4.21 0 001.65-.59 3.9 3.9 0 001.36-1.24 6.33 6.33 0 001-3.33s9.45-2.76 12 0a7.06 7.06 0 011.15 1.68 14 14 0 011.2 6.09s.48 3 1.26 6.43-14 1.44-14 1.44zm42.11-4.2l-8.6-3.06c-2.38-1.92-1.62-4.11-.42-5.7a4.52 4.52 0 013.41-1.72 3.11 3.11 0 001-.26 5.06 5.06 0 00.66-.33c2.41-1.32 2.35-4.57 2.35-4.57s9.44-2.77 12 0a6.69 6.69 0 01.9 1.23 13.74 13.74 0 011.45 6.54s.48 3 1.26 6.43-14.01 1.44-14.01 1.44z" fill="#2d293d"/><path d="M670.46 783.54a7.06 7.06 0 011.15 1.68l-14.16 1.64a6.33 6.33 0 001-3.33s9.43-2.75 12.01.01zm43.02-3.01v2.65c-2.2 3.63-12.85 2.84-15.94 1a5.06 5.06 0 00.66-.33c2.41-1.32 2.35-4.57 2.35-4.57s9.44-2.77 12 0a6.69 6.69 0 01.93 1.25z" opacity=".1"/><path d="M715.17 769.1a23.62 23.62 0 00-1.69 3.61v9.51c-2.4 4-14.92 2.65-16.6.48s-3.49-7.82-1.57-8.78 3.49-5.78 3.49-5.78-2 .48-5.29-3.37-2.28-12.39-1.68-14.44 0-8.9 0-8.9.12-4.81-.84-6.38-3-10.47-3-10.47 0-3-1.68-4.57-2.77-7.7-2.77-7.7a7.89 7.89 0 01-1.2-5.17c.36-3-2.05-6.26-2.05-6.26l-4.09-13-3.85-9.75-2.16 5.65s-.61 13.24-.12 16 1.2 10.1 1.2 10.1-2.41 4.82-1.32 8.91.72 12.87.72 12.87 1.08 18.17.12 19.62-.84 5-.84 5 4.93 10.59 3.36 12-1.08 5.42-1.08 5.42 3.37 0 1.93 1.44-2.53 9-2.53 9l-14.57 1.84a30.8 30.8 0 01-3.26-6.14c-1.92-4.45.36-4 2.3-4.45s.71-1.68-1.58-3.13-1-4.69-1-4.69 3.49-5.9 2.29-6.38-1.33-8.78-1.33-8.78-2.4-9.87-1.8-12.51-1.93-9-1.93-9l-.84-7.58a20.84 20.84 0 01-2.6-14.34v-11.71s-3.37-22.62-3.86-34c-.3-7.32-.22-17.31-.12-23.55.06-3.49.12-5.81.12-5.81l52-5.41a43.08 43.08 0 00.95 7.72c.53 2.85 1.36 6.55 2.66 11.17 3.73 13.23 1.45 23.1 1.45 23.1l-.48 16.72s4.57 11.19 3.61 15a31.76 31.76 0 00-1 7s10.23 24.43 9.15 31.53 3.38 18.24 3.38 18.24 1.2 8 0 10.12z" fill="#464353"/><path d="M685.45 706.42l15.78-2.11s-8.92 9.14-15.78 2.11z" opacity=".05"/><path d="M698.98 688.85s.55 5.59-2.88 7.7c0 0 6.13-.96 2.88-7.7zm-.97-17.81s-13.22 10.89-18 10 18-10 18-10zm-32.18 40.49s-10 2.29-10.34 6.32 10.34-6.32 10.34-6.32z" opacity=".1"/><path d="M668.04 761.7s-14.19 2.65-10.16 4.46a68.8 68.8 0 0010.65 3.24s4.57.24-.49-7.7zm-13.03 7.28a2.81 2.81 0 01-1.3-2.06l-.14.26s-1.33 3.24 1 4.69c.26.16.51.33.74.49.42-.08.88-.14 1.31-.25 1.9-.44.68-1.65-1.61-3.13zm18.29-.92c.39-.36.37-1.29.14-2.48a6.71 6.71 0 00-.81 3.49 2.67 2.67 0 01.67-1.01zm-2.19-59.86a16.56 16.56 0 00-1 4.42 17.48 17.48 0 011.1-3s.02-.58-.1-1.42zm32.51-6.32a5.72 5.72 0 00.13-1.32c-.18.9-.3 1.74-.39 2.47.08-.38.16-.76.26-1.15zm-32.85 49.1a7.57 7.57 0 00.36-2.67 8.81 8.81 0 00-.69 3.37 3.24 3.24 0 01.33-.7zm2.98 22.68a48.12 48.12 0 00-1.65 7.39l-14.55 1.69a30.14 30.14 0 01-3.26-6.14 10.72 10.72 0 01-.41-1.06c-.87.4-1.22 1.3-.07 4a29.79 29.79 0 003.26 6.13l14.54-1.69s1.09-7.58 2.53-9c.71-.77.26-1.13-.39-1.32zm-19.22-21.61s.12 8.31 1.32 8.79c.61-1.37 1-2.67.47-2.89-1.2-.48-1.32-8.78-1.32-8.78s-2.41-9.87-1.8-12.52-1.93-9-1.93-9l-.84-7.58a20.88 20.88 0 01-2.65-14.32v-11.69s-3.37-22.62-3.85-34.05c-.31-7.32-.22-17.31-.12-23.55v-3h-.41s-.06 2.31-.12 5.81c-.1 6.23-.19 16.23.12 23.55.48 11.43 3.85 34.05 3.85 34.05v11.67a20.81 20.81 0 002.71 14.44l.84 7.58s2.53 6.37 1.92 9 1.81 12.49 1.81 12.49zm42.83 27.44a14 14 0 01-2.3-5.72c-1.49 1.34.22 6.55 1.82 8.61s14.2 3.49 16.61-.49v-2.29c-3.26 3.23-14.53 1.94-16.13-.11zm18.29-13.6a24.05 24.05 0 00-1.68 3.61v1.69c.27-.62.66-1.44 1.2-2.41a7.29 7.29 0 00.53-3zm-17.55 1.9a23.17 23.17 0 001.19-2.86s-2 .48-5.3-3.37c-2.36-2.8-2.49-8.09-2.16-11.55-.6 2.05-1.57 10.59 1.68 14.44 2.13 2.53 3.72 3.18 4.59 3.34zm-6.27-26.68a66.12 66.12 0 01.24 7.13c.08-.47.17-.85.24-1.12.61-2 0-8.9 0-8.9s.12-4.82-.84-6.38-3-10.47-3-10.47 0-3-1.68-4.57-2.77-7.7-2.77-7.7a7.89 7.89 0 01-1.21-5.17c.37-3-2-6.26-2-6.26l-4.09-13-3.9-9.69-2.17 5.65s0 .71-.07 1.83l1.76-4.59 3.85 9.74 4.09 13s2.4 3.25 2 6.25a7.91 7.91 0 001.25 5.12s1.08 6.13 2.76 7.7 1.69 4.57 1.69 4.57 2 8.9 3 10.47.85 6.39.85 6.39z" opacity=".05"/><path d="M701.93 519.73l-.9 4.4.05 2v1.44l-5 .52-.56-1c-1-1.88-3.2-5.71-3.9-6.3-.93-.78-2.58-13-.6-12.27a5.24 5.24 0 012.8 2.53s9.89 1.04 8.11 8.68z" fill="#ffcdd3"/><path d="M701.12 527.52l-5 .52-.56-1a4.42 4.42 0 015.54-.91z" opacity=".1"/><path d="M702.38 529.9l-6.61 1.54-.14-1-.38-2.65a4.55 4.55 0 016.41-.88l.33 1.35z" fill="#dce6f2"/><path d="M595.14 520.21l-7.06 3.8-.64-1.34c-.68-1.41-1.68-3.53-2-4.29-.42-1.17-3.37-2.65-3.37-2.65-7.4-7.07 1.41-13.14 1.41-13.14 4.67-9.39 9.87 3.18 9.87 3.18s.72 6.63.21 7.07-.51 2.26-.51 2.26a27.49 27.49 0 011.71 4c.27.7.38 1.11.38 1.11z" fill="#ffcdd3"/><path d="M595.14 520.21l-7.06 3.8-.64-1.34c1-.83 4.53-3.7 5.69-3.57a8.28 8.28 0 001.68 0c.22.7.33 1.11.33 1.11z" opacity=".1"/><path d="M595.86 522.35l-7.94 3.91-.16-1.71-.11-1.17s4.6-3.95 6-3.8a7.38 7.38 0 002.08 0l.09 1.43z" fill="#dce6f2"/><path d="M682.68 548.91s-34.63 3.91-28.16 1.81c4.51-1.47 6.3-4.33 6.68-7.51a18.29 18.29 0 00-1.29-8 34.77 34.77 0 00-3.1-6.26s26.47-14.56 21.18-1.32a20.76 20.76 0 00-1.5 6.27 17.68 17.68 0 00.67 6.34 18.91 18.91 0 005.52 8.67z" fill="#ffcdd3"/><path d="M677.99 527.62a20.76 20.76 0 00-1.5 6.27c-2.5 2.09-5.23 2-8.74 2-2.7 0-5.69.66-7.84-.64a34.77 34.77 0 00-3.1-6.26s26.47-14.61 21.18-1.37z" opacity=".1"/><circle cx="667.28" cy="522.45" r="14.32" fill="#ffcdd3"/><path d="M682.68 548.91s-34.63 3.91-28.16 1.81c4.51-1.47 6.3-4.33 6.68-7.51 1.72-1.87 5.18-3.22 7.41-3.93a10.33 10.33 0 016.27-.1 8.36 8.36 0 012.28 1 18.91 18.91 0 005.52 8.73zm19.7-19.01l-6.61 1.54-.14-1a5.84 5.84 0 016.36-2.18zm-106.52-7.55l-7.94 3.91-.16-1.71a58.44 58.44 0 018-3.54zm100.52 113.82c-13.41 2.11-32.5 4.87-35.53 3.95-2.51-.77-10.53-.69-17.52-.45.06-3.49.12-5.81.12-5.81l52-5.41a43.08 43.08 0 00.93 7.72z" opacity=".1"/><path d="M709.75 632.98s-44.16 7.58-48.9 6.13-29.07.13-29.07.13c-10.95 7.33-6.37-3.49-6.37-3.49s-1-5.66.36-10.23a62.65 62.65 0 001.8-10.23s-.24-7.22 1.08-8.9 2.89-13.72 2.89-13.72 1.21-8.18 1.09-10 .36-6.85.36-6.85l1.56-8.43c-9-1.2-36.46-18.05-36.46-18.05-1.32-5.65-11.55-18.89-11.55-18.89a13.93 13.93 0 00-.84-3.25c-.72-1.92 10.11-5.77 10.11-5.77s8.06 9.87 9.74 12.51 7.46 7.58 7.46 7.58a5.83 5.83 0 012.65.35h.14a21.34 21.34 0 015.38 3.09 10.43 10.43 0 017.34 2.77s4.94-.72 5.78.12 5 0 5 0 4.22-8.9 7-6.32 14.51 2.47 14.51 2.47c1.57-2.08 5.37-3.57 7.76-4.34a10.33 10.33 0 016.27-.1 7.76 7.76 0 012.48 1.2l7.12 7s2-2.65 1.81-3.25 2.41-1.08 2.41-1.08 3.49-1.08 4.81-1.45 2.54 1.08 2.64 1.2a14.09 14.09 0 01-.6-5.29 6 6 0 00-1.44-4.33c4.25-10.28 13.76-1.58 13.76-1.58s1.08 5.65.12 7.82 1 6.74.72 7.94.48 3.25.48 5.53a32.9 32.9 0 01-1.92 8.55c-.73 1.92-6.5 6.25-6.5 6.25s-.36 6.86-2.89 10.83-1 17.57-1 17.57 2.4 10.59 5.41 14 7.5 22.51 7.5 22.51z" fill="#3f3d56"/><path d="M645.38 553.85s-1.32-4-2.53-4.34a28.49 28.49 0 01-3.49-1.56l.78-1.48s4.52 1.24 5.24 2.56 0 4.82 0 4.82zm-24.15-8.79c-.24 1.21-10.94 2.29-10.94 2.29l5.41-5.43.14.05a21.34 21.34 0 015.39 3.09z" opacity=".1"/><circle cx="590.21" cy="528.55" r=".96" fill="#575988"/><circle cx="591.44" cy="530.48" r=".96" fill="#575988"/><circle cx="592.65" cy="532.25" r=".96" fill="#575988"/><circle cx="593.91" cy="534.18" r=".96" fill="#575988"/><circle cx="707.33" cy="534.07" r=".78" fill="#575988"/><circle cx="707.45" cy="535.85" r=".78" fill="#575988"/><circle cx="707.55" cy="537.62" r=".78" fill="#575988"/><path d="M645.44 586.45c-.11-.14 27 34.11 48.07 14.32 0 0-33.28 4.51-48.07-14.32zm-15.58 17.81s16.23.44 17.93 5.11v4.86a3.11 3.11 0 01-3 0c-1.64-.88-11.45-5.87-14.91-3.47z" opacity=".1"/><path d="M630.16 604.26s15.52.42 17.15 4.87v4.64a3 3 0 01-2.89 0c-1.57-.85-11-5.6-14.26-3.31z" fill="#3f3d56"/><path d="M638.72 568.98a52.28 52.28 0 006.29 10.79 42.15 42.15 0 009.86 9.52s-15.88-18.04-16.15-20.31zm-5.31-18.82s2.71 11.69 9.68 15.66zm-4.18 1.18c-.07-.22-2.41 9.24 9 14.48 0 0-4.82-1.64-9-14.48zm70.9-7.84c-.18 0 5.62 3.7 7.2 5.41 0 0-3.77-5.65-7.2-5.41z" opacity=".1"/><path d="M663.41 535.42a3.05 3.05 0 001.11 1.94 3.13 3.13 0 001.35.3c4.37.27 8.91.46 13-1.22a4.84 4.84 0 002-1.31 7.79 7.79 0 001.06-3.15c.57-2.14 1.78-4 2.65-6.08a20.43 20.43 0 001.41-10.92 7.31 7.31 0 00-1.09-3.2c-1.16-1.65-3.27-2.32-4.8-3.64s-2.52-3.33-4.3-4.32a8.36 8.36 0 00-5.4-.48 28.53 28.53 0 00-10.08 3.79c-1 .64-2.18 1.37-3.37 1.15a4.63 4.63 0 01-2.48-1.9 13.32 13.32 0 00-1.07 6.23 3 3 0 010 .94 3 3 0 01-.67 1c-1.08 1.25-1.75 3.23-.69 4.49.47.55 1.18.85 1.63 1.41.81 1 .53 2.45.51 3.74a2 2 0 00.32 1.27 1.86 1.86 0 001.77.42 4.84 4.84 0 011.88-.18 3.17 3.17 0 011.64 1.26c1.98 2.56 2.77 5.37 3.62 8.46z" fill="#2d293d"/><path d="M681.23 534.03a4.73 4.73 0 01-2 1.3c-4 1.69-8.58 1.49-12.94 1.22a2.94 2.94 0 01-1.35-.3 3 3 0 01-1.12-1.93c-.85-3.09-1.63-5.91-3.65-8.47a3.12 3.12 0 00-1.64-1.26 4.84 4.84 0 00-1.88.18 1.86 1.86 0 01-1.77-.42 1.94 1.94 0 01-.31-1.27c0-1.29.29-2.74-.52-3.74-.45-.56-1.16-.86-1.63-1.41a2.82 2.82 0 01-.27-2.88c-.77 1.22-1.1 2.78-.21 3.84.47.55 1.18.85 1.63 1.41.81 1 .53 2.45.51 3.74a2 2 0 00.32 1.27 1.85 1.85 0 001.77.42 4.84 4.84 0 011.88-.18 3.17 3.17 0 011.64 1.26c2 2.57 2.8 5.38 3.65 8.47a3.05 3.05 0 001.11 1.94 3.13 3.13 0 001.35.3c4.37.27 8.91.46 13-1.22a4.91 4.91 0 002-1.31 3.81 3.81 0 00.62-1.16c-.06.07-.1.15-.19.2zm-27.82-20.86a2 2 0 00.44-.73 3 3 0 000-.94 13.2 13.2 0 01.67-5.18l-.08-.09a13.2 13.2 0 00-1.07 6.23 4.21 4.21 0 01.04.71zm7.44 30.93s17.89 2.37 19.5-.32m15.28-7.08s9.93 0 12.12 3.74" opacity=".1"/></svg>