<svg data-name="Layer 1" xmlns="http://www.w3.org/2000/svg" width="1042.039" height="709.089" viewBox="0 0 1042.039 709.089"><path fill="#3f3d56" d="M0 0h875v470.679H0z"/><path fill="#fb8e62" d="M158.179 66.358h7.716v12.346h-7.716zm26.235-3.086h7.716v12.346h-7.716zm13.888 0h7.716v12.346h-7.716zm0 37.037h7.716v12.346h-7.716zm15.433-18.519h7.716v12.346h-7.716zm0 20.062h7.716v12.346h-7.716zm-15.433 38.58h7.716v12.346h-7.716zm15.433 20.062h7.716v12.346h-7.716zm-15.433 75.617h7.716v12.346h-7.716zm-13.888-75.617h7.716v12.346h-7.716zM158.179 86.42h7.716v12.346h-7.716zm0 192.901h7.716v12.346h-7.716zm0 40.123h7.716v12.346h-7.716zm0 20.062h7.716v12.346h-7.716zm-3.086-231.481h10.802v1.543h-10.802zm41.666 18.518h10.802v1.543h-10.802zm-41.666 80.247h10.802v1.543h-10.802zm0 16.975h10.802v1.543h-10.802zm41.666 98.766h10.802v1.543h-10.802zm-12.345 37.037h10.802v1.543h-10.802zm-26.235-237.654V125h3.086v6.173h-3.086v3.086h7.716v-12.345h-7.716zm26.235-21.605v3.086h3.086v6.173h-3.086v3.086h7.716v-12.345h-7.716zm29.321 20.061v3.087h3.086v6.173h-3.086v3.086h7.716V120.37h-7.716zm0 60.186v3.086h3.086v6.173h-3.086v3.086h7.716v-12.345h-7.716zm0 20.061v3.087h3.086v6.173h-3.086v3.086h7.716v-12.346h-7.716zm0-61.728v3.086h3.086v6.173h-3.086v3.087h7.716v-12.346h-7.716zM198.302 81.79v3.087h3.087v6.172h-3.087v3.087h7.717V81.79h-7.717zm0 98.766h7.716v12.346h-7.716zm0 37.037h7.716v12.346h-7.716zm0-18.519v3.086h3.087v6.173h-3.087v3.087h7.717v-12.346h-7.717zm-13.888-78.704v3.087h3.086v6.173h-3.086v3.086h7.716V120.37h-7.716zm0 20.062v3.087h3.086v6.172h-3.086v3.087h7.716v-12.346h-7.716zm0 60.185h7.716v12.346h-7.716zm0-20.061v3.086h3.086v6.173h-3.086v3.086h7.716v-12.345h-7.716zm0 60.185h7.716v12.346h-7.716zm0-20.062v3.086h3.086v6.173h-3.086v3.087h7.716v-12.346h-7.716zm0 60.185h7.716v12.346h-7.716zm13.888-3.086h7.716v12.346h-7.716zm-13.888-16.976v3.087h3.086v6.173h-3.086v3.086h7.716v-12.346h-7.716zm29.321 0v3.087h3.086v6.173h-3.086v3.086h7.716v-12.346h-7.716zM292.438 81.79h7.716v12.346h-7.716zm0 20.062h7.716v12.346h-7.716zm0 58.642h7.716v12.346h-7.716zm0-40.124v3.087h3.087v6.173h-3.087v3.086h7.716V120.37h-7.716zm0 60.186v3.086h3.087v6.173h-3.087v3.086h7.716v-12.345h-7.716zm0 20.061v3.087h3.087v6.173h-3.087v3.086h7.716v-12.346h-7.716zm0-61.728v3.086h3.087v6.173h-3.087v3.087h7.716v-12.346h-7.716zm0 121.913v3.087h3.087v6.173h-3.087v3.086h7.716v-12.346h-7.716zm-108.024 60.186h7.716v12.346h-7.716zm13.888-23.148h7.716v12.346h-7.716zm-13.888 75.617h7.716v12.346h-7.716zm13.888-37.037h7.716v12.346h-7.716zm-13.888-35.494v3.086h3.086v6.173h-3.086v3.087h7.716v-12.346h-7.716zm0 94.136v3.086h3.086v6.173h-3.086v3.086h7.716v-12.345h-7.716zm84.876-331.79h7.716v12.346h-7.716zm0 97.222h7.716v12.346h-7.716zm0 199.074h10.802v1.543H269.29zm0-259.259v3.086h3.087v6.173h-3.087v3.086h7.716v-12.345h-7.716zm0 20.061v3.087h3.087v6.173h-3.087v3.086h7.716V120.37h-7.716zm0 20.062v3.087h3.087v6.172h-3.087v3.087h7.716v-12.346h-7.716zm0 60.185h7.716v12.346h-7.716zm0-20.061v3.086h3.087v6.173h-3.087v3.086h7.716v-12.345h-7.716zm0 60.185h7.716v12.346h-7.716zm0-20.062v3.086h3.087v6.173h-3.087v3.087h7.716v-12.346h-7.716zm0 60.185h7.716v12.346h-7.716zm0-20.062v3.087h3.087v6.173h-3.087v3.086h7.716v-12.346h-7.716zm0 60.186h7.716v12.346h-7.716zm0 52.469h7.716v12.346h-7.716zm0-72.531v3.086h3.087v6.173h-3.087v3.087h7.716v-12.346h-7.716zm0 94.136v3.086h3.087v6.173h-3.087v3.086h7.716v-12.345h-7.716zm37.037-331.79h7.716v12.346h-7.716zm0 97.222h7.716v12.346h-7.716zm0 199.074h10.802v1.543h-10.802zm0-259.259v3.086h3.087v6.173h-3.087v3.086h7.716v-12.345h-7.716zm0 20.061v3.087h3.087v6.173h-3.087v3.086h7.716V120.37h-7.716zm0 20.062v3.087h3.087v6.172h-3.087v3.087h7.716v-12.346h-7.716zm0 60.185h7.716v12.346h-7.716zm0-20.061v3.086h3.087v6.173h-3.087v3.086h7.716v-12.345h-7.716zm0 60.185h7.716v12.346h-7.716zm0-20.062v3.086h3.087v6.173h-3.087v3.087h7.716v-12.346h-7.716zm0 60.185h7.716v12.346h-7.716zm0-20.062v3.087h3.087v6.173h-3.087v3.086h7.716v-12.346h-7.716zm0 60.186h7.716v12.346h-7.716zm0 52.469h7.716v12.346h-7.716zm0-72.531v3.086h3.087v6.173h-3.087v3.087h7.716v-12.346h-7.716zm0 94.136v3.086h3.087v6.173h-3.087v3.086h7.716v-12.345h-7.716zm-108.025-21.605v3.086h3.087v6.173h-3.087v3.086h7.717v-12.345h-7.717zm0 20.062v3.086h3.087v6.173h-3.087v3.086h7.717v-12.345h-7.717zm-40.123-233.025v3.086h3.086v6.173h-3.086v3.087h7.716v-12.346h-7.716zm0 78.704v3.086h3.086v6.173h-3.086v3.086h7.716v-12.345h-7.716zm0 20.061v3.087h3.086v6.173h-3.086v3.086h7.716v-12.346h-7.716zm0 40.124v3.086h3.086v6.173h-3.086v3.086h7.716v-12.345h-7.716zm0 57.098v3.087h3.086v6.173h-3.086v3.086h7.716v-12.346h-7.716zm0 16.976v3.086h3.086v6.173h-3.086v3.086h7.716v-12.345h-7.716zm80.247-307.099h7.716v12.346h-7.716zm0 20.062h7.716v12.346h-7.716zm-3.086 21.605h10.802v1.543H235.34zm0 98.765h10.802v1.543H235.34zm0 16.975h10.802v1.543H235.34zm3.086-101.851V125h3.086v6.173h-3.086v3.086h7.716v-12.345h-7.716zm0 38.58v3.086h3.086v6.173h-3.086v3.087h7.716v-12.346h-7.716zm0 78.704v3.086h3.086v6.173h-3.086v3.086h7.716v-12.345h-7.716zm87.963-38.581h7.716v12.346h-7.716zm0 20.062h7.716v12.346h-7.716zm-3.087 21.605h10.802v1.543h-10.802zm0 98.765h10.802v1.543h-10.802zm0 16.976h10.802v1.543h-10.802zm3.087-101.852v3.086h3.086v6.173h-3.086v3.087h7.716v-12.346h-7.716zm0 38.58v3.087h3.086v6.172h-3.086v3.087h7.716v-12.346h-7.716zm0 78.704v3.086h3.086v6.173h-3.086v3.086h7.716v-12.345h-7.716zM351.08 66.358h7.716v12.346h-7.716zm26.235-3.086h7.716v12.346h-7.716zm13.889 0h7.716v12.346h-7.716zm0 37.037h7.716v12.346h-7.716zm15.432-18.519h7.716v12.346h-7.716zm0 20.062h7.716v12.346h-7.716zm-15.432 38.58h7.716v12.346h-7.716zm15.432 20.062h7.716v12.346h-7.716zm-15.432 75.617h7.716v12.346h-7.716zm-13.889-75.617h7.716v12.346h-7.716zM351.08 86.42h7.716v12.346h-7.716zm0 192.901h7.716v12.346h-7.716zm0 40.123h7.716v12.346h-7.716zm0 20.062h7.716v12.346h-7.716zm-3.086-231.481h10.802v1.543h-10.802zm41.666 18.518h10.802v1.543H389.66zm-41.666 80.247h10.802v1.543h-10.802zm0 16.975h10.802v1.543h-10.802zm41.666 98.766h10.802v1.543H389.66zm-12.345 37.037h10.802v1.543h-10.802zM351.08 121.914V125h3.087v6.173h-3.087v3.086h7.716v-12.345h-7.716zm26.235-21.605v3.086h3.086v6.173h-3.086v3.086h7.716v-12.345h-7.716zm29.321 20.061v3.087h3.086v6.173h-3.086v3.086h7.716V120.37h-7.716zm0 60.186v3.086h3.086v6.173h-3.086v3.086h7.716v-12.345h-7.716zm0 20.061v3.087h3.086v6.173h-3.086v3.086h7.716v-12.346h-7.716zm0-61.728v3.086h3.086v6.173h-3.086v3.087h7.716v-12.346h-7.716zM391.204 81.79v3.087h3.086v6.172h-3.086v3.087h7.716V81.79h-7.716zm0 98.766h7.716v12.346h-7.716zm0 37.037h7.716v12.346h-7.716zm0-18.519v3.086h3.086v6.173h-3.086v3.087h7.716v-12.346h-7.716zm-13.889-78.704v3.087h3.086v6.173h-3.086v3.086h7.716V120.37h-7.716zm0 20.062v3.087h3.086v6.172h-3.086v3.087h7.716v-12.346h-7.716zm0 60.185h7.716v12.346h-7.716zm0-20.061v3.086h3.086v6.173h-3.086v3.086h7.716v-12.345h-7.716zm0 60.185h7.716v12.346h-7.716zm0-20.062v3.086h3.086v6.173h-3.086v3.087h7.716v-12.346h-7.716zm0 60.185h7.716v12.346h-7.716zm13.889-3.086h7.716v12.346h-7.716zm-13.889-16.976v3.087h3.086v6.173h-3.086v3.086h7.716v-12.346h-7.716zm29.321 0v3.087h3.086v6.173h-3.086v3.086h7.716v-12.346h-7.716zM485.34 81.79h7.716v12.346h-7.716zm0 20.062h7.716v12.346h-7.716zm0 58.642h7.716v12.346h-7.716zm0-40.124v3.087h3.086v6.173h-3.086v3.086h7.716V120.37h-7.716zm0 60.186v3.086h3.086v6.173h-3.086v3.086h7.716v-12.345h-7.716zm0 20.061v3.087h3.086v6.173h-3.086v3.086h7.716v-12.346h-7.716zm0-61.728v3.086h3.086v6.173h-3.086v3.087h7.716v-12.346h-7.716zm0 121.913v3.087h3.086v6.173h-3.086v3.086h7.716v-12.346h-7.716zm-108.025 60.186h7.716v12.346h-7.716zm13.889-23.148h7.716v12.346h-7.716zm-13.889 75.617h7.716v12.346h-7.716zm13.889-37.037h7.716v12.346h-7.716zm-13.889-35.494v3.086h3.086v6.173h-3.086v3.087h7.716v-12.346h-7.716zm0 94.136v3.086h3.086v6.173h-3.086v3.086h7.716v-12.345h-7.716zm84.876-331.79h7.716v12.346h-7.716zm0 97.222h7.716v12.346h-7.716zm0 199.074h10.802v1.543h-10.802zm0-259.259v3.086h3.087v6.173h-3.087v3.086h7.716v-12.345h-7.716zm0 20.061v3.087h3.087v6.173h-3.087v3.086h7.716V120.37h-7.716zm0 20.062v3.087h3.087v6.172h-3.087v3.087h7.716v-12.346h-7.716zm0 60.185h7.716v12.346h-7.716zm0-20.061v3.086h3.087v6.173h-3.087v3.086h7.716v-12.345h-7.716zm0 60.185h7.716v12.346h-7.716zm0-20.062v3.086h3.087v6.173h-3.087v3.087h7.716v-12.346h-7.716zm0 60.185h7.716v12.346h-7.716zm0-20.062v3.087h3.087v6.173h-3.087v3.086h7.716v-12.346h-7.716zm0 60.186h7.716v12.346h-7.716zm0 52.469h7.716v12.346h-7.716zm0-72.531v3.086h3.087v6.173h-3.087v3.087h7.716v-12.346h-7.716zm0 94.136v3.086h3.087v6.173h-3.087v3.086h7.716v-12.345h-7.716zm37.037-331.79h7.716v12.346h-7.716zm0 97.222h7.716v12.346h-7.716zm0 199.074h10.802v1.543h-10.802zm0-259.259v3.086h3.087v6.173h-3.087v3.086h7.716v-12.345h-7.716zm0 20.061v3.087h3.087v6.173h-3.087v3.086h7.716V120.37h-7.716zm0 20.062v3.087h3.087v6.172h-3.087v3.087h7.716v-12.346h-7.716zm0 60.185h7.716v12.346h-7.716zm0-20.061v3.086h3.087v6.173h-3.087v3.086h7.716v-12.345h-7.716zm0 60.185h7.716v12.346h-7.716zm0-20.062v3.086h3.087v6.173h-3.087v3.087h7.716v-12.346h-7.716zm0 60.185h7.716v12.346h-7.716zm0-20.062v3.087h3.087v6.173h-3.087v3.086h7.716v-12.346h-7.716zm0 60.186h7.716v12.346h-7.716zm0 52.469h7.716v12.346h-7.716zm0-72.531v3.086h3.087v6.173h-3.087v3.087h7.716v-12.346h-7.716zm0 94.136v3.086h3.087v6.173h-3.087v3.086h7.716v-12.345h-7.716zm-108.024-21.605v3.086h3.086v6.173h-3.086v3.086h7.716v-12.345h-7.716zm0 20.062v3.086h3.086v6.173h-3.086v3.086h7.716v-12.345h-7.716zM351.08 160.494v3.086h3.087v6.173h-3.087v3.087h7.716v-12.346h-7.716zm0 78.704v3.086h3.087v6.173h-3.087v3.086h7.716v-12.345h-7.716zm0 20.061v3.087h3.087v6.173h-3.087v3.086h7.716v-12.346h-7.716zm0 40.124v3.086h3.087v6.173h-3.087v3.086h7.716v-12.345h-7.716zm0 57.098v3.087h3.087v6.173h-3.087v3.086h7.716v-12.346h-7.716zm0 16.976v3.086h3.087v6.173h-3.087v3.086h7.716v-12.345h-7.716zm80.247-307.099h7.716v12.346h-7.716zm0 20.062h7.716v12.346h-7.716zm-3.086 21.605h10.802v1.543h-10.802zm0 98.765h10.802v1.543h-10.802zm0 16.975h10.802v1.543h-10.802zm3.086-101.851V125h3.087v6.173h-3.087v3.086h7.716v-12.345h-7.716zm0 38.58v3.086h3.087v6.173h-3.087v3.087h7.716v-12.346h-7.716zm0 78.704v3.086h3.087v6.173h-3.087v3.086h7.716v-12.345h-7.716zm87.963-38.581h7.716v12.346h-7.716zm0 20.062h7.716v12.346h-7.716zm-3.086 21.605h10.802v1.543h-10.802zm0 98.765h10.802v1.543h-10.802zm0 16.976h10.802v1.543h-10.802zm3.086-101.852v3.086h3.087v6.173h-3.087v3.087h7.716v-12.346h-7.716zm0 38.58v3.087h3.087v6.172h-3.087v3.087h7.716v-12.346h-7.716zm0 78.704v3.086h3.087v6.173h-3.087v3.086h7.716v-12.345h-7.716zm24.691-307.099h7.716v12.346h-7.716zm26.235-3.086h7.716v12.346h-7.716zm13.889 0h7.716v12.346h-7.716zm0 37.037h7.716v12.346h-7.716zm15.432-18.519h7.716v12.346h-7.716zm0 20.062h7.716v12.346h-7.716zm-15.432 38.58h7.716v12.346h-7.716zm15.432 20.062h7.716v12.346h-7.716zm-15.432 75.617h7.716v12.346h-7.716zm-13.889-75.617h7.716v12.346h-7.716zM543.981 86.42h7.716v12.346h-7.716zm0 192.901h7.716v12.346h-7.716zm0 40.123h7.716v12.346h-7.716zm0 20.062h7.716v12.346h-7.716zm-3.086-231.481h10.802v1.543h-10.802zm41.667 18.518h10.802v1.543h-10.802zm-41.667 80.247h10.802v1.543h-10.802zm0 16.975h10.802v1.543h-10.802zm41.667 98.766h10.802v1.543h-10.802zm-12.346 37.037h10.802v1.543h-10.802zm-26.235-237.654V125h3.087v6.173h-3.087v3.086h7.717v-12.345h-7.717zm26.235-21.605v3.086h3.086v6.173h-3.086v3.086h7.716v-12.345h-7.716zm29.321 20.061v3.087h3.086v6.173h-3.086v3.086h7.716V120.37h-7.716zm0 60.186v3.086h3.086v6.173h-3.086v3.086h7.716v-12.345h-7.716zm0 20.061v3.087h3.086v6.173h-3.086v3.086h7.716v-12.346h-7.716zm0-61.728v3.086h3.086v6.173h-3.086v3.087h7.716v-12.346h-7.716zM584.105 81.79v3.087h3.086v6.172h-3.086v3.087h7.716V81.79h-7.716zm0 98.766h7.716v12.346h-7.716zm0 37.037h7.716v12.346h-7.716zm0-18.519v3.086h3.086v6.173h-3.086v3.087h7.716v-12.346h-7.716zm-13.889-78.704v3.087h3.086v6.173h-3.086v3.086h7.716V120.37h-7.716zm0 20.062v3.087h3.086v6.172h-3.086v3.087h7.716v-12.346h-7.716zm0 60.185h7.716v12.346h-7.716zm0-20.061v3.086h3.086v6.173h-3.086v3.086h7.716v-12.345h-7.716zm0 60.185h7.716v12.346h-7.716zm0-20.062v3.086h3.086v6.173h-3.086v3.087h7.716v-12.346h-7.716zm0 60.185h7.716v12.346h-7.716zm13.889-3.086h7.716v12.346h-7.716zm-13.889-16.976v3.087h3.086v6.173h-3.086v3.086h7.716v-12.346h-7.716zm29.321 0v3.087h3.086v6.173h-3.086v3.086h7.716v-12.346h-7.716zM678.241 81.79h7.716v12.346h-7.716zm0 20.062h7.716v12.346h-7.716zm0 58.642h7.716v12.346h-7.716zm0-40.124v3.087h3.086v6.173h-3.086v3.086h7.716V120.37h-7.716zm0 60.186v3.086h3.086v6.173h-3.086v3.086h7.716v-12.345h-7.716zm0 20.061v3.087h3.086v6.173h-3.086v3.086h7.716v-12.346h-7.716zm0-61.728v3.086h3.086v6.173h-3.086v3.087h7.716v-12.346h-7.716zm0 121.913v3.087h3.086v6.173h-3.086v3.086h7.716v-12.346h-7.716zm-108.025 60.186h7.716v12.346h-7.716zm13.889-23.148h7.716v12.346h-7.716zm-13.889 75.617h7.716v12.346h-7.716zm13.889-37.037h7.716v12.346h-7.716zm-13.889-35.494v3.086h3.086v6.173h-3.086v3.087h7.716v-12.346h-7.716zm0 94.136v3.086h3.086v6.173h-3.086v3.086h7.716v-12.345h-7.716zm84.877-331.79h7.716v12.346h-7.716zm0 97.222h7.716v12.346h-7.716zm0 199.074h10.802v1.543h-10.802zm0-259.259v3.086h3.086v6.173h-3.086v3.086h7.716v-12.345h-7.716zm0 20.061v3.087h3.086v6.173h-3.086v3.086h7.716V120.37h-7.716zm0 20.062v3.087h3.086v6.172h-3.086v3.087h7.716v-12.346h-7.716zm0 60.185h7.716v12.346h-7.716zm0-20.061v3.086h3.086v6.173h-3.086v3.086h7.716v-12.345h-7.716zm0 60.185h7.716v12.346h-7.716zm0-20.062v3.086h3.086v6.173h-3.086v3.087h7.716v-12.346h-7.716zm0 60.185h7.716v12.346h-7.716zm0-20.062v3.087h3.086v6.173h-3.086v3.086h7.716v-12.346h-7.716zm0 60.186h7.716v12.346h-7.716zm0 52.469h7.716v12.346h-7.716zm0-72.531v3.086h3.086v6.173h-3.086v3.087h7.716v-12.346h-7.716zm0 94.136v3.086h3.086v6.173h-3.086v3.086h7.716v-12.345h-7.716zm37.037-331.79h7.716v12.346h-7.716zm0 97.222h7.716v12.346h-7.716zm0 199.074h10.802v1.543H692.13zm0-259.259v3.086h3.086v6.173h-3.086v3.086h7.716v-12.345h-7.716zm0 20.061v3.087h3.086v6.173h-3.086v3.086h7.716V120.37h-7.716zm0 20.062v3.087h3.086v6.172h-3.086v3.087h7.716v-12.346h-7.716zm0 60.185h7.716v12.346h-7.716zm0-20.061v3.086h3.086v6.173h-3.086v3.086h7.716v-12.345h-7.716zm0 60.185h7.716v12.346h-7.716zm0-20.062v3.086h3.086v6.173h-3.086v3.087h7.716v-12.346h-7.716zm0 60.185h7.716v12.346h-7.716zm0-20.062v3.087h3.086v6.173h-3.086v3.086h7.716v-12.346h-7.716zm0 60.186h7.716v12.346h-7.716zm0 52.469h7.716v12.346h-7.716zm0-72.531v3.086h3.086v6.173h-3.086v3.087h7.716v-12.346h-7.716zm0 94.136v3.086h3.086v6.173h-3.086v3.086h7.716v-12.345h-7.716zm-108.025-21.605v3.086h3.086v6.173h-3.086v3.086h7.716v-12.345h-7.716zm0 20.062v3.086h3.086v6.173h-3.086v3.086h7.716v-12.345h-7.716zm-40.124-233.025v3.086h3.087v6.173h-3.087v3.087h7.717v-12.346h-7.717zm0 78.704v3.086h3.087v6.173h-3.087v3.086h7.717v-12.345h-7.717zm0 20.061v3.087h3.087v6.173h-3.087v3.086h7.717v-12.346h-7.717zm0 40.124v3.086h3.087v6.173h-3.087v3.086h7.717v-12.345h-7.717zm0 57.098v3.087h3.087v6.173h-3.087v3.086h7.717v-12.346h-7.717zm0 16.976v3.086h3.087v6.173h-3.087v3.086h7.717v-12.345h-7.717zm80.247-307.099h7.716v12.346h-7.716zm0 20.062h7.716v12.346h-7.716zm-3.086 21.605h10.802v1.543h-10.802zm0 98.765h10.802v1.543h-10.802zm0 16.975h10.802v1.543h-10.802zm3.086-101.851V125h3.087v6.173h-3.087v3.086h7.716v-12.345h-7.716zm0 38.58v3.086h3.087v6.173h-3.087v3.087h7.716v-12.346h-7.716zm0 78.704v3.086h3.087v6.173h-3.087v3.086h7.716v-12.345h-7.716zm87.963-38.581h7.716v12.346h-7.716zm0 20.062h7.716v12.346h-7.716zm-3.086 21.605h10.802v1.543h-10.802zm0 98.765h10.802v1.543h-10.802zm0 16.976h10.802v1.543h-10.802zm3.086-101.852v3.086h3.087v6.173h-3.087v3.087h7.716v-12.346h-7.716zm0 38.58v3.087h3.087v6.172h-3.087v3.087h7.716v-12.346h-7.716zm0 78.704v3.086h3.087v6.173h-3.087v3.086h7.716v-12.345h-7.716z"/><path fill="#2f2e41" d="M214.435 706.534h827.604v2.554H214.435zM385.5 404.34v52l7 32s-1 20 0 26-1 16-7 16-9 15-9 15-2 6-7 7-5 0-5 0l-4 10-83 55 16 40s25-9 27-12 19 4 19-3 3-25 9-26 56-24 56-24 26-29 28-40 11-42 11-42l25 42v84l-4 45 44-6s-4-28 0-32 10-52 6-58 2-33 0-37-1-33-6-41-35-90-35-90z"/><path d="M470.5 679.34s-15 25-5 28 29 0 31 0 38 1 38 1 24-5 24-12-15-7-20-8-36-13-36-13zm-188.407-60.872s-28.903-3.828-27.681 6.54 11.527 26.612 12.321 28.447c.539 1.243 6.855 16.978 10.876 27.006a58.476 58.476 0 0012.835 19.652c3.931 3.929 8.216 7.08 11.026 5.862 6.424-2.782.462-16.547-.608-21.532s-2.38-38.202-2.38-38.202z" fill="#2f2e41"/><path d="M483 238.84l32-74s-3-7-10-6c0 0-9.5-24.5-27.5-24.5 0 0-27-15-35 0 0 0-17 15-16 29s2 24 2 24-16 2-13 10 4 8 0 11l-4 3s-83 75-37 185l4 17v16s101 1 101 0-2-7 2-11 4-10 4-10-4-20-2-26 3-32-1-38-2-54-2-54l9-17-3-10-3-10z" fill="#8985a8"/><path d="M474.5 439.34s-12-33-11-39-2-18-2-18l-4-81s17-72-21-84c0 0-9.615 4.195-17.494 17.697-7.79 3.47-17.244 12.252-19.506 34.303-4 39 14 139 23 156s15 29 15 29l9.406-4.181c.389.77.594 1.18.594 1.18z" opacity=".1"/><circle cx="480" cy="226.84" r="3" fill="#f2f2f2"/><path fill="#3f3d56" d="M479 226.84h2v47h-2z"/><path d="M444 442.84l8 17s18-6 18-9-8-16-8-16z" fill="#ffb8b8"/><path d="M432.5 217.34s-23 10-27 49 14 139 23 156 15 29 15 29l27-12s-12-33-11-39-2-18-2-18l-4-81s17-72-21-84z" fill="#8985a8"/></svg>