<svg data-name="Layer 1" xmlns="http://www.w3.org/2000/svg" xmlns:xlink="http://www.w3.org/1999/xlink" width="904" height="754.77" viewBox="0 0 904 754.77"><defs><linearGradient id="a" x1="205.5" y1="458.72" x2="205.5" gradientUnits="userSpaceOnUse"><stop offset="0" stop-color="gray" stop-opacity=".25"/><stop offset=".54" stop-color="gray" stop-opacity=".12"/><stop offset="1" stop-color="gray" stop-opacity=".1"/></linearGradient><linearGradient id="b" x1="347.94" y1="120.14" x2="347.94" y2="40.02" xlink:href="#a"/><linearGradient id="c" x1="347.94" y1="269.14" x2="347.94" y2="189.02" xlink:href="#a"/><linearGradient id="d" x1="347.94" y1="417.14" x2="347.94" y2="337.02" xlink:href="#a"/><linearGradient id="e" x1="660.91" y1="754.77" x2="660.91" y2="737.77" xlink:href="#a"/><linearGradient id="f" x1="810" y1="732" x2="810" y2="417" xlink:href="#a"/></defs><path fill="url(#a)" d="M0 0h411v458.72H0z"/><path fill="#fff" d="M6.79 306.27H404.2v142.46H6.79z"/><path fill="#64ffda" d="M39.41 340.06h15.4v73h-15.4z"/><path fill="#64ffda" d="M69.81 340.06h15.4v73h-15.4z" opacity=".7"/><path fill="#64ffda" d="M100.22 340.06h15.4v73h-15.4z" opacity=".6"/><path fill="#64ffda" d="M130.62 340.06h15.4v73h-15.4zm30.4 0h15.4v73h-15.4z" opacity=".5"/><path fill="#64ffda" d="M191.42 340.06h15.4v73h-15.4z" opacity=".4"/><path fill="#64ffda" d="M221.83 340.06h15.4v73h-15.4z" opacity=".3"/><circle cx="347.94" cy="376.09" r="37.16" fill="#fb8e62"/><path fill="#fff" d="M6.79 158.26H404.2v142.46H6.79z"/><path fill="#64ffda" d="M39.41 192.05h15.4v73h-15.4z"/><path fill="#64ffda" d="M69.81 192.05h15.4v73h-15.4z" opacity=".7"/><path fill="#64ffda" d="M100.22 192.05h15.4v73h-15.4z" opacity=".6"/><path fill="#64ffda" d="M130.62 192.05h15.4v73h-15.4zm30.4 0h15.4v73h-15.4z" opacity=".5"/><path fill="#64ffda" d="M191.42 192.05h15.4v73h-15.4z" opacity=".4"/><path fill="#64ffda" d="M221.83 192.05h15.4v73h-15.4z" opacity=".3"/><circle cx="347.94" cy="228.09" r="37.16" fill="#fb8e62"/><path fill="#fff" d="M6.79 10.25H404.2v142.46H6.79z"/><path fill="#64ffda" d="M39.41 44.05h15.4v73h-15.4z"/><path fill="#64ffda" d="M69.81 44.05h15.4v73h-15.4z" opacity=".7"/><path fill="#64ffda" d="M100.22 44.05h15.4v73h-15.4z" opacity=".6"/><path fill="#64ffda" d="M130.62 44.05h15.4v73h-15.4zm30.4 0h15.4v73h-15.4z" opacity=".5"/><path fill="#64ffda" d="M191.42 44.05h15.4v73h-15.4z" opacity=".4"/><path fill="#64ffda" d="M221.83 44.05h15.4v73h-15.4z" opacity=".3"/><circle cx="347.94" cy="80.08" r="40.06" fill="url(#b)"/><circle cx="347.94" cy="229.08" r="40.06" fill="url(#c)"/><circle cx="347.94" cy="377.08" r="40.06" fill="url(#d)"/><circle cx="347.94" cy="80.08" r="37.16" fill="#fb8e62"/><g opacity=".7" fill="none" stroke="#fb8e62" stroke-linecap="round" stroke-linejoin="round" stroke-width="4"><path d="M461 158.67h6"/><path stroke-dasharray="12.52 33.38" d="M500.38 158.67h166.93"/><path d="M684 158.67h6v6"/><path stroke-dasharray="11.93 31.8" d="M690 196.48v115.29"/><path d="M690 327.67v6"/></g><g opacity=".7" fill="none" stroke="#fb8e62" stroke-linecap="round" stroke-linejoin="round" stroke-width="4"><path d="M367.58 611.67l-6-.03"/><path stroke-dasharray="12.52 33.38" d="M328.2 611.48l-166.92-.8"/><path d="M144.58 610.61l-6-.03.04-6"/><path stroke-dasharray="11.55 30.79" d="M138.82 573.79l.46-69.27"/><path d="M139.38 489.12l.04-6"/></g><path d="M721.21 630.46s11.92 80.48 82.27 107.31h-285c70.35-26.83 82.27-107.31 82.27-107.31z" fill="#e0e0e0"/><path fill="url(#e)" d="M517.09 737.77h287.65v17H517.09z"/><path fill="#f5f5f5" d="M518.52 737.77h284.96v13.12H518.52z"/><path d="M1041.25 417h-462.5A10.75 10.75 0 00568 427.75v291.39A12.86 12.86 0 00580.86 732h458.28a12.86 12.86 0 0012.86-12.86V427.75a10.75 10.75 0 00-10.75-10.75z" transform="translate(-148 -72.62)" fill="url(#f)"/><path d="M436.57 348.78h448.86a10.75 10.75 0 0110.75 10.75V609H425.82V359.54a10.75 10.75 0 0110.75-10.76z" fill="#fff"/><path d="M883.32 651.92H438.68a12.86 12.86 0 01-12.86-12.86V609h470.36v30.06a12.86 12.86 0 01-12.86 12.86z" fill="#f5f5f5"/><path fill="#fb8e62" d="M449.07 369.86h425.65v210.06H449.07z"/><path fill="#fff" opacity=".2" d="M465.91 383.8h409.08v-14.01H449.34v210.06h16.57V383.8z"/></svg>