<svg data-name="Layer 1" xmlns="http://www.w3.org/2000/svg" width="907" height="671.95" viewBox="0 0 907 671.95"><circle cx="698.89" cy="78.11" r="78.11" fill="#ff5252"/><path fill="#fb8e62" d="M133.5 131.95h641v503h-641z"/><path opacity=".1" d="M133.5 131.95h641v503h-641z"/><path fill="#464353" d="M0 200.95h907v437H0z"/><path fill="#fb8e62" d="M189 79.95h530v592H189zm-152 180h112v72H37zm0 122h112v72H37zm0 122h112v72H37z"/><path fill="#464353" d="M257 137.95h112v72H257zm0 122h112v72H257zm0 122h112v72H257zm394-172H539v-72h112zm0 122H539v-72h112zm0 122H539v-72h112z"/><path fill="#fb8e62" d="M750 259.95h112v72H750zm0 122h112v72H750zm0 122h112v72H750z"/><path fill="#464353" d="M405 479.95h98v192h-98z"/><path opacity=".1" d="M257 137.95h112v22H257zm282 0h112v22H539zm0 122h112v22H539zm0 122h112v22H539zm-282-122h112v22H257zm0 122h112v22H257zm-220-122h112v17H37zm0 122h112v17H37zm0 122h112v17H37zm713-244h112v17H750zm0 122h112v17H750zm0 122h112v17H750z"/></svg>